<svg id="Layer_1" height="512" viewBox="0 0 512 512" width="512" xmlns="http://www.w3.org/2000/svg" data-name="Layer 1"><path d="m173.8 293.067a101.014 101.014 0 0 0 -100.9 100.9v98.571a6 6 0 0 0 6 6h73.711a5.918 5.918 0 0 0 2.312 0h278.177a6 6 0 0 0 6-6v-98.571a101.014 101.014 0 0 0 -100.9-100.9h-20.049v-22.994a99.033 99.033 0 0 0 36.606-66.079c.045-.385.076-.776.114-1.163 1.658-1.175 2.968-1.979 4.158-2.709a24.7 24.7 0 0 0 7.913-6.837c9.186-12.035 12.121-33.737 1.989-42.639a15.839 15.839 0 0 0 -5.331-3.046v-69.261a65.064 65.064 0 0 0 -64.99-64.991h-87.547a65.065 65.065 0 0 0 -64.99 64.991v70.288a14.2 14.2 0 0 0 -3.025 1.889c-4.07 3.342-6.268 8.991-6.356 16.337a48.508 48.508 0 0 0 2.96 16.738c3.71 10.028 10.162 15.7 15.854 20.7q1.023.9 2.03 1.8a99.047 99.047 0 0 0 35.621 63.4v23.571zm76.2 193.471h-90.228v-68.48a6 6 0 0 0 -12 0v68.48h-62.867v-92.571a89 89 0 0 1 88.9-88.9h19.353v8.033a6 6 0 0 0 3.593 5.5l27.839 12.2a77.706 77.706 0 0 0 25.41 6.272zm88.2-181.471a89 89 0 0 1 88.9 88.9v92.571h-63.266v-68.48a6 6 0 0 0 -12 0v68.48h-89.834v-149.494a77.71 77.71 0 0 0 25.378-6.4l27.205-12.065a6 6 0 0 0 3.568-5.485v-8.031zm-8.583-100.213a96.08 96.08 0 0 0 -4.415-25.532 22.881 22.881 0 0 0 -1.831-4.343 90.055 90.055 0 0 1 15.945-11.136l3.194 22.572a68.19 68.19 0 0 1 .7 10.246 106.623 106.623 0 0 0 -13.6 13.359c.038-1.727.053-3.45.003-5.166zm-14.527-38.574a22.944 22.944 0 0 0 -4.2-2.033 160.329 160.329 0 0 0 -67.3-9.549 178.71 178.71 0 0 0 -44.891 8.823 22.946 22.946 0 0 0 -5.446 2.676 105.931 105.931 0 0 0 -19.037-13.143l8.318-58.782a36.839 36.839 0 0 1 34.828-32.172 73.911 73.911 0 0 0 73.093 2.1l3.965-2.111a36.867 36.867 0 0 1 35.059 32.283l8.064 56.978a98.315 98.315 0 0 0 -22.453 14.93zm-1.72 68.329a7.886 7.886 0 0 1 -5.36 5.291 179.633 179.633 0 0 1 -52.68 7.617h-.159a208.482 208.482 0 0 1 -57.96-8.265 2.183 2.183 0 0 1 -1.232-.959c-.067-.137-.136-.272-.2-.409a2.187 2.187 0 0 1 -.13-.44 206.278 206.278 0 0 1 -1.959-36.681c.2-5.534.632-11.13 1.282-16.635a11.153 11.153 0 0 1 7.528-9.228 166.8 166.8 0 0 1 41.876-8.232c3.7-.242 7.269-.353 10.7-.353a147.632 147.632 0 0 1 51.732 9.212 11.22 11.22 0 0 1 6.9 7.263 84.507 84.507 0 0 1 3.906 22.412 91.3 91.3 0 0 1 -4.244 29.407zm47.641-74.947c3.715 3.263 3.345 17.233-3.608 26.341a10.953 10.953 0 0 1 -2.57 2.561c-.121-1.269-.263-2.544-.445-3.831l-3.611-25.51c5.043-1.26 8.667-.938 10.234.439zm-203.4 25.071c-.217 1.538-.386 3.062-.517 4.575a29.271 29.271 0 0 1 -6.188-9.88c-3.118-8.429-2.684-17.635-.244-19.637 1.4-1.149 5.051-1.253 10.4.536zm.461-37.373v-69.021a53.051 53.051 0 0 1 52.99-52.991h87.545a53.051 53.051 0 0 1 52.993 52.991v68.521c-.819.125-1.657.29-2.5.475l-7.721-54.551a48.853 48.853 0 0 0 -48.4-42.726h-1.5l-6.661 3.547a61.892 61.892 0 0 1 -62.543-2.592l-1.483-.955h-1.765a48.827 48.827 0 0 0 -48.386 42.63l-7.88 55.681a38.16 38.16 0 0 0 -4.688-1.009zm11.421 39.055 2.92-20.637a101.1 101.1 0 0 1 12.9 9.412 22.9 22.9 0 0 0 -2.26 7.532c-.688 5.826-1.145 11.75-1.357 17.608q-.261 7.218-.038 14.476a124.042 124.042 0 0 0 -12.7-14.463 65.473 65.473 0 0 1 .536-13.928zm6.248 40.765a138.255 138.255 0 0 1 9.045 15.558 14.067 14.067 0 0 0 .722 1.449l.018.035.023.039a86.875 86.875 0 0 1 -9.807-17.081zm18.124 23.6a220.435 220.435 0 0 0 61.295 8.741h.17a191.162 191.162 0 0 0 56.054-8.1 19.849 19.849 0 0 0 12.676-11.176l.014.007a102.849 102.849 0 0 1 16.067-24.038 87.455 87.455 0 0 1 -152.321 31 14.171 14.171 0 0 0 6.046 3.563zm62.135 41.093a99.16 99.16 0 0 0 50.151-13.573v30.9l-23.638 10.483a65.981 65.981 0 0 1 -53.108.12l-24.248-10.622v-31.281a99.131 99.131 0 0 0 50.843 13.973z"/><path d="m301.209 180.959a248.193 248.193 0 0 0 -92.647 0 6 6 0 1 0 2.24 11.789 236.2 236.2 0 0 1 88.167 0 6 6 0 0 0 2.24-11.789z"/><path d="m300.089 202.9h-90.407a6 6 0 0 0 0 12h90.407a6 6 0 0 0 0-12z"/><path d="m298.663 224.152a184.481 184.481 0 0 1 -42.746 5.276 183.522 183.522 0 0 1 -44.809-5.276 6 6 0 0 0 -2.852 11.657 196.4 196.4 0 0 0 46.631 5.622h1.1a196.523 196.523 0 0 0 45.53-5.619 6 6 0 0 0 -2.852-11.657z"/><path d="m299.735 391.917h-16.115a6 6 0 0 0 0 12h16.115a6 6 0 0 0 0-12z"/><path d="m299.735 437.265h-16.115a6 6 0 0 0 0 12h16.115a6 6 0 0 0 0-12z"/></svg>