<svg id="Layer_1" height="512" viewBox="0 0 512 512" width="512" xmlns="http://www.w3.org/2000/svg" data-name="Layer 1"><path d="m438.248 293.352c-3.962-20.244-11.891-39.439-19.558-58-3.623-8.769-7.353-17.826-10.589-26.81a26.945 26.945 0 0 0 -10.89-21.38l-12.053-8.926 10.262-9.463a17.681 17.681 0 0 0 5-17.834 191.95 191.95 0 0 0 -14.556-35.786l-18.686-34.96 4.058-2.092a6 6 0 0 0 2.572-2.559 44.812 44.812 0 0 0 -40.75-65.529l-123.622 2.877c-43 1-82.295 22.854-105.111 58.456-.97 1.513-1.925 3.07-2.838 4.627-21.56 36.753-20.278 72.8-17.543 91.188l2.767 45.214c3.1 50.681 24.473 100.067 58.851 136.4-.093.209-.187.418-.267.633a50.834 50.834 0 0 0 -10.444 58.832 584.989 584.989 0 0 0 -60.651 70.451 11.386 11.386 0 0 0 9 18.1l302.978 5.209h.2a11.39 11.39 0 0 0 8.8-18.609c-17.414-21.284-47.216-43.127-80.014-63.125l-1.864-39.056c2.626.9 5.6 2.147 8.658 3.436 8.873 3.739 19.322 8.142 30.277 8.141a36.6 36.6 0 0 0 12.5-2.134 172.739 172.739 0 0 0 49.17-27.426l3.788-3.863c10.441-10.646 27.907-28.464 20.555-66.012zm-49.348-139.038a5.6 5.6 0 0 1 -1.617 5.635l-15.592 14.381a6 6 0 0 0 .5 9.232l17.878 13.238a14.946 14.946 0 0 1 5.784 9.222l-47.117 23.578-69.263-9.97 5.553-64.035a71.294 71.294 0 0 1 37.707-52.49l33.777-17.412zm-175.5 152.659a292.571 292.571 0 0 0 83.5 29.494l-3.119 8.521a22.133 22.133 0 0 0 .767 16.962l6.48 13.716 1.775 37.226c-59.083-34.5-123.893-62.279-142.464-70.018-.043-.018-.088-.029-.131-.047l3.694-61.272c.652-9.08 1.762-18.152 3.3-27.151 8.67 17.196 22.321 39.984 46.198 52.569zm-42.231-71.773c.426-1.748.857-3.494 1.316-5.232a28.178 28.178 0 0 1 38.45-18.67l55.939 18.291a73.42 73.42 0 0 1 -10.816 34.583c-11.974 19.326-30.012 27.76-39.251 30.982-23.168-13.309-35.043-37.993-42.983-54.5-.924-1.926-1.812-3.769-2.655-5.454zm59.6 67.066a86.344 86.344 0 0 0 35.486-31.773 85.347 85.347 0 0 0 12.512-38.836l65.353 9.407a97.482 97.482 0 0 1 -40.535 84.492c-16.643-3.237-40.754-8.023-72.812-23.295zm-132.08-90.624-2.783-45.477c-.011-.177-.03-.353-.056-.529-2.526-16.735-3.808-49.848 15.988-83.592.833-1.421 1.7-2.841 2.59-4.222 20.66-32.239 56.281-52.028 95.287-52.935l123.622-2.877c.266-.007.528-.01.793-.01a32.815 32.815 0 0 1 29.841 46.346l-46.736 24.092a83.32 83.32 0 0 0 -44.103 61.562c-.019.123-.033.246-.044.37l-5.474 63.112-51.9-17.2a40.177 40.177 0 0 0 -54.83 26.618 293.4 293.4 0 0 0 -8.959 53.866l-3.233 53.609a208.585 208.585 0 0 1 -50.003-122.733zm-14.1 273.167a573.422 573.422 0 0 1 59.634-68.952c15.356 3.771 92.552 24.675 133.24 72.269zm300.464 5.168-92.066-1.583c-18.857-25.813-49.327-47.853-90.625-65.542a362.716 362.716 0 0 0 -56.219-18.884 38.921 38.921 0 0 1 7.872-46.3l.756-.718a5.991 5.991 0 0 0 1.64-2.712c31.311 13.082 179.557 77.085 228.642 135.739zm24.077-139.012c-1.071 1.094-2.09 2.133-3.04 3.151a160.81 160.81 0 0 1 -45.409 25.246c-10.979 3.95-23.242-1.216-34.062-5.775-5.828-2.455-11.028-4.643-15.866-5.423l-5.359-11.341a10.053 10.053 0 0 1 -.348-7.709l4.885-13.344a110.053 110.053 0 0 0 34.645-40.258l78.6 37.131c-3.854 7.915-9.359 13.539-14.046 18.322zm17.87-29.789-77.62-36.669a110.315 110.315 0 0 0 6.664-45.144l42.754-21.392c2.811 7.426 5.844 14.789 8.807 21.961 7.443 18.02 15.139 36.653 18.871 55.724 1.992 10.207 1.892 18.549.524 25.52z"/></svg>