<?xml version="1.0" encoding="utf-8"?>
<!-- Generator: Adobe Illustrator 23.1.0, SVG Export Plug-In . SVG Version: 6.00 Build 0)  -->
<svg version="1.1" id="Capa_1" xmlns="http://www.w3.org/2000/svg" xmlns:xlink="http://www.w3.org/1999/xlink" x="0px" y="0px"
	 viewBox="0 0 38 38" enable-background="new 0 0 38 38" xml:space="preserve">
<path id="shock_x5F_color" fill="#B1C4CA" d="M13,22c0-2.1,2.3-6,6-6c3.7,0,6,3.9,6,6c0,2.4-3.9,4-6,4C16.9,26,13,24.4,13,22z
	 M36,36.9c0-0.1-0.1-1.3-0.5-2.7c-0.1-0.4-0.3-0.9-0.5-1.3c0,0,0,0,0,0c0,0,0,0,0-0.1c-0.5-1.2-1.2-2.3-2.4-3.1
	c-0.8-0.5-2-1.1-3.2-1.6l-0.6-0.3c-0.4-0.2-0.8-0.4-1.2-0.6c-0.4-0.2-0.8-0.4-1.1-0.5c-0.5,0.5-7.5,7.7-7.5,7.7c0,0-7.4-7.7-7.4-7.7
	c-0.4,0.2-0.8,0.4-1.2,0.6c-0.4,0.2-0.8,0.4-1.2,0.6c-0.3,0.1-0.6,0.3-0.9,0.4c-1.2,0.5-2.3,1-3,1.5c-2.7,2.1-3.2,6.9-3.2,7.2
	L1.9,38h9.6H19h7.6h8.3h1.2L36,36.9z"/>
<path opacity="0.8" fill="#231F20" d="M36,36.9c0-0.2-0.3-5.1-3.4-7.2c-0.8-0.5-2-1.1-3.2-1.6l-0.6-0.3c-0.4-0.2-0.8-0.4-1.2-0.6
	c-0.4-0.2-0.8-0.4-1.2-0.6c-2.2-1-2.4-2-2.4-2.2c2.4-1.6,4-4.4,4-7.5l0-12.5l-1.2,0.3c0,0-1.2,0.3-2.6,0.3c-0.8,0-1.9-0.3-2.8-0.5
	c-0.4-0.1-0.8-0.2-1.2-0.3C19.7,4.1,18.6,4,18,4c-2.5,0.1-3.6,1.8-3.7,1.9L16,7c0,0,0.6-0.9,2.1-1c0.4,0,1.4,0.1,1.8,0.2
	c0.3,0.1,0.6,0.1,1,0.2c1,0.3,2.2,0.6,3.3,0.6c0.7,0,1.3,0,1.8-0.1v7.9c-0.2,0.5-1.2,2.4-3,2.9c-0.8-0.8-1.8-1.4-3-1.6V13h-2v3.1
	c-1.1,0.2-2.1,0.8-2.9,1.6c-1.7-0.6-2.8-2.3-3.1-2.9V6.1C12.2,5.5,13.6,2,18,2c1.5,0,2.9,0.3,4.1,0.6c1,0.2,2,0.4,2.9,0.4
	c0.8,0,2.1-0.3,3-0.5V0.4C27.1,0.6,25.6,1,25,1c-0.7,0-1.5-0.2-2.5-0.4C21.2,0.3,19.7,0,18,0c-5.1,0-7.4,3.8-8,5.7L10,17
	c0,3.1,1.6,5.9,4,7.5c0,0.2-0.2,1.3-2.4,2.2c-0.4,0.2-0.8,0.4-1.2,0.6c-0.4,0.2-0.8,0.4-1.2,0.6c-0.3,0.1-0.6,0.3-0.9,0.4
	c-1.2,0.5-2.3,1-3,1.5c-2.7,2.1-3.2,6.9-3.2,7.2L1.9,38H19h17.1L36,36.9z M25.9,18.3c-0.2,0.9-0.5,1.8-1,2.5c-0.1-0.5-0.3-1-0.6-1.5
	C24.9,19.1,25.4,18.8,25.9,18.3z M19,18c2.4,0,4,2.8,4,4c0,0.7-2.2,1.8-3.7,2c-0.1,0-0.2,0-0.3,0s-0.2,0-0.3,0
	c-1.5-0.1-3.7-1.3-3.7-2C15,20.8,16.6,18,19,18z M12.1,18.1c0.5,0.5,1.1,0.9,1.8,1.2c-0.3,0.5-0.5,1.1-0.7,1.6
	C12.6,20.1,12.3,19.1,12.1,18.1z M20,36v-4.8l1.6-3.2h-5.2l1.6,3.2V36H4.2c0.3-1.5,1-3.6,2.3-4.7C7,30.9,8,30.5,9,30.1
	c0.3-0.1,0.6-0.3,0.9-0.4c0.5-0.2,0.9-0.4,1.3-0.6c0.4-0.2,0.8-0.4,1.2-0.5c2.3-1,3.2-2.2,3.5-3.1c0.9,0.3,1.8,0.5,2.7,0.6
	c0.2,0,0.3,0,0.4,0c0.1,0,0.3,0,0.4,0c1,0,1.9-0.2,2.7-0.6c0.3,0.9,1.2,2.1,3.5,3.1c0.4,0.2,0.8,0.3,1.1,0.5
	c0.4,0.2,0.8,0.4,1.3,0.6l0.6,0.3c1,0.5,2.2,1,2.8,1.4c1.5,1.1,2.1,3.3,2.4,4.6H20z M23,14.1c-0.6,0-1.1-0.4-1.1-1.6
	c0-1.3,0.5-1.6,1.1-1.6s1.1,0.4,1.1,1.6C24.1,13.8,23.6,14.1,23,14.1z M13.9,12.5c0-1.3,0.5-1.6,1.1-1.6s1.1,0.4,1.1,1.6
	c0,1.3-0.5,1.6-1.1,1.6S13.9,13.8,13.9,12.5z"/>
</svg>
