<?xml version="1.0" encoding="utf-8"?>
<!-- Generator: Adobe Illustrator 23.1.0, SVG Export Plug-In . SVG Version: 6.00 Build 0)  -->
<svg version="1.1" id="Capa_1" xmlns="http://www.w3.org/2000/svg" xmlns:xlink="http://www.w3.org/1999/xlink" x="0px" y="0px"
	 viewBox="0 0 38 38" enable-background="new 0 0 38 38" xml:space="preserve">
<path id="shock_x5F_color" fill="#FF8787" d="M36,14v16.1c0,1.6-1.3,3.9-3.8,3.9H6V14H36z"/>
<path opacity="0.8" fill="#231F20" d="M32,10h-5v2h5c1.1,0,2,0.9,2,2V30c0,1.1-0.9,2-2,2H6c-1.1,0-2-0.9-2-2V14c0-1.1,0.9-2,2-2h19
	l0-5c0-1.7-1.4-3-3-3H16c-1.7,0-3,1.4-3,3v3H6c-2.2,0-4,1.8-4,4V30c0,2.2,1.8,4,4,4H32c2.2,0,4-1.8,4-4V14C36,11.8,34.2,10,32,10z
	 M15,7c0-0.6,0.5-1,1-1H22c0.6,0,1,0.5,1,1v3h-8V7z M18,28v-4h-4v-2h4v-4h2v4h4v2h-4v4H18z"/>
</svg>
