<?xml version="1.0" encoding="utf-8"?>
<!-- Generator: Adobe Illustrator 23.1.0, SVG Export Plug-In . SVG Version: 6.00 Build 0)  -->
<svg version="1.1" id="Capa_1" xmlns="http://www.w3.org/2000/svg" xmlns:xlink="http://www.w3.org/1999/xlink" x="0px" y="0px"
	 viewBox="0 0 38 38" enable-background="new 0 0 38 38" xml:space="preserve">
<path id="shock_x5F_color" fill="#FF8787" d="M24,10h-3.2l-1-4h-4.6l-1,4H6v15h18V10z"/>
<path opacity="0.8" fill="#231F20" d="M14,14v3h3v2h-3v3h-2v-3H9v-2h3v-3H14z M36,29h-3.1c-0.4,1.7-2,3-3.9,3s-3.4-1.3-3.9-3H24h-1
	h-9.1c-0.4,1.7-2,3-3.9,3s-3.4-1.3-3.9-3H2v-2h4.1c0.4-1.7,2-3,3.9-3s3.4,1.3,3.9,3H22V12H4v13H2V10h12.2l1-4h4.6l1,4H24v2h5.8l2,7
	H32c2.2,0,4,1.8,4,4V29z M16.3,10h2.4l-0.5-2h-1.4L16.3,10z M12,28c0-1.1-0.9-2-2-2s-2,0.9-2,2s0.9,2,2,2S12,29.1,12,28z M24,14v5
	h5.7l-1.4-5H24z M31,28c0-1.1-0.9-2-2-2s-2,0.9-2,2s0.9,2,2,2S31,29.1,31,28z M34,23c0-1.1-0.9-2-2-2h-8v6h1.1c0.4-1.7,2-3,3.9-3
	s3.4,1.3,3.9,3H34V23z"/>
</svg>
