<?xml version="1.0" encoding="utf-8"?>
<!-- Generator: Adobe Illustrator 23.1.0, SVG Export Plug-In . SVG Version: 6.00 Build 0)  -->
<svg version="1.1" id="Capa_1" xmlns="http://www.w3.org/2000/svg" xmlns:xlink="http://www.w3.org/1999/xlink" x="0px" y="0px"
	 viewBox="0 0 38 38" enable-background="new 0 0 38 38" xml:space="preserve">
<path id="shock_x5F_color" fill="#FF8787" d="M29,8h-6V2h6V8z M34.2,10H8.5l-2.3,4h30.7L34.2,10z"/>
<path opacity="0.8" fill="#231F20" d="M34,14h2.9l-5.3-8H29V2h-6v4H6.5l-5.3,8H32v20h-3.8c-1.3-1.9-3.5-2.4-4.8-2.7
	c-0.3-0.1-0.6-0.1-0.7-0.2c-0.7-0.3-0.7-1.6-0.6-2l0-0.2c1.2-0.9,2-2.3,2-3.9v-4c0-2.8-2.2-5-5-5c-2,0-2.9,0.8-3.6,1.3
	C14.9,17.8,14.7,18,14,18v2c1.4,0,2.1-0.6,2.7-1.1c0.6-0.5,1-0.9,2.3-0.9c1.7,0,3,1.3,3,3v4c0,1.7-1.3,3-3,3s-3-1.3-3-3v-3h-2v3
	c0,1.6,0.8,3,2,3.9l0,0.2c0,0.3,0,1.7-0.7,2c-0.1,0.1-0.4,0.1-0.7,0.2c-1.3,0.3-3.4,0.8-4.8,2.7H6V16H4v20h6.8l0.1,0c0,0,0,0,0,0H27
	c0,0,0,0,0,0l0.1,0H34V14z M25,4h2v2h-2V4z M7.5,8h22.9l2.7,4H4.9L7.5,8z M15,33.2c0.4-0.1,0.8-0.2,1-0.3c1.3-0.6,1.8-2,1.9-3.1
	C18.3,30,18.6,30,19,30c0.4,0,0.7,0,1-0.1c0.1,1.1,0.5,2.5,1.9,3.1c0.3,0.1,0.6,0.2,1.1,0.3c0.7,0.2,1.5,0.4,2.3,0.8H12.7
	C13.5,33.6,14.3,33.4,15,33.2z"/>
</svg>
