<?xml version="1.0" encoding="utf-8"?>
<!-- Generator: Adobe Illustrator 23.1.0, SVG Export Plug-In . SVG Version: 6.00 Build 0)  -->
<svg version="1.1" id="Capa_1" xmlns="http://www.w3.org/2000/svg" xmlns:xlink="http://www.w3.org/1999/xlink" x="0px" y="0px"
	 viewBox="0 0 38 38" enable-background="new 0 0 38 38" xml:space="preserve">
<path id="shock_x5F_color" fill="#FF8787" d="M9,34c-3.9,0-7-3.1-7-7c0-0.6,0.1-1.2,0.2-1.8l4.1-12.4c0.5-1.4,1.5-2.5,2.7-3.2V34z
	 M29,34c3.9,0,7-3.1,7-7c0-0.6-0.1-1.2-0.2-1.8l-4.1-12.4c-0.5-1.4-1.5-2.5-2.7-3.2V34z"/>
<path opacity="0.8" fill="#231F20" d="M36,27c0,3.9-3.1,7-7,7s-7-3.1-7-7v-5h2v5c0,2.8,2.2,5,5,5s5-2.2,5-5c0-0.4-0.1-0.8-0.2-1.3
	l-4-12.3C29.3,12,28,11,26.5,11c-2.1,0-2.5,1.9-2.5,3.5V20h-2c-1.2,0-2.3-0.5-3-1.4c-0.7,0.8-1.8,1.4-3,1.4h-2v-5.5
	c0-1.6-0.4-3.5-2.5-3.5c-1.5,0-2.8,1-3.3,2.4l-4,12.4C4.1,26.2,4,26.6,4,27c0,2.8,2.2,5,5,5s5-2.2,5-5v-5h2v5c0,3.9-3.1,7-7,7
	s-7-3.1-7-7c0-0.6,0.1-1.2,0.2-1.8l4.1-12.4C7,10.5,9.1,9,11.5,9c2.8,0,4.5,2.1,4.5,5.5V18c1.1,0,2-0.9,2-2V4h2v12c0,1.1,0.9,2,2,2
	v-3.5c0-3.4,1.7-5.5,4.5-5.5c2.4,0,4.5,1.5,5.2,3.8l4,12.4C35.9,25.8,36,26.4,36,27z"/>
</svg>
