<?xml version="1.0" encoding="utf-8"?>
<!-- Generator: Adobe Illustrator 23.1.0, SVG Export Plug-In . SVG Version: 6.00 Build 0)  -->
<svg version="1.1" id="Capa_1" xmlns="http://www.w3.org/2000/svg" xmlns:xlink="http://www.w3.org/1999/xlink" x="0px" y="0px"
	 viewBox="0 0 38 38" enable-background="new 0 0 38 38" xml:space="preserve">
<path fill="#FF8787" d="M19,2C9.6,2,2,9.6,2,19s7.6,17,17,17s17-7.6,17-17S28.4,2,19,2z M19,32c-7.2,0-13-5.8-13-13
	c0-7.2,5.8-13,13-13c7.2,0,13,5.8,13,13C32,26.2,26.2,32,19,32z"/>
<path id="shock_x5F_color" fill="#7DD47F" d="M19,13c-3.3,0-6,2.7-6,6c0,3.3,2.7,6,6,6c3.3,0,6-2.7,6-6C25,15.7,22.3,13,19,13z
	 M19,21c-1.1,0-2-0.9-2-2c0-1.1,0.9-2,2-2s2,0.9,2,2C21,20.1,20.1,21,19,21z"/>
<path opacity="0.8" fill="#231F20" d="M28,17c1.1,0,2-0.9,2-2s-0.9-2-2-2c-1,0-1.9,0.8-2,1.8l-2,0.9c-0.4-0.7-1-1.2-1.7-1.7l0.9-2
	c1-0.1,1.8-0.9,1.8-2c0-1.1-0.9-2-2-2s-2,0.9-2,2c0,0.4,0.1,0.8,0.4,1.2l-0.9,2C20,13.1,19.5,13,19,13c-0.5,0-1,0.1-1.5,0.2l-0.9-2
	c0.2-0.3,0.4-0.7,0.4-1.2c0-1.1-0.9-2-2-2s-2,0.9-2,2c0,1,0.8,1.9,1.8,2l0.9,2c-0.7,0.4-1.2,1-1.7,1.7l-2-0.9c-0.1-1-0.9-1.8-2-1.8
	c-1.1,0-2,0.9-2,2s0.9,2,2,2c0.4,0,0.8-0.1,1.2-0.4l2,0.9C13.1,18,13,18.5,13,19c0,0.5,0.1,1,0.2,1.5l-2,0.9
	C10.8,21.1,10.4,21,10,21c-1.1,0-2,0.9-2,2s0.9,2,2,2c1,0,1.9-0.8,2-1.8l2-0.9c0.4,0.7,1,1.2,1.7,1.7l-0.9,2c-1,0.1-1.8,0.9-1.8,2
	c0,1.1,0.9,2,2,2s2-0.9,2-2c0-0.4-0.1-0.8-0.4-1.2l0.9-2c0.5,0.1,1,0.2,1.5,0.2c0.5,0,1-0.1,1.5-0.2l0.9,2C21.1,27.2,21,27.6,21,28
	c0,1.1,0.9,2,2,2s2-0.9,2-2c0-1-0.8-1.9-1.8-2l-0.9-2c0.7-0.4,1.2-1,1.7-1.7l2,0.9c0.1,1,0.9,1.8,2,1.8c1.1,0,2-0.9,2-2s-0.9-2-2-2
	c-0.4,0-0.8,0.1-1.2,0.4l-2-0.9c0.1-0.5,0.2-1,0.2-1.5s-0.1-1-0.2-1.5l2-0.9C27.2,16.9,27.6,17,28,17z M15,19c0-2.2,1.8-4,4-4
	c2.2,0,4,1.8,4,4c0,2.2-1.8,4-4,4C16.8,23,15,21.2,15,19z M36,19c0,9.4-7.6,17-17,17S2,28.4,2,19S9.6,2,19,2c4.6,0,8.7,1.8,11.8,4.8
	l-1.4,1.4C26.7,5.6,23,4,19,4C10.7,4,4,10.7,4,19c0,8.3,6.7,15,15,15c8.3,0,15-6.7,15-15c0-3.5-1.2-6.8-3.3-9.3l1.4-1.4
	C34.6,11.2,36,14.9,36,19z"/>
</svg>
