<svg xmlns="http://www.w3.org/2000/svg" viewBox="0 0 445 300"><rect width="445" height="300" fill="#f2f2f2"/><circle cx="177.76" cy="213.13" r="9.52" fill="#fff" stroke="#333" stroke-linecap="round" stroke-linejoin="round"/><path d="M237.54,85.74c19.53-18.86,50-6.53,52.65,14.12,2.62,20.39-10.09,31.69-39.41,62.65-17.71,18.7-15,37.87-13.26,48.78,2.6,16.57-10.36,15.07-12.94,5.78,3.26,15.83-12.29,15.65-14.61,5,1.51,8.58-11.22,11.08-13.79-.47-.41-2.23-.77-4.36-1.06-6.48h0c.39,14.2-12,12.3-14,1.78-3-16.14-8.62-42.45,8.63-71.24C209.87,112,217.83,104.79,237.54,85.74Z" fill="#f5afb3"/><path d="M224.58,217.07c2.58,9.29,15.54,10.79,12.94-5.78-1.72-10.91-4.45-30.08,13.26-48.78,29.32-31,42-42.26,39.41-62.65-2.64-20.65-33.12-33-52.65-14.12-19.71,19.05-27.67,26.25-47.82,59.9-17.25,28.79-11.66,55.1-8.63,71.24,2,10.52,14.39,12.42,14-1.78" fill="none" stroke="#333" stroke-linecap="round" stroke-linejoin="round"/><path d="M196.18,221.58c-.41-2.23-.77-4.36-1.06-6.48a145.48,145.48,0,0,1-1.39-20.29" fill="none" stroke="#333" stroke-linecap="round" stroke-linejoin="round"/><path d="M210,222.05a196.18,196.18,0,0,1-2.76-28.52" fill="none" stroke="#333" stroke-linecap="round" stroke-linejoin="round"/><path d="M224.58,217.07c-2.31-9.13-2.64-16.29-3-23.13" fill="none" stroke="#333" stroke-linecap="round" stroke-linejoin="round"/><path d="M196.18,221.58c2.57,11.55,15.3,9,13.79.47,2.32,10.67,17.87,10.85,14.61-5" fill="none" stroke="#333" stroke-linecap="round" stroke-linejoin="round"/><path d="M223.07,198.83,208.65,212.3c-11.45-33.72-21.7-55.14-39.38-70.62l13.78-13.77C201.63,147.21,213.54,172.21,223.07,198.83Z" fill="#d5e4ff"/><path d="M183.05,123.82a2.89,2.89,0,0,1,0,4.09l-13.78,13.77a2.88,2.88,0,0,1-4.05,0l-13.67-13.3a11.62,11.62,0,0,0-8.07-3.27h-31.9a2.89,2.89,0,0,0-2.89,2.89v84.65a2.9,2.9,0,0,1-2.89,2.89H82.35a2.89,2.89,0,0,1-2.89-2.89V94.25a2.89,2.89,0,0,0,3.27,2.86L106.17,94a2.89,2.89,0,0,0,2.52-2.87v7a2.89,2.89,0,0,0,2.89,2.89H148.3a28.91,28.91,0,0,1,20.45,8.47Z" fill="#ccc"/><path d="M155.68,64.17v6a2.9,2.9,0,0,1-2.46,2.86L111.15,79.5a2.9,2.9,0,0,0-2.46,2.86v8.79A2.89,2.89,0,0,1,106.17,94L82.73,97.11a2.89,2.89,0,0,1-3.27-2.86V73.79A2.87,2.87,0,0,1,82,70.93l70.43-9.62A2.89,2.89,0,0,1,155.68,64.17Z" fill="#ccc"/><path d="M79.46,94.25V212.68a2.89,2.89,0,0,0,2.89,2.89H105.8a2.9,2.9,0,0,0,2.89-2.89V128a2.89,2.89,0,0,1,2.89-2.89h31.9a11.62,11.62,0,0,1,8.07,3.27l13.67,13.3a2.88,2.88,0,0,0,4.05,0l13.78-13.77a2.89,2.89,0,0,0,0-4.09l-14.3-14.3a28.91,28.91,0,0,0-20.45-8.47H111.58a2.89,2.89,0,0,1-2.89-2.89v-7" fill="none" stroke="#333" stroke-linecap="round" stroke-linejoin="round"/><path d="M108.69,91.15A2.89,2.89,0,0,1,106.17,94L82.73,97.11a2.89,2.89,0,0,1-3.27-2.86V73.79A2.87,2.87,0,0,1,82,70.93l70.43-9.62a2.89,2.89,0,0,1,3.29,2.86v6a2.9,2.9,0,0,1-2.46,2.86L111.15,79.5a2.9,2.9,0,0,0-2.46,2.86v8.79Z" fill="none" stroke="#333" stroke-linecap="round" stroke-linejoin="round"/><path d="M169.27,141.68c17.68,15.48,27.93,36.9,39.38,70.62l14.42-13.47c-9.53-26.62-21.44-51.62-40-70.92" fill="none" stroke="#333" stroke-linecap="round" stroke-linejoin="round"/><path d="M215.88,198.9a15.66,15.66,0,0,0-7.67,27.36,15.69,15.69,0,0,0,18.54,1.35,15.65,15.65,0,0,0,25.09,18.6c.29-.34.55-.69.8-1.05a15.66,15.66,0,1,0,25.17-17.88,15.65,15.65,0,1,0-9-29.89,15.66,15.66,0,1,0-27.55-14,15.66,15.66,0,1,0-25.42,15.51Z" fill="#fff" stroke="#333" stroke-linecap="round" stroke-linejoin="round"/><path d="M378,144.06c-3,16.94-17.53,25.88-59.13,43.26-24.61,10.29-30.17,29.48-33.16,40.53-4.54,16.77-16.15,9.87-14.67,0-3.61,16.35-18.23,9.6-15.92-1.47-2.2,8.75-15.29,5.74-12.84-6.27.55-2.28,1.12-4.45,1.73-6.58h0c-5.63,13.59-16.57,6.56-14-4.23,4-16.54,10.32-44.64,38.35-65.21,26.05-19.1,38.48-22.74,61.28-31.83C359.43,100.38,382.06,121.23,378,144.06Z" fill="#f5afb3"/><path d="M271,227.85c-1.48,9.87,10.13,16.77,14.67,0,3-11,8.55-30.24,33.16-40.53C360.45,169.94,375,161,378,144.06c4.08-22.83-18.55-43.68-48.37-31.81-22.8,9.09-35.23,12.73-61.28,31.83-28,20.57-34.4,48.67-38.35,65.21-2.58,10.79,8.36,17.82,14,4.23" fill="none" stroke="#333" stroke-linecap="round" stroke-linejoin="round"/><path d="M242.26,220.11c.55-2.28,1.12-4.45,1.73-6.58a152,152,0,0,1,7.26-19.77" fill="none" stroke="#333" stroke-linecap="round" stroke-linejoin="round"/><path d="M255.1,226.38a201.93,201.93,0,0,1,9.45-28.14" fill="none" stroke="#333" stroke-linecap="round" stroke-linejoin="round"/><path d="M271,227.85c1.67-9.61,4.39-16.52,6.91-23.16" fill="none" stroke="#333" stroke-linecap="round" stroke-linejoin="round"/><path d="M242.26,220.11c-2.45,12,10.64,15,12.84,6.27-2.31,11.07,12.31,17.82,15.92,1.47" fill="none" stroke="#333" stroke-linecap="round" stroke-linejoin="round"/><circle cx="294.51" cy="216.1" r="9.52" fill="#fff" stroke="#333" stroke-linecap="round" stroke-linejoin="round"/><circle cx="301.29" cy="242.74" r="9.52" fill="#fff" stroke="#333" stroke-linecap="round" stroke-linejoin="round"/><circle cx="268.84" cy="268.12" r="9.52" fill="#fff" stroke="#333" stroke-linecap="round" stroke-linejoin="round"/><circle cx="224.16" cy="168.66" r="9.52" fill="#fff" stroke="#333" stroke-linecap="round" stroke-linejoin="round"/><circle cx="198.36" cy="242.02" r="9.52" fill="#fff" stroke="#333" stroke-linecap="round" stroke-linejoin="round"/><circle cx="177.76" cy="244.22" r="6.14" fill="#fff" stroke="#333" stroke-linecap="round" stroke-linejoin="round"/><circle cx="233.68" cy="248.16" r="6.14" fill="#fff" stroke="#333" stroke-linecap="round" stroke-linejoin="round"/><circle cx="248.09" cy="182.55" r="6.14" fill="#fff" stroke="#333" stroke-linecap="round" stroke-linejoin="round"/><circle cx="177.76" cy="178.36" r="6.14" fill="#fff" stroke="#333" stroke-linecap="round" stroke-linejoin="round"/><circle cx="207.87" cy="182.09" r="6.14" fill="#fff" stroke="#333" stroke-linecap="round" stroke-linejoin="round"/><circle cx="277.55" cy="276.12" r="6.14" fill="#fff" stroke="#333" stroke-linecap="round" stroke-linejoin="round"/><circle cx="309.46" cy="211.45" r="6.14" fill="#fff" stroke="#333" stroke-linecap="round" stroke-linejoin="round"/><path d="M421.6,23.83a1.57,1.57,0,0,1,0,2.22l-2.66,2.66-.24.2a22.53,22.53,0,0,0-2.19-2.18l.21-.24,2.66-2.66A1.58,1.58,0,0,1,421.6,23.83Z" fill="#abc9ff"/><path d="M418.7,28.91a25,25,0,1,1-20.28-8.37c.52,0,1-.05,1.57-.05s1.05,0,1.57.05a24.86,24.86,0,0,1,14.95,6.19A22.53,22.53,0,0,1,418.7,28.91Zm3.09,16.58A21.8,21.8,0,1,0,400,67.28,21.82,21.82,0,0,0,421.79,45.49Z" fill="#d5e4ff"/><path d="M400,23.69a21.8,21.8,0,1,1-21.8,21.8A21.82,21.82,0,0,1,400,23.69Z" fill="#abc9ff"/><path d="M403.54,14v.17a1,1,0,0,1-1,1,1,1,0,0,0-1,1v4.39c-.52,0-1-.05-1.57-.05s-1.05,0-1.57.05V16.15a1,1,0,0,0-1-1h-.15a1,1,0,0,1-1-1V14a1,1,0,0,1,1-1h5.27A1,1,0,0,1,403.54,14Z" fill="#abc9ff"/><path d="M383.26,26.49l.21.24a25,25,0,0,0-2.19,2.18l-.24-.2-2.65-2.66a1.57,1.57,0,0,1,0-2.22,1.58,1.58,0,0,1,2.22,0Z" fill="#abc9ff"/><path d="M416.72,26.49l2.66-2.66a1.58,1.58,0,0,1,2.22,0,1.57,1.57,0,0,1,0,2.22l-2.66,2.66" fill="none" stroke="#333" stroke-linecap="round" stroke-linejoin="round"/><path d="M401.56,20.49V16.15a1,1,0,0,1,1-1,1,1,0,0,0,1-1V14a1,1,0,0,0-1-1h-5.27a1,1,0,0,0-1,1v.17a1,1,0,0,0,1,1h.15a1,1,0,0,1,1,1v4.34" fill="none" stroke="#333" stroke-linecap="round" stroke-linejoin="round"/><path d="M418.7,28.91a25,25,0,1,1-20.28-8.37c.52,0,1-.05,1.57-.05s1.05,0,1.57.05a24.86,24.86,0,0,1,14.95,6.19A22.53,22.53,0,0,1,418.7,28.91Z" fill="none" stroke="#333" stroke-linecap="round" stroke-linejoin="round"/><path d="M400,67.28a21.8,21.8,0,1,1,21.8-21.79A21.82,21.82,0,0,1,400,67.28Z" fill="none" stroke="#333" stroke-linecap="round" stroke-linejoin="round"/><polyline points="399.99 32.5 399.99 46.49 412.36 46.49" fill="none" stroke="#333" stroke-linecap="round" stroke-linejoin="round"/><path d="M383.26,26.49l-2.65-2.66a1.58,1.58,0,0,0-2.22,0,1.57,1.57,0,0,0,0,2.22L381,28.71" fill="none" stroke="#333" stroke-linecap="round" stroke-linejoin="round"/><path d="M386,90.25h-6.7V88.69l3.07-3.91a8.69,8.69,0,0,0,.87-1.43,2.94,2.94,0,0,0,.28-1.18,2.19,2.19,0,0,0-.27-1.18.81.81,0,0,0-.75-.43,1,1,0,0,0-.86.5,2.62,2.62,0,0,0-.31,1.4h-2.22a4.19,4.19,0,0,1,.43-1.91,3.26,3.26,0,0,1,1.22-1.35,3.34,3.34,0,0,1,1.78-.48,3.2,3.2,0,0,1,2.36.84A3.24,3.24,0,0,1,385.7,82a4.55,4.55,0,0,1-.46,2,11.63,11.63,0,0,1-1.69,2.43l-1.46,2.09H386Z" fill="#333"/><path d="M394,85.55a6.37,6.37,0,0,1-.86,3.61,3,3,0,0,1-4.86,0,6.15,6.15,0,0,1-.89-3.48V83.56A6.33,6.33,0,0,1,388.2,80a3,3,0,0,1,4.89,0,6.19,6.19,0,0,1,.87,3.52Zm-2.22-2.31a6,6,0,0,0-.26-2,.89.89,0,0,0-.83-.67c-.71,0-1.07.82-1.1,2.46v2.83a5.84,5.84,0,0,0,.27,2.05.89.89,0,0,0,.84.67.85.85,0,0,0,.8-.63,5.32,5.32,0,0,0,.28-1.92Z" fill="#333"/><path d="M402.25,88.57c.64,0,1-.41,1-1.25h2.07a3.11,3.11,0,0,1-.85,2.24,2.91,2.91,0,0,1-2.15.85,3.1,3.1,0,0,1-2.5-1,4.57,4.57,0,0,1-.87-3v-.67a4.71,4.71,0,0,1,.85-3,3,3,0,0,1,2.5-1,2.84,2.84,0,0,1,2.2.87A3.48,3.48,0,0,1,405.3,85h-2.07a2.3,2.3,0,0,0-.24-1.1.81.81,0,0,0-.75-.38.91.91,0,0,0-.83.41,3.59,3.59,0,0,0-.26,1.59v.86a6.72,6.72,0,0,0,.1,1.44,1.15,1.15,0,0,0,.33.6A1,1,0,0,0,402.25,88.57Z" fill="#333"/><path d="M410,90.41a3.47,3.47,0,0,1-2.66-1,4.08,4.08,0,0,1-.95-2.9v-.68a4.81,4.81,0,0,1,.87-3.08,3.06,3.06,0,0,1,2.51-1.09,2.88,2.88,0,0,1,2.4,1,4.83,4.83,0,0,1,.82,3v1.08h-4.4a2.26,2.26,0,0,0,.42,1.38,1.39,1.39,0,0,0,1.13.43,2.47,2.47,0,0,0,1.85-.76l.87,1.34a2.83,2.83,0,0,1-1.18.91A4.11,4.11,0,0,1,410,90.41Zm-1.39-5.19h2.21V85a2.42,2.42,0,0,0-.25-1.15.88.88,0,0,0-.81-.39.92.92,0,0,0-.84.41A2.79,2.79,0,0,0,408.58,85.22Z" fill="#333"/><path d="M417.15,87.15h-.58v3.1h-2.2V81.8h2.2V85h.55l1.28-3.17h2.77l-2.23,3.9,2.4,4.55h-2.93Z" fill="#333"/><path d="M91,208.46v27.19a4,4,0,0,1-4,4H38a4,4,0,0,1-4-4V208.46Z" fill="#fff"/><rect x="34" y="169.95" width="57.02" height="38.51" fill="#fddda6"/><path d="M91,155.76V170H34V155.76a17,17,0,0,1,17-17H74A17,17,0,0,1,91,155.76Z" fill="#fff"/><path d="M87.06,108.88v2.85a1.68,1.68,0,0,1-2.14,1.61l-13.1-3.8a4.18,4.18,0,0,0-1.17-.16H52.88a1.68,1.68,0,0,1-1.68-1.68v-3A1.68,1.68,0,0,1,52.88,103h16.6a12.49,12.49,0,0,1,3.5.5l12.87,3.73A1.67,1.67,0,0,1,87.06,108.88Z" fill="#fff"/><path d="M73.83,128.92v9.84H51.2v-9.84a3,3,0,0,1,3-3H70.83A3,3,0,0,1,73.83,128.92Z" fill="#fff"/><rect x="58.76" y="109.38" width="7.5" height="16.54" fill="#fff"/><path d="M73.83,138.76H74a17,17,0,0,1,17,17v79.89a4,4,0,0,1-4,4H38a4,4,0,0,1-4-4V155.76a17,17,0,0,1,17-17h.2" fill="none" stroke="#333" stroke-miterlimit="10"/><path d="M66.26,125.92h4.57a3,3,0,0,1,3,3v9.84H51.2v-9.84a3,3,0,0,1,3-3h4.56" fill="none" stroke="#333" stroke-miterlimit="10"/><polyline points="66.25 109.38 66.25 125.92 58.76 125.92 58.76 109.38" fill="none" stroke="#333" stroke-miterlimit="10"/><path d="M58.76,109.38H52.88a1.68,1.68,0,0,1-1.68-1.68v-3A1.68,1.68,0,0,1,52.88,103h16.6a12.49,12.49,0,0,1,3.5.5l12.87,3.73a1.67,1.67,0,0,1,1.21,1.61v2.85a1.68,1.68,0,0,1-2.14,1.61l-13.1-3.8a4.18,4.18,0,0,0-1.17-.16H58.76Z" fill="none" stroke="#333" stroke-miterlimit="10"/><line x1="34" y1="169.95" x2="91.02" y2="169.95" fill="none" stroke="#333" stroke-linecap="round" stroke-linejoin="round"/><line x1="34" y1="208.46" x2="91.02" y2="208.46" fill="none" stroke="#333" stroke-linecap="round" stroke-linejoin="round"/></svg>