<svg xmlns="http://www.w3.org/2000/svg" xmlns:xlink="http://www.w3.org/1999/xlink" width="445" height="295" viewBox="0 0 445 295"><defs><clipPath id="a"><rect width="445" height="295" fill="none"/></clipPath></defs><g clip-path="url(#a)"><rect width="445" height="295" fill="#f2f2f2"/><path d="M216.69,120.37c-1.73-10.47,12.91-14.09,15-.74-1-9.33,10.61-14.11,14.2,1.8,1,4.18,3.87,17.34,9.08,33.63,7.82,24.44,20.79,56,40,75,20.54,20.38,40.9,10.57,41.42,10.43h.1c2.62,14.59,1.93,27.84-4.11,36.39s-16.22,12.47-28,12c-16.78-.63-36.79-10.13-52.6-27.49q-2.64-2.88-5.1-6.07a251.57,251.57,0,0,1-26.53-42.64,305.42,305.42,0,0,1-18.46-47,323.77,323.77,0,0,1-8-32.48c-2-10.21,9.6-11.67,11.19-5-.16-.77-.32-1.57-.48-2.41C202.88,114.75,214.89,112.08,216.69,120.37Z" fill="#f5afb3"/><path d="M336.44,240.45h-.1c-.52.14-20.88,9.95-41.42-10.43-19.16-19-32.13-50.53-40-75l.2-.06,9-13.47.2.14c2.1.9,4.81,2.16,7.93,3.8,11.16,5.92,27.5,16.91,39.4,34.9C322.66,197,332.79,220,336.44,240.45Z" fill="#81aeff"/><path d="M304.36,289.77v92.29H145.2v-59.5c16.33,2.7,35.4-1.89,51.78-11.94,26.49-16.23,43.11-35.07,54.78-49.25,15.81,17.36,35.82,26.86,52.6,27.49Z" fill="#81aeff"/><path d="M265.36,60.58c6,0,10.82,5.44,10.82,12.17,0,6.2-4.6,11.32-11.7,12.07a17.68,17.68,0,0,1-1.82.1l-.93-.37a60.87,60.87,0,0,0,3.53-16.77c.06-1,.1-2.1.1-3.15,0-1.36-.05-2.72-.16-4Z" fill="#f5afb3"/><path d="M267.47,132.7c1.16,5.13,2.72,9.63,4.82,12.77-3.12-1.64-5.83-2.9-7.93-3.8l-.2-.14,2.08-3.12a7.65,7.65,0,0,0,1.15-5.7Z" fill="#fddda6"/><path d="M267.39,132.71a7.65,7.65,0,0,1-1.15,5.7l-2.08,3.12-9,13.47-.2.06c-5.21-16.29-8.13-29.45-9.08-33.63-3.59-15.91-15.21-11.13-14.2-1.8-2.09-13.35-16.73-9.73-15,.74-1.8-8.29-13.81-5.62-12.28,5.39.16.84.32,1.64.48,2.41-1.59-6.7-13.19-5.24-11.19,5a323.77,323.77,0,0,0,8,32.48l-.15,0-16.35-24.49-1.84-2.76a7.65,7.65,0,0,1-1.15-5.7,7.78,7.78,0,0,1,2.1-3.92L204.06,109l12.46-12.45L217.94,98a4.36,4.36,0,0,0-1.41,3.09c0,3,3.7,1.83,8.25,1.83s8.25,1.2,8.25-1.83A4.36,4.36,0,0,0,231.62,98l1.44-1.42L245.51,109l19.79,19.78A7.61,7.61,0,0,1,267.39,132.71Z" fill="#fff"/><path d="M267.47,132.7h-.08a7.61,7.61,0,0,0-2.09-3.92L245.51,109l.2-.2c7-6.07,12.61-14.79,16-24.26l.93.37a17.68,17.68,0,0,0,1.82-.1l0,.09S263.11,113.36,267.47,132.7Z" fill="#fddda6"/><path d="M265.36,64.63c0,1.05,0,2.1-.1,3.15-1.81-1.73-5.23-5.47-6.72-9.92-3.46-10.39-25.34-5.3-33.76-16.52-8.41,11.22-30.29,6.13-33.76,16.52-1.48,4.45-4.9,8.19-6.7,9.92h0c-.07-1-.1-2.1-.1-3.15,0-1.36,0-2.72.16-4C186.23,37.84,203.61,20,224.78,20s38.56,17.84,40.42,40.59C265.31,61.91,265.36,63.27,265.36,64.63Z" fill="#fddda6"/><path d="M258.54,57.86c1.49,4.45,4.91,8.19,6.72,9.92a60.87,60.87,0,0,1-3.53,16.77c-3.41,9.47-9,18.19-16,24.26l-.2.2L233.06,96.56,227.48,91a3.81,3.81,0,0,0-5.39,0l-5.57,5.58L204.06,109l-.2-.2c-7-6.07-12.6-14.77-16-24.24a60.23,60.23,0,0,1-3.54-16.79h0c1.8-1.73,5.22-5.47,6.7-9.92,3.47-10.39,25.35-5.3,33.76-16.52C233.2,52.56,255.08,47.47,258.54,57.86Z" fill="#f5afb3"/><path d="M246.66,255.3q2.46,3.19,5.1,6.07c-11.67,14.18-28.29,33-54.78,49.25-16.38,10.05-35.45,14.64-51.78,11.94-23.74-3.92-41.75-23.21-37.45-63.45,0,0,24-14.38,49,.6,0,0-3.7,15.05,13.8,5.26,17-9.52,41.82-41.6,48.87-52l.7-.33A251.57,251.57,0,0,0,246.66,255.3Z" fill="#f5afb3"/><path d="M233.06,96.56,231.62,98a10.88,10.88,0,0,0-13.68,0l-1.42-1.42L222.09,91a3.81,3.81,0,0,1,5.39,0Z" fill="#fff"/><path d="M231.62,98a4.36,4.36,0,0,1,1.41,3.09c0,3-3.69,1.83-8.25,1.83s-8.25,1.2-8.25-1.83A4.36,4.36,0,0,1,217.94,98a10.88,10.88,0,0,1,13.68,0Z" fill="#fff"/><path d="M220.13,212.66l-.7.33c-7.05,10.38-31.87,42.46-48.87,52-17.5,9.79-13.8-5.26-13.8-5.26-25-15-49-.6-49-.6,4.48-25.14,11.1-45,19-61.82,15.08-31.86,38.05-46.83,51.53-53.23,2.72-1.29,5-2.23,6.84-2.89l16.35,24.49.15,0A305.42,305.42,0,0,0,220.13,212.66Z" fill="#81aeff"/><path d="M204.06,109l-19.78,19.78a7.78,7.78,0,0,0-2.1,3.92l-.08,0c4.35-19.34,3-47.78,3-47.78v-.09a18.24,18.24,0,0,0,1.84.1l.93-.35c3.41,9.47,9,18.17,16,24.24Z" fill="#fddda6"/><path d="M187.85,84.57l-.93.35a18.24,18.24,0,0,1-1.84-.1c-7.09-.75-11.69-5.88-11.69-12.07,0-6.73,4.85-12.17,10.82-12.17h.16c-.11,1.32-.16,2.68-.16,4,0,1.05,0,2.1.1,3.15A60.23,60.23,0,0,0,187.85,84.57Z" fill="#f5afb3"/><path d="M183.33,138.41l1.84,2.76c-1.8.66-4.12,1.6-6.84,2.89l-.09-.18a45.11,45.11,0,0,0,3.86-11.19l.08,0A7.65,7.65,0,0,0,183.33,138.41Z" fill="#fddda6"/><path d="M203.86,108.81c-7-6.07-12.6-14.77-16-24.24a60.23,60.23,0,0,1-3.54-16.79c-.07-1-.1-2.1-.1-3.15,0-1.36,0-2.72.16-4C186.23,37.84,203.61,20,224.78,20" fill="none" stroke="#333" stroke-linecap="round" stroke-linejoin="round"/><path d="M186.92,84.92a18.24,18.24,0,0,1-1.84-.1c-7.09-.75-11.69-5.88-11.69-12.07,0-6.73,4.85-12.17,10.82-12.17" fill="none" stroke="#333" stroke-linecap="round" stroke-linejoin="round"/><line x1="199.81" y1="65.57" x2="207.93" y2="64.95" fill="none" stroke="#333" stroke-linecap="round" stroke-linejoin="round"/><path d="M336.34,240.46c-.52.14-20.88,9.95-41.42-10.43-19.16-19-32.13-50.53-40-75-5.21-16.29-8.13-29.45-9.08-33.63-3.59-15.91-15.21-11.13-14.2-1.8" fill="none" stroke="#333" stroke-linecap="round" stroke-linejoin="round"/><path d="M264.36,141.67c2.1.9,4.81,2.16,7.93,3.8,11.16,5.92,27.5,16.91,39.4,34.9,11,16.58,21.1,39.65,24.75,60.08,2.62,14.59,1.93,27.84-4.11,36.39s-16.22,12.47-28,12c-16.78-.63-36.79-10.13-52.6-27.49q-2.64-2.88-5.1-6.07a251.57,251.57,0,0,1-26.53-42.64,305.42,305.42,0,0,1-18.46-47,323.77,323.77,0,0,1-8-32.48c-2-10.21,9.6-11.67,11.19-5" fill="none" stroke="#333" stroke-linecap="round" stroke-linejoin="round"/><path d="M245.71,108.81c7-6.07,12.61-14.79,16-24.26a60.87,60.87,0,0,0,3.53-16.77c.06-1,.1-2.1.1-3.15,0-1.36-.05-2.72-.16-4C263.34,37.84,246,20,224.78,20" fill="none" stroke="#333" stroke-linecap="round" stroke-linejoin="round"/><path d="M262.66,84.92a17.68,17.68,0,0,0,1.82-.1c7.1-.75,11.7-5.87,11.7-12.07,0-6.73-4.84-12.17-10.82-12.17" fill="none" stroke="#333" stroke-linecap="round" stroke-linejoin="round"/><line x1="249.75" y1="65.57" x2="241.64" y2="64.95" fill="none" stroke="#333" stroke-linecap="round" stroke-linejoin="round"/><path d="M304.36,382.06V289.77" fill="none" stroke="#333" stroke-linecap="round" stroke-linejoin="round"/><path d="M200.65,80.88c4.22-.23,8.8-2.06,11.27-4.86" fill="none" stroke="#333" stroke-linecap="round" stroke-linejoin="round"/><line x1="200.65" y1="74.95" x2="211.92" y2="75.87" fill="none" stroke="#333" stroke-linecap="round" stroke-linejoin="round"/><path d="M248.92,80.88c-4.21-.23-8.79-2.06-11.27-4.86" fill="none" stroke="#333" stroke-linecap="round" stroke-linejoin="round"/><line x1="248.92" y1="74.95" x2="237.65" y2="75.87" fill="none" stroke="#333" stroke-linecap="round" stroke-linejoin="round"/><path d="M204.41,125.76c.16.84.32,1.64.48,2.41a109.08,109.08,0,0,0,6,20.6" fill="none" stroke="#333" stroke-linecap="round" stroke-linejoin="round"/><path d="M216.69,120.37a191.85,191.85,0,0,0,6.77,24" fill="none" stroke="#333" stroke-linecap="round" stroke-linejoin="round"/><path d="M231.69,119.63a136.11,136.11,0,0,0,4.75,19.48" fill="none" stroke="#333" stroke-linecap="round" stroke-linejoin="round"/><path d="M204.41,125.76c-1.53-11,10.48-13.68,12.28-5.39-1.73-10.47,12.91-14.09,15-.74" fill="none" stroke="#333" stroke-linecap="round" stroke-linejoin="round"/><path d="M107.75,259.11c4.48-25.14,11.1-45,19-61.82,15.08-31.86,38.05-46.83,51.53-53.23,2.72-1.29,5-2.23,6.84-2.89" fill="none" stroke="#333" stroke-linecap="round" stroke-linejoin="round"/><path d="M107.75,259.11s24-14.38,49,.6" fill="none" stroke="#333" stroke-linecap="round" stroke-linejoin="round"/><path d="M251.76,261.37c-11.67,14.18-28.29,33-54.78,49.25-16.38,10.05-35.45,14.64-51.78,11.94-23.74-3.92-41.75-23.21-37.45-63.45" fill="none" stroke="#333" stroke-linecap="round" stroke-linejoin="round"/><path d="M219.43,213c-7.05,10.38-31.87,42.46-48.87,52-17.5,9.79-13.8-5.26-13.8-5.26" fill="none" stroke="#333" stroke-linecap="round" stroke-linejoin="round"/><path d="M235.08,239.79l-2,2.47" fill="none" stroke="#333" stroke-linecap="round" stroke-linejoin="round"/><path d="M226.84,227c-1.43,1.9-2.84,3.64-4.13,5.29" fill="none" stroke="#333" stroke-linecap="round" stroke-linejoin="round"/><path d="M201.52,165.66l-16.35-24.49-1.84-2.76a7.65,7.65,0,0,1-1.15-5.7,7.78,7.78,0,0,1,2.1-3.92L204.06,109l12.46-12.45L222.09,91a3.81,3.81,0,0,1,5.39,0l5.58,5.58L245.51,109l19.79,19.78a7.6,7.6,0,0,1,.94,9.62l-2.08,3.12-9,13.47" fill="none" stroke="#333" stroke-linecap="round" stroke-linejoin="round"/><path d="M264.5,84.91s-1.39,28.45,3,47.79c1.16,5.13,2.72,9.63,4.82,12.77" fill="none" stroke="#333" stroke-linecap="round" stroke-linejoin="round"/><path d="M265.26,67.78c-1.81-1.73-5.23-5.47-6.72-9.92-3.46-10.39-25.34-5.3-33.76-16.52" fill="none" stroke="#333" stroke-linecap="round" stroke-linejoin="round"/><path d="M185.07,84.91s1.38,28.44-3,47.78a45.11,45.11,0,0,1-3.86,11.19" fill="none" stroke="#333" stroke-linecap="round" stroke-linejoin="round"/><path d="M184.32,67.78c1.8-1.73,5.22-5.47,6.7-9.92,3.47-10.39,25.35-5.3,33.76-16.52" fill="none" stroke="#333" stroke-linecap="round" stroke-linejoin="round"/><path d="M180.48,123.49c-4.76-2.65-9.32,5.57-9.32,5.57.79-15.34-14.4-10.76-14.4-10.76,17-6.08,5.46-18.59,5.46-18.59" fill="none" stroke="#e63741" stroke-linecap="round" stroke-linejoin="round"/><path d="M275.88,86.78c-6.89,18.27,13.27,18.59,13.27,18.59-22.94.8-13.8,20.4-13.8,20.4-3.52-5-10.2-8.16-15.28-6.75" fill="none" stroke="#e63741" stroke-linecap="round" stroke-linejoin="round"/></g></svg>