<svg xmlns="http://www.w3.org/2000/svg" viewBox="0 0 445 300"><rect width="445" height="300" fill="#f2f2f2"/><path d="M424.43,193.4v29a6.82,6.82,0,0,1-6.82,6.83H353.28a6.83,6.83,0,0,1-6.83-6.83v-29Z" fill="#fff"/><rect x="346.45" y="144.38" width="77.98" height="49.02" fill="#f0878d"/><path d="M424.43,133.82v10.56h-78V133.82a19.34,19.34,0,0,1,19.33-19.33h2.15a6.94,6.94,0,0,0,6.93-6.93V96.41H396v11.15a6.93,6.93,0,0,0,6.93,6.93h2.13A19.32,19.32,0,0,1,424.43,133.82Z" fill="#fff"/><path d="M374.85,83.81a2,2,0,0,1,2-2H394a2,2,0,0,1,2,2v12.6H374.85Z" fill="#f5afb3"/><path d="M396,96.41v11.15a6.93,6.93,0,0,0,6.93,6.93h2.13a19.32,19.32,0,0,1,19.33,19.33v88.56a6.82,6.82,0,0,1-6.82,6.83H353.28a6.83,6.83,0,0,1-6.83-6.83V133.82a19.34,19.34,0,0,1,19.33-19.33h2.15a6.94,6.94,0,0,0,6.93-6.93V96.41" fill="none" stroke="#333" stroke-miterlimit="10"/><path d="M396,96.41H374.85V83.81a2,2,0,0,1,2-2H394a2,2,0,0,1,2,2Z" fill="none" stroke="#333" stroke-miterlimit="10"/><line x1="346.45" y1="144.38" x2="424.43" y2="144.38" fill="none" stroke="#333" stroke-linecap="round" stroke-linejoin="round"/><line x1="346.45" y1="193.4" x2="424.43" y2="193.4" fill="none" stroke="#333" stroke-linecap="round" stroke-linejoin="round"/><path d="M368,164.71v-8.53h2.64a3,3,0,0,1,2,.6,2.17,2.17,0,0,1,.69,1.74,2.12,2.12,0,0,1-.29,1.12,1.74,1.74,0,0,1-.78.69,1.42,1.42,0,0,1,.88.65,2.25,2.25,0,0,1,.31,1.23,2.41,2.41,0,0,1-.68,1.87,2.8,2.8,0,0,1-2,.63Zm1.72-5h.9c.67,0,1-.35,1-1.05a1.25,1.25,0,0,0-.23-.83,1,1,0,0,0-.76-.25h-.92Zm0,1.26v2.27h1.1a.88.88,0,0,0,.71-.28,1.25,1.25,0,0,0,.24-.82c0-.76-.28-1.16-.84-1.17Z" fill="#333"/><path d="M380.67,161.22a4,4,0,0,1-.82,2.66,3.16,3.16,0,0,1-4.51,0,4,4,0,0,1-.83-2.63V159.8a4.18,4.18,0,0,1,.82-2.75,3.08,3.08,0,0,1,4.5,0,4.11,4.11,0,0,1,.84,2.72Zm-1.73-1.43a3.49,3.49,0,0,0-.33-1.72,1.21,1.21,0,0,0-2,0,3.23,3.23,0,0,0-.34,1.65v1.52a3.24,3.24,0,0,0,.33,1.65,1.14,1.14,0,0,0,1,.53,1.11,1.11,0,0,0,1-.52,3.16,3.16,0,0,0,.34-1.61Z" fill="#333"/><path d="M388.73,166.81h-1.58v-2.1h-4v2.1h-1.62l-.1-3.53H382a2.32,2.32,0,0,0,.59-1.11,9.91,9.91,0,0,0,.31-2l.24-4H388v7.1h.89Zm-4.92-3.53h2.47v-5.66h-1.54L384.6,160A8.33,8.33,0,0,1,383.81,163.28Z" fill="#333"/><path d="M392.35,161.23h-.75v3.48h-1.72v-8.53h1.72v3.41h.58l1.48-3.41h2.1l-2.09,4,2.32,4.55h-2.05Z" fill="#333"/><path d="M401.21,163h-2.35l-.46,1.74h-1.82l2.66-8.53h1.58l2.68,8.53h-1.84Zm-2-1.44h1.6l-.8-3Z" fill="#333"/><path d="M380.93,172.45a2.21,2.21,0,0,1-.27,1.1,2,2,0,0,1-.72.77,2.18,2.18,0,0,1,.83.82,2.45,2.45,0,0,1,.3,1.24,2.26,2.26,0,0,1-2.44,2.45,2.46,2.46,0,0,1-1.8-.66,2.69,2.69,0,0,1-.36-3,2.07,2.07,0,0,1,.84-.82,2,2,0,0,1-.74-.77,2.32,2.32,0,0,1-.26-1.1,2.36,2.36,0,0,1,.63-1.75,2.57,2.57,0,0,1,3.37,0A2.43,2.43,0,0,1,380.93,172.45Zm-2.3,5a.64.64,0,0,0,.58-.32,1.66,1.66,0,0,0,.2-.88,1.6,1.6,0,0,0-.21-.89.67.67,0,0,0-1.16,0,1.52,1.52,0,0,0-.22.89,1.49,1.49,0,0,0,.22.88A.66.66,0,0,0,378.63,177.45Zm.65-4.91a1.67,1.67,0,0,0-.17-.8.52.52,0,0,0-.49-.3.53.53,0,0,0-.48.29,1.65,1.65,0,0,0-.17.81,1.74,1.74,0,0,0,.17.81.54.54,0,0,0,1,0A1.88,1.88,0,0,0,379.28,172.54Z" fill="#333"/><path d="M387.12,175.19a4.72,4.72,0,0,1-.64,2.7,2.26,2.26,0,0,1-3.65,0,4.56,4.56,0,0,1-.66-2.61V173.7a4.72,4.72,0,0,1,.64-2.7,2.27,2.27,0,0,1,3.66,0,4.6,4.6,0,0,1,.65,2.64Zm-1.66-1.73a4.38,4.38,0,0,0-.2-1.51.66.66,0,0,0-.62-.51c-.53,0-.8.62-.82,1.85v2.13A4.51,4.51,0,0,0,384,177a.67.67,0,0,0,.63.5.63.63,0,0,0,.6-.47,4.13,4.13,0,0,0,.21-1.44Z" fill="#333"/><path d="M388.19,171.82a1.89,1.89,0,0,1,.43-1.27,1.48,1.48,0,0,1,1.17-.49,1.53,1.53,0,0,1,1.17.48,1.9,1.9,0,0,1,.43,1.31v.42a1.84,1.84,0,0,1-.43,1.28,1.49,1.49,0,0,1-1.16.48,1.53,1.53,0,0,1-1.17-.48,1.89,1.89,0,0,1-.44-1.31Zm1.08.45a.91.91,0,0,0,.15.56.46.46,0,0,0,.38.21.43.43,0,0,0,.37-.21,1.09,1.09,0,0,0,.14-.57v-.44a1.08,1.08,0,0,0-.14-.56.45.45,0,0,0-.38-.22.44.44,0,0,0-.38.22,1.11,1.11,0,0,0-.14.58Zm.83,5.81-.79-.45,3.5-6.67.79.45Zm1.46-1.46a1.77,1.77,0,0,1,.44-1.27,1.63,1.63,0,0,1,2.32,0,1.89,1.89,0,0,1,.44,1.31v.43a1.83,1.83,0,0,1-.43,1.27,1.47,1.47,0,0,1-1.16.48,1.48,1.48,0,0,1-1.18-.49,1.84,1.84,0,0,1-.43-1.28Zm1.08.46a1,1,0,0,0,.15.55.46.46,0,0,0,.38.22q.48,0,.51-.69v-.54a1,1,0,0,0-.15-.56.43.43,0,0,0-.37-.21c-.35,0-.52.3-.52.9Z" fill="#333"/><path d="M207.9,72.53V57.14a3,3,0,0,1,3-3h26.4a3,3,0,0,1,3,3V72.53Z" fill="#99d5bd"/><path d="M234,37.32l1.16,16.82H213l1.16-16.82a4.3,4.3,0,0,1,4.28-4h11.32A4.28,4.28,0,0,1,234,37.32Z" fill="#fff"/><path d="M183.27,89.52a17,17,0,0,1,17-17h47.64a17,17,0,0,1,17,17v27.67H183.27Z" fill="#fff"/><path d="M264.91,213a4,4,0,0,1-4,4H187.28a4,4,0,0,1-4-4V172.33h81.64Z" fill="#fff"/><rect x="183.27" y="117.19" width="81.64" height="55.14" fill="#cceade"/><path d="M240.3,72.53h7.62a17,17,0,0,1,17,17V213a4,4,0,0,1-4,4H187.28a4,4,0,0,1-4-4V89.52a17,17,0,0,1,17-17h7.62" fill="none" stroke="#333" stroke-miterlimit="10"/><path d="M235.19,54.14h2.1a3,3,0,0,1,3,3V72.53H207.9V57.14a3,3,0,0,1,3-3H213" fill="none" stroke="#333" stroke-miterlimit="10"/><path d="M235.19,54.14H213l1.16-16.82a4.3,4.3,0,0,1,4.28-4h11.32a4.28,4.28,0,0,1,4.28,4Z" fill="none" stroke="#333" stroke-miterlimit="10"/><line x1="183.27" y1="117.19" x2="264.91" y2="117.19" fill="none" stroke="#333" stroke-linecap="round" stroke-linejoin="round"/><line x1="183.27" y1="172.33" x2="264.91" y2="172.33" fill="none" stroke="#333" stroke-linecap="round" stroke-linejoin="round"/><path d="M202.72,139.22H201v-7.1h-2.53v7.1h-1.72v-8.53h6Z" fill="#333"/><path d="M208.52,135.53h-2.68v2.26H209v1.43h-4.9v-8.53H209v1.43h-3.16v2h2.68Z" fill="#333"/><path d="M211.72,136.22v3H210v-8.53h2.91a2.68,2.68,0,0,1,2,.78,2.85,2.85,0,0,1,.75,2,2.65,2.65,0,0,1-.74,2,2.83,2.83,0,0,1-2.07.73Zm0-1.44h1.19a.92.92,0,0,0,.76-.32,1.42,1.42,0,0,0,.27-.94,1.64,1.64,0,0,0-.28-1,.88.88,0,0,0-.73-.39h-1.21Z" fill="#333"/><path d="M222.83,135.72a4,4,0,0,1-.81,2.67,2.81,2.81,0,0,1-2.25,1,2.84,2.84,0,0,1-2.26-1,3.94,3.94,0,0,1-.83-2.63V134.3a4.15,4.15,0,0,1,.82-2.74,3.07,3.07,0,0,1,4.5,0,4.07,4.07,0,0,1,.83,2.72Zm-1.72-1.43a3.51,3.51,0,0,0-.33-1.72,1.22,1.22,0,0,0-2,0,3.45,3.45,0,0,0-.34,1.65v1.52a3.18,3.18,0,0,0,.34,1.65,1.13,1.13,0,0,0,1,.53,1.09,1.09,0,0,0,1-.52,3.14,3.14,0,0,0,.34-1.61Z" fill="#333"/><path d="M226.55,135.74h-.75v3.48h-1.72v-8.53h1.72v3.41h.59l1.48-3.41H230l-2.09,4,2.32,4.56h-2Z" fill="#333"/><path d="M236.62,136.38a3.2,3.2,0,0,1-.82,2.21,2.88,2.88,0,0,1-2.13.75,2.67,2.67,0,0,1-2.22-1,4.23,4.23,0,0,1-.77-2.71v-1.44a4.13,4.13,0,0,1,.8-2.71,3.15,3.15,0,0,1,4.33-.17,3.51,3.51,0,0,1,.82,2.24H234.9a2.29,2.29,0,0,0-.27-1.25,1.11,1.11,0,0,0-.94-.34,1,1,0,0,0-1,.48,3.4,3.4,0,0,0-.3,1.59v1.61a3.75,3.75,0,0,0,.28,1.75,1,1,0,0,0,1,.48,1.12,1.12,0,0,0,.94-.34,2.16,2.16,0,0,0,.29-1.19Z" fill="#333"/><path d="M241.86,130.69h1.72v8.53h-1.72v-5.65l-2.51,5.65h-1.73v-8.53h1.73v5.65Z" fill="#333"/><path d="M251.79,141.32H250.2v-2.1h-4v2.09h-1.63l-.1-3.52H245a2.32,2.32,0,0,0,.59-1.11,10.15,10.15,0,0,0,.31-2l.24-4h4.9v7.1h.89Zm-4.93-3.53h2.48v-5.67h-1.55l-.14,2.35A8.38,8.38,0,0,1,246.86,137.79Z" fill="#333"/><path d="M195.68,153.22v-8.53h2.64a3,3,0,0,1,2,.59,2.19,2.19,0,0,1,.7,1.74,2.1,2.1,0,0,1-.29,1.12,1.66,1.66,0,0,1-.79.69,1.49,1.49,0,0,1,.89.66,2.23,2.23,0,0,1,.31,1.22,2.47,2.47,0,0,1-.68,1.88,2.84,2.84,0,0,1-2,.63Zm1.73-5h.89a.92.92,0,0,0,1-1,1.2,1.2,0,0,0-.24-.84,1,1,0,0,0-.76-.25h-.91Zm0,1.25v2.28h1.1a.86.86,0,0,0,.7-.29,1.22,1.22,0,0,0,.24-.81c0-.77-.27-1.16-.83-1.18Z" fill="#333"/><path d="M208.42,149.72a4,4,0,0,1-.81,2.67,2.81,2.81,0,0,1-2.25,1,2.84,2.84,0,0,1-2.26-1,3.94,3.94,0,0,1-.83-2.63V148.3a4.15,4.15,0,0,1,.82-2.74,3.07,3.07,0,0,1,4.5,0,4.07,4.07,0,0,1,.83,2.72Zm-1.73-1.43a3.53,3.53,0,0,0-.32-1.72,1.22,1.22,0,0,0-2,0,3.33,3.33,0,0,0-.34,1.65v1.52a3.08,3.08,0,0,0,.34,1.65,1.13,1.13,0,0,0,1,.53,1.09,1.09,0,0,0,1-.52,3,3,0,0,0,.33-1.61Z" fill="#333"/><path d="M216.49,155.32h-1.58v-2.1h-4v2.09h-1.63l-.09-3.52h.57a2.32,2.32,0,0,0,.59-1.11,10.24,10.24,0,0,0,.3-2l.24-4h4.91v7.1h.88Zm-4.92-3.53H214v-5.67H212.5l-.15,2.35A8.22,8.22,0,0,1,211.57,151.79Z" fill="#333"/><path d="M223.53,149.72a4,4,0,0,1-.81,2.67,2.81,2.81,0,0,1-2.25,1,2.84,2.84,0,0,1-2.26-1,3.94,3.94,0,0,1-.83-2.63V148.3a4.15,4.15,0,0,1,.82-2.74,3.07,3.07,0,0,1,4.5,0,4.07,4.07,0,0,1,.83,2.72Zm-1.72-1.43a3.51,3.51,0,0,0-.33-1.72,1.22,1.22,0,0,0-2,0,3.45,3.45,0,0,0-.34,1.65v1.52a3.18,3.18,0,0,0,.34,1.65,1.14,1.14,0,0,0,1,.53,1.09,1.09,0,0,0,1-.52,3.14,3.14,0,0,0,.34-1.61Z" fill="#333"/><path d="M226.49,150.22v3h-1.72v-8.53h2.91a2.7,2.7,0,0,1,2,.78,2.85,2.85,0,0,1,.75,2,2.62,2.62,0,0,1-.75,2,2.79,2.79,0,0,1-2.06.73Zm0-1.44h1.19a.92.92,0,0,0,.76-.32,1.42,1.42,0,0,0,.27-.94,1.64,1.64,0,0,0-.28-1,.88.88,0,0,0-.74-.39h-1.2Z" fill="#333"/><path d="M237.6,149.72a4,4,0,0,1-.81,2.67,2.81,2.81,0,0,1-2.25,1,2.84,2.84,0,0,1-2.26-1,3.94,3.94,0,0,1-.83-2.63V148.3a4.2,4.2,0,0,1,.81-2.74,3.08,3.08,0,0,1,4.51,0,4.13,4.13,0,0,1,.83,2.72Zm-1.73-1.43a3.65,3.65,0,0,0-.32-1.72,1.22,1.22,0,0,0-2,0,3.33,3.33,0,0,0-.34,1.65v1.52a3.08,3.08,0,0,0,.34,1.65,1.13,1.13,0,0,0,1,.53,1.09,1.09,0,0,0,1-.52,3,3,0,0,0,.33-1.61Z" fill="#333"/><path d="M245.67,155.32h-1.58v-2.1h-4v2.09h-1.63l-.09-3.52h.57a2.41,2.41,0,0,0,.59-1.11,10.24,10.24,0,0,0,.3-2l.24-4h4.91v7.1h.88Zm-4.92-3.53h2.47v-5.67h-1.54l-.15,2.35A8.22,8.22,0,0,1,240.75,151.79Z" fill="#333"/><path d="M250.78,151.47h-2.35l-.46,1.75h-1.82l2.67-8.53h1.57l2.69,8.53h-1.84Zm-2-1.43h1.59l-.8-3Z" fill="#333"/><path d="M346.55,226.52v33a4.87,4.87,0,0,1-4.87,4.87H269.79a4.88,4.88,0,0,1-4.88-4.87v-33Z" fill="#fff"/><rect x="264.91" y="171.37" width="81.64" height="55.15" fill="#d5e4ff"/><path d="M346.55,162.68v8.69H264.91v-8.69a36.64,36.64,0,0,1,1.56-10.56l23.06-76.34h32.41L345,152.12A36.64,36.64,0,0,1,346.55,162.68Z" fill="#fff"/><path d="M289.53,60.4a3,3,0,0,1,3-3h26.4a3,3,0,0,1,3,3V75.78H289.53Z" fill="#abc9ff"/><path d="M321.94,75.78,345,152.12a36.64,36.64,0,0,1,1.56,10.56v96.87a4.87,4.87,0,0,1-4.87,4.87H269.79a4.88,4.88,0,0,1-4.88-4.87V162.68a36.64,36.64,0,0,1,1.56-10.56l23.06-76.34" fill="none" stroke="#333" stroke-miterlimit="10"/><path d="M321.94,75.78H289.53V60.4a3,3,0,0,1,3-3h26.4a3,3,0,0,1,3,3Z" fill="none" stroke="#333" stroke-miterlimit="10"/><line x1="264.91" y1="171.37" x2="346.55" y2="171.37" fill="none" stroke="#333" stroke-linecap="round" stroke-linejoin="round"/><line x1="264.91" y1="226.52" x2="346.55" y2="226.52" fill="none" stroke="#333" stroke-linecap="round" stroke-linejoin="round"/><path d="M277.31,192.61h-5v-1.18l2.31-2.93a6.11,6.11,0,0,0,.65-1.07,2.13,2.13,0,0,0,.21-.88,1.7,1.7,0,0,0-.2-.89.61.61,0,0,0-.56-.32.71.71,0,0,0-.64.37,1.94,1.94,0,0,0-.24,1h-1.67a3.1,3.1,0,0,1,.33-1.43,2.48,2.48,0,0,1,.91-1,2.54,2.54,0,0,1,1.34-.36,2.19,2.19,0,0,1,2.4,2.42,3.43,3.43,0,0,1-.35,1.46,9.16,9.16,0,0,1-1.26,1.83l-1.1,1.56h2.9Z" fill="#333"/><path d="M281.38,189.64h-2.86v-1.38h2.86Z" fill="#333"/><path d="M288.83,192.61h-1.72v-7.1h-2.53v7.1h-1.72v-8.53h6Z" fill="#333"/><path d="M291.94,189.61v3h-1.72v-8.53h2.91a2.7,2.7,0,0,1,2,.78,2.82,2.82,0,0,1,.75,2,2.62,2.62,0,0,1-.75,2,2.83,2.83,0,0,1-2.06.73Zm0-1.44h1.19a1,1,0,0,0,.76-.32,1.44,1.44,0,0,0,.27-.94,1.69,1.69,0,0,0-.28-1,.87.87,0,0,0-.74-.38h-1.2Z" fill="#333"/><path d="M303.05,189.11a4,4,0,0,1-.81,2.66,2.78,2.78,0,0,1-2.25.95,2.84,2.84,0,0,1-2.26-.94,3.94,3.94,0,0,1-.83-2.63v-1.46a4.18,4.18,0,0,1,.81-2.74,3.08,3.08,0,0,1,4.51,0,4.11,4.11,0,0,1,.83,2.72Zm-1.73-1.43A3.65,3.65,0,0,0,301,186a1.22,1.22,0,0,0-2,0,3.33,3.33,0,0,0-.34,1.65v1.52a3.13,3.13,0,0,0,.34,1.65,1.13,1.13,0,0,0,1,.53,1.09,1.09,0,0,0,1-.52,3.07,3.07,0,0,0,.33-1.61Z" fill="#333"/><path d="M310.28,192.61h-1.73v-7.1H306v7.1H304.3v-8.53h6Z" fill="#333"/><path d="M315.74,190.86h-2.35l-.46,1.75h-1.82l2.67-8.53h1.57l2.68,8.53H316.2Zm-2-1.43h1.6l-.8-3.05Z" fill="#333"/><path d="M324.81,192.61H323.1V189h-2.55v3.65h-1.72v-8.53h1.72v3.45h2.55v-3.45h1.71Z" fill="#333"/><path d="M332.2,189.11a4,4,0,0,1-.81,2.66,2.78,2.78,0,0,1-2.25.95,2.84,2.84,0,0,1-2.26-.94,3.94,3.94,0,0,1-.83-2.63v-1.46a4.18,4.18,0,0,1,.81-2.74,3.08,3.08,0,0,1,4.51,0,4.06,4.06,0,0,1,.83,2.72Zm-1.73-1.43a3.65,3.65,0,0,0-.32-1.72,1.22,1.22,0,0,0-2,0,3.33,3.33,0,0,0-.34,1.65v1.52a3.13,3.13,0,0,0,.34,1.65,1.13,1.13,0,0,0,1,.53,1.09,1.09,0,0,0,1-.52,3.07,3.07,0,0,0,.33-1.61Z" fill="#333"/><path d="M339.42,184.08v8.53h-1.73v-7.1h-1.58l-.12,3a10.1,10.1,0,0,1-.33,2.37,2.54,2.54,0,0,1-.78,1.29,2.22,2.22,0,0,1-1.38.42h-.42v-1.43l.2,0a1,1,0,0,0,.77-.71,8.11,8.11,0,0,0,.3-2.27l.11-4.1Z" fill="#333"/><path d="M301.58,199l-2.69,7.58h-1.75l2.7-7.16h-3.42v-1.37h5.16Z" fill="#333"/><path d="M302.82,202.41l.42-4.33h4.13v1.41H304.6l-.15,1.83a1.79,1.79,0,0,1,1-.32,1.93,1.93,0,0,1,1.63.75,3.45,3.45,0,0,1,.57,2.12,3.05,3.05,0,0,1-.68,2.07,2.3,2.3,0,0,1-1.82.78,2.48,2.48,0,0,1-1.25-.32,2.31,2.31,0,0,1-.9-.88,2.64,2.64,0,0,1-.34-1.29h1.64a1.53,1.53,0,0,0,.27.82.67.67,0,0,0,.57.3.69.69,0,0,0,.63-.4,2.44,2.44,0,0,0,.23-1.18,1.89,1.89,0,0,0-.27-1.11.88.88,0,0,0-.75-.38.91.91,0,0,0-.73.32l-.1.15Z" fill="#333"/><path d="M308.73,199.72a1.92,1.92,0,0,1,.43-1.28,1.51,1.51,0,0,1,1.17-.49,1.49,1.49,0,0,1,1.17.49,1.86,1.86,0,0,1,.43,1.3v.43a1.83,1.83,0,0,1-.43,1.27,1.64,1.64,0,0,1-2.32,0,1.84,1.84,0,0,1-.45-1.31Zm1.08.45a1,1,0,0,0,.15.56.44.44,0,0,0,.38.2.43.43,0,0,0,.37-.21,1.09,1.09,0,0,0,.14-.57v-.43a1,1,0,0,0-.14-.56.44.44,0,0,0-.76,0,1.07,1.07,0,0,0-.14.57Zm.83,5.8-.79-.45,3.5-6.67.79.45Zm1.46-1.46a1.79,1.79,0,0,1,.44-1.27,1.49,1.49,0,0,1,1.16-.48,1.52,1.52,0,0,1,1.16.47,1.84,1.84,0,0,1,.44,1.31V205a1.81,1.81,0,0,1-.43,1.27,1.47,1.47,0,0,1-1.16.48,1.51,1.51,0,0,1-1.18-.48,1.88,1.88,0,0,1-.43-1.29Zm1.08.46a.9.9,0,0,0,.16.55.44.44,0,0,0,.37.23c.32,0,.49-.24.51-.7v-.54a.92.92,0,0,0-.15-.55.42.42,0,0,0-.37-.22c-.35,0-.52.3-.52.9Z" fill="#333"/><path d="M44.62,80.08a3,3,0,0,1,3-3H74a3,3,0,0,1,3,3V95.47H44.62Z" fill="#cceade"/><path d="M20,140.13V112.46a17,17,0,0,1,17-17H84.64a17,17,0,0,1,17,17v27.67Z" fill="#fff"/><path d="M24,239.93a4,4,0,0,1-4-4V195.27h81.65v40.66a4,4,0,0,1-4,4Z" fill="#fff"/><rect x="19.99" y="140.13" width="81.64" height="55.14" fill="#99d5bd"/><path d="M77,95.47h7.62a17,17,0,0,1,17,17V235.93a4,4,0,0,1-4,4H24a4,4,0,0,1-4-4V112.46a17,17,0,0,1,17-17h7.62" fill="none" stroke="#333" stroke-miterlimit="10"/><path d="M77,95.47H44.62V80.08a3,3,0,0,1,3-3H74a3,3,0,0,1,3,3Z" fill="none" stroke="#333" stroke-miterlimit="10"/><line x1="19.99" y1="140.13" x2="101.64" y2="140.13" fill="none" stroke="#333" stroke-linecap="round" stroke-linejoin="round"/><line x1="19.99" y1="195.27" x2="101.64" y2="195.27" fill="none" stroke="#333" stroke-linecap="round" stroke-linejoin="round"/><path d="M41.66,159a2.25,2.25,0,0,0,.32,1.15,1,1,0,0,0,.91.39,1,1,0,0,0,1-.57,4,4,0,0,0,.34-1.67H42.12V156.9H44.2a3.78,3.78,0,0,0-.38-1.68,1,1,0,0,0-1-.55A1.07,1.07,0,0,0,42,155a2.22,2.22,0,0,0-.32,1.23H39.93a3.52,3.52,0,0,1,.88-2.23,2.75,2.75,0,0,1,2.06-.8,2.64,2.64,0,0,1,2.23,1.12,5,5,0,0,1,.83,3.05v.5a5,5,0,0,1-.81,3,2.62,2.62,0,0,1-2.23,1.1,2.8,2.8,0,0,1-2.09-.8,3.26,3.26,0,0,1-.86-2.16Z" fill="#333"/><path d="M52.59,154.78H50.48v7.1H48.75v-7.1H46.68v-1.43h5.91Z" fill="#333"/><path d="M57.65,160.13H55.3l-.45,1.75H53l2.66-8.53h1.58L60,161.88H58.11Zm-2-1.43h1.59l-.79-3Z" fill="#333"/><path d="M66.73,161.88H65v-3.65H62.47v3.65H60.75v-8.53h1.72v3.45H65v-3.45h1.72Z" fill="#333"/><path d="M74.12,158.38a4,4,0,0,1-.81,2.67,2.82,2.82,0,0,1-2.26.95,2.86,2.86,0,0,1-2.25-.94,3.89,3.89,0,0,1-.83-2.64V157a4.2,4.2,0,0,1,.81-2.74,3.08,3.08,0,0,1,4.51,0,4.2,4.2,0,0,1,.83,2.72ZM72.39,157a3.44,3.44,0,0,0-.33-1.71,1.2,1.2,0,0,0-2,0,3.32,3.32,0,0,0-.34,1.64v1.52A3.19,3.19,0,0,0,70,160a1.15,1.15,0,0,0,1,.53,1.11,1.11,0,0,0,1-.52,3,3,0,0,0,.33-1.61Z" fill="#333"/><path d="M81.34,153.35v8.53H79.61v-7.1H78l-.12,3a10.19,10.19,0,0,1-.34,2.37,2.42,2.42,0,0,1-.78,1.28,2.11,2.11,0,0,1-1.38.42H75v-1.43l.2,0a1,1,0,0,0,.78-.7,8.34,8.34,0,0,0,.29-2.27l.12-4.11Z" fill="#333"/><path d="M56.48,168.3l-2.7,7.58H52l2.71-7.15H51.31v-1.38h5.17Z" fill="#333"/><path d="M62.5,172.35a4.78,4.78,0,0,1-.64,2.71,2.26,2.26,0,0,1-3.65,0,4.64,4.64,0,0,1-.67-2.61v-1.62a4.79,4.79,0,0,1,.64-2.69,2.27,2.27,0,0,1,3.67,0,4.65,4.65,0,0,1,.65,2.64Zm-1.66-1.73a4.42,4.42,0,0,0-.2-1.51c-.14-.33-.34-.5-.62-.5-.53,0-.8.61-.82,1.84v2.13a4.3,4.3,0,0,0,.2,1.54.67.67,0,0,0,.63.5.65.65,0,0,0,.6-.47,4.23,4.23,0,0,0,.21-1.45Z" fill="#333"/><path d="M63.63,169a1.84,1.84,0,0,1,.43-1.27,1.44,1.44,0,0,1,1.16-.49,1.5,1.5,0,0,1,1.17.48,1.87,1.87,0,0,1,.43,1.3v.43a1.81,1.81,0,0,1-.43,1.27,1.64,1.64,0,0,1-2.32,0,1.81,1.81,0,0,1-.44-1.3Zm1.07.45a.93.93,0,0,0,.15.56.46.46,0,0,0,.38.21.41.41,0,0,0,.37-.22,1,1,0,0,0,.14-.57V169a1.06,1.06,0,0,0-.14-.56.42.42,0,0,0-.38-.22.43.43,0,0,0-.38.22,1.11,1.11,0,0,0-.14.58Zm.83,5.8-.79-.44,3.5-6.67.79.44ZM67,173.79a1.86,1.86,0,0,1,.44-1.28,1.64,1.64,0,0,1,2.32,0,1.82,1.82,0,0,1,.44,1.31v.43a1.84,1.84,0,0,1-.42,1.26,1.65,1.65,0,0,1-2.35,0,1.85,1.85,0,0,1-.43-1.29Zm1.08.46a.92.92,0,0,0,.16.55.46.46,0,0,0,.37.22c.32,0,.49-.23.51-.7v-.53a1,1,0,0,0-.14-.56.47.47,0,0,0-.38-.22c-.35,0-.52.3-.52.9Z" fill="#333"/><path d="M183.27,226.52v33a4.86,4.86,0,0,1-4.87,4.87H106.51a4.88,4.88,0,0,1-4.88-4.87v-33Z" fill="#fff"/><rect x="101.63" y="171.37" width="81.64" height="55.15" fill="#abc9ff"/><path d="M183.27,162.68v8.69H101.63v-8.69a36.64,36.64,0,0,1,1.56-10.56l23.07-76.34h32.4l23.05,76.34A36.64,36.64,0,0,1,183.27,162.68Z" fill="#fff"/><path d="M126.26,60.4a3,3,0,0,1,3-3h26.4a3,3,0,0,1,3,3V75.78h-32.4Z" fill="#d5e4ff"/><path d="M158.66,75.78l23.05,76.34a36.64,36.64,0,0,1,1.56,10.56v96.87a4.86,4.86,0,0,1-4.87,4.87H106.51a4.88,4.88,0,0,1-4.88-4.87V162.68a36.64,36.64,0,0,1,1.56-10.56l23.07-76.34" fill="none" stroke="#333" stroke-miterlimit="10"/><path d="M158.66,75.78h-32.4V60.4a3,3,0,0,1,3-3h26.4a3,3,0,0,1,3,3Z" fill="none" stroke="#333" stroke-miterlimit="10"/><line x1="101.63" y1="171.37" x2="183.27" y2="171.37" fill="none" stroke="#333" stroke-linecap="round" stroke-linejoin="round"/><line x1="101.63" y1="226.52" x2="183.27" y2="226.52" fill="none" stroke="#333" stroke-linecap="round" stroke-linejoin="round"/><path d="M113.29,185.51h-3.06v7.1h-1.72v-8.53h4.78Z" fill="#333"/><path d="M118.53,184.08h1.72v8.53h-1.72V187L116,192.61h-1.73v-8.53H116v5.65Z" fill="#333"/><path d="M127.61,192.61h-1.72v-7.1h-2.53v7.1h-1.72v-8.53h6Z" fill="#333"/><path d="M135,189.11a4,4,0,0,1-.81,2.67,3.17,3.17,0,0,1-4.51,0,3.84,3.84,0,0,1-.83-2.63v-1.46a4.18,4.18,0,0,1,.81-2.74,3.08,3.08,0,0,1,4.51,0,4.18,4.18,0,0,1,.83,2.72Zm-1.73-1.43A3.51,3.51,0,0,0,133,186a1.11,1.11,0,0,0-1-.56,1.1,1.1,0,0,0-1,.54,3.33,3.33,0,0,0-.34,1.65v1.52a3.19,3.19,0,0,0,.33,1.65,1.14,1.14,0,0,0,1,.53,1.11,1.11,0,0,0,1-.52,3.15,3.15,0,0,0,.33-1.61Z" fill="#333"/><path d="M138.92,187l1.14-2.93h2l-2,4.23,2.05,4.3h-2l-1.17-3-1.17,3h-2l2.05-4.3-2-4.23h2Z" fill="#333"/><path d="M148.94,184.08v8.53h-1.73v-7.1h-1.58l-.12,3a10.27,10.27,0,0,1-.33,2.37,2.55,2.55,0,0,1-.78,1.28,2.16,2.16,0,0,1-1.38.42h-.42v-1.43l.19,0a1,1,0,0,0,.78-.71,8.11,8.11,0,0,0,.3-2.27l.11-4.1Z" fill="#333"/><path d="M156.34,189.11a4,4,0,0,1-.82,2.67,3.16,3.16,0,0,1-4.5,0,3.89,3.89,0,0,1-.84-2.63v-1.46A4.19,4.19,0,0,1,151,185a3.07,3.07,0,0,1,4.5,0,4.13,4.13,0,0,1,.84,2.72Zm-1.73-1.43a3.51,3.51,0,0,0-.33-1.72,1.11,1.11,0,0,0-1-.56,1.09,1.09,0,0,0-1,.54,3.23,3.23,0,0,0-.34,1.65v1.52a3.19,3.19,0,0,0,.33,1.65,1.14,1.14,0,0,0,1,.53,1.09,1.09,0,0,0,1-.52,3.14,3.14,0,0,0,.34-1.61Z" fill="#333"/><path d="M159.29,189.61v3h-1.72v-8.53h2.91a2.68,2.68,0,0,1,2,.78,2.82,2.82,0,0,1,.75,2,2.65,2.65,0,0,1-.74,2,2.83,2.83,0,0,1-2.07.73Zm0-1.44h1.19a1,1,0,0,0,.76-.32,1.44,1.44,0,0,0,.27-.94,1.64,1.64,0,0,0-.28-1,.88.88,0,0,0-.73-.39h-1.21Z" fill="#333"/><path d="M168.58,184.08h1.72v8.53h-1.72V187l-2.52,5.65h-1.73v-8.53h1.73v5.65Z" fill="#333"/><path d="M177.2,185.51h-2.11v7.1h-1.73v-7.1h-2.08v-1.43h5.92Z" fill="#333"/><path d="M128.62,206.61H126.9V203h-2.54v3.65h-1.72v-8.53h1.72v3.45h2.54v-3.45h1.72Z" fill="#333"/><path d="M134.07,204.86h-2.35l-.45,1.75h-1.83l2.67-8.53h1.58l2.68,8.53h-1.84Zm-2-1.43h1.59l-.79-3.05Z" fill="#333"/><path d="M142.69,199.51h-2.11v7.1h-1.73v-7.1h-2.07v-1.43h5.91Z" fill="#333"/><path d="M145.41,203.61v3h-1.73v-8.53h2.91a2.68,2.68,0,0,1,2,.78,2.82,2.82,0,0,1,.75,2,2.65,2.65,0,0,1-.74,2,2.83,2.83,0,0,1-2.07.73Zm0-1.44h1.18a1,1,0,0,0,.76-.32,1.44,1.44,0,0,0,.27-.94,1.64,1.64,0,0,0-.28-1,.86.86,0,0,0-.73-.39h-1.2Z" fill="#333"/><path d="M154.69,198.08h1.72v8.53h-1.72V201l-2.52,5.65h-1.73v-8.53h1.73v5.65Z" fill="#333"/><path d="M161,206.61v-3.07h-.9l-1.26,3.07h-1.86l1.51-3.69a2.52,2.52,0,0,1-1-2.21,2.61,2.61,0,0,1,.71-2,2.79,2.79,0,0,1,2-.68h2.56v8.53Zm-1.83-5.76a1.68,1.68,0,0,0,.25,1,1,1,0,0,0,.79.32H161v-2.69h-.85C159.45,199.51,159.13,200,159.13,200.85Z" fill="#333"/><line x1="407.61" y1="82.83" x2="425.42" y2="100.64" fill="none" stroke="#eb5f67" stroke-linecap="round" stroke-linejoin="round"/><line x1="407.61" y1="100.64" x2="425.42" y2="82.83" fill="none" stroke="#eb5f67" stroke-linecap="round" stroke-linejoin="round"/><line x1="332.61" y1="59.69" x2="340.52" y2="67.59" fill="none" stroke="#33ab7b" stroke-linecap="round" stroke-linejoin="round"/><line x1="340.52" y1="67.59" x2="351.5" y2="57.39" fill="none" stroke="#33ab7b" stroke-linecap="round" stroke-linejoin="round"/><line x1="246.03" y1="35.62" x2="253.93" y2="43.52" fill="none" stroke="#33ab7b" stroke-linecap="round" stroke-linejoin="round"/><line x1="253.93" y1="43.52" x2="264.91" y2="33.32" fill="none" stroke="#33ab7b" stroke-linecap="round" stroke-linejoin="round"/><line x1="169.34" y1="59.69" x2="177.24" y2="67.59" fill="none" stroke="#33ab7b" stroke-linecap="round" stroke-linejoin="round"/><line x1="177.24" y1="67.59" x2="188.22" y2="57.39" fill="none" stroke="#33ab7b" stroke-linecap="round" stroke-linejoin="round"/><line x1="89.68" y1="79.79" x2="97.58" y2="87.7" fill="none" stroke="#33ab7b" stroke-linecap="round" stroke-linejoin="round"/><line x1="97.58" y1="87.7" x2="108.57" y2="77.49" fill="none" stroke="#33ab7b" stroke-linecap="round" stroke-linejoin="round"/></svg>