<svg xmlns="http://www.w3.org/2000/svg" width="445" height="295" viewBox="0 0 445 295"><rect width="445" height="295" fill="#f2f2f2"/><path d="M387.46,21.88V273.15a1.85,1.85,0,0,1-2.42,1.76l-54.11-17.76V37.88h0L385,20.12A1.85,1.85,0,0,1,387.46,21.88ZM373.54,255.22V39.82a.93.93,0,0,0-1.2-.89l-26.86,8.82a.92.92,0,0,0-.63.88V246.4a.92.92,0,0,0,.63.88l26.86,8.82A.92.92,0,0,0,373.54,255.22Z" fill="#fff"/><path d="M330.88,242.27V52.72a1,1,0,0,0-1-1H228.06a1,1,0,0,0-1,1V242.27a1,1,0,0,0,1,1H329.88a1,1,0,0,0,1-.93v0S330.88,242.28,330.88,242.27ZM216.76,51.72H115a1,1,0,0,0-.88.53V37.85l-.14,0v-.05h217l0,.11h0V257.15l-216.86,0V242.75a1,1,0,0,0,.88.52H216.76a1,1,0,0,0,1-1V52.72A1,1,0,0,0,216.76,51.72Z" fill="#fff"/><path d="M330.88,52.72V242.27s0,0,0,0c-.74-1.2-21.05-34.3-33.74-60.87-20.35-42.59-28.66-129.73-28.66-129.73h61.41A1,1,0,0,1,330.88,52.72Z" fill="#fddda6"/><path d="M227.06,242.27V52.72a1,1,0,0,1,1-1h40.41s8.31,87.14,28.66,129.73c12.69,26.57,33,59.67,33.74,60.87v0a1,1,0,0,1-1,.93H228.06A1,1,0,0,1,227.06,242.27Z" fill="#999"/><path d="M176.36,51.72h40.4a1,1,0,0,1,1,1V242.27a1,1,0,0,1-1,1H115a1,1,0,0,1-.88-.52v-.59c1.69-2.78,21.27-34.84,33.63-60.71C168,138.86,176.36,51.72,176.36,51.72Z" fill="#999"/><path d="M115,51.72h61.41S168,138.86,147.7,181.45c-12.36,25.87-31.94,57.93-33.63,60.71V52.25A1,1,0,0,1,115,51.72Z" fill="#fddda6"/><path d="M114,242.34a.82.82,0,0,0,.12.41v14.37L60,274.88a1.85,1.85,0,0,1-2.42-1.76V21.85A1.84,1.84,0,0,1,60,20.1l54,17.71.14,0v14.4a.85.85,0,0,0-.13.47V242.27s0,0,0,0Zm-13.79,4V48.6a1,1,0,0,0-.64-.89l-26.85-8.8a.92.92,0,0,0-1.22.87v215.4a.92.92,0,0,0,1.22.88l26.85-8.81A.92.92,0,0,0,100.16,246.38Z" fill="#fff"/><path d="M114,242.34v0a1.59,1.59,0,0,1,.12-.16v.59A.82.82,0,0,1,114,242.34Z" fill="#fff"/><path d="M113.94,242.27V52.72a.85.85,0,0,1,.13-.47V242.16a1.59,1.59,0,0,0-.12.16S113.94,242.28,113.94,242.27Z" fill="#fff"/><line x1="330.93" y1="257.15" x2="114.07" y2="257.12" fill="none" stroke="#333" stroke-linecap="round" stroke-linejoin="round"/><line x1="113.94" y1="37.76" x2="330.93" y2="37.76" fill="none" stroke="#333" stroke-linecap="round" stroke-linejoin="round"/><path d="M114.07,52.25a1,1,0,0,1,.88-.53H216.76a1,1,0,0,1,1,1V242.27a1,1,0,0,1-1,1H115a1,1,0,0,1-.88-.52" fill="none" stroke="#333" stroke-linecap="round" stroke-linejoin="round"/><path d="M330.87,242.32s0,0,0,0V52.72a1,1,0,0,0-1-1H228.06a1,1,0,0,0-1,1V242.27a1,1,0,0,0,1,1H329.88a1,1,0,0,0,1-.93" fill="none" stroke="#333" stroke-linecap="round" stroke-linejoin="round"/><path d="M176.36,51.72S168,138.86,147.7,181.45c-12.36,25.87-31.94,57.93-33.63,60.71a1.59,1.59,0,0,0-.12.16" fill="none" stroke="#333" stroke-linecap="round" stroke-linejoin="round"/><path d="M268.47,51.72s8.31,87.14,28.66,129.73c12.69,26.57,33,59.67,33.74,60.87v0h0" fill="none" stroke="#333" stroke-linecap="round" stroke-linejoin="round"/><path d="M113.93,37.81,60,20.1a1.84,1.84,0,0,0-2.42,1.75V273.12A1.85,1.85,0,0,0,60,274.88l54.1-17.76V37.85Z" fill="none" stroke="#333" stroke-miterlimit="10"/><path d="M72.67,38.91l26.85,8.8a1,1,0,0,1,.64.89V246.38a.92.92,0,0,1-.64.87l-26.85,8.81a.92.92,0,0,1-1.22-.88V39.78A.92.92,0,0,1,72.67,38.91Z" fill="none" stroke="#333" stroke-miterlimit="10"/><path d="M331,37.87,385,20.12a1.85,1.85,0,0,1,2.42,1.76V273.15a1.85,1.85,0,0,1-2.42,1.76l-54.11-17.76V37.88Z" fill="none" stroke="#333" stroke-miterlimit="10"/><path d="M372.34,38.93l-26.86,8.82a.92.92,0,0,0-.63.88V246.4a.92.92,0,0,0,.63.88l26.86,8.82a.92.92,0,0,0,1.2-.88V39.82A.93.93,0,0,0,372.34,38.93Z" fill="none" stroke="#333" stroke-miterlimit="10"/><path d="M298.45,205.68a1.73,1.73,0,0,1,1.68,2.13L291.84,243H271.05l-8.31-35.19a1.73,1.73,0,0,1,1.7-2.13h34Z" fill="#fbbb4d"/><path d="M299.48,159.85c7.86,27.27-15.76,44.2-18,45.72l-.06-.19h0C282.54,202.33,291.58,177.5,299.48,159.85Z" fill="#66c09c"/><path d="M281.44,151.38c7.71,26.75.91,51,0,54C280.52,202.33,273.72,178.13,281.44,151.38Z" fill="#66c09c"/><path d="M281.5,205.57a.58.58,0,0,1,0,.1l-.08,0A.15.15,0,0,1,281.5,205.57Z" fill="#e5e5e5"/><path d="M281.44,205.38l.06.19a.15.15,0,0,0-.06.05l-.07-.05s0-.1.06-.19Z" fill="#e5e5e5"/><path d="M281.43,205.36v0c0,.09-.05.15-.06.19-2.22-1.52-25.84-18.45-18-45.72C271.29,177.47,280.31,202.27,281.43,205.36Z" fill="#66c09c"/><path d="M281.37,205.57l.07.05-.09,0A.58.58,0,0,1,281.37,205.57Z" fill="#e5e5e5"/><path d="M281.44,243H271.05l-8.31-35.19a1.73,1.73,0,0,1,1.7-2.13h17" fill="none" stroke="#333" stroke-linecap="round" stroke-linejoin="round"/><path d="M281.52,205.67l-.08,0" fill="none" stroke="#333" stroke-linecap="round" stroke-linejoin="round"/><path d="M281.37,205.57c-2.22-1.52-25.84-18.45-18-45.72,7.9,17.62,16.92,42.42,18,45.51" fill="none" stroke="#333" stroke-linecap="round" stroke-linejoin="round"/><path d="M281.44,205.37h0c-.91-3-7.71-27.23,0-54" fill="none" stroke="#333" stroke-linecap="round" stroke-linejoin="round"/><path d="M281.54,205.68h0a.58.58,0,0,0,0-.1" fill="none" stroke="#333" stroke-linecap="round" stroke-linejoin="round"/><path d="M281.44,243h10.4l8.29-35.19a1.73,1.73,0,0,0-1.68-2.13h-17" fill="none" stroke="#333" stroke-linecap="round" stroke-linejoin="round"/><path d="M281.35,205.67l.09,0a.15.15,0,0,1,.06-.05c2.22-1.52,25.84-18.45,18-45.72-7.9,17.65-16.94,42.48-18,45.52h0" fill="none" stroke="#333" stroke-linecap="round" stroke-linejoin="round"/><path d="M281.34,205.68h0a.58.58,0,0,1,0-.1s0-.1.06-.19v0c.92-3,7.72-27.23,0-54" fill="none" stroke="#333" stroke-linecap="round" stroke-linejoin="round"/></svg>