<svg xmlns="http://www.w3.org/2000/svg" viewBox="0 0 445 300"><rect width="445" height="300" fill="#f2f2f2"/><path d="M37.19,65.09a15.61,15.61,0,0,1,17.23-26l90.7,60,.13.13a100.73,100.73,0,0,0-17.2,26l-.16-.07Z" fill="#333"/><path d="M128.05,125.2a100,100,0,1,1,35.78,124.93A100.88,100.88,0,0,1,128.05,125.2Z" fill="#666"/><path d="M127.89,125.13l-90.7-60a15.61,15.61,0,0,1,17.23-26l90.7,60" fill="none" stroke="#333" stroke-linecap="round" stroke-linejoin="round"/><path d="M128.05,125.2a100,100,0,1,1,35.78,124.93A100.88,100.88,0,0,1,128.05,125.2Z" fill="none" stroke="#333" stroke-miterlimit="10"/><path d="M263.48,210.89a29.11,29.11,0,1,0,.71-57,29.09,29.09,0,0,0-30.78-49.22c-.73.39-1.43.82-2.11,1.26a29.1,29.1,0,1,0-55.68,13.85,29.09,29.09,0,1,0-4.8,57.8A29.1,29.1,0,1,0,209,220.48a29.1,29.1,0,1,0,54.5-9.59Z" fill="#fccc7a" stroke="#333" stroke-linecap="round" stroke-linejoin="round"/><circle cx="185" cy="227.18" r="10.48" fill="#faaa21" stroke="#333" stroke-linecap="round" stroke-linejoin="round"/><circle cx="262.66" cy="208.57" r="10.48" fill="#faaa21" stroke="#333" stroke-linecap="round" stroke-linejoin="round"/><circle cx="294.88" cy="161.43" r="10.48" fill="#faaa21" stroke="#333" stroke-linecap="round" stroke-linejoin="round"/><circle cx="255.93" cy="197.02" r="10.48" fill="#faaa21" stroke="#333" stroke-linecap="round" stroke-linejoin="round"/><circle cx="211.13" cy="241.92" r="10.48" fill="#faaa21" stroke="#333" stroke-linecap="round" stroke-linejoin="round"/><circle cx="163.7" cy="168.27" r="10.48" fill="#faaa21" stroke="#333" stroke-linecap="round" stroke-linejoin="round"/><circle cx="150.12" cy="192.38" r="10.48" fill="#faaa21" stroke="#333" stroke-linecap="round" stroke-linejoin="round"/><circle cx="219.65" cy="186.48" r="10.48" fill="#faaa21" stroke="#333" stroke-linecap="round" stroke-linejoin="round"/><circle cx="205.01" cy="114.9" r="10.48" fill="#faaa21" stroke="#333" stroke-linecap="round" stroke-linejoin="round"/><circle cx="250.15" cy="128.21" r="10.48" fill="#faaa21" stroke="#333" stroke-linecap="round" stroke-linejoin="round"/><circle cx="272.93" cy="127.56" r="10.48" fill="#faaa21" stroke="#333" stroke-linecap="round" stroke-linejoin="round"/><circle cx="268.39" cy="155.34" r="10.48" fill="#faaa21" stroke="#333" stroke-linecap="round" stroke-linejoin="round"/><circle cx="237" cy="161.73" r="10.48" fill="#faaa21" stroke="#333" stroke-linecap="round" stroke-linejoin="round"/><circle cx="178.25" cy="131.22" r="10.48" fill="#faaa21" stroke="#333" stroke-linecap="round" stroke-linejoin="round"/><circle cx="207.09" cy="152.39" r="5.5" fill="#66c09c" stroke="#333" stroke-linecap="round" stroke-linejoin="round"/><circle cx="169.03" cy="177.87" r="5.5" fill="#66c09c" stroke="#333" stroke-linecap="round" stroke-linejoin="round"/><circle cx="188.35" cy="218.65" r="5.5" fill="#66c09c" stroke="#333" stroke-linecap="round" stroke-linejoin="round"/><circle cx="216.84" cy="194.58" r="5.5" fill="#66c09c" stroke="#333" stroke-linecap="round" stroke-linejoin="round"/><circle cx="271.27" cy="178.99" r="5.5" fill="#66c09c" stroke="#333" stroke-linecap="round" stroke-linejoin="round"/><circle cx="269.47" cy="107.68" r="5.5" fill="#66c09c" stroke="#333" stroke-linecap="round" stroke-linejoin="round"/><circle cx="293.43" cy="146.64" r="5.5" fill="#66c09c" stroke="#333" stroke-linecap="round" stroke-linejoin="round"/><circle cx="235.55" cy="220.26" r="5.5" fill="#66c09c" stroke="#333" stroke-linecap="round" stroke-linejoin="round"/><circle cx="175.89" cy="118.72" r="5.5" fill="#66c09c" stroke="#333" stroke-linecap="round" stroke-linejoin="round"/><circle cx="188.6" cy="101.19" r="5.5" fill="#66c09c" stroke="#333" stroke-linecap="round" stroke-linejoin="round"/><circle cx="153.61" cy="121.55" r="5.5" fill="#66c09c" stroke="#333" stroke-linecap="round" stroke-linejoin="round"/><circle cx="245.49" cy="233.81" r="5.5" fill="#66c09c" stroke="#333" stroke-linecap="round" stroke-linejoin="round"/><circle cx="158.74" cy="214.29" r="5.5" fill="#66c09c" stroke="#333" stroke-linecap="round" stroke-linejoin="round"/><path d="M421.59,23.83a1.57,1.57,0,0,1,0,2.22l-2.65,2.65-.24.2a22.53,22.53,0,0,0-2.19-2.18l.21-.24,2.65-2.65A1.58,1.58,0,0,1,421.59,23.83Z" fill="#abc9ff"/><path d="M418.7,28.9a25,25,0,1,1-37.42,0,22.53,22.53,0,0,1,2.19-2.18,24.86,24.86,0,0,1,14.95-6.19c.52,0,1-.05,1.57-.05s1.05,0,1.57.05a24.86,24.86,0,0,1,14.95,6.19A22.53,22.53,0,0,1,418.7,28.9Zm3.09,16.58A21.8,21.8,0,1,0,400,67.28,21.83,21.83,0,0,0,421.79,45.48Z" fill="#d5e4ff"/><circle cx="399.99" cy="45.48" r="21.8" fill="#abc9ff"/><path d="M398.42,20.48V16.14a1,1,0,0,0-1-1h-.15a1,1,0,0,1-1-1V14a1,1,0,0,1,1-1h5.27a1,1,0,0,1,1,1v.16a1,1,0,0,1-1,1,1,1,0,0,0-1,1v4.39c-.52,0-1-.05-1.57-.05s-1.05,0-1.57.05Z" fill="#abc9ff"/><path d="M383.26,26.48l.21.24a22.53,22.53,0,0,0-2.19,2.18l-.24-.2-2.65-2.65a1.57,1.57,0,0,1,0-2.22,1.58,1.58,0,0,1,2.22,0Z" fill="#abc9ff"/><path d="M416.72,26.48l2.65-2.65a1.58,1.58,0,0,1,2.22,0,1.57,1.57,0,0,1,0,2.22l-2.65,2.65" fill="none" stroke="#333" stroke-linecap="round" stroke-linejoin="round"/><path d="M401.56,20.48V16.14a1,1,0,0,1,1-1,1,1,0,0,0,1-1V14a1,1,0,0,0-1-1h-5.27a1,1,0,0,0-1,1v.16a1,1,0,0,0,1,1h.15a1,1,0,0,1,1,1v4.34" fill="none" stroke="#333" stroke-linecap="round" stroke-linejoin="round"/><path d="M418.7,28.9a25,25,0,1,1-37.42,0,22.53,22.53,0,0,1,2.19-2.18,24.86,24.86,0,0,1,14.95-6.19c.52,0,1-.05,1.57-.05s1.05,0,1.57.05a24.86,24.86,0,0,1,14.95,6.19A22.53,22.53,0,0,1,418.7,28.9Z" fill="none" stroke="#333" stroke-linecap="round" stroke-linejoin="round"/><circle cx="399.99" cy="45.48" r="21.8" fill="none" stroke="#333" stroke-linecap="round" stroke-linejoin="round"/><polyline points="399.99 32.5 399.99 46.48 412.36 46.48" fill="none" stroke="#333" stroke-linecap="round" stroke-linejoin="round"/><path d="M383.26,26.48l-2.65-2.65a1.58,1.58,0,0,0-2.22,0,1.57,1.57,0,0,0,0,2.22L381,28.7" fill="none" stroke="#333" stroke-linecap="round" stroke-linejoin="round"/><path d="M390.49,78.76v1.87h-.12a2.68,2.68,0,0,0-2,.75,3.36,3.36,0,0,0-.89,2.07,2.25,2.25,0,0,1,1.78-.82,2.3,2.3,0,0,1,2,1.06,5.42,5.42,0,0,1,.32,4.83,3.3,3.3,0,0,1-1.18,1.39,3.1,3.1,0,0,1-1.73.5,3,3,0,0,1-2.48-1.24,5.48,5.48,0,0,1-.93-3.35V85a8.64,8.64,0,0,1,.59-3.3,4.78,4.78,0,0,1,1.7-2.17,4.5,4.5,0,0,1,2.6-.77Zm-1.89,5.69a1,1,0,0,0-.71.27,1.76,1.76,0,0,0-.43.66v.8a4,4,0,0,0,.32,1.8,1,1,0,0,0,.85.59,1,1,0,0,0,.85-.57,3.09,3.09,0,0,0,.32-1.48,3,3,0,0,0-.33-1.49A1,1,0,0,0,388.6,84.45Z" fill="#333"/><path d="M400,85.55a6.4,6.4,0,0,1-.85,3.61,3,3,0,0,1-4.87,0,6.15,6.15,0,0,1-.88-3.48V83.56a6.33,6.33,0,0,1,.85-3.59,2.77,2.77,0,0,1,2.44-1.25A2.81,2.81,0,0,1,399.1,80a6.34,6.34,0,0,1,.86,3.53Zm-2.21-2.31a5.7,5.7,0,0,0-.27-2,.88.88,0,0,0-.83-.67c-.7,0-1.07.82-1.09,2.46v2.83a5.84,5.84,0,0,0,.27,2.05.89.89,0,0,0,.84.67.86.86,0,0,0,.8-.63,5.81,5.81,0,0,0,.28-1.92Z" fill="#333"/><path d="M401.43,80.88a2.17,2.17,0,0,1,2.13-2.16,2,2,0,0,1,1.48.63,2.11,2.11,0,0,1,.62,1.53A2.07,2.07,0,0,1,405,82.4a2,2,0,0,1-1.48.61,2.08,2.08,0,0,1-1.49-.61A2,2,0,0,1,401.43,80.88Zm2.13,1a.88.88,0,0,0,.68-.29.93.93,0,0,0,.27-.68,1,1,0,0,0-.27-.71.84.84,0,0,0-.68-.29.93.93,0,0,0-.7.29,1,1,0,0,0-.28.71.94.94,0,0,0,.29.69A1,1,0,0,0,403.56,81.85Z" fill="#333"/><path d="M415,86.46a4.29,4.29,0,0,1-1.09,3,3.88,3.88,0,0,1-2.84,1,3.6,3.6,0,0,1-3-1.27,5.61,5.61,0,0,1-1-3.62V83.6A5.53,5.53,0,0,1,408.14,80a4.2,4.2,0,0,1,5.78-.23,4.75,4.75,0,0,1,1.1,3h-2.31a3,3,0,0,0-.37-1.66,1.46,1.46,0,0,0-1.24-.45,1.4,1.4,0,0,0-1.31.64,4.52,4.52,0,0,0-.4,2.12v2.15a5,5,0,0,0,.37,2.33,1.41,1.41,0,0,0,1.31.63,1.52,1.52,0,0,0,1.25-.44,3.07,3.07,0,0,0,.39-1.6Z" fill="#333"/><path d="M379.46,102.76h1.07a1,1,0,0,0,.9-.43,2,2,0,0,0,.28-1.14,1.64,1.64,0,0,0-.29-1,.92.92,0,0,0-.78-.38.94.94,0,0,0-.76.36,1.39,1.39,0,0,0-.29.9h-2.21a3.1,3.1,0,0,1,.41-1.6,2.77,2.77,0,0,1,1.15-1.1,3.31,3.31,0,0,1,1.63-.4,3.36,3.36,0,0,1,2.46.87,3.14,3.14,0,0,1,.89,2.37,2.7,2.7,0,0,1-.4,1.44,2.78,2.78,0,0,1-1.06,1,2.4,2.4,0,0,1,1.2,1,3.51,3.51,0,0,1-.57,4,3.53,3.53,0,0,1-2.53.92,3.11,3.11,0,0,1-3.28-3.28h2.21a1.6,1.6,0,0,0,.32,1,1,1,0,0,0,.81.41,1.08,1.08,0,0,0,.9-.42,1.79,1.79,0,0,0,.33-1.13c0-1.12-.43-1.68-1.3-1.68h-1.09Z" fill="#333"/><path d="M392.2,104.75a6.4,6.4,0,0,1-.86,3.61,3,3,0,0,1-4.86,0,6.07,6.07,0,0,1-.89-3.48v-2.15a6.33,6.33,0,0,1,.85-3.59,3,3,0,0,1,4.89,0,6.25,6.25,0,0,1,.87,3.53ZM390,102.44a5.7,5.7,0,0,0-.27-2,.87.87,0,0,0-.82-.67c-.71,0-1.07.82-1.1,2.46v2.83a5.84,5.84,0,0,0,.27,2,.89.89,0,0,0,.84.67.85.85,0,0,0,.8-.63,5.32,5.32,0,0,0,.28-1.92Z" fill="#333"/><path d="M401.86,106.76l1.59-5.76h2.77v8.45H404v-4.52l-1.41,4.52h-1.47l-1.35-4.37v4.37h-2.21V101h2.73Z" fill="#333"/><path d="M412.24,101h2.2v8.45h-2.2v-5.19l-2,5.19h-2.22V101h2.22v5.19Z" fill="#333"/><path d="M422.42,109.45h-2.21V106.2h-1.95v3.25H416V101h2.22v3.38h1.95V101h2.21Z" fill="#333"/></svg>