<svg xmlns="http://www.w3.org/2000/svg" viewBox="0 0 445 295"><rect width="445" height="295" fill="#f2f2f2"/><path d="M244.93,152.91v47.57a5.47,5.47,0,0,1-5.46,5.46H175.36a5.47,5.47,0,0,1-5.46-5.46V152.91Z" fill="#81aeff"/><rect x="169.9" y="102.24" width="75.03" height="50.67" fill="#abc9ff"/><path d="M244.93,44.83v57.41h-75V44.83A7.26,7.26,0,0,1,175,37.9l16.64-5.32h31.6l16.65,5.32A7.27,7.27,0,0,1,244.93,44.83Z" fill="#81aeff"/><path d="M223.21,23.5v9.08h-31.6V23.5a3,3,0,0,1,3-3h25.6A3,3,0,0,1,223.21,23.5Z" fill="#5793ff"/><path d="M223.21,32.58l16.65,5.32a7.27,7.27,0,0,1,5.07,6.93V200.48a5.47,5.47,0,0,1-5.46,5.46H175.36a5.47,5.47,0,0,1-5.46-5.46V44.83A7.26,7.26,0,0,1,175,37.9l16.64-5.32" fill="none" stroke="#333" stroke-miterlimit="10"/><path d="M223.21,32.58h-31.6V23.5a3,3,0,0,1,3-3h25.6a3,3,0,0,1,3,3Z" fill="none" stroke="#333" stroke-miterlimit="10"/><line x1="169.9" y1="102.24" x2="244.93" y2="102.24" fill="none" stroke="#333" stroke-linecap="round" stroke-linejoin="round"/><line x1="169.9" y1="152.91" x2="244.93" y2="152.91" fill="none" stroke="#333" stroke-linecap="round" stroke-linejoin="round"/><circle cx="201.78" cy="219" r="9.52" fill="#d5e4ff" stroke="#333" stroke-linecap="round" stroke-linejoin="round"/><path d="M249.31,215.37c1.5,8.58-11.22,11.07-13.8-.49-.4-2.21-.76-4.35-1-6.47h0c.39,14.2-12,12.3-14,1.78-3-16.14-8.62-42.46,8.62-71.26,20.16-33.63,29.46-35.26,50.89-60,17.76-20.55,46.95-6.37,49.59,14.29,2.62,20.38-10.09,31.69-39.41,62.65-17.72,18.7-15,37.86-13.27,48.77,2.6,16.57-10.35,15.07-12.93,5.78C267.17,226.22,251.62,226,249.31,215.37Z" fill="#f5afb3"/><path d="M263.92,210.38c2.58,9.29,15.53,10.79,12.93-5.78-1.71-10.91-4.45-30.07,13.27-48.77,29.32-31,42-42.27,39.41-62.65-2.64-20.66-31.83-34.84-49.59-14.29-21.43,24.79-30.73,26.42-50.89,60.05-17.24,28.8-11.65,55.12-8.62,71.26,2,10.52,14.39,12.42,14-1.78" fill="none" stroke="#333" stroke-linecap="round" stroke-linejoin="round"/><path d="M235.51,214.88c-.4-2.21-.76-4.35-1-6.47a145.27,145.27,0,0,1-1.39-20.29" fill="none" stroke="#333" stroke-linecap="round" stroke-linejoin="round"/><path d="M249.31,215.37a196.32,196.32,0,0,1-2.76-28.54" fill="none" stroke="#333" stroke-linecap="round" stroke-linejoin="round"/><path d="M263.92,210.38c-2.31-9.12-2.64-16.28-3-23.13" fill="none" stroke="#333" stroke-linecap="round" stroke-linejoin="round"/><path d="M235.51,214.88c2.58,11.56,15.3,9.07,13.8.49,2.31,10.65,17.86,10.85,14.61-5" fill="none" stroke="#333" stroke-linecap="round" stroke-linejoin="round"/><path d="M191,227l-10.86,10.14c-11.44-33.72-22.56-67.17-50.92-95.2L143,128.15C165.2,148.29,181.29,193.63,191,227Z" fill="#d5e4ff"/><path d="M143,124.06a2.89,2.89,0,0,1,0,4.09l-13.77,13.77a2.89,2.89,0,0,1-4.05,0l-13.68-13.3a11.61,11.61,0,0,0-8.07-3.27H71.51a2.89,2.89,0,0,0-2.89,2.89v84.65a2.9,2.9,0,0,1-2.89,2.89H42.29a2.89,2.89,0,0,1-2.89-2.89V94.5a2.88,2.88,0,0,0,3.26,2.85l23.45-3.08a2.91,2.91,0,0,0,2.51-2.87v7a2.89,2.89,0,0,0,2.89,2.89h36.73a28.93,28.93,0,0,1,20.45,8.47Z" fill="#ccc"/><path d="M115.62,64.42v6a2.89,2.89,0,0,1-2.46,2.86L71.08,79.75a2.9,2.9,0,0,0-2.46,2.86V91.4a2.91,2.91,0,0,1-2.51,2.87L42.66,97.35A2.88,2.88,0,0,1,39.4,94.5V74a2.88,2.88,0,0,1,2.49-2.87l70.44-9.62A2.89,2.89,0,0,1,115.62,64.42Z" fill="#ccc"/><path d="M39.4,94.5V212.93a2.89,2.89,0,0,0,2.89,2.89H65.73a2.9,2.9,0,0,0,2.89-2.89V128.28a2.89,2.89,0,0,1,2.89-2.89h31.9a11.61,11.61,0,0,1,8.07,3.27L125.16,142a2.89,2.89,0,0,0,4.05,0L143,128.15a2.89,2.89,0,0,0,0-4.09l-14.29-14.3a28.93,28.93,0,0,0-20.45-8.47H71.51a2.89,2.89,0,0,1-2.89-2.89v-7" fill="none" stroke="#333" stroke-linecap="round" stroke-linejoin="round"/><path d="M68.62,91.4a2.91,2.91,0,0,1-2.51,2.87L42.66,97.35A2.88,2.88,0,0,1,39.4,94.5V74a2.88,2.88,0,0,1,2.49-2.87l70.44-9.62a2.89,2.89,0,0,1,3.29,2.87v6a2.89,2.89,0,0,1-2.46,2.86L71.08,79.75a2.9,2.9,0,0,0-2.46,2.86V91.4Z" fill="none" stroke="#333" stroke-linecap="round" stroke-linejoin="round"/><path d="M129.21,141.92c28.36,28,39.48,61.48,50.92,95.2L191,227c-9.7-33.35-25.79-78.69-48-98.83" fill="none" stroke="#333" stroke-linecap="round" stroke-linejoin="round"/><path d="M254.06,224A32.3,32.3,0,1,1,197,254.24c-8.36-15.77-.48-31.77,15.29-40.13S245.7,208.21,254.06,224Zm-32.39-.91,4.12-3-4.9-1.44-1.6-4.86L216.4,218h-5.11l3.13,4.05-1.57,4.87,4.82-1.72,4.15,3Z" fill="#eb5f67"/><polygon points="225.79 220.04 221.67 223.06 221.82 228.17 217.67 225.18 212.85 226.9 214.42 222.03 211.29 217.98 216.4 217.97 219.29 213.74 220.89 218.6 225.79 220.04" fill="#66c09c"/><path d="M254.06,224A32.3,32.3,0,1,1,197,254.24c-8.36-15.77-.48-31.77,15.29-40.13S245.7,208.21,254.06,224Z" fill="none" stroke="#333" stroke-miterlimit="10"/><polygon points="216.4 217.97 219.29 213.74 220.89 218.6 225.79 220.04 221.67 223.06 221.82 228.17 217.67 225.18 212.85 226.9 214.42 222.03 211.29 217.98 216.4 217.97" fill="none" stroke="#333" stroke-miterlimit="10"/><path d="M112.8,226.05c.15,5.17,2.39,20,22.23,29.28s32.66,1.53,36.72-1.66a3.29,3.29,0,0,1,3.07-.53c2.66.83,7.8,1.49,10.63-4.56s-1-9.58-3.3-11.08a3.33,3.33,0,0,1-1.56-2.7c-.15-5.17-2.39-20-22.23-29.28s-32.65-1.53-36.72,1.66a3.32,3.32,0,0,1-3.07.54c-2.66-.84-7.8-1.5-10.63,4.55s1,9.58,3.3,11.08A3.3,3.3,0,0,1,112.8,226.05Z" fill="#fccc7a"/><path d="M185.45,248.58c-2.83,6-8,5.39-10.63,4.56a3.29,3.29,0,0,0-3.07.53c-4.06,3.19-16.88,11-36.72,1.66" fill="none" stroke="#333" stroke-linecap="round" stroke-linejoin="round"/><path d="M185.45,248.58c2.83-6.05-1-9.58-3.3-11.08a3.33,3.33,0,0,1-1.56-2.7c-.15-5.17-2.39-20-22.23-29.28" fill="none" stroke="#333" stroke-linecap="round" stroke-linejoin="round"/><path d="M107.94,212.27c-2.83,6,1,9.58,3.3,11.08a3.3,3.3,0,0,1,1.56,2.7c.15,5.17,2.39,20,22.23,29.28" fill="none" stroke="#333" stroke-linecap="round" stroke-linejoin="round"/><path d="M107.94,212.27c2.83-6.05,8-5.39,10.63-4.55a3.32,3.32,0,0,0,3.07-.54c4.07-3.19,16.88-11,36.72-1.66" fill="none" stroke="#333" stroke-linecap="round" stroke-linejoin="round"/><path d="M319.39,219.14c11,1.13,19.18,8.45,18.06,19.41a19.94,19.94,0,0,1-39.67-4.07C298.9,223.52,308.44,218,319.39,219.14Zm4.39,3.86-2.93,1.17-2.63-1.74.22,3.15-2.48,2,3.06.77,1.1,3,1.68-2.68,3.16-.13-2-2.42Z" fill="#eb5f67"/><polygon points="320.85 224.17 323.78 223 322.93 226.04 324.96 228.46 321.8 228.59 320.12 231.27 319.02 228.31 315.96 227.54 318.44 225.58 318.22 222.43 320.85 224.17" fill="#66c09c"/><path d="M337.45,238.55a19.94,19.94,0,0,1-39.67-4.07c1.12-11,10.66-16.46,21.61-15.34S338.57,227.59,337.45,238.55Z" fill="none" stroke="#333" stroke-miterlimit="10"/><polygon points="320.85 224.17 323.78 223 322.93 226.04 324.96 228.46 321.8 228.59 320.12 231.27 319.02 228.31 315.96 227.54 318.44 225.58 318.22 222.43 320.85 224.17" fill="none" stroke="#333" stroke-miterlimit="10"/><circle cx="259.09" cy="176.2" r="6" fill="#d5e4ff" stroke="#333" stroke-linecap="round" stroke-linejoin="round"/><path d="M256.22,226.41h0c-5.84,14.1-17.19,6.8-14.52-4.38,4.11-17.16,10.15-45.42,39.69-66.11,34.51-24.15,35.93-17.7,63.66-34.54,28.45-17.28,55.06,9.44,50.17,33-3.72,17.94-19,27.36-61.33,44.87-25.57,10.59-31.29,30.58-34.4,42-4.71,17.4-16.75,10.25-15.21,0-3.75,17-18.92,10-16.51-1.52-2.29,9.09-15.87,5.95-13.33-6.51C255,230.87,255.58,228.62,256.22,226.41Z" fill="#f5afb3"/><path d="M284.26,241.26c-1.54,10.25,10.5,17.4,15.21,0,3.11-11.45,8.83-31.44,34.4-42,42.32-17.51,57.61-26.93,61.33-44.87,4.89-23.54-21.72-50.26-50.17-33-27.73,16.84-29.15,10.39-63.66,34.54-29.54,20.69-35.58,49-39.69,66.11-2.67,11.18,8.68,18.48,14.52,4.38" fill="none" stroke="#333" stroke-linecap="round" stroke-linejoin="round"/><path d="M254.42,233.23c.57-2.36,1.16-4.61,1.8-6.82a159.69,159.69,0,0,1,7.54-20.5" fill="none" stroke="#333" stroke-linecap="round" stroke-linejoin="round"/><path d="M267.75,239.74a209.86,209.86,0,0,1,9.8-29.18" fill="none" stroke="#333" stroke-linecap="round" stroke-linejoin="round"/><path d="M284.26,241.26c1.73-10,4.55-17.12,7.17-24" fill="none" stroke="#333" stroke-linecap="round" stroke-linejoin="round"/><path d="M254.42,233.23c-2.54,12.46,11,15.6,13.33,6.51-2.41,11.48,12.76,18.49,16.51,1.52" fill="none" stroke="#333" stroke-linecap="round" stroke-linejoin="round"/><circle cx="207.41" cy="265.48" r="9.52" fill="#d5e4ff" stroke="#333" stroke-linecap="round" stroke-linejoin="round"/><circle cx="194.54" cy="203.4" r="6" fill="#d5e4ff" stroke="#333" stroke-linecap="round" stroke-linejoin="round"/><circle cx="154.62" cy="227.47" r="9.52" fill="#d5e4ff" stroke="#333" stroke-linecap="round" stroke-linejoin="round"/><circle cx="160.1" cy="248.54" r="6" fill="#d5e4ff" stroke="#333" stroke-linecap="round" stroke-linejoin="round"/><circle cx="182.04" cy="188.12" r="6" fill="#d5e4ff" stroke="#333" stroke-linecap="round" stroke-linejoin="round"/><circle cx="173.81" cy="221.6" r="6" fill="#d5e4ff" stroke="#333" stroke-linecap="round" stroke-linejoin="round"/><circle cx="258.41" cy="242.4" r="9.52" fill="#d5e4ff" stroke="#333" stroke-linecap="round" stroke-linejoin="round"/><circle cx="194.54" cy="227.6" r="6" fill="#d5e4ff" stroke="#333" stroke-linecap="round" stroke-linejoin="round"/><circle cx="186.46" cy="237.12" r="9.52" fill="#d5e4ff" stroke="#333" stroke-linecap="round" stroke-linejoin="round"/><circle cx="232.64" cy="207.79" r="9.52" fill="#d5e4ff" stroke="#333" stroke-linecap="round" stroke-linejoin="round"/><circle cx="299.29" cy="212.55" r="6" fill="#d5e4ff" stroke="#333" stroke-linecap="round" stroke-linejoin="round"/><path d="M421.6,23.83a1.57,1.57,0,0,1,0,2.22l-2.66,2.66-.24.2a22.53,22.53,0,0,0-2.19-2.18l.21-.24,2.66-2.66A1.58,1.58,0,0,1,421.6,23.83Z" fill="#abc9ff"/><path d="M418.7,28.91a25,25,0,1,1-20.28-8.37c.52,0,1-.05,1.57-.05s1.05,0,1.57.05a24.86,24.86,0,0,1,14.95,6.19A22.53,22.53,0,0,1,418.7,28.91Zm3.09,16.58A21.8,21.8,0,1,0,400,67.28,21.82,21.82,0,0,0,421.79,45.49Z" fill="#d5e4ff"/><path d="M400,23.69a21.8,21.8,0,1,1-21.8,21.8A21.82,21.82,0,0,1,400,23.69Z" fill="#abc9ff"/><path d="M398.42,20.49V16.15a1,1,0,0,0-1-1h-.15a1,1,0,0,1-1-1V14a1,1,0,0,1,1-1h5.27a1,1,0,0,1,1,1v.17a1,1,0,0,1-1,1,1,1,0,0,0-1,1v4.39c-.52,0-1-.05-1.57-.05s-1.05,0-1.57.05Z" fill="#abc9ff"/><path d="M383.26,26.49l.21.24a25,25,0,0,0-2.19,2.18l-.24-.2-2.65-2.66a1.57,1.57,0,0,1,0-2.22,1.58,1.58,0,0,1,2.22,0Z" fill="#abc9ff"/><path d="M416.72,26.49l2.66-2.66a1.58,1.58,0,0,1,2.22,0,1.57,1.57,0,0,1,0,2.22l-2.66,2.66" fill="none" stroke="#333" stroke-linecap="round" stroke-linejoin="round"/><path d="M401.56,20.49V16.15a1,1,0,0,1,1-1,1,1,0,0,0,1-1V14a1,1,0,0,0-1-1h-5.27a1,1,0,0,0-1,1v.17a1,1,0,0,0,1,1h.15a1,1,0,0,1,1,1v4.34" fill="none" stroke="#333" stroke-linecap="round" stroke-linejoin="round"/><path d="M418.7,28.91a25,25,0,1,1-20.28-8.37c.52,0,1-.05,1.57-.05s1.05,0,1.57.05a24.86,24.86,0,0,1,14.95,6.19A22.53,22.53,0,0,1,418.7,28.91Z" fill="none" stroke="#333" stroke-linecap="round" stroke-linejoin="round"/><path d="M400,67.28a21.8,21.8,0,1,1,21.8-21.79A21.82,21.82,0,0,1,400,67.28Z" fill="none" stroke="#333" stroke-linecap="round" stroke-linejoin="round"/><polyline points="399.99 32.5 399.99 46.49 412.36 46.49" fill="none" stroke="#333" stroke-linecap="round" stroke-linejoin="round"/><path d="M383.26,26.49l-2.65-2.66a1.58,1.58,0,0,0-2.22,0,1.57,1.57,0,0,0,0,2.22L381,28.71" fill="none" stroke="#333" stroke-linecap="round" stroke-linejoin="round"/><path d="M386,90.25h-6.7V88.69l3.07-3.91a8.69,8.69,0,0,0,.87-1.43,2.94,2.94,0,0,0,.28-1.18,2.19,2.19,0,0,0-.27-1.18.81.81,0,0,0-.75-.43,1,1,0,0,0-.86.5,2.62,2.62,0,0,0-.31,1.4h-2.22a4.19,4.19,0,0,1,.43-1.91,3.26,3.26,0,0,1,1.22-1.35,3.34,3.34,0,0,1,1.78-.48,3.2,3.2,0,0,1,2.36.84A3.24,3.24,0,0,1,385.7,82a4.55,4.55,0,0,1-.46,2,11.63,11.63,0,0,1-1.69,2.43l-1.46,2.09H386Z" fill="#333"/><path d="M394,85.55a6.37,6.37,0,0,1-.86,3.61,3,3,0,0,1-4.86,0,6.15,6.15,0,0,1-.89-3.48V83.56A6.33,6.33,0,0,1,388.2,80a3,3,0,0,1,4.89,0,6.19,6.19,0,0,1,.87,3.52Zm-2.22-2.31a6,6,0,0,0-.26-2,.89.89,0,0,0-.83-.67c-.71,0-1.07.82-1.1,2.46v2.83a5.84,5.84,0,0,0,.27,2.05.89.89,0,0,0,.84.67.85.85,0,0,0,.8-.63,5.32,5.32,0,0,0,.28-1.92Z" fill="#333"/><path d="M402.25,88.57c.64,0,1-.41,1-1.25h2.07a3.11,3.11,0,0,1-.85,2.24,2.91,2.91,0,0,1-2.15.85,3.1,3.1,0,0,1-2.5-1,4.57,4.57,0,0,1-.87-3v-.67a4.71,4.71,0,0,1,.85-3,3,3,0,0,1,2.5-1,2.84,2.84,0,0,1,2.2.87A3.48,3.48,0,0,1,405.3,85h-2.07a2.3,2.3,0,0,0-.24-1.1.81.81,0,0,0-.75-.38.91.91,0,0,0-.83.41,3.59,3.59,0,0,0-.26,1.59v.86a6.72,6.72,0,0,0,.1,1.44,1.1,1.1,0,0,0,.34.6A1,1,0,0,0,402.25,88.57Z" fill="#333"/><path d="M410,90.41a3.47,3.47,0,0,1-2.66-1,4.08,4.08,0,0,1-.95-2.9v-.68a4.81,4.81,0,0,1,.87-3.08,3.06,3.06,0,0,1,2.51-1.09,2.88,2.88,0,0,1,2.4,1,4.83,4.83,0,0,1,.82,3v1.08h-4.4a2.26,2.26,0,0,0,.42,1.38,1.39,1.39,0,0,0,1.13.43,2.47,2.47,0,0,0,1.85-.76l.87,1.34a2.83,2.83,0,0,1-1.18.91A4.11,4.11,0,0,1,410,90.41Zm-1.39-5.19h2.21V85a2.42,2.42,0,0,0-.25-1.15.88.88,0,0,0-.81-.39.92.92,0,0,0-.84.41A2.79,2.79,0,0,0,408.58,85.22Z" fill="#333"/><path d="M417.15,87.15h-.58v3.1h-2.2V81.8h2.2V85h.55l1.28-3.17h2.77l-2.23,3.9,2.4,4.55h-2.93Z" fill="#333"/></svg>