<svg xmlns="http://www.w3.org/2000/svg" width="465" height="300" viewBox="0 0 465 300"><rect width="465" height="300" fill="#f2f2f2"/><path d="M142.93,101.92c5.14,13.49,9.1,32.22,0,48.9a53.23,53.23,0,0,1-9.1,12,78,78,0,0,1-7.51,6.51c-1.38,1.09-2.59,2-3.66,2.8l0,0c0-.92-2.77-9.22-12-14.76-2,1.38-3.71,2.7-5.31,4.06h0q-2.34-2-5.24-4.07c-9.23,5.54-12.51,13.84-12.51,14.76l0,.07-3.64-2.83a76.24,76.24,0,0,1-7.67-6.68,52.57,52.57,0,0,1-8.94-11.78c-9.1-16.68-5.14-35.41,0-48.9A46.47,46.47,0,0,1,92.18,76.08s-.92-5.53,4.62-5.53a11.18,11.18,0,0,0,16.6,0c5.54,0,4.62,5.53,4.62,5.53A46.47,46.47,0,0,1,142.93,101.92Z" fill="#eb5f67"/><path d="M133.83,162.77l-4.28,95.09A3.41,3.41,0,0,1,128,260.6c-4,3-14.6,3.2-18.58.68a2.8,2.8,0,0,1-1.53-2.29l.87-62.41a3.64,3.64,0,0,0-7.23-.62v-9.41c1.73.4,3-1.29,2.27-3.3,1.48,4.73,6.68,2.3,5.29-1.09a1.86,1.86,0,0,0,3,.3l.35.09a5.24,5.24,0,0,1,.16,1.26v3.35a1.84,1.84,0,0,0,1.84,1.85h.93a1.84,1.84,0,0,0,1.84-1.85v-3.69a7.85,7.85,0,0,0-1.74-5.09l0-.07a1.92,1.92,0,0,0,.74-1.32l.13,0a66.31,66.31,0,0,1,6.39-4.93c1.07-.79,2.28-1.71,3.66-2.8A78,78,0,0,0,133.83,162.77Z" fill="#fccc7a"/><path d="M128.58,260.62s9.28,8.24,9.28,13.85S131,280,122.63,280s-14.3-3.62-14.3-9.23a43.41,43.41,0,0,1,.87-9.22l.2-.27c4,2.52,14.57,2.36,18.58-.68Z" fill="#333"/><path d="M119.91,57.57a4.26,4.26,0,0,1,3,5.19c-.49,2.44-2.85,4-5.79,3.43l-.25-.11a24.37,24.37,0,0,0,2.72-7c.11-.5.2-1,.27-1.52Z" fill="#f5afb3"/><path d="M122.63,172l0,0a66.31,66.31,0,0,0-6.39,4.93l-.13,0a5.45,5.45,0,0,0-.47-2.73c-1.4-3.49-4.7-8.08-10.35-12.91h0c1.6-1.36,3.33-2.68,5.31-4.06C119.86,162.82,122.63,171.12,122.63,172Z" fill="#f5afb3"/><path d="M120.09,54.75a20.54,20.54,0,0,1-.2,2.81c-.07.51-.16,1-.27,1.52l-.08,0s-4.07-1-4.06-4.53c0-5.55,2.72-8.93-.62-12.3A17.18,17.18,0,0,1,120.09,54.75Z" fill="#e5e5e5"/><path d="M119.54,59.06l.08,0a24.37,24.37,0,0,1-2.72,7,20.74,20.74,0,0,1-3.5,4.47,11.18,11.18,0,0,1-16.6,0,20.74,20.74,0,0,1-3.5-4.47,23.92,23.92,0,0,1-2.72-7h.11s4-1,4-4.53c0-5.52-2.69-8.9.57-12.26l0,0a14,14,0,0,1,19.53,0c3.34,3.37.63,6.75.62,12.3C115.47,58.09,119.54,59.06,119.54,59.06Zm-6.14,1.8a2.31,2.31,0,1,0-2.3,2.31A2.3,2.3,0,0,0,113.4,60.86Zm-12,0a2.31,2.31,0,1,0-2.31,2.31A2.3,2.3,0,0,0,101.41,60.86Z" fill="#f5afb3"/><path d="M117.19,183.47v3.69a1.84,1.84,0,0,1-1.84,1.85h-.93a1.84,1.84,0,0,1-1.84-1.85v-3.35a5.24,5.24,0,0,0-.16-1.26l-.35-.09a3.36,3.36,0,0,0,.83-3.58c-.25-.57-.53-1.15-.84-1.73,1,1.39,2.45,1.77,3.34,1.16l0,.07A7.85,7.85,0,0,1,117.19,183.47Z" fill="#666"/><path d="M112.06,177.15c.31.58.59,1.16.84,1.73a3.36,3.36,0,0,1-.83,3.58,1.86,1.86,0,0,1-3-.3c1.39,3.39-3.81,5.82-5.29,1.09.68,2-.54,3.7-2.27,3.3A5.06,5.06,0,0,1,98.64,184c-.55-.88-1.11-1.7-1.66-2.47a44.78,44.78,0,0,0-9.46-9.46l0-.07c0-.92,3.28-9.22,12.51-14.76q2.9,2,5.24,4.07c5.65,4.83,9,9.42,10.35,12.91a5.45,5.45,0,0,1,.47,2.73,1.92,1.92,0,0,1-.74,1.32C114.51,178.92,113.05,178.54,112.06,177.15Z" fill="#f5afb3"/><path d="M111.1,58.55a2.31,2.31,0,1,1-2.31,2.31A2.3,2.3,0,0,1,111.1,58.55ZM112.25,61A1.27,1.27,0,1,0,111,62.24,1.27,1.27,0,0,0,112.25,61Z" fill="#f2f2f2"/><circle cx="110.98" cy="60.97" r="1.27" fill="#333"/><path d="M101.51,196v81.5a1.85,1.85,0,0,1-1.85,1.85h-.92A1.83,1.83,0,0,1,97,278a1.73,1.73,0,0,1-.09-.56V181.63l.09-.06c.55.77,1.11,1.59,1.66,2.47a5.06,5.06,0,0,0,2.88,2.51V196Z" fill="#666"/><path d="M99.1,58.55a2.31,2.31,0,1,1-2.3,2.31A2.3,2.3,0,0,1,99.1,58.55ZM100.49,61a1.27,1.27,0,1,0-1.27,1.27A1.27,1.27,0,0,0,100.49,61Z" fill="#f2f2f2"/><circle cx="99.22" cy="60.97" r="1.27" fill="#333"/><path d="M97,181.57l-.09.06v81.52h-.17c-5.06,1.33-12.13,1.17-14.9-1.13a3,3,0,0,1-1.17-2.32L76,162.77l.18-.17a76.24,76.24,0,0,0,7.67,6.68l3.64,2.83A44.78,44.78,0,0,1,97,181.57Z" fill="#fccc7a"/><path d="M97,278l-.09,0A20.46,20.46,0,0,1,87.57,280c-8.41,0-15.23.07-15.23-5.53s9.18-12,9.18-12l.3-.45c2.77,2.3,9.84,2.46,14.9,1.13h.17v14.31A1.73,1.73,0,0,0,97,278Z" fill="#333"/><path d="M90.11,54.75a17.18,17.18,0,0,1,5.18-12.48C92,45.63,94.7,49,94.72,54.53c0,3.56-4,4.53-4,4.53h-.11q-.17-.73-.27-1.5A20.54,20.54,0,0,1,90.11,54.75Z" fill="#e5e5e5"/><path d="M93.3,66.08l-.25.11c-2.94.59-5.3-1-5.79-3.43a4.26,4.26,0,0,1,3-5.19h0q.1.77.27,1.5A23.92,23.92,0,0,0,93.3,66.08Z" fill="#f5afb3"/><path d="M95.33,42.23a14.19,14.19,0,0,1,9.77-4" fill="none" stroke="#333" stroke-linecap="round" stroke-linejoin="round"/><path d="M105.1,74.24a12.14,12.14,0,0,1-8.3-3.69,20.74,20.74,0,0,1-3.5-4.47,23.92,23.92,0,0,1-2.72-7q-.17-.73-.27-1.5a20.54,20.54,0,0,1-.2-2.81,17.18,17.18,0,0,1,5.18-12.48" fill="none" stroke="#333" stroke-linecap="round" stroke-linejoin="round"/><path d="M90.69,59.06s4-1,4-4.53c0-5.52-2.69-8.9.57-12.26l0,0" fill="none" stroke="#333" stroke-linecap="round" stroke-linejoin="round"/><path d="M103.25,69.62a2.66,2.66,0,0,0,1.85.93" fill="none" stroke="#333" stroke-linecap="round" stroke-linejoin="round"/><path d="M103.79,183.25c.68,2-.54,3.7-2.27,3.3A5.06,5.06,0,0,1,98.64,184c-.55-.88-1.11-1.7-1.66-2.47a44.78,44.78,0,0,0-9.46-9.46l-3.64-2.83a76.24,76.24,0,0,1-7.67-6.68,52.57,52.57,0,0,1-8.94-11.78c-9.1-16.68-5.14-35.41,0-48.9A46.47,46.47,0,0,1,92.18,76.08s-.92-5.53,4.62-5.53" fill="none" stroke="#333" stroke-linecap="round" stroke-linejoin="round"/><path d="M100.08,157.28q2.9,2,5.24,4.07c5.65,4.83,9,9.42,10.35,12.91a5.45,5.45,0,0,1,.47,2.73,1.92,1.92,0,0,1-.74,1.32c-.89.61-2.35.23-3.34-1.16A1.25,1.25,0,0,1,112,177" fill="none" stroke="#333" stroke-linecap="round" stroke-linejoin="round"/><path d="M112.9,178.88c-.25-.57-.53-1.15-.84-1.73a25.81,25.81,0,0,0-4.19-6" fill="none" stroke="#333" stroke-linecap="round" stroke-linejoin="round"/><path d="M109.08,182.16c-1.25-2.71-3.06-6.42-4.9-8.27" fill="none" stroke="#333" stroke-linecap="round" stroke-linejoin="round"/><path d="M103.79,183.25a19.9,19.9,0,0,0-4.23-6.59" fill="none" stroke="#333" stroke-linecap="round" stroke-linejoin="round"/><path d="M112.9,178.88a3.36,3.36,0,0,1-.83,3.58,1.86,1.86,0,0,1-3-.3c1.39,3.39-3.81,5.82-5.29,1.09" fill="none" stroke="#333" stroke-linecap="round" stroke-linejoin="round"/><path d="M87.57,172c0-.92,3.28-9.22,12.51-14.76" fill="none" stroke="#333" stroke-linecap="round" stroke-linejoin="round"/><path d="M107,69.62a2.68,2.68,0,0,1-1.85.93" fill="none" stroke="#333" stroke-linecap="round" stroke-linejoin="round"/><path d="M116.27,177a66.31,66.31,0,0,1,6.39-4.93c1.07-.79,2.28-1.71,3.66-2.8a78,78,0,0,0,7.51-6.51,53.23,53.23,0,0,0,9.1-12c9.1-16.68,5.14-35.41,0-48.9A46.47,46.47,0,0,0,118,76.08s.92-5.53-4.62-5.53" fill="none" stroke="#333" stroke-linecap="round" stroke-linejoin="round"/><path d="M110.64,157.28c-2,1.38-3.71,2.7-5.31,4.06" fill="none" stroke="#333" stroke-linecap="round" stroke-linejoin="round"/><path d="M122.63,172c0-.92-2.77-9.22-12-14.76" fill="none" stroke="#333" stroke-linecap="round" stroke-linejoin="round"/><path d="M112.42,182.55a5.24,5.24,0,0,1,.16,1.26v3.35a1.84,1.84,0,0,0,1.84,1.85h.93a1.84,1.84,0,0,0,1.84-1.85v-3.69a7.85,7.85,0,0,0-1.74-5.09" fill="none" stroke="#333" stroke-linecap="round" stroke-linejoin="round"/><path d="M96.89,181.63v95.83A1.73,1.73,0,0,0,97,278a1.83,1.83,0,0,0,1.76,1.29h.92a1.85,1.85,0,0,0,1.85-1.85V186.61" fill="none" stroke="#333" stroke-linecap="round" stroke-linejoin="round"/><path d="M93.05,66.19c-2.94.59-5.3-1-5.79-3.43a4.26,4.26,0,0,1,3-5.19" fill="none" stroke="#333" stroke-linecap="round" stroke-linejoin="round"/><path d="M117.15,66.19c2.94.59,5.3-1,5.79-3.43a4.26,4.26,0,0,0-3-5.19" fill="none" stroke="#333" stroke-linecap="round" stroke-linejoin="round"/><path d="M105.1,74.24a12.14,12.14,0,0,0,8.3-3.69,20.74,20.74,0,0,0,3.5-4.47,24.37,24.37,0,0,0,2.72-7c.11-.5.2-1,.27-1.52a20.54,20.54,0,0,0,.2-2.81,17.18,17.18,0,0,0-5.23-12.52,14.15,14.15,0,0,0-9.76-4" fill="none" stroke="#333" stroke-linecap="round" stroke-linejoin="round"/><path d="M119.54,59.06s-4.07-1-4.06-4.53c0-5.55,2.72-8.93-.62-12.3" fill="none" stroke="#333" stroke-linecap="round" stroke-linejoin="round"/><path d="M101.46,196.58a3.18,3.18,0,0,1,.05-.62,3.61,3.61,0,0,1,3.59-3.05" fill="none" stroke="#333" stroke-linecap="round" stroke-linejoin="round"/><path d="M76,162.77l4.62,96.93A3,3,0,0,0,81.82,262c2.77,2.3,9.84,2.46,14.9,1.13" fill="none" stroke="#333" stroke-linecap="round" stroke-linejoin="round"/><path d="M133.83,162.77l-4.28,95.09A3.41,3.41,0,0,1,128,260.6c-4,3-14.6,3.2-18.58.68a2.8,2.8,0,0,1-1.53-2.29l.87-62.41a3.62,3.62,0,0,0-3.64-3.67" fill="none" stroke="#333" stroke-linecap="round" stroke-linejoin="round"/><path d="M96.89,278.05A20.46,20.46,0,0,1,87.57,280c-8.41,0-15.23.07-15.23-5.53s9.18-12,9.18-12" fill="none" stroke="#333" stroke-linecap="round" stroke-linejoin="round"/><path d="M109.2,261.55a43.41,43.41,0,0,0-.87,9.22c0,5.61,5.89,9.23,14.3,9.23s15.23.07,15.23-5.53-9.28-13.85-9.28-13.85" fill="none" stroke="#333" stroke-linecap="round" stroke-linejoin="round"/><path d="M245.87,171.9c-1.52,2.92-5.68,1.7-3.63-3.64.94-2.47,2.73-10.77,3.81-19.8.45-3.84.78-7.82.85-11.52.3-14.51,0-31.9,0-31.9,8.86-5.31,17.38-.28,17.38-.28,1.76,9.87,2.6,22,2.11,37.49-.59,18.73-3.84,27.52-6,32.69-1.41,3.37-5.63,3-4.49-1.73h0c-.25.69-.51,1.37-.8,2.06-1.33,3.16-4.4,2.41-4.83.57a2.16,2.16,0,0,1,.11-1.24C248.86,178,243.61,176.32,245.87,171.9Z" fill="#f5afb3"/><path d="M257.54,82.9a85.42,85.42,0,0,1,6.74,21.86s-8.52-5-17.38.28c0,0,.3,17.39,0,31.9-.07,3.7-.4,7.68-.85,11.52h-51.3V127.61l.06-.29c5.83,1,12.66-.62,18.52-4.21,14.78-9.06,22-19.25,25-24.18,2-3.22-1.73-6.43-4.15-2.65.35-.54.7-1.11,1.1-1.75,1.91-3.54-2.13-5.39-3.5-3.39,1.93-3.33-2.76-6.9-5-2.16,1.52-3-2-5.8-5.26-.85-2.13,3.26-11.33,15.29-17.56,18.78s-4.89-1.87-4.89-1.87c-8.86-5.31-17.39-.21-17.39-.21a85.45,85.45,0,0,1,6.76-21.93c8-16.83,22.14-20.38,22.14-20.38S213.24,67,223,67s12.4-4.43,12.4-4.43S249.56,66.07,257.54,82.9Z" fill="#999"/><path d="M246.07,245s8.81,6.14,8.81,11.52-6.55,5.32-14.62,5.32-13.73-3.48-13.73-8.86a37.7,37.7,0,0,1,.93-8.86l.1-.13c3.79,2.72,13.84,3.44,17.75.92Z" fill="#333"/><path d="M250.28,175.84l-.27.08-3.11,66.44a3,3,0,0,1-1.59,2.56c-3.91,2.52-14,1.8-17.75-.92a3,3,0,0,1-1.47-2.33l.84-74.61a3.51,3.51,0,0,0-3.5-3.55h-.89A3.51,3.51,0,0,0,219,167v0l.85,74.61a3.08,3.08,0,0,1-1.63,2.43c-4.06,2.75-14.59,3.36-18.06.48a2.78,2.78,0,0,1-1.13-2.22s-4.32-80.87-4.32-93.91h51.3c-1.08,9-2.87,17.33-3.81,19.8-2.05,5.34,2.11,6.56,3.63,3.64-2.26,4.42,3,6.1,4.52,2.7A2.16,2.16,0,0,0,250.28,175.84Z" fill="#eb5f67"/><path d="M237.38,34.4a4.1,4.1,0,0,1,3.84,4.31c0,2.39-1.92,4.32-4.8,4.32l-.33-.12a22,22,0,0,0,1.15-4.74,20.37,20.37,0,0,0,.14-2.33q0-.73-.06-1.44Z" fill="#f5afb3"/><path d="M226.78,89c2.23-4.74,6.92-1.17,5,2.16,1.37-2,5.41-.15,3.5,3.39-.4.64-.75,1.21-1.1,1.75,2.42-3.78,6.12-.57,4.15,2.65-3,4.93-10.21,15.12-25,24.18-5.86,3.59-12.69,5.22-18.52,4.21-8.35-1.45-14.65-8.31-13.13-22.49,0,0,8.53-5.1,17.39.21,0,0-1.32,5.34,4.89,1.87s15.43-15.52,17.56-18.78C224.77,83.18,228.3,85.94,226.78,89Z" fill="#f5afb3"/><path d="M237.32,34.4q.06.7.06,1.44a20.37,20.37,0,0,1-.14,2.33h-.08c-2.66,0-1.77-4.43-4.58-7.09-2.51-2.38-4.8-1.77-9.59-1.77s-7.09-.61-9.6,1.77c-2.81,2.66-1.92,7.09-4.58,7.09h-.07a18.35,18.35,0,0,1-.15-2.33q0-.73.06-1.44C209.31,26.33,215.47,20,223,20S236.66,26.33,237.32,34.4Z" fill="#333"/><path d="M237.16,38.16h.08a22,22,0,0,1-1.15,4.74A20.56,20.56,0,0,1,230,51.83a10.46,10.46,0,0,1-14.07,0,20.65,20.65,0,0,1-6.07-8.92,22.57,22.57,0,0,1-1.14-4.74h.07c2.66,0,1.77-4.43,4.58-7.09,2.51-2.38,4.79-1.77,9.6-1.77s7.08-.61,9.59,1.77C235.39,33.73,234.5,38.16,237.16,38.16Zm-11.25,10.6c0-1.08-1.31-1.95-2.92-1.95s-2.93.87-2.93,1.95,1.31.65,2.93.65S225.91,49.84,225.91,48.76Z" fill="#f5afb3"/><path d="M235.39,62.52S232.73,67,223,67s-12.41-4.43-12.41-4.43,5.32-.88,5.32-10.63l0-.06a10.46,10.46,0,0,0,14.07,0l0,.06C230.07,61.64,235.39,62.52,235.39,62.52Z" fill="#f5afb3"/><path d="M223,46.81c1.61,0,2.92.87,2.92,1.95s-1.31.65-2.92.65-2.93.43-2.93-.65S221.37,46.81,223,46.81Z" fill="#eb5f67"/><path d="M218.51,244.13a37.7,37.7,0,0,1,.93,8.86c0,5.38-5.66,8.86-13.73,8.86s-14.62.06-14.62-5.32S199.9,245,199.9,245l.3-.43c3.47,2.88,14,2.27,18.06-.48Z" fill="#333"/><path d="M209.88,42.91l-.33.12c-2.88,0-4.8-1.93-4.8-4.32a4.1,4.1,0,0,1,3.84-4.31h.06q-.06.7-.06,1.44a18.35,18.35,0,0,0,.15,2.33A22.57,22.57,0,0,0,209.88,42.91Z" fill="#f5afb3"/><path d="M181.68,104.83a85.45,85.45,0,0,1,6.76-21.93c8-16.83,22.14-20.38,22.14-20.38S213.24,67,223,67" fill="none" stroke="#333" stroke-linecap="round" stroke-linejoin="round"/><path d="M223,54.55a11.18,11.18,0,0,1-7-2.72,20.65,20.65,0,0,1-6.07-8.92,22.57,22.57,0,0,1-1.14-4.74,18.35,18.35,0,0,1-.15-2.33q0-.73.06-1.44C209.31,26.33,215.47,20,223,20" fill="none" stroke="#333" stroke-linecap="round" stroke-linejoin="round"/><path d="M209.55,43c-2.88,0-4.8-1.93-4.8-4.32a4.1,4.1,0,0,1,3.84-4.31" fill="none" stroke="#333" stroke-linecap="round" stroke-linejoin="round"/><path d="M181.68,104.83s8.53-5.1,17.39.21" fill="none" stroke="#333" stroke-linecap="round" stroke-linejoin="round"/><path d="M210.58,62.52s5.32-.88,5.32-10.63" fill="none" stroke="#333" stroke-linecap="round" stroke-linejoin="round"/><line x1="214.13" y1="36.17" x2="217.01" y2="35.95" fill="none" stroke="#333" stroke-linecap="round" stroke-linejoin="round"/><path d="M208.81,38.16c2.66,0,1.77-4.43,4.58-7.09,2.51-2.38,4.79-1.77,9.6-1.77" fill="none" stroke="#333" stroke-linecap="round" stroke-linejoin="round"/><path d="M223,163.51h-.45A3.51,3.51,0,0,0,219,167v0l.85,74.61a3.08,3.08,0,0,1-1.63,2.43c-4.06,2.75-14.59,3.36-18.06.48a2.78,2.78,0,0,1-1.13-2.22s-4.32-80.87-4.32-93.91V127.61" fill="none" stroke="#333" stroke-linecap="round" stroke-linejoin="round"/><path d="M218.51,244.13a37.7,37.7,0,0,1,.93,8.86c0,5.38-5.66,8.86-13.73,8.86s-14.62.06-14.62-5.32S199.9,245,199.9,245" fill="none" stroke="#333" stroke-linecap="round" stroke-linejoin="round"/><path d="M255.91,173.21c-1.14,4.71,3.08,5.1,4.49,1.73,2.15-5.17,5.4-14,6-32.69.49-15.46-.35-27.62-2.11-37.49a85.42,85.42,0,0,0-6.74-21.86c-8-16.83-22.15-20.38-22.15-20.38S232.73,67,223,67" fill="none" stroke="#333" stroke-linecap="round" stroke-linejoin="round"/><path d="M245.87,171.9c-1.52,2.92-5.68,1.7-3.63-3.64.94-2.47,2.73-10.77,3.81-19.8.45-3.84.78-7.82.85-11.52.3-14.51,0-31.9,0-31.9" fill="none" stroke="#333" stroke-linecap="round" stroke-linejoin="round"/><path d="M255.11,175.27c.29-.69.55-1.37.8-2.06a54.47,54.47,0,0,0,2-7" fill="none" stroke="#333" stroke-linecap="round" stroke-linejoin="round"/><path d="M250.39,174.6a67.46,67.46,0,0,0,3-9.32" fill="none" stroke="#333" stroke-linecap="round" stroke-linejoin="round"/><path d="M245.87,171.9a42.79,42.79,0,0,0,2.66-7.5" fill="none" stroke="#333" stroke-linecap="round" stroke-linejoin="round"/><path d="M255.11,175.27c-1.33,3.16-4.4,2.41-4.83.57a2.16,2.16,0,0,1,.11-1.24c-1.53,3.4-6.78,1.72-4.52-2.7" fill="none" stroke="#333" stroke-linecap="round" stroke-linejoin="round"/><path d="M223,54.55a11.17,11.17,0,0,0,7-2.72,20.56,20.56,0,0,0,6.07-8.92,22,22,0,0,0,1.15-4.74,20.37,20.37,0,0,0,.14-2.33q0-.73-.06-1.44C236.66,26.33,230.5,20,223,20" fill="none" stroke="#333" stroke-linecap="round" stroke-linejoin="round"/><path d="M236.42,43c2.88,0,4.8-1.93,4.8-4.32a4.1,4.1,0,0,0-3.84-4.31" fill="none" stroke="#333" stroke-linecap="round" stroke-linejoin="round"/><path d="M264.28,104.76s-8.52-5-17.38.28" fill="none" stroke="#333" stroke-linecap="round" stroke-linejoin="round"/><path d="M235.39,62.52s-5.32-.88-5.32-10.63" fill="none" stroke="#333" stroke-linecap="round" stroke-linejoin="round"/><line x1="231.84" y1="36.17" x2="228.97" y2="35.95" fill="none" stroke="#333" stroke-linecap="round" stroke-linejoin="round"/><path d="M237.16,38.16c-2.66,0-1.77-4.43-4.58-7.09-2.51-2.38-4.8-1.77-9.59-1.77" fill="none" stroke="#333" stroke-linecap="round" stroke-linejoin="round"/><path d="M250,175.92l-3.11,66.44a3,3,0,0,1-1.59,2.56c-3.91,2.52-14,1.8-17.75-.92a3,3,0,0,1-1.47-2.33l.84-74.61a3.51,3.51,0,0,0-3.5-3.55H223" fill="none" stroke="#333" stroke-linecap="round" stroke-linejoin="round"/><path d="M227.46,244.13a37.7,37.7,0,0,0-.93,8.86c0,5.38,5.66,8.86,13.73,8.86s14.62.06,14.62-5.32S246.07,245,246.07,245" fill="none" stroke="#333" stroke-linecap="round" stroke-linejoin="round"/><line x1="246.02" y1="148.45" x2="194.75" y2="148.45" fill="none" stroke="#333" stroke-linecap="round" stroke-linejoin="round"/><path d="M220.06,48.76c0-1.08,1.31-1.95,2.93-1.95s2.92.87,2.92,1.95-1.31.65-2.92.65S220.06,49.84,220.06,48.76Z" fill="none" stroke="#000" stroke-linecap="round" stroke-linejoin="round"/><path d="M234.17,96.28c2.42-3.78,6.12-.57,4.15,2.65-3,4.93-10.21,15.12-25,24.18-5.86,3.59-12.69,5.22-18.52,4.21-8.35-1.45-14.65-8.31-13.13-22.49" fill="none" stroke="#333" stroke-linecap="round" stroke-linejoin="round"/><path d="M226.78,89c1.52-3-2-5.8-5.26-.85-2.13,3.26-11.33,15.29-17.56,18.78s-4.89-1.87-4.89-1.87" fill="none" stroke="#333" stroke-linecap="round" stroke-linejoin="round"/><path d="M235.27,94.53c-.4.64-.75,1.21-1.1,1.75a38.36,38.36,0,0,1-4,5.25" fill="none" stroke="#333" stroke-linecap="round" stroke-linejoin="round"/><path d="M231.77,91.14a68.83,68.83,0,0,1-5.35,7.31" fill="none" stroke="#333" stroke-linecap="round" stroke-linejoin="round"/><path d="M226.78,89a32.73,32.73,0,0,1-4.1,6" fill="none" stroke="#333" stroke-linecap="round" stroke-linejoin="round"/><path d="M235.27,94.53c1.91-3.54-2.13-5.39-3.5-3.39,1.93-3.33-2.76-6.9-5-2.16" fill="none" stroke="#333" stroke-linecap="round" stroke-linejoin="round"/><path d="M214.42,41.6a6,6,0,0,0,4-1.72" fill="none" stroke="#333" stroke-linecap="round" stroke-linejoin="round"/><line x1="214.42" y1="39.49" x2="218.42" y2="39.82" fill="none" stroke="#333" stroke-linecap="round" stroke-linejoin="round"/><path d="M231.55,41.6a6,6,0,0,1-4-1.72" fill="none" stroke="#333" stroke-linecap="round" stroke-linejoin="round"/><line x1="231.55" y1="39.49" x2="227.55" y2="39.82" fill="none" stroke="#333" stroke-linecap="round" stroke-linejoin="round"/><path d="M212.87,57.79c-1.78-3.69-4.09,0-4.09,0,.51-5.22-4.74-3.89-4.74-3.89,5.9-1.82,2.15-6.26,2.15-6.26" fill="none" stroke="#e63741" stroke-linecap="round" stroke-linejoin="round"/><path d="M241,46.54c-2.22,5.78,4.17,5.92,4.17,5.92-7.28.2-4.41,6.44-4.41,6.44-1.11-1.6-3.22-2.61-4.83-2.17" fill="none" stroke="#e63741" stroke-linecap="round" stroke-linejoin="round"/><path d="M236.26,42.09s-1.5,5.49-5,8.76c-3.05,2.87-5.74,3.79-8.31,3.79s-5.32-.86-8.31-3.79a21.45,21.45,0,0,1-5-8.76c6.64,2.32,8.23-.44,13.28-.44S229.62,44.41,236.26,42.09Zm-10.79,5.58a2.5,2.5,0,0,0-5,0,2.5,2.5,0,1,0,5,0Z" fill="#f2f2f2"/><path d="M224.75,45.91a2.47,2.47,0,0,1,.72,1.76,2.5,2.5,0,0,1-5,0,2.53,2.53,0,0,1,2.5-2.5A2.48,2.48,0,0,1,224.75,45.91Z" fill="#fccc7a"/><path d="M223,41.65c-5.05,0-6.64,2.76-13.28.44a21.45,21.45,0,0,0,5,8.76c3,2.93,5.73,3.79,8.31,3.79s5.26-.92,8.31-3.79c3.46-3.27,5-8.76,5-8.76C229.62,44.41,228,41.65,223,41.65Z" fill="none" stroke="#333" stroke-linecap="round" stroke-linejoin="round"/><path d="M118.34,62.5s-1.5,5.5-5,8.76c-3,2.87-5.73,3.8-8.31,3.8s-5.31-.87-8.31-3.8a21.51,21.51,0,0,1-5-8.76c6.64,2.32,8.22-.44,13.27-.44S111.71,64.82,118.34,62.5Z" fill="#fff"/><path d="M105.07,62.06c-5,0-6.63,2.76-13.27.44a21.51,21.51,0,0,0,5,8.76c3,2.93,5.74,3.8,8.31,3.8s5.26-.93,8.31-3.8c3.46-3.26,5-8.76,5-8.76C111.71,64.82,110.12,62.06,105.07,62.06Z" fill="none" stroke="#333" stroke-linecap="round" stroke-linejoin="round"/><path d="M377.52,261.36s8.92,7.92,8.92,13.31S379.89,280,371.8,280,358,276.51,358,271.13a41.64,41.64,0,0,1,.84-8.88l.18-.27c3.8,2.44,14,2.29,17.89-.64Z" fill="#333"/><circle cx="348.49" cy="58.23" r="1.22" fill="#333"/><path d="M341.81,60.66l-.34.13c-2.88,0-4.8-1.94-4.8-4.33a4.11,4.11,0,0,1,3.84-4.33h.06q-.06.7-.06,1.44a16.69,16.69,0,0,0,.12,2v.07a3.67,3.67,0,0,0,.05.43.61.61,0,0,0,0,.15A22.47,22.47,0,0,0,341.81,60.66Z" fill="#f5afb3"/><path d="M367.36,80.31a39.77,39.77,0,0,1,22.19,20.41,107.23,107.23,0,0,1,6.94,21.9l-.08,0c-.27-.16-7.4-3.83-17.63,0,1.05,16.78,2.09,25.14,3.92,33.72v10h-51a101.35,101.35,0,0,1-.74-11.54V122.93l.12-.28a19.65,19.65,0,0,0-17.49,0,88.27,88.27,0,0,1,6.72-21.88c8-16.86,22.18-20.41,22.18-20.41s2.67,4.44,12.43,4.44v0C364.7,84.75,367.36,80.31,367.36,80.31Z" fill="#ccc"/><path d="M361.13,39.06l-.07.15a13.23,13.23,0,0,0-12.24,0l-.07-.15a6.19,6.19,0,1,1,12.38,0Z" fill="#333"/><path d="M367.36,80.31s-2.66,4.44-12.42,4.44v0c-9.76,0-12.43-4.44-12.43-4.44v0s5.33-.88,5.33-10.65l.05-.06a10.47,10.47,0,0,0,14.1,0l0,.06C362,79.43,367.36,80.31,367.36,80.31Z" fill="#f5afb3"/><path d="M331.72,166.41h51c0,26.77-4.25,92.29-4.25,92.29a3.31,3.31,0,0,1-1.5,2.64c-3.86,2.93-14.09,3.08-17.89.64a2.65,2.65,0,0,1-1.46-2.19l.85-74.75a3.51,3.51,0,1,0-7,0l.85,74.75a3,3,0,0,1-1.48,2.33c-3.95,2.84-14.73,3.51-18.25.59a2.87,2.87,0,0,1-1.13-2.24s-3.44-61.21-3.44-67h0c2,2.25,6.25.51,4-3.52,1.53,2.92,5.7,1.7,3.64-3.65C334.7,183.78,332.78,175.46,331.72,166.41Z" fill="#5793ff"/><path d="M350.89,262.25a37.41,37.41,0,0,1,.94,8.88c0,5.38-5.67,8.87-13.76,8.87s-14.64.07-14.64-5.33,8.83-11.53,8.83-11.53l.29-.43c3.52,2.92,14.3,2.25,18.25-.59Z" fill="#333"/><path d="M369.36,52.13a4.1,4.1,0,0,1,3.84,4.33c0,2.39-1.92,4.33-4.8,4.33l-.34-.12a21.89,21.89,0,0,0,1.09-4.32,18.65,18.65,0,0,0,.21-2.77q0-.73-.06-1.44Z" fill="#f5afb3"/><path d="M332,189.9c2.24,4-2.05,5.77-4,3.52a3.61,3.61,0,0,1-.51-.81c1.11,2.76-3,4.5-4.65.82-.3-.71-.57-1.4-.82-2.08h0c1.15,4.71-3.14,5-4.55,1.59-2.16-5.18-5.37-18-6-32.74a168.69,168.69,0,0,1,2.15-37.58h0a19.65,19.65,0,0,1,17.49,0l-.12.28v31.94a101.35,101.35,0,0,0,.74,11.54c1.06,9.05,3,17.37,3.93,19.84C337.71,191.6,333.54,192.82,332,189.9Z" fill="#f5afb3"/><path d="M346.06,58.12a2.22,2.22,0,1,1,2.22,2.22A2.22,2.22,0,0,1,346.06,58.12Zm2.43,1.33a1.22,1.22,0,1,0-1.22-1.22A1.22,1.22,0,0,0,348.49,59.45Z" fill="#f2f2f2"/><path d="M361.06,39.21a15.89,15.89,0,0,1,8.24,12.93q.06.7.06,1.44a18.65,18.65,0,0,1-.21,2.77h0s.22-4.22-4.59-7.1c-3-1.79-4.81,0-9.61,0s-6.5-1.53-9.62,0c-4.3,2.11-4.76,5-4.69,6.31a16.69,16.69,0,0,1-.12-2q0-.73.06-1.44a15.9,15.9,0,0,1,8.25-12.93,13.23,13.23,0,0,1,12.24,0Z" fill="#333"/><path d="M406.58,191.26c1.66,2.47-2,5-4.38,1.77-.44-.64-.84-1.26-1.23-1.88h0c2.09,4.38-2.05,5.51-4.13,2.5-3.19-4.61-9.11-16.49-12.64-30.8-.55-2.26-1.05-4.37-1.5-6.48-1.83-8.58-2.87-16.94-3.92-33.72,10.23-3.84,17.36-.17,17.63,0l.08,0c2.56,11.54,4.08,23.21,5.72,31,2.57,12.19,9,26.58,11.05,29.74,3.11,4.82-.71,6.87-2.82,4.32C413.77,191.52,408.78,194.27,406.58,191.26Z" fill="#f5afb3"/><circle cx="361.76" cy="58.23" r="1.22" fill="#333"/><path d="M340.7,56.21a.61.61,0,0,1,0-.15c0-.14,0-.29-.05-.43v-.07c-.07-1.36.39-4.2,4.69-6.31,3.12-1.53,4.81,0,9.62,0s6.64-1.79,9.61,0c4.81,2.88,4.59,7.1,4.59,7.1h0a21.89,21.89,0,0,1-1.09,4.32A20.65,20.65,0,0,1,362,69.6a10.47,10.47,0,0,1-14.1,0,20.56,20.56,0,0,1-6.08-8.94A22.47,22.47,0,0,1,340.7,56.21Zm23.49,2A2.22,2.22,0,1,0,362,60.45,2.21,2.21,0,0,0,364.19,58.23Zm-15.91,2.11a2.22,2.22,0,1,0-2.22-2.22A2.21,2.21,0,0,0,348.28,60.34Z" fill="#f5afb3"/><path d="M361.76,59.45a1.22,1.22,0,1,0-1.22-1.22A1.22,1.22,0,0,0,361.76,59.45Zm.21,1a2.22,2.22,0,1,1,2.22-2.22A2.21,2.21,0,0,1,362,60.45Z" fill="#f2f2f2"/><path d="M328,193.43c0,5.83,3.44,67,3.44,67a2.87,2.87,0,0,0,1.13,2.24c3.52,2.92,14.3,2.25,18.25-.59a3,3,0,0,0,1.48-2.33L351.43,185a3.5,3.5,0,0,1,3.51-3.55" fill="none" stroke="#333" stroke-linecap="round" stroke-linejoin="round"/><path d="M401,191.15c2.09,4.38-2.05,5.51-4.13,2.5-3.19-4.61-9.11-16.49-12.64-30.8-.55-2.26-1.05-4.37-1.5-6.48-1.83-8.58-2.87-16.94-3.92-33.72" fill="none" stroke="#333" stroke-linecap="round" stroke-linejoin="round"/><path d="M410.44,187.67c2.11,2.55,5.93.5,2.82-4.32-2.05-3.16-8.48-17.55-11.05-29.74-1.64-7.78-3.16-19.45-5.72-31a107.23,107.23,0,0,0-6.94-21.9,39.77,39.77,0,0,0-22.19-20.41s-2.66,4.44-12.42,4.44" fill="none" stroke="#333" stroke-linecap="round" stroke-linejoin="round"/><path d="M402.2,193c-.44-.64-.84-1.26-1.23-1.88a50.15,50.15,0,0,1-3.25-6.14" fill="none" stroke="#333" stroke-linecap="round" stroke-linejoin="round"/><path d="M406.58,191.26a67.12,67.12,0,0,1-4.83-8.53" fill="none" stroke="#333" stroke-linecap="round" stroke-linejoin="round"/><path d="M410.44,187.67a33.61,33.61,0,0,1-3.86-6.33" fill="none" stroke="#333" stroke-linecap="round" stroke-linejoin="round"/><path d="M402.2,193c2.41,3.24,6,.7,4.38-1.77,2.2,3,7.19.26,3.86-3.59" fill="none" stroke="#333" stroke-linecap="round" stroke-linejoin="round"/><path d="M340.63,55.56a16.69,16.69,0,0,1-.12-2q0-.73.06-1.44a15.9,15.9,0,0,1,8.25-12.93,13.28,13.28,0,0,1,6.12-1.5" fill="none" stroke="#333" stroke-linecap="round" stroke-linejoin="round"/><path d="M340.68,56.06c0-.14,0-.29-.05-.43" fill="none" stroke="#333" stroke-linecap="round" stroke-linejoin="round"/><path d="M354.94,72.33a11.22,11.22,0,0,1-7.05-2.73,20.56,20.56,0,0,1-6.08-8.94,22.47,22.47,0,0,1-1.11-4.45" fill="none" stroke="#333" stroke-linecap="round" stroke-linejoin="round"/><path d="M341.47,60.79c-2.88,0-4.8-1.94-4.8-4.33a4.11,4.11,0,0,1,3.84-4.33" fill="none" stroke="#333" stroke-linecap="round" stroke-linejoin="round"/><path d="M340.74,56.35a1,1,0,0,1,0-.14.61.61,0,0,1,0-.15,3.67,3.67,0,0,1-.05-.43v-.07c-.07-1.36.39-4.2,4.69-6.31,3.12-1.53,4.81,0,9.62,0" fill="none" stroke="#333" stroke-linecap="round" stroke-linejoin="round"/><path d="M313.6,122.62h0" fill="none" stroke="#333" stroke-linecap="round" stroke-linejoin="round"/><path d="M331.1,122.65a19.65,19.65,0,0,0-17.49,0" fill="none" stroke="#333" stroke-linecap="round" stroke-linejoin="round"/><path d="M342.51,80.31s5.33-.88,5.33-10.65" fill="none" stroke="#333" stroke-linecap="round" stroke-linejoin="round"/><path d="M382.7,166.41c0,26.77-4.25,92.29-4.25,92.29a3.31,3.31,0,0,1-1.5,2.64c-3.86,2.93-14.09,3.08-17.89.64a2.65,2.65,0,0,1-1.46-2.19l.85-74.75a3.51,3.51,0,0,0-3.51-3.55" fill="none" stroke="#333" stroke-linecap="round" stroke-linejoin="round"/><path d="M354.94,72.33A11.22,11.22,0,0,0,362,69.6a20.65,20.65,0,0,0,6.07-8.93,21.89,21.89,0,0,0,1.09-4.32,18.65,18.65,0,0,0,.21-2.77q0-.73-.06-1.44a15.89,15.89,0,0,0-8.24-12.93,13.34,13.34,0,0,0-6.12-1.5" fill="none" stroke="#333" stroke-linecap="round" stroke-linejoin="round"/><path d="M368.4,60.79c2.88,0,4.8-1.94,4.8-4.33a4.1,4.1,0,0,0-3.84-4.33" fill="none" stroke="#333" stroke-linecap="round" stroke-linejoin="round"/><path d="M369.14,56.35s.22-4.22-4.59-7.1c-3-1.79-4.81,0-9.61,0" fill="none" stroke="#333" stroke-linecap="round" stroke-linejoin="round"/><path d="M396.41,122.65h0c-.27-.16-7.4-3.83-17.63,0" fill="none" stroke="#333" stroke-linecap="round" stroke-linejoin="round"/><polyline points="382.7 156.38 382.7 166.41 331.72 166.41" fill="none" stroke="#333" stroke-linecap="round" stroke-linejoin="round"/><path d="M367.36,80.31S362,79.43,362,69.66" fill="none" stroke="#333" stroke-linecap="round" stroke-linejoin="round"/><path d="M350.89,262.25a37.41,37.41,0,0,1,.94,8.88c0,5.38-5.67,8.87-13.76,8.87s-14.64.07-14.64-5.33,8.83-11.53,8.83-11.53" fill="none" stroke="#333" stroke-linecap="round" stroke-linejoin="round"/><path d="M358.88,262.25a41.64,41.64,0,0,0-.84,8.88c0,5.38,5.67,8.87,13.76,8.87s14.64.07,14.64-5.33-8.92-13.31-8.92-13.31" fill="none" stroke="#333" stroke-linecap="round" stroke-linejoin="round"/><line x1="346.06" y1="53.91" x2="348.95" y2="53.69" fill="none" stroke="#333" stroke-linecap="round" stroke-linejoin="round"/><line x1="364.7" y1="54.13" x2="362.03" y2="53.69" fill="none" stroke="#333" stroke-linecap="round" stroke-linejoin="round"/><path d="M352.28,65.22a4.41,4.41,0,0,0,5.32,0" fill="none" stroke="#333" stroke-linecap="round" stroke-linejoin="round"/><path d="M348.75,39.06a6.19,6.19,0,1,1,12.38,0" fill="none" stroke="#333" stroke-linecap="round" stroke-linejoin="round"/><path d="M322,191.35c1.15,4.71-3.14,5-4.55,1.59-2.16-5.18-5.37-18-6-32.74a168.69,168.69,0,0,1,2.15-37.58h0a88.27,88.27,0,0,1,6.72-21.88c8-16.86,22.18-20.41,22.18-20.41s2.67,4.44,12.43,4.44" fill="none" stroke="#333" stroke-linecap="round" stroke-linejoin="round"/><path d="M332,189.9c1.53,2.92,5.7,1.7,3.64-3.65-.95-2.47-2.87-10.79-3.93-19.84a101.35,101.35,0,0,1-.74-11.54V122.93" fill="none" stroke="#333" stroke-linecap="round" stroke-linejoin="round"/><path d="M322.84,193.43c-.3-.71-.57-1.4-.82-2.08a51.3,51.3,0,0,1-1.91-6.69" fill="none" stroke="#333" stroke-linecap="round" stroke-linejoin="round"/><path d="M327.49,192.61a66.83,66.83,0,0,1-3-9.34" fill="none" stroke="#333" stroke-linecap="round" stroke-linejoin="round"/><path d="M332,189.9a38.6,38.6,0,0,1-2.66-7.52" fill="none" stroke="#333" stroke-linecap="round" stroke-linejoin="round"/><path d="M322.84,193.43c1.68,3.68,5.76,1.94,4.65-.82a3.61,3.61,0,0,0,.51.81c2,2.25,6.25.51,4-3.52" fill="none" stroke="#333" stroke-linecap="round" stroke-linejoin="round"/><path d="M409.93,217.92V203.77c-2.31.77-2.55,2.91-2.89,7.07S406.86,217.92,409.93,217.92Zm20.27-19.47v36a1.27,1.27,0,0,1-1.26,1.27H379.4a1.27,1.27,0,0,1-1.27-1.27v-36a1.27,1.27,0,0,1,1.27-1.27h49.54A1.26,1.26,0,0,1,430.2,198.45Z" fill="#fccc7a"/><path d="M419.23,186.31v10.87H416V186.81a2.53,2.53,0,0,0-2.53-2.53H394.83a2.53,2.53,0,0,0-2.53,2.53v10.37h-3.19V186.31a5.06,5.06,0,0,1,5.06-5.07h20A5.06,5.06,0,0,1,419.23,186.31Z" fill="#fccc7a"/><path d="M409.93,203.77v14.15c-3.07,0-3.23-2.91-2.89-7.08S407.62,204.54,409.93,203.77Z" fill="#fccc7a"/><path d="M403.93,197.18H379.4a1.27,1.27,0,0,0-1.27,1.27v36a1.27,1.27,0,0,0,1.27,1.27h24.53" fill="none" stroke="#333" stroke-linecap="round" stroke-miterlimit="10"/><path d="M404.16,184.28h-9.33a2.53,2.53,0,0,0-2.53,2.53v10.37" fill="none" stroke="#333" stroke-linecap="round" stroke-miterlimit="10"/><path d="M404.16,181.24h-10a5.06,5.06,0,0,0-5.06,5.07v10.87" fill="none" stroke="#333" stroke-linecap="round" stroke-miterlimit="10"/><path d="M403.93,197.18h25a1.26,1.26,0,0,1,1.26,1.27v36a1.27,1.27,0,0,1-1.26,1.27h-25" fill="none" stroke="#333" stroke-linecap="round" stroke-miterlimit="10"/><path d="M404.16,184.28h9.34a2.53,2.53,0,0,1,2.53,2.53v10.37" fill="none" stroke="#333" stroke-linecap="round" stroke-miterlimit="10"/><path d="M404.16,181.24h10a5.06,5.06,0,0,1,5.07,5.07v10.87" fill="none" stroke="#333" stroke-linecap="round" stroke-miterlimit="10"/><polyline points="398.84 203.77 398.84 210.84 398.84 229.11" fill="none" stroke="#333" stroke-linecap="round" stroke-miterlimit="10"/><path d="M396,203.77c-.25,4.36-.18,7.07,2.89,7.07" fill="none" stroke="#333" stroke-linecap="round" stroke-miterlimit="10"/><line x1="409.93" y1="217.92" x2="409.93" y2="229.11" fill="none" stroke="#333" stroke-linecap="round" stroke-linejoin="round"/><path d="M409.93,217.92c-3.07,0-3.23-2.91-2.89-7.08s.58-6.3,2.89-7.07Z" fill="none" stroke="#333" stroke-linecap="round" stroke-linejoin="round"/><path d="M401.73,203.77c.26,4.36.17,7.07-2.89,7.07" fill="none" stroke="#333" stroke-linecap="round" stroke-miterlimit="10"/><path d="M368.39,59.53c-.1.36-2,6.1-5,8.86s-5.82,3.87-8.44,3.87-5.26-1-8.43-3.87-4.91-8.5-5-8.86c6.71,2.33,8.32-.45,13.44-.45S361.67,61.86,368.39,59.53Z" fill="#fff"/><path d="M368.4,59.52h0c-6.72,2.33-8.33-.45-13.46-.45" fill="none" stroke="#333" stroke-linecap="round" stroke-linejoin="round"/><path d="M341.49,59.53c.1.36,2,6.1,5,8.86s5.82,3.87,8.43,3.87,5.27-1,8.44-3.87,4.92-8.5,5-8.86" fill="none" stroke="#333" stroke-linecap="round" stroke-linejoin="round"/><path d="M354.93,59.08c-5.12,0-6.73,2.78-13.44.45h0" fill="none" stroke="#333" stroke-linecap="round" stroke-linejoin="round"/></svg>