<svg xmlns="http://www.w3.org/2000/svg" xmlns:xlink="http://www.w3.org/1999/xlink" width="227" height="231" viewBox="0 0 227 231"><defs><clipPath id="a"><rect width="227" height="231" fill="none"/></clipPath></defs><g clip-path="url(#a)"><rect width="227" height="231" fill="#f2f2f2"/><path d="M168,116c3.23,5.13,6.61,10.61,10,16.28,16,26.65,26.58,57.44,15.57,73-4.74,6.72-12,9.79-21.25,9.23v71.95H115.57l0,0a140.6,140.6,0,0,0-14.87-11.94c-19.74,11.84-26.78,29.6-26.78,31.58l-.11.15c-2.53-2-5.12-4-7.78-6.07A163.91,163.91,0,0,1,49.58,286a113.17,113.17,0,0,1-19.12-25.2c-19.46-35.69-11-75.75,0-104.61,15.79-41.45,53.29-55.27,53.29-55.27s-2-11.84,9.87-11.84l0,0A30.13,30.13,0,0,0,108.31,97l.48.06a5,5,0,0,0,.43,4.06c2.63,5.43,14,20.77,24.72,35.19C148.05,133.1,157.78,125.38,168,116Z" fill="#eb5f67"/><path d="M133.94,136.3c-10.76-14.42-22.09-29.76-24.72-35.19a5,5,0,0,1-.43-4.06c1.21-3.12,6.37-3.65,7.84-1.31-.52-.84-1-1.71-1.55-2.64-3.93-6.88,5.71-11,8.56-6.27-3-6.32,6-11.33,10.43-2.85-2.07-3.58-.52-7.09,2.32-8,2.09-.66,4.89.12,7.44,3.37.16.2.33.43.5.67,1.8,2.54,11.76,17,23.7,36C157.78,125.38,148.05,133.1,133.94,136.3Z" fill="#f5afb3"/><path d="M139,75h0a50.29,50.29,0,0,0,3.95-13c0-.24.07-.47.1-.71h0c4.64.93,7.54,5.92,6.49,11.13A9.2,9.2,0,0,1,144,79.2l-.19.17c-2.55-3.25-5.35-4-7.44-3.37l0-.16h0C137.17,75.61,138,75.33,139,75Z" fill="#f5afb3"/><path d="M143.46,55.28a42.39,42.39,0,0,1-.44,6c0,.24-.06.47-.1.71,0,0-9.34.42-9.32-7.19,0-11.81,5.76-19-1.22-26.22A36.73,36.73,0,0,1,143.46,55.28Z" fill="#e5e5e5"/><path d="M133.6,54.83c0,7.61,9.32,7.19,9.32,7.19A50.29,50.29,0,0,1,139,75h0c-.93.33-1.79.61-2.62.83h0c-11.72,3.3-14.56-1.73-24.5-1.73h-.11c-10.64,0-14,5.79-27.93.94v0a50.44,50.44,0,0,1-4-13.69c.67.07,9.44.83,9.42-6.49,0-11.87-5.81-19.11,1.32-26.32a29.89,29.89,0,0,1,41.78,0l.1.1C139.36,35.79,133.63,43,133.6,54.83Zm-4.45,13.53a4.94,4.94,0,1,0-4.93,4.94A4.93,4.93,0,0,0,129.15,68.36Zm-25.66,0a4.94,4.94,0,1,0-4.93,4.94A4.93,4.93,0,0,0,103.49,68.36Z" fill="#f5afb3"/><path d="M124.22,63.43a4.94,4.94,0,1,1-4.94,4.93A4.93,4.93,0,0,1,124.22,63.43Zm2.46,5.18A2.71,2.71,0,1,0,124,71.32,2.71,2.71,0,0,0,126.68,68.61Z" fill="#f2f2f2"/><circle cx="123.97" cy="68.61" r="2.71" fill="#333"/><path d="M98.56,63.43a4.94,4.94,0,1,1-4.94,4.93A4.93,4.93,0,0,1,98.56,63.43Zm3,5.18a2.72,2.72,0,1,0-2.72,2.71A2.72,2.72,0,0,0,101.52,68.61Z" fill="#f2f2f2"/><circle cx="98.8" cy="68.61" r="2.71" fill="#333"/><path d="M79.31,55.28A36.71,36.71,0,0,1,90.5,28.51C83.37,35.72,89.15,43,89.18,54.83c0,7.32-8.75,6.56-9.42,6.49A41.13,41.13,0,0,1,79.31,55.28Z" fill="#e5e5e5"/><path d="M83.76,75a35.8,35.8,0,0,0,2.31,4.45l-.46.28C79.32,81,74.28,77.65,73.23,72.45s1.86-10.2,6.49-11.13h0a50.44,50.44,0,0,0,4,13.69v0Z" fill="#f5afb3"/><path d="M83.81,75a50.44,50.44,0,0,1-4-13.69,41.13,41.13,0,0,1-.45-6A36.71,36.71,0,0,1,90.5,28.51,30.25,30.25,0,0,1,111.39,20" fill="none" stroke="#333" stroke-linecap="round" stroke-linejoin="round"/><path d="M79.72,61.32h0c.67.07,9.44.83,9.42-6.49,0-11.87-5.81-19.11,1.32-26.32" fill="none" stroke="#333" stroke-linecap="round" stroke-linejoin="round"/><path d="M108.58,330.18c1.47,4.3-1.14,7.92-4.85,7.06-1.91-.44-4.09-2.06-6.16-5.37-1.18-1.89-2.37-3.64-3.55-5.29-6.47-8.95-13.1-14.62-20.25-20.22-2.53-2-5.12-4-7.78-6.07A163.91,163.91,0,0,1,49.58,286a113.17,113.17,0,0,1-19.12-25.2c-19.46-35.69-11-75.75,0-104.61,15.79-41.45,53.29-55.27,53.29-55.27s-2-11.84,9.87-11.84" fill="none" stroke="#333" stroke-linecap="round" stroke-linejoin="round"/><path d="M85.61,79.77C79.32,81,74.28,77.65,73.23,72.45s1.86-10.2,6.49-11.13" fill="none" stroke="#333" stroke-linecap="round" stroke-linejoin="round"/><path d="M144,79.2a9.2,9.2,0,0,0,5.53-6.75c1-5.21-1.85-10.2-6.49-11.13" fill="none" stroke="#333" stroke-linecap="round" stroke-linejoin="round"/><path d="M132.28,28.51A30.33,30.33,0,0,0,111.39,20" fill="none" stroke="#333" stroke-linecap="round" stroke-linejoin="round"/><path d="M139,75a50.29,50.29,0,0,0,3.95-13c0-.24.07-.47.1-.71a42.39,42.39,0,0,0,.44-6,36.73,36.73,0,0,0-11.08-26.67" fill="none" stroke="#333" stroke-linecap="round" stroke-linejoin="round"/><path d="M138.74,75.5c.08-.17.15-.33.22-.5" fill="none" stroke="#333" stroke-linecap="round" stroke-linejoin="round"/><path d="M142.92,62s-9.34.42-9.32-7.19c0-11.81,5.76-19-1.22-26.22l-.1-.1" fill="none" stroke="#333" stroke-linecap="round" stroke-linejoin="round"/><path d="M116.63,95.74c-1.47-2.34-6.63-1.81-7.84,1.31a5,5,0,0,0,.43,4.06c2.63,5.43,14,20.77,24.72,35.19,14.11-3.2,23.84-10.92,34.09-20.28h0" fill="none" stroke="#333" stroke-linecap="round" stroke-linejoin="round"/><path d="M115.08,93.1c.52.93,1,1.8,1.55,2.64,2,3.26,4,6.21,7,11.38" fill="none" stroke="#333" stroke-linecap="round" stroke-linejoin="round"/><path d="M123.64,86.83c3,5.63,5.65,9.88,8.66,15.16" fill="none" stroke="#333" stroke-linecap="round" stroke-linejoin="round"/><path d="M134.07,84c2.59,4.89,5.24,8.79,7.46,12.63" fill="none" stroke="#333" stroke-linecap="round" stroke-linejoin="round"/><path d="M115.08,93.1c-3.93-6.88,5.71-11,8.56-6.27-3-6.32,6-11.33,10.43-2.85" fill="none" stroke="#333" stroke-linecap="round" stroke-linejoin="round"/><path d="M115.57,286.53h56.78V214.58" fill="none" stroke="#333" stroke-linecap="round" stroke-linejoin="round"/><path d="M172.35,214.58c9.27.56,16.51-2.51,21.25-9.23,11-15.61.4-46.4-15.57-73-3.39-5.67-6.77-11.15-10-16.28-11.94-19-21.9-33.44-23.7-36-.17-.24-.34-.47-.5-.67-2.55-3.25-5.35-4-7.44-3.37-2.84.89-4.39,4.4-2.32,8" fill="none" stroke="#333" stroke-linecap="round" stroke-linejoin="round"/><path d="M83.76,75a35.8,35.8,0,0,0,2.31,4.45,44.76,44.76,0,0,0,7.57,9.58A30.13,30.13,0,0,0,108.31,97" fill="none" stroke="#333" stroke-linecap="round" stroke-linejoin="round"/><path d="M111.73,74.11c-10.64,0-14,5.79-27.93.94h0" fill="none" stroke="#333" stroke-linecap="round" stroke-linejoin="round"/><path d="M111.84,74.11c9.94,0,12.78,5,24.5,1.73h0c.83-.22,1.69-.5,2.62-.83h0" fill="none" stroke="#333" stroke-linecap="round" stroke-linejoin="round"/><circle cx="96.01" cy="88.48" r="1.35" fill="#e63741"/><circle cx="105.87" cy="84.33" r="1.35" fill="#e63741"/><circle cx="111.42" cy="90.96" r="1.35" fill="#e63741"/><circle cx="117" cy="75.96" r="1.35" fill="#e63741"/><circle cx="122.42" cy="81.29" r="1.35" fill="#e63741"/><circle cx="113.61" cy="79.93" r="1.35" fill="#e63741"/><circle cx="89.38" cy="79.93" r="1.35" fill="#e63741"/><circle cx="105.12" cy="94.66" r="1.35" fill="#e63741"/><circle cx="125.85" cy="77.81" r="1.35" fill="#e63741"/><circle cx="105.26" cy="77.32" r="1.35" fill="#e63741"/><circle cx="114.36" cy="85.69" r="2.1" fill="#e63741"/><circle cx="101.1" cy="89.92" r="2.1" fill="#e63741"/><circle cx="99" cy="81.88" r="2.1" fill="#e63741"/><line x1="175.48" y1="20" x2="205.35" y2="49.87" fill="none" stroke="#e63741" stroke-linecap="round" stroke-linejoin="round"/><line x1="175.35" y1="50" x2="205.35" y2="20" fill="none" stroke="#e63741" stroke-linecap="round" stroke-linejoin="round"/></g></svg>