<svg xmlns="http://www.w3.org/2000/svg" width="930" height="414" viewBox="0 0 930 414"><rect width="930" height="414" fill="#e0e0e0"/><path d="M814.54,265.7c-.36,1-.74,2-1.15,3-1.92,4.56-6.38,3.49-7,.82a3.14,3.14,0,0,1,.16-1.79c-2.22,4.91-9.82,2.49-6.54-3.9-2.2,4.21-8.22,2.46-5.26-5.27,1.37-3.57,4-15.58,5.51-28.65.66-5.55,1.13-11.3,1.24-16.67.44-21,0-46.13,0-46.13,12.69-7.61,24.89-.56,25.14-.41,2.55,14.28,3.76,31.87,3.05,54.23-.85,27.1-5.55,39.81-8.67,47.29C819,273.08,812.89,272.51,814.54,265.7Z" fill="#cfa19d"/><path d="M816.89,135.05a123.55,123.55,0,0,1,9.76,31.63c-.25-.15-12.45-7.2-25.14.41,0,0,.44,25.14,0,46.13-.11,5.37-.58,11.12-1.24,16.67H733.55c-.66-5.55-1.13-11.3-1.24-16.67-.43-21,0-46.13,0-46.13-12.82-7.69-25.15-.31-25.15-.31h0a124.1,124.1,0,0,1,9.78-31.73c11.53-24.35,32-29.47,32-29.47s3.84,6.41,17.94,6.41,17.94-6.41,17.94-6.41S805.35,110.7,816.89,135.05Z" fill="#666"/><path d="M800.3,369.57S813,378.44,813,386.23s-9.46,7.69-21.14,7.69S772,388.89,772,381.1a54.29,54.29,0,0,1,1.35-12.81l.14-.19c5.48,3.94,20,5,25.68,1.33Z" fill="#333"/><path d="M806.4,269.5l-.4.11-4.49,96.11a4.36,4.36,0,0,1-2.3,3.71c-5.66,3.65-20.2,2.61-25.68-1.33a4.3,4.3,0,0,1-2.14-3.37l1.23-107.93a5.07,5.07,0,0,0-5.07-5.13h-1.28a5.06,5.06,0,0,0-5.06,5.13l1.21,107.93a4.28,4.28,0,0,1-2.13,3.37c-5.71,4.1-21.27,5.06-26.35.85a4.08,4.08,0,0,1-1.63-3.23l-4.49-96.11-.52-.1a2.78,2.78,0,0,0,0-1.8c2.21,4.91,10.09,2.52,6.53-3.9,2.21,4.21,8.23,2.46,5.26-5.27-1.37-3.57-4-15.58-5.51-28.65h66.72c-1.55,13.07-4.14,25.08-5.51,28.65-3,7.73,3.06,9.48,5.26,5.27-3.28,6.39,4.32,8.81,6.54,3.9A3.14,3.14,0,0,0,806.4,269.5Z" fill="#2d78ff"/><path d="M787.73,64.89c3.07,0,5.56,2.8,5.56,6.25s-2.78,6.24-6.94,6.24l-.49-.17a31.77,31.77,0,0,0,1.66-6.86,27.51,27.51,0,0,0,.21-3.38c0-.7,0-1.39-.08-2.07Z" fill="#cfa19d"/><path d="M787.65,64.9c.06.68.08,1.37.08,2.07a27.51,27.51,0,0,1-.21,3.38h-.11c-3.84,0-2.56-6.41-6.62-10.26-3.63-3.44-6.93-2.56-13.88-2.56s-10.25-.88-13.88,2.56c-4.06,3.85-2.78,10.26-6.62,10.26h-.11a27.53,27.53,0,0,1-.22-3.38q0-1.05.09-2.07c1-11.68,9.88-20.83,20.74-20.83S786.7,53.22,787.65,64.9Z" fill="#333"/><path d="M787.41,70.34h.11a31.77,31.77,0,0,1-1.66,6.86,29.73,29.73,0,0,1-8.77,12.9,15.15,15.15,0,0,1-20.36,0A29.73,29.73,0,0,1,748,77.21a31.2,31.2,0,0,1-1.66-6.86h.11c3.84,0,2.56-6.41,6.62-10.26,3.63-3.44,6.94-2.56,13.88-2.56s10.25-.88,13.88,2.56C784.85,63.93,783.57,70.34,787.41,70.34Zm-7.69,3.2a3.2,3.2,0,1,0-3.2,3.2A3.19,3.19,0,0,0,779.72,73.54Zm-19.22,0a3.21,3.21,0,1,0-3.2,3.2A3.2,3.2,0,0,0,760.5,73.54Z" fill="#cfa19d"/><path d="M784.85,105.58S781,112,766.91,112,749,105.58,749,105.58s7.69-1.28,7.69-15.38l.07-.09a15.15,15.15,0,0,0,20.36,0l.07.09C777.16,104.3,784.85,105.58,784.85,105.58Z" fill="#cfa19d"/><path d="M776.52,70.34a3.2,3.2,0,1,1-3.2,3.2A3.19,3.19,0,0,1,776.52,70.34Zm1.6,3.68a1.76,1.76,0,1,0-1.76,1.76A1.76,1.76,0,0,0,778.12,74Z" fill="#f2f2f2"/><circle cx="776.36" cy="74.02" r="1.76" fill="#333"/><path d="M760.44,368.29a54.68,54.68,0,0,1,1.34,12.81c0,7.79-8.18,12.82-19.86,12.82s-21.15.09-21.15-7.69,12.76-16.66,12.76-16.66l.41-.62c5.08,4.21,20.64,3.25,26.35-.85Z" fill="#333"/><path d="M757.3,70.34a3.2,3.2,0,1,1-3.21,3.2A3.2,3.2,0,0,1,757.3,70.34ZM759.22,74a1.76,1.76,0,1,0-1.76,1.76A1.76,1.76,0,0,0,759.22,74Z" fill="#f2f2f2"/><circle cx="757.46" cy="74.02" r="1.76" fill="#333"/><path d="M748,77.21l-.48.17c-4.17,0-6.94-2.79-6.94-6.24s2.48-6.25,5.54-6.25h.09q-.09,1-.09,2.07a27.53,27.53,0,0,0,.22,3.38A31.2,31.2,0,0,0,748,77.21Z" fill="#cfa19d"/><path d="M719.1,265.13l-.11,0c1.66,6.81-4.15,7.91-6.19,3-3.13-7.48-7.83-20.19-8.68-47.29-.71-22.31.5-39.86,3-54.13h0s12.33-7.38,25.15.31c0,0-.43,25.14,0,46.13.11,5.37.58,11.12,1.24,16.67,1.55,13.07,4.14,25.08,5.51,28.65,3,7.73-3,9.48-5.26,5.27,3.56,6.42-4.32,8.81-6.53,3.9a2.78,2.78,0,0,1,0,1.8c-.75,2.23-4.39,3.35-6.74-.6h0C720,267.68,719.54,266.42,719.1,265.13Z" fill="#f5afb3"/><path d="M719,265.17c1.66,6.81-4.15,7.91-6.19,3-3.13-7.48-7.83-20.19-8.68-47.29-.71-22.31.5-39.86,3-54.13a124.1,124.1,0,0,1,9.78-31.73c11.53-24.35,32-29.47,32-29.47s3.84,6.41,17.94,6.41" fill="none" stroke="#333" stroke-linecap="round" stroke-linejoin="round"/><path d="M733.8,263.81c2.21,4.21,8.23,2.46,5.26-5.27-1.37-3.57-4-15.58-5.51-28.65-.66-5.55-1.13-11.3-1.24-16.67-.43-21,0-46.13,0-46.13" fill="none" stroke="#333" stroke-linecap="round" stroke-linejoin="round"/><path d="M720.58,269a.42.42,0,0,1,0-.12c-.51-1.23-1-2.49-1.44-3.78a82.94,82.94,0,0,1-2.71-9.62" fill="none" stroke="#333" stroke-linecap="round" stroke-linejoin="round"/><path d="M727.27,267.71A96,96,0,0,1,723,254.23" fill="none" stroke="#333" stroke-linecap="round" stroke-linejoin="round"/><path d="M733.8,263.81A85,85,0,0,1,730,253" fill="none" stroke="#333" stroke-linecap="round" stroke-linejoin="round"/><path d="M720.56,268.91c2.35,3.95,6,2.83,6.74.6a2.78,2.78,0,0,0,0-1.8c2.21,4.91,10.09,2.52,6.53-3.9" fill="none" stroke="#333" stroke-linecap="round" stroke-linejoin="round"/><path d="M766.91,94a16.21,16.21,0,0,1-10.18-3.93A29.73,29.73,0,0,1,748,77.21a31.2,31.2,0,0,1-1.66-6.86,27.53,27.53,0,0,1-.22-3.38q0-1.05.09-2.07c1-11.68,9.88-20.83,20.74-20.83" fill="none" stroke="#333" stroke-linecap="round" stroke-linejoin="round"/><path d="M747.48,77.38c-4.17,0-6.94-2.79-6.94-6.24s2.48-6.25,5.54-6.25" fill="none" stroke="#333" stroke-linecap="round" stroke-linejoin="round"/><path d="M707.16,166.78s12.33-7.38,25.15.31" fill="none" stroke="#333" stroke-linecap="round" stroke-linejoin="round"/><path d="M749,105.58s7.69-1.28,7.69-15.38" fill="none" stroke="#333" stroke-linecap="round" stroke-linejoin="round"/><line x1="754.09" y1="67.45" x2="758.26" y2="67.13" fill="none" stroke="#333" stroke-linecap="round" stroke-linejoin="round"/><path d="M746.41,70.34c3.84,0,2.56-6.41,6.62-10.26,3.63-3.44,6.94-2.56,13.88-2.56" fill="none" stroke="#333" stroke-linecap="round" stroke-linejoin="round"/><path d="M727.82,269.61l4.49,96.11a4.08,4.08,0,0,0,1.63,3.23c5.08,4.21,20.64,3.25,26.35-.85a4.28,4.28,0,0,0,2.13-3.37L761.21,256.8a5.06,5.06,0,0,1,5.06-5.13h.64" fill="none" stroke="#333" stroke-linecap="round" stroke-linejoin="round"/><path d="M760.44,368.29a54.68,54.68,0,0,1,1.34,12.81c0,7.79-8.18,12.82-19.86,12.82s-21.15.09-21.15-7.69,12.76-16.66,12.76-16.66" fill="none" stroke="#333" stroke-linecap="round" stroke-linejoin="round"/><path d="M814.54,265.7c-1.65,6.81,4.45,7.38,6.49,2.5,3.12-7.48,7.82-20.19,8.67-47.29.71-22.36-.5-39.95-3.05-54.23a123.55,123.55,0,0,0-9.76-31.63c-11.54-24.35-32-29.47-32-29.47S781,112,766.91,112" fill="none" stroke="#333" stroke-linecap="round" stroke-linejoin="round"/><path d="M800,263.81c-2.2,4.21-8.22,2.46-5.26-5.27,1.37-3.57,4-15.58,5.51-28.65.66-5.55,1.13-11.3,1.24-16.67.44-21,0-46.13,0-46.13" fill="none" stroke="#333" stroke-linecap="round" stroke-linejoin="round"/><path d="M813.39,268.68c.41-1,.79-2,1.15-3a77.72,77.72,0,0,0,2.89-10.19" fill="none" stroke="#333" stroke-linecap="round" stroke-linejoin="round"/><path d="M806.56,267.71a96,96,0,0,0,4.27-13.48" fill="none" stroke="#333" stroke-linecap="round" stroke-linejoin="round"/><path d="M800,263.81A61.05,61.05,0,0,0,803.87,253" fill="none" stroke="#333" stroke-linecap="round" stroke-linejoin="round"/><path d="M813.39,268.68c-1.92,4.56-6.38,3.49-7,.82a3.14,3.14,0,0,1,.16-1.79c-2.22,4.91-9.82,2.49-6.54-3.9" fill="none" stroke="#333" stroke-linecap="round" stroke-linejoin="round"/><path d="M766.91,94a16.19,16.19,0,0,0,10.18-3.93,29.73,29.73,0,0,0,8.77-12.9,31.77,31.77,0,0,0,1.66-6.86,27.51,27.51,0,0,0,.21-3.38c0-.7,0-1.39-.08-2.07-.95-11.68-9.87-20.83-20.74-20.83" fill="none" stroke="#333" stroke-linecap="round" stroke-linejoin="round"/><path d="M786.35,77.38c4.16,0,6.94-2.79,6.94-6.24s-2.49-6.25-5.56-6.25" fill="none" stroke="#333" stroke-linecap="round" stroke-linejoin="round"/><path d="M826.65,166.68h0c-.25-.15-12.45-7.2-25.14.41" fill="none" stroke="#333" stroke-linecap="round" stroke-linejoin="round"/><path d="M784.85,105.58s-7.69-1.28-7.69-15.38" fill="none" stroke="#333" stroke-linecap="round" stroke-linejoin="round"/><line x1="779.72" y1="67.45" x2="775.56" y2="67.13" fill="none" stroke="#333" stroke-linecap="round" stroke-linejoin="round"/><path d="M787.41,70.34c-3.84,0-2.56-6.41-6.62-10.26-3.63-3.44-6.93-2.56-13.88-2.56" fill="none" stroke="#333" stroke-linecap="round" stroke-linejoin="round"/><path d="M806,269.61l-4.49,96.11a4.36,4.36,0,0,1-2.3,3.71c-5.66,3.65-20.2,2.61-25.68-1.33a4.3,4.3,0,0,1-2.14-3.37l1.23-107.93a5.07,5.07,0,0,0-5.07-5.13h-.64" fill="none" stroke="#333" stroke-linecap="round" stroke-linejoin="round"/><path d="M773.39,368.29A54.29,54.29,0,0,0,772,381.1c0,7.79,8.18,12.82,19.86,12.82S813,394,813,386.23s-12.74-16.66-12.74-16.66" fill="none" stroke="#333" stroke-linecap="round" stroke-linejoin="round"/><line x1="800.23" y1="229.88" x2="733.59" y2="229.88" fill="none" stroke="#333" stroke-linecap="round" stroke-linejoin="round"/><path d="M763.06,83.68a6.4,6.4,0,0,0,7.69,0" fill="none" stroke="#000" stroke-linecap="round" stroke-linejoin="round"/><path d="M757.85,142.65c7.25,19,12.84,45.47,0,69A75,75,0,0,1,745,228.51a109,109,0,0,1-10.59,9.18c-2,1.55-3.67,2.85-5.17,4l0-.05c0-1.3-3.91-13-16.92-20.83-2.8,1.94-5.24,3.81-7.5,5.73h0q-3.31-2.85-7.4-5.73c-13,7.81-17.65,19.53-17.65,20.83l-.08.09c-1.66-1.3-3.37-2.61-5.13-4a107.69,107.69,0,0,1-10.82-9.42,74.16,74.16,0,0,1-12.61-16.62c-12.84-23.53-7.26-50,0-69a65.58,65.58,0,0,1,35.15-36.45s-1.3-7.81,6.51-7.81c3.35,3.19,7.39,5.21,11.71,5.21s8.37-2,11.72-5.21c7.81,0,6.51,7.81,6.51,7.81A65.58,65.58,0,0,1,757.85,142.65Z" fill="#eb5f67"/><path d="M745,228.51l-6,134.16a4.82,4.82,0,0,1-2.21,3.87c-5.66,4.29-20.6,4.52-26.21,1a4,4,0,0,1-2.17-3.24l1.22-88a5.13,5.13,0,0,0-10.2-.88V262.15l0-.09c2.44.57,4.17-1.81,3.2-4.65,2.09,6.68,9.42,3.25,7.47-1.53.82,1.61,2.83,1.63,4.21.42l.5.12a7,7,0,0,1,.23,1.78v4.73a2.59,2.59,0,0,0,2.6,2.6h1.3a2.6,2.6,0,0,0,2.61-2.6v-5.21a11,11,0,0,0-2.47-7.18l-.05-.12a2.64,2.64,0,0,0,1-1.84l.19,0c1.94-1.94,4.61-3.69,9-7,1.5-1.11,3.21-2.41,5.17-4A109,109,0,0,0,745,228.51Z" fill="#66c09c"/><path d="M737.6,366.58s13.09,11.62,13.09,19.53-9.62,7.81-21.48,7.81S709,388.81,709,380.9a61.21,61.21,0,0,1,1.23-13l.29-.37c5.61,3.55,20.55,3.32,26.21-1Z" fill="#666"/><path d="M725.36,80.08c3.06.62,5,3.9,4.28,7.34s-4,5.66-8.16,4.83l-.36-.16A33.82,33.82,0,0,0,725,82.22c.15-.71.28-1.43.38-2.15h0Z" fill="#f5afb3"/><path d="M729.21,241.6l0,.05c-4.41,3.27-7.08,5-9,7l-.19,0a7.51,7.51,0,0,0-.65-3.85c-2-4.92-6.64-11.41-14.6-18.23h0c2.26-1.92,4.7-3.79,7.5-5.73C725.3,228.58,729.21,240.3,729.21,241.6Z" fill="#f5afb3"/><path d="M725.63,76.1a28.12,28.12,0,0,1-.29,4h0c-.1.72-.23,1.44-.38,2.15l-.11,0s-5.74-1.38-5.73-6.4c0-7.83,3.83-12.6-.87-17.36A24.2,24.2,0,0,1,725.63,76.1Z" fill="#e5e5e5"/><path d="M724.85,82.2l.11,0a33.82,33.82,0,0,1-3.84,9.87,28.6,28.6,0,0,1-4.93,6.3c-3.35,3.19-7.39,5.21-11.72,5.21s-8.36-2-11.71-5.21a28.6,28.6,0,0,1-4.93-6.3A33.8,33.8,0,0,1,684,82.2l.16,0s5.69-1.36,5.68-6.38c0-7.79-3.79-12.55.81-17.3l.06-.06a19.73,19.73,0,0,1,27.56,0c4.7,4.76.89,9.53.87,17.36C719.11,80.82,724.85,82.2,724.85,82.2Zm-8.66,2.52A3.26,3.26,0,1,0,712.94,88,3.25,3.25,0,0,0,716.19,84.72Zm-16.92,0A3.26,3.26,0,1,0,696,88,3.25,3.25,0,0,0,699.27,84.72Z" fill="#f5afb3"/><path d="M721.54,257.72v5.21a2.6,2.6,0,0,1-2.61,2.6h-1.3a2.59,2.59,0,0,1-2.6-2.6V258.2a7,7,0,0,0-.23-1.78l-.5-.12a4.74,4.74,0,0,0,1.18-5.06c-.36-.8-.75-1.61-1.18-2.43,1.4,2,3.47,2.5,4.72,1.61l.05.12A11,11,0,0,1,721.54,257.72Z" fill="#666"/><path d="M714.3,248.81c.43.82.82,1.63,1.18,2.43a4.74,4.74,0,0,1-1.18,5.06c-1.38,1.21-3.39,1.19-4.21-.42,1.95,4.78-5.38,8.21-7.47,1.53,1,2.84-.76,5.22-3.2,4.65-1.25-.28-2.69-1.35-4.06-3.54-.78-1.24-1.56-2.4-2.34-3.49a63.57,63.57,0,0,0-13.36-13.34l.08-.09c0-1.3,4.63-13,17.65-20.83q4.1,2.88,7.4,5.73c8,6.82,12.62,13.31,14.6,18.23a7.51,7.51,0,0,1,.65,3.85,2.64,2.64,0,0,1-1,1.84C717.77,251.31,715.7,250.78,714.3,248.81Z" fill="#f5afb3"/><path d="M712.94,81.47a3.26,3.26,0,1,1-3.26,3.25A3.25,3.25,0,0,1,712.94,81.47Zm1.62,3.41a1.79,1.79,0,1,0-1.79,1.79A1.79,1.79,0,0,0,714.56,84.88Z" fill="#f2f2f2"/><circle cx="712.77" cy="84.88" r="1.79" fill="#333"/><path d="M699.4,275.34v115a2.6,2.6,0,0,1-2.6,2.61h-1.3a2.61,2.61,0,0,1-2.49-1.83,2.45,2.45,0,0,1-.12-.78V255.12L693,255c.78,1.09,1.56,2.25,2.34,3.49,1.37,2.19,2.81,3.26,4.06,3.54l0,.09Z" fill="#666"/><path d="M696,81.47a3.26,3.26,0,1,1-3.25,3.25A3.25,3.25,0,0,1,696,81.47Zm2,3.41a1.79,1.79,0,1,0-1.79,1.79A1.79,1.79,0,0,0,698,84.88Z" fill="#f2f2f2"/><circle cx="696.17" cy="84.88" r="1.79" fill="#333"/><path d="M693,255l-.13.09v115h-.24c-7.14,1.88-17.12,1.64-21-1.59a4.17,4.17,0,0,1-1.66-3.27l-6.5-136.77.24-.24a107.69,107.69,0,0,0,10.82,9.42c1.76,1.39,3.47,2.7,5.13,4A63.57,63.57,0,0,1,693,255Z" fill="#66c09c"/><path d="M693,391.12l-.12.05a29.08,29.08,0,0,1-13.15,2.75c-11.87,0-21.48.09-21.48-7.81s12.94-16.93,12.94-16.93l.43-.63c3.9,3.23,13.88,3.47,21,1.59h.24v20.2A2.45,2.45,0,0,0,693,391.12Z" fill="#666"/><path d="M683.32,76.1a24.25,24.25,0,0,1,7.31-17.6c-4.6,4.75-.83,9.51-.81,17.3,0,5-5.68,6.38-5.68,6.38l-.16,0c-.15-.71-.27-1.42-.37-2.13h0A28.12,28.12,0,0,1,683.32,76.1Z" fill="#e5e5e5"/><path d="M687.83,92.09l-.36.16c-4.15.83-7.47-1.4-8.17-4.83s1.23-6.72,4.29-7.34h0c.1.71.22,1.42.37,2.13A33.8,33.8,0,0,0,687.83,92.09Z" fill="#f5afb3"/><path d="M690.69,58.44a20,20,0,0,1,13.78-5.61" fill="none" stroke="#333" stroke-linecap="round" stroke-linejoin="round"/><path d="M704.47,103.6c-4.32,0-8.36-2-11.71-5.21a28.6,28.6,0,0,1-4.93-6.3A33.8,33.8,0,0,1,684,82.2c-.15-.71-.27-1.42-.37-2.13h0a28.12,28.12,0,0,1-.29-4,24.25,24.25,0,0,1,7.31-17.6" fill="none" stroke="#333" stroke-linecap="round" stroke-linejoin="round"/><path d="M684.14,82.18s5.69-1.36,5.68-6.38c0-7.79-3.79-12.55.81-17.3l.06-.06" fill="none" stroke="#333" stroke-linecap="round" stroke-linejoin="round"/><path d="M692.76,88.63a6,6,0,0,0,4.57-.8" fill="none" stroke="#333" stroke-linecap="round" stroke-linejoin="round"/><path d="M701.87,97.09a3.73,3.73,0,0,0,2.6,1.3" fill="none" stroke="#333" stroke-linecap="round" stroke-linejoin="round"/><path d="M702.62,257.41c1,2.84-.76,5.22-3.2,4.65-1.25-.28-2.69-1.35-4.06-3.54-.78-1.24-1.56-2.4-2.34-3.49a63.57,63.57,0,0,0-13.36-13.34c-1.66-1.3-3.37-2.61-5.13-4a107.69,107.69,0,0,1-10.82-9.42,74.16,74.16,0,0,1-12.61-16.62c-12.84-23.53-7.26-50,0-69a65.58,65.58,0,0,1,35.15-36.45s-1.3-7.81,6.51-7.81" fill="none" stroke="#333" stroke-linecap="round" stroke-linejoin="round"/><path d="M697.39,220.77q4.1,2.88,7.4,5.73c8,6.82,12.62,13.31,14.6,18.23a7.51,7.51,0,0,1,.65,3.85,2.64,2.64,0,0,1-1,1.84c-1.25.89-3.32.36-4.72-1.61l-.12-.17" fill="none" stroke="#333" stroke-linecap="round" stroke-linejoin="round"/><path d="M715.48,251.24c-.36-.8-.75-1.61-1.18-2.43a36.54,36.54,0,0,0-5.92-8.51" fill="none" stroke="#333" stroke-linecap="round" stroke-linejoin="round"/><path d="M710.09,255.88c-1.76-3.83-4.31-9.08-6.92-11.68" fill="none" stroke="#333" stroke-linecap="round" stroke-linejoin="round"/><path d="M702.62,257.41a28,28,0,0,0-6-9.3" fill="none" stroke="#333" stroke-linecap="round" stroke-linejoin="round"/><path d="M715.48,251.24a4.74,4.74,0,0,1-1.18,5.06c-1.38,1.21-3.39,1.19-4.21-.42,1.95,4.78-5.38,8.21-7.47,1.53" fill="none" stroke="#333" stroke-linecap="round" stroke-linejoin="round"/><path d="M679.74,241.6c0-1.3,4.63-13,17.65-20.83" fill="none" stroke="#333" stroke-linecap="round" stroke-linejoin="round"/><path d="M707.08,97.09a3.75,3.75,0,0,1-2.61,1.3" fill="none" stroke="#333" stroke-linecap="round" stroke-linejoin="round"/><path d="M720.23,248.61c1.94-1.94,4.61-3.69,9-7,1.5-1.11,3.21-2.41,5.17-4A109,109,0,0,0,745,228.51a75,75,0,0,0,12.84-16.86c12.84-23.53,7.25-50,0-69A65.58,65.58,0,0,0,722.7,106.2s1.3-7.81-6.51-7.81" fill="none" stroke="#333" stroke-linecap="round" stroke-linejoin="round"/><path d="M712.29,220.77c-2.8,1.94-5.24,3.81-7.5,5.73" fill="none" stroke="#333" stroke-linecap="round" stroke-linejoin="round"/><path d="M729.21,241.6c0-1.3-3.91-13-16.92-20.83" fill="none" stroke="#333" stroke-linecap="round" stroke-linejoin="round"/><path d="M714.8,256.42a7,7,0,0,1,.23,1.78v4.73a2.59,2.59,0,0,0,2.6,2.6h1.3a2.6,2.6,0,0,0,2.61-2.6v-5.21a11,11,0,0,0-2.47-7.18" fill="none" stroke="#333" stroke-linecap="round" stroke-linejoin="round"/><path d="M692.89,255.12V390.34a2.45,2.45,0,0,0,.12.78A2.61,2.61,0,0,0,695.5,393h1.3a2.6,2.6,0,0,0,2.6-2.61V262.15" fill="none" stroke="#333" stroke-linecap="round" stroke-linejoin="round"/><path d="M687.47,92.25c-4.15.83-7.47-1.4-8.17-4.83s1.23-6.72,4.29-7.34" fill="none" stroke="#333" stroke-linecap="round" stroke-linejoin="round"/><path d="M721.48,92.25c4.14.83,7.47-1.4,8.16-4.83s-1.22-6.72-4.28-7.34" fill="none" stroke="#333" stroke-linecap="round" stroke-linejoin="round"/><path d="M704.47,103.6c4.33,0,8.37-2,11.72-5.21a28.6,28.6,0,0,0,4.93-6.3A33.82,33.82,0,0,0,725,82.22c.15-.71.28-1.43.38-2.15h0a28.12,28.12,0,0,0,.29-4,24.2,24.2,0,0,0-7.38-17.66,20,20,0,0,0-13.78-5.61" fill="none" stroke="#333" stroke-linecap="round" stroke-linejoin="round"/><path d="M724.85,82.2s-5.74-1.38-5.73-6.4c0-7.83,3.83-12.6-.87-17.36" fill="none" stroke="#333" stroke-linecap="round" stroke-linejoin="round"/><path d="M716.19,88.63a6.05,6.05,0,0,1-4.58-.8" fill="none" stroke="#333" stroke-linecap="round" stroke-linejoin="round"/><path d="M699.34,276.22a5.08,5.08,0,0,1,5.13-5.18" fill="none" stroke="#333" stroke-linecap="round" stroke-linejoin="round"/><path d="M663.47,228.51,670,365.28a4.17,4.17,0,0,0,1.66,3.27c3.9,3.23,13.88,3.47,21,1.59" fill="none" stroke="#333" stroke-linecap="round" stroke-linejoin="round"/><path d="M745,228.51l-6,134.16a4.82,4.82,0,0,1-2.21,3.87c-5.66,4.29-20.6,4.52-26.21,1a4,4,0,0,1-2.17-3.24l1.22-88a5.1,5.1,0,0,0-5.13-5.18" fill="none" stroke="#333" stroke-linecap="round" stroke-linejoin="round"/><path d="M692.89,391.17a29.08,29.08,0,0,1-13.15,2.75c-11.87,0-21.48.09-21.48-7.81s12.94-16.93,12.94-16.93" fill="none" stroke="#333" stroke-linecap="round" stroke-linejoin="round"/><path d="M710.26,367.88a61.21,61.21,0,0,0-1.23,13c0,7.91,8.31,13,20.18,13s21.48.09,21.48-7.81-13.09-19.53-13.09-19.53" fill="none" stroke="#333" stroke-linecap="round" stroke-linejoin="round"/><path d="M147.24,116.69a1.92,1.92,0,0,0,.11-.18,55.28,55.28,0,0,1,30.83,28.36c4.19,8.93,7.24,19.64,9.64,30.43l-.11,0s-10-5.44-24.5,0c1.47,23.32,2.91,34.93,5.45,46.85v13.94H91.54V222.18h0c2.54-11.91,4-23.53,5.45-46.84-13.6-6.35-24.32,0-24.32,0l-.29-.06c2.4-10.77,5.45-21.46,9.64-30.36a55.24,55.24,0,0,1,30.82-28.36l.12.18c.72,1,4.94,6,17.14,6S146.51,117.68,147.24,116.69Z" fill="#fbbb4d"/><path d="M91.54,236.12h77.12c0,37.19-5.9,128.21-5.9,128.21a4.62,4.62,0,0,1-2.09,3.67c-5.36,4.05-19.51,4.27-24.83.91a3.75,3.75,0,0,1-2.05-3.07L135,262a4.88,4.88,0,1,0-9.75,0l1.17,103.84a4.28,4.28,0,0,1-2.25,3.38c-5.66,3.83-20.32,4.68-25.15.67a3.94,3.94,0,0,1-1.57-3.1S91.54,266.06,91.54,236.12Z" fill="#5793ff"/><path d="M161.46,368s12.4,11,12.4,18.49-9.11,7.4-20.34,7.4-19.11-4.84-19.11-12.33a58.21,58.21,0,0,1,1.16-12.33l.27-.35c5.32,3.36,19.47,3.14,24.83-.91Z" fill="#333"/><path d="M150.13,77.56c2.94,0,5.34,2.69,5.34,6s-2.67,6-6.68,6l-.46-.18a30.44,30.44,0,0,0,1.59-6.59,25.57,25.57,0,0,0,.21-3.25c0-.67,0-1.34-.08-2Z" fill="#f5afb3"/><path d="M150.05,77.57c0,.66.08,1.33.08,2a25.57,25.57,0,0,1-.21,3.25l-.1,0c-3.7,0-2.47-6.16-6.38-9.86-3.49-3.31-6.67-2.46-13.35-2.46s-9.86-.85-13.36,2.46c-3.9,3.7-2.67,9.86-6.36,9.86l-.11,0a25.54,25.54,0,0,1-.2-3.25c0-.67,0-1.34.08-2,.92-11.24,9.5-20,20-20S149.13,66.33,150.05,77.57Z" fill="#fddda6"/><path d="M149.82,82.8l.1,0a30.44,30.44,0,0,1-1.59,6.59,28.58,28.58,0,0,1-8.44,12.42,14.58,14.58,0,0,1-19.59,0,28.58,28.58,0,0,1-8.44-12.42,30.46,30.46,0,0,1-1.6-6.59l.11,0c3.69,0,2.46-6.16,6.36-9.86,3.5-3.31,6.68-2.46,13.36-2.46s9.86-.85,13.35,2.46C147.35,76.64,146.12,82.8,149.82,82.8Zm-7.4,3.09A3.08,3.08,0,1,0,139.34,89,3.09,3.09,0,0,0,142.42,85.89ZM130.09,98.67c2.26,0,4.08-1.22,4.08-2.73s-1.82-.9-4.08-.9-4.09-.6-4.09.9S127.84,98.67,130.09,98.67Zm-6.16-12.78A3.09,3.09,0,1,0,120.85,89,3.09,3.09,0,0,0,123.93,85.89Z" fill="#f5afb3"/><path d="M147.24,116.69c-.73,1-4.94,6-17.15,6s-16.42-5-17.14-6c.93-.23,7.28-2.21,7.28-14.78l.07-.08a14.58,14.58,0,0,0,19.59,0l.07.08C140,114.48,146.3,116.46,147.24,116.69Z" fill="#f5afb3"/><path d="M139.34,82.8a3.09,3.09,0,1,1-3.08,3.09A3.09,3.09,0,0,1,139.34,82.8Zm1.28,3.09a1.7,1.7,0,1,0-1.69,1.69A1.7,1.7,0,0,0,140.62,85.89Z" fill="#f2f2f2"/><circle cx="138.93" cy="85.89" r="1.7" fill="#333"/><path d="M134.17,95.94c0,1.51-1.82,2.73-4.08,2.73S126,97.45,126,95.94s1.84-.9,4.09-.9S134.17,94.44,134.17,95.94Z" fill="#eb5f67"/><path d="M124.48,369.26a52.22,52.22,0,0,1,1.3,12.33c0,7.49-7.88,12.33-19.11,12.33s-20.35.09-20.35-7.4,12.26-16,12.26-16l.41-.6c4.83,4,19.49,3.16,25.15-.67Z" fill="#333"/><path d="M120.85,82.8a3.09,3.09,0,1,1-3.09,3.09A3.09,3.09,0,0,1,120.85,82.8Zm1.88,3.09a1.7,1.7,0,1,0-1.7,1.69A1.7,1.7,0,0,0,122.73,85.89Z" fill="#f2f2f2"/><circle cx="121.03" cy="85.89" r="1.7" fill="#333"/><path d="M111.86,89.41l-.47.18c-4,0-6.68-2.7-6.68-6s2.39-6,5.35-6h.08c-.06.66-.08,1.33-.08,2a25.54,25.54,0,0,0,.2,3.25A30.46,30.46,0,0,0,111.86,89.41Z" fill="#f5afb3"/><path d="M58.36,270.64c-3,4.12-9.81.47-5.58-4.75-3,3.17-7.94.31-3.71-6.23,2.85-4.4,11.78-24.39,15.35-41.32,2.28-10.83,4.39-27.06,8-43.11l.29.06s10.72-6.31,24.32,0c-1.45,23.31-2.91,34.93-5.45,46.84-.63,2.92-1.32,5.87-2.09,9-4.9,19.88-13.13,36.37-17.56,42.79-2.88,4.18-8.64,2.61-5.73-3.47h0c-.54.86-1.1,1.72-1.71,2.6C61.09,277.61,56.05,274.07,58.36,270.64Z" fill="#f5afb3"/><path d="M130.09,105.61a15.54,15.54,0,0,1-9.79-3.78,28.58,28.58,0,0,1-8.44-12.42,30.46,30.46,0,0,1-1.6-6.59,25.54,25.54,0,0,1-.2-3.25c0-.67,0-1.34.08-2,.92-11.24,9.5-20,20-20" fill="none" stroke="#333" stroke-linecap="round" stroke-linejoin="round"/><path d="M111.39,89.59c-4,0-6.68-2.7-6.68-6s2.39-6,5.35-6" fill="none" stroke="#333" stroke-linecap="round" stroke-linejoin="round"/><path d="M112.83,116.71l.12,0c.93-.23,7.28-2.21,7.28-14.78" fill="none" stroke="#333" stroke-linecap="round" stroke-linejoin="round"/><line x1="117.76" y1="80.03" x2="121.77" y2="79.72" fill="none" stroke="#333" stroke-linecap="round" stroke-linejoin="round"/><path d="M110.37,82.8c3.69,0,2.46-6.16,6.36-9.86,3.5-3.31,6.68-2.46,13.36-2.46" fill="none" stroke="#333" stroke-linecap="round" stroke-linejoin="round"/><path d="M130.09,105.61a15.56,15.56,0,0,0,9.8-3.78,28.58,28.58,0,0,0,8.44-12.42,30.44,30.44,0,0,0,1.59-6.59,25.57,25.57,0,0,0,.21-3.25c0-.67,0-1.34-.08-2-.92-11.24-9.5-20-20-20" fill="none" stroke="#333" stroke-linecap="round" stroke-linejoin="round"/><path d="M148.79,89.59c4,0,6.68-2.7,6.68-6s-2.4-6-5.34-6" fill="none" stroke="#333" stroke-linecap="round" stroke-linejoin="round"/><path d="M147.35,116.71l-.11,0c-.94-.23-7.28-2.21-7.28-14.78" fill="none" stroke="#333" stroke-linecap="round" stroke-linejoin="round"/><line x1="142.42" y1="80.03" x2="138.41" y2="79.72" fill="none" stroke="#333" stroke-linecap="round" stroke-linejoin="round"/><path d="M149.82,82.8c-3.7,0-2.47-6.16-6.38-9.86-3.49-3.31-6.67-2.46-13.35-2.46" fill="none" stroke="#333" stroke-linecap="round" stroke-linejoin="round"/><path d="M91.54,236.12c0,29.94,5.88,130.67,5.88,130.67a3.94,3.94,0,0,0,1.57,3.1c4.83,4,19.49,3.16,25.15-.67a4.28,4.28,0,0,0,2.25-3.38L125.22,262a4.87,4.87,0,0,1,4.87-4.94" fill="none" stroke="#333" stroke-linecap="round" stroke-linejoin="round"/><path d="M66.15,270.5c-2.91,6.08,2.85,7.65,5.73,3.47,4.43-6.42,12.66-22.91,17.56-42.79.77-3.14,1.46-6.09,2.09-9,2.54-11.91,4-23.53,5.45-46.84" fill="none" stroke="#333" stroke-linecap="round" stroke-linejoin="round"/><path d="M52.78,265.89c-3,3.17-7.94.31-3.71-6.23,2.85-4.4,11.78-24.39,15.35-41.32,2.28-10.83,4.39-27.06,8-43.11,2.4-10.77,5.45-21.46,9.64-30.36a55.24,55.24,0,0,1,30.82-28.36l.12.18c.72,1,4.94,6,17.14,6" fill="none" stroke="#333" stroke-linecap="round" stroke-linejoin="round"/><path d="M64.43,273.09c.61-.88,1.17-1.74,1.71-2.6A69.29,69.29,0,0,0,70.66,262" fill="none" stroke="#333" stroke-linecap="round" stroke-linejoin="round"/><path d="M58.36,270.64a94.36,94.36,0,0,0,6.7-11.84" fill="none" stroke="#333" stroke-linecap="round" stroke-linejoin="round"/><path d="M53,265.66a53.87,53.87,0,0,0,5.77-9.45" fill="none" stroke="#333" stroke-linecap="round" stroke-linejoin="round"/><path d="M64.43,273.09c-3.34,4.52-8.38,1-6.07-2.45-3,4.12-9.81.47-5.58-4.75l.2-.23" fill="none" stroke="#333" stroke-linecap="round" stroke-linejoin="round"/><path d="M170.75,231.18c-.77-3.14-1.46-6.08-2.09-9-2.54-11.92-4-23.53-5.45-46.85" fill="none" stroke="#333" stroke-linecap="round" stroke-linejoin="round"/><path d="M195.76,218.34c-2.28-10.81-4.39-27-7.94-43-2.4-10.79-5.45-21.5-9.64-30.43a55.28,55.28,0,0,0-30.83-28.36,1.92,1.92,0,0,1-.11.18c-.73,1-4.94,6-17.15,6" fill="none" stroke="#333" stroke-linecap="round" stroke-linejoin="round"/><path d="M97,175.33c-13.6-6.35-24.32,0-24.32,0" fill="none" stroke="#333" stroke-linecap="round" stroke-linejoin="round"/><path d="M168.66,236.12c0,37.19-5.9,128.21-5.9,128.21a4.62,4.62,0,0,1-2.09,3.67c-5.36,4.05-19.51,4.27-24.83.91a3.75,3.75,0,0,1-2.05-3.07L135,262a4.89,4.89,0,0,0-4.88-4.94" fill="none" stroke="#333" stroke-linecap="round" stroke-linejoin="round"/><path d="M187.71,175.33s-10-5.44-24.5,0" fill="none" stroke="#333" stroke-linecap="round" stroke-linejoin="round"/><polyline points="168.66 222.18 168.66 236.12 91.54 236.12 91.54 222.18" fill="none" stroke="#333" stroke-linecap="round" stroke-linejoin="round"/><path d="M124.48,369.26a52.22,52.22,0,0,1,1.3,12.33c0,7.49-7.88,12.33-19.11,12.33s-20.35.09-20.35-7.4,12.26-16,12.26-16" fill="none" stroke="#333" stroke-linecap="round" stroke-linejoin="round"/><path d="M135.57,369.26a58.21,58.21,0,0,0-1.16,12.33c0,7.49,7.87,12.33,19.11,12.33s20.34.09,20.34-7.4S161.46,368,161.46,368" fill="none" stroke="#333" stroke-linecap="round" stroke-linejoin="round"/><path d="M134.17,95.94c0,1.51-1.82,2.73-4.08,2.73S126,97.45,126,95.94s1.84-.9,4.09-.9S134.17,94.44,134.17,95.94Z" fill="none" stroke="#333" stroke-linecap="round" stroke-linejoin="round"/><path d="M266.39,130c7.63,20,13.5,47.8,0,72.54a79.41,79.41,0,0,1-13.49,17.72,111.57,111.57,0,0,1-11.14,9.65c-2.06,1.63-3.86,3-5.44,4.17l0-.06c0-1.37-4.11-13.69-17.79-21.9-2.94,2-5.5,4-7.87,6h0q-3.48-3-7.77-6c-13.69,8.21-18.57,20.53-18.57,21.9l-.08.1c-1.75-1.37-3.55-2.74-5.39-4.21a111.57,111.57,0,0,1-11.14-9.65,79.13,79.13,0,0,1-13.5-17.72c-13.49-24.74-7.62-52.51,0-72.54a68.93,68.93,0,0,1,37-38.32S189.75,83.5,198,83.5c3.52,3.35,7.76,5.47,12.32,5.47s8.79-2.12,12.31-5.47c8.22,0,6.85,8.21,6.85,8.21A68.93,68.93,0,0,1,266.39,130Z" fill="#5793ff"/><path d="M252.9,220.29l-6.35,141a5.1,5.1,0,0,1-2.33,4.07c-6,4.51-21.69,4.74-27.58,1a4.13,4.13,0,0,1-2.26-3.4l1.3-92.56a5.4,5.4,0,1,0-10.8,0L206.17,363a4.11,4.11,0,0,1-2.25,3.39c-6,3.85-22.41,3.5-28-1.33a4.88,4.88,0,0,1-1.9-3.73l-6.35-141a111.57,111.57,0,0,0,11.14,9.65c1.84,1.47,3.64,2.84,5.39,4.21,5.86,4.61,11.24,9.26,16.51,17.69,4.22,6.77,9.17,3.35,7.63-1.17,2.19,7,9.91,3.42,7.86-1.6,1.54,3.05,7.18.64,5.66-4.88-.38-.84-.8-1.69-1.25-2.56,2.09,2.93,5.58,2.84,6-.24l.2,0c2-2,4.85-3.87,9.48-7.31,1.58-1.17,3.38-2.54,5.44-4.17A111.57,111.57,0,0,0,252.9,220.29Z" fill="#99d5bd"/><path d="M245.11,365.44s13.75,12.22,13.75,20.53-10.1,8.21-22.58,8.21-21.21-5.37-21.21-13.68a64,64,0,0,1,1.3-13.69l.27-.4c5.89,3.74,21.62,3.51,27.58-1Z" fill="#666"/><path d="M236.28,234.05l0,.06c-4.63,3.44-7.44,5.27-9.48,7.31l-.2,0a7.89,7.89,0,0,0-.69-4c-2.07-5.18-7-12-15.34-19.17h0c2.37-2,4.93-4,7.87-6C232.17,220.36,236.28,232.68,236.28,234.05Z" fill="#f5afb3"/><path d="M232.52,60.06a31.4,31.4,0,0,1-1.23,8.52l-.48-.14A9.49,9.49,0,0,1,226.7,63c-1.69-5.07-12.32-2.74-16.42-8.21-4.11,5.47-14.74,3.14-16.43,8.21a9.5,9.5,0,0,1-4.1,5.47l-.49.14A31.79,31.79,0,0,1,188,60.06c0-13.51,10-24.47,22.25-24.47S232.52,46.55,232.52,60.06Z" fill="#b97570"/><path d="M230.81,68.44l.48.14a33.28,33.28,0,0,1-8.7,14.92c-3.52,3.35-7.76,5.47-12.31,5.47s-8.8-2.12-12.32-5.47a33.28,33.28,0,0,1-8.7-14.92l.49-.14a9.5,9.5,0,0,0,4.1-5.47c1.69-5.07,12.32-2.74,16.43-8.21C214.38,60.23,225,57.9,226.7,63A9.49,9.49,0,0,0,230.81,68.44Zm-8.22.69a3.42,3.42,0,1,0-3.42,3.42A3.43,3.43,0,0,0,222.59,69.13Zm-17.79,0a3.42,3.42,0,1,0-3.42,3.42A3.43,3.43,0,0,0,204.8,69.13Z" fill="#f5afb3"/><path d="M220.6,241.63c.45.87.87,1.72,1.25,2.56,1.52,5.52-4.12,7.93-5.66,4.88,2.05,5-5.67,8.62-7.86,1.6,1.54,4.52-3.41,7.94-7.63,1.17-5.27-8.43-10.65-13.08-16.51-17.69l.08-.1c0-1.37,4.88-13.69,18.57-21.9q4.29,3,7.77,6c8.37,7.17,13.27,14,15.34,19.17a7.89,7.89,0,0,1,.69,4C226.18,244.47,222.69,244.56,220.6,241.63Z" fill="#f5afb3"/><path d="M219.17,65.7a3.43,3.43,0,1,1-3.42,3.43A3.43,3.43,0,0,1,219.17,65.7Zm1.71,3.6A1.88,1.88,0,1,0,219,71.18,1.88,1.88,0,0,0,220.88,69.3Z" fill="#f2f2f2"/><circle cx="219" cy="69.3" r="1.88" fill="#333"/><path d="M204.19,366.81a64,64,0,0,1,1.3,13.69c0,8.31-8.74,13.68-21.22,13.68s-22.58.11-22.58-8.21,13.76-20.53,13.76-20.53l.46-.37c5.6,4.83,22,5.18,28,1.33Z" fill="#666"/><path d="M201.38,65.7A3.43,3.43,0,1,1,198,69.13,3.43,3.43,0,0,1,201.38,65.7Zm2.05,3.6a1.88,1.88,0,1,0-1.88,1.88A1.88,1.88,0,0,0,203.43,69.3Z" fill="#f2f2f2"/><circle cx="201.55" cy="69.3" r="1.88" fill="#333"/><path d="M210.28,89c-4.56,0-8.8-2.12-12.32-5.47a33.28,33.28,0,0,1-8.7-14.92A31.79,31.79,0,0,1,188,60.06c0-13.51,10-24.47,22.25-24.47" fill="none" stroke="#333" stroke-linecap="round" stroke-linejoin="round"/><path d="M189.75,68.44a9.5,9.5,0,0,0,4.1-5.47c1.69-5.07,12.32-2.74,16.43-8.21" fill="none" stroke="#333" stroke-linecap="round" stroke-linejoin="round"/><path d="M198,73.23a6.34,6.34,0,0,0,4.82-.84" fill="none" stroke="#333" stroke-linecap="round" stroke-linejoin="round"/><path d="M207.54,82.13a3.94,3.94,0,0,0,2.74,1.37" fill="none" stroke="#333" stroke-linecap="round" stroke-linejoin="round"/><path d="M208.33,250.67c1.54,4.52-3.41,7.94-7.63,1.17-5.27-8.43-10.65-13.08-16.51-17.69-1.75-1.37-3.55-2.74-5.39-4.21a111.57,111.57,0,0,1-11.14-9.65,79.13,79.13,0,0,1-13.5-17.72c-13.49-24.74-7.62-52.51,0-72.54a68.93,68.93,0,0,1,37-38.32S189.75,83.5,198,83.5" fill="none" stroke="#333" stroke-linecap="round" stroke-linejoin="round"/><path d="M202.84,212.15q4.29,3,7.77,6c8.37,7.17,13.27,14,15.34,19.17a7.89,7.89,0,0,1,.69,4c-.46,3.08-3.95,3.17-6,.24l-.12-.17" fill="none" stroke="#333" stroke-linecap="round" stroke-linejoin="round"/><path d="M221.85,244.19c-.38-.84-.8-1.69-1.25-2.56a38.55,38.55,0,0,0-6.22-8.95" fill="none" stroke="#333" stroke-linecap="round" stroke-linejoin="round"/><path d="M216.19,249.07c-1.86-4-4.55-9.54-7.28-12.28" fill="none" stroke="#333" stroke-linecap="round" stroke-linejoin="round"/><path d="M208.33,250.67a29.57,29.57,0,0,0-6.27-9.78" fill="none" stroke="#333" stroke-linecap="round" stroke-linejoin="round"/><path d="M221.85,244.19c1.52,5.52-4.12,7.93-5.66,4.88,2.05,5-5.67,8.62-7.86,1.6" fill="none" stroke="#333" stroke-linecap="round" stroke-linejoin="round"/><path d="M184.27,234.05c0-1.37,4.88-13.69,18.57-21.9" fill="none" stroke="#333" stroke-linecap="round" stroke-linejoin="round"/><path d="M210.28,89c4.55,0,8.79-2.12,12.31-5.47a33.28,33.28,0,0,0,8.7-14.92,31.4,31.4,0,0,0,1.23-8.52c0-13.51-10-24.47-22.24-24.47" fill="none" stroke="#333" stroke-linecap="round" stroke-linejoin="round"/><path d="M230.81,68.44A9.49,9.49,0,0,1,226.7,63c-1.69-5.07-12.32-2.74-16.42-8.21" fill="none" stroke="#333" stroke-linecap="round" stroke-linejoin="round"/><path d="M222.59,73.23a6.32,6.32,0,0,1-4.81-.84" fill="none" stroke="#333" stroke-linecap="round" stroke-linejoin="round"/><path d="M213,82.13a3.9,3.9,0,0,1-2.73,1.37" fill="none" stroke="#333" stroke-linecap="round" stroke-linejoin="round"/><path d="M226.84,241.42c2-2,4.85-3.87,9.48-7.31,1.58-1.17,3.38-2.54,5.44-4.17a111.57,111.57,0,0,0,11.14-9.65,79.41,79.41,0,0,0,13.49-17.72c13.5-24.74,7.63-52.51,0-72.54a68.93,68.93,0,0,0-36.95-38.32s1.37-8.21-6.85-8.21" fill="none" stroke="#333" stroke-linecap="round" stroke-linejoin="round"/><path d="M218.49,212.15c-2.94,2-5.5,4-7.87,6" fill="none" stroke="#333" stroke-linecap="round" stroke-linejoin="round"/><path d="M236.28,234.05c0-1.37-4.11-13.69-17.79-21.9" fill="none" stroke="#333" stroke-linecap="round" stroke-linejoin="round"/><path d="M252.9,220.29l-6.35,141a5.1,5.1,0,0,1-2.33,4.07c-6,4.51-21.69,4.74-27.58,1a4.13,4.13,0,0,1-2.26-3.4l1.3-92.56a5.38,5.38,0,0,0-5.4-5.45" fill="none" stroke="#333" stroke-linecap="round" stroke-linejoin="round"/><path d="M216.37,366.81a64,64,0,0,0-1.3,13.69c0,8.31,8.74,13.68,21.21,13.68s22.58.11,22.58-8.21-13.75-20.53-13.75-20.53" fill="none" stroke="#333" stroke-linecap="round" stroke-linejoin="round"/><path d="M167.66,220.29l6.35,141a4.88,4.88,0,0,0,1.9,3.73c5.6,4.83,22,5.18,28,1.33a4.11,4.11,0,0,0,2.25-3.39l-1.29-92.56a5.38,5.38,0,0,1,5.4-5.45" fill="none" stroke="#333" stroke-linecap="round" stroke-linejoin="round"/><path d="M204.19,366.81a64,64,0,0,1,1.3,13.69c0,8.31-8.74,13.68-21.22,13.68s-22.58.11-22.58-8.21,13.76-20.53,13.76-20.53" fill="none" stroke="#333" stroke-linecap="round" stroke-linejoin="round"/><path d="M332.37,367.91s12.45,11,12.45,18.58-9.15,7.43-20.43,7.43-19.2-4.86-19.2-12.38a58.24,58.24,0,0,1,1.17-12.39l.26-.37c5.32,3.39,19.57,3.18,24.95-.9Z" fill="#333"/><path d="M253.24,146.34c11.21-23.65,31.14-28.63,31.14-28.63s3.74,6.23,17.45,6.23,17.45-6.23,17.45-6.23,14,5.62,19.55,13.48V237.25H262.15V181.7c-4.27,3-9.22,4.74-13.57,3.57-10.85-2.91-16.34-14.15-19.21-33.06-2.49-16.37-1.64-32.49.09-45.14l.25,0A31.93,31.93,0,0,0,256,112.84h0a178.32,178.32,0,0,0-2.78,33.49Z" fill="#eb5f67"/><path d="M262.15,237.25h76.68c0,37.36-5.16,127-5.16,127a4.6,4.6,0,0,1-2.1,3.68c-5.38,4.08-19.63,4.29-24.95.9a3.73,3.73,0,0,1-2.05-3.07l1.18-104.29a4.9,4.9,0,1,0-9.79,0l1.18,104.29c0,1.3-.85,2.44-2.26,3.4-5.69,3.84-20.41,4.7-25.26.67a3.94,3.94,0,0,1-1.58-3.11s-5.68-97.3-5.9-129.42Z" fill="#666"/><path d="M322.09,78.13c3,0,5.39,2.72,5.39,6.08s-2.69,6.07-6.75,6.07l-.46-.17a30.91,30.91,0,0,0,1.65-7,26.66,26.66,0,0,0,.17-2.95c0-.67,0-1.35-.08-2Z" fill="#f5afb3"/><path d="M322,78.14c.05.66.08,1.34.08,2a26.66,26.66,0,0,1-.17,2.95l-.14,0a13.07,13.07,0,0,1-3.32-4.9C316.75,73,306,75.41,301.83,69.86c-4.16,5.55-14.92,3.18-16.63,8.32a13.07,13.07,0,0,1-3.32,4.9l-.14,0a26.64,26.64,0,0,1-.16-2.95c0-.67,0-1.35.08-2,.93-11.37,9.6-20.27,20.17-20.27S321.08,66.77,322,78.14Z" fill="#333"/><path d="M321.78,83.08l.14,0a30.91,30.91,0,0,1-1.65,7,29,29,0,0,1-8.54,12.55,14.71,14.71,0,0,1-19.8,0,28.86,28.86,0,0,1-8.53-12.55,30.94,30.94,0,0,1-1.66-7l.14,0a13.07,13.07,0,0,0,3.32-4.9c1.71-5.14,12.47-2.77,16.63-8.32,4.16,5.55,14.92,3.18,16.63,8.32A13.07,13.07,0,0,0,321.78,83.08Zm-7.28,3.66a3.12,3.12,0,1,0-3.13,3.12A3.13,3.13,0,0,0,314.5,86.74Zm-19.26-.16a3.12,3.12,0,1,0-3.12,3.12A3.12,3.12,0,0,0,295.24,86.58Z" fill="#f5afb3"/><path d="M319.28,117.71s-3.74,6.23-17.45,6.23-17.45-6.23-17.45-6.23,7.48-1.25,7.48-15l.07-.09a14.71,14.71,0,0,0,19.8,0l.07.09C311.8,116.46,319.28,117.71,319.28,117.71Z" fill="#f5afb3"/><path d="M311.37,83.62a3.12,3.12,0,1,1-3.11,3.12A3.13,3.13,0,0,1,311.37,83.62Zm1.35,3.43A1.72,1.72,0,1,0,311,88.77,1.72,1.72,0,0,0,312.72,87.05Z" fill="#f2f2f2"/><path d="M311,85.33a1.72,1.72,0,1,1-1.71,1.72A1.72,1.72,0,0,1,311,85.33Z" fill="#333"/><path d="M295.22,369.15a52.68,52.68,0,0,1,1.3,12.39c0,7.52-7.91,12.38-19.2,12.38s-20.43.09-20.43-7.43,12.32-16.1,12.32-16.1l.41-.61c4.85,4,19.57,3.17,25.26-.67Z" fill="#333"/><path d="M292.12,83.46A3.12,3.12,0,1,1,289,86.58,3.12,3.12,0,0,1,292.12,83.46ZM294,87.05a1.72,1.72,0,1,0-1.71,1.72A1.72,1.72,0,0,0,294,87.05Z" fill="#f2f2f2"/><path d="M292.28,85.33a1.72,1.72,0,1,1-1.72,1.72A1.72,1.72,0,0,1,292.28,85.33Z" fill="#333"/><path d="M283.4,90.11l-.48.17c-4.05,0-6.75-2.72-6.75-6.07s2.42-6.08,5.41-6.08h.08c-.06.66-.08,1.34-.08,2a26.64,26.64,0,0,0,.16,2.95A30.94,30.94,0,0,0,283.4,90.11Z" fill="#f5afb3"/><path d="M255.3,86.4c1.83-4.31,7.86-3.06,5.56,4.75A209.33,209.33,0,0,0,256,112.84h0a31.93,31.93,0,0,1-26.26-5.74l-.25,0a146.82,146.82,0,0,1,4.9-23.33c1.62-4.93,7.79-4.87,6.62,1.66.28-.92.59-1.89.94-3,2-5.16,7.54-2.57,6.66.64C250.37,78.1,258.28,79.82,255.3,86.4Z" fill="#f5afb3"/><path d="M301.83,106.49a15.75,15.75,0,0,0,9.9-3.83,29,29,0,0,0,8.54-12.55,30.91,30.91,0,0,0,1.65-7,26.66,26.66,0,0,0,.17-2.95c0-.67,0-1.35-.08-2-.93-11.37-9.61-20.27-20.18-20.27" fill="none" stroke="#333" stroke-linecap="round" stroke-linejoin="round"/><path d="M320.73,90.28c4.06,0,6.75-2.72,6.75-6.07s-2.41-6.08-5.39-6.08" fill="none" stroke="#333" stroke-linecap="round" stroke-linejoin="round"/><path d="M319.28,117.71s-7.48-1.25-7.48-15" fill="none" stroke="#333" stroke-linecap="round" stroke-linejoin="round"/><line x1="314.3" y1="80.62" x2="310.25" y2="80.31" fill="none" stroke="#333" stroke-linecap="round" stroke-linejoin="round"/><path d="M262.15,181.7v55.55" fill="none" stroke="#333" stroke-linecap="round" stroke-linejoin="round"/><path d="M301.83,123.94c-13.71,0-17.45-6.23-17.45-6.23s-19.93,5-31.14,28.63l0,0" fill="none" stroke="#333" stroke-linecap="round" stroke-linejoin="round"/><path d="M262.15,237.25h76.68V131.19c-5.54-7.86-19.55-13.48-19.55-13.48s-3.74,6.23-17.45,6.23" fill="none" stroke="#333" stroke-linecap="round" stroke-linejoin="round"/><path d="M241,85.4c1.17-6.53-5-6.59-6.62-1.66a146.82,146.82,0,0,0-4.9,23.33c-1.73,12.65-2.58,28.77-.09,45.14,2.87,18.91,8.36,30.15,19.21,33.06,4.35,1.17,9.3-.53,13.57-3.57" fill="none" stroke="#333" stroke-linecap="round" stroke-linejoin="round"/><path d="M255.3,86.4c1.83-4.31,7.86-3.06,5.56,4.75A209.33,209.33,0,0,0,256,112.84a178.32,178.32,0,0,0-2.78,33.49" fill="none" stroke="#333" stroke-linecap="round" stroke-linejoin="round"/><path d="M241.92,82.44c-.35,1.07-.66,2-.94,3v0a52.65,52.65,0,0,0-1.83,8.63" fill="none" stroke="#333" stroke-linecap="round" stroke-linejoin="round"/><path d="M248.58,83.08a97.55,97.55,0,0,0-2.9,12.13" fill="none" stroke="#333" stroke-linecap="round" stroke-linejoin="round"/><path d="M255.3,86.4a44.51,44.51,0,0,0-2.66,9.65" fill="none" stroke="#333" stroke-linecap="round" stroke-linejoin="round"/><path d="M241.92,82.44c2-5.16,7.54-2.57,6.66.64,1.79-5,9.7-3.26,6.72,3.32" fill="none" stroke="#333" stroke-linecap="round" stroke-linejoin="round"/><path d="M301.83,106.49a15.77,15.77,0,0,1-9.9-3.83,28.86,28.86,0,0,1-8.53-12.55,30.94,30.94,0,0,1-1.66-7,26.64,26.64,0,0,1-.16-2.95c0-.67,0-1.35.08-2,.93-11.37,9.6-20.27,20.17-20.27" fill="none" stroke="#333" stroke-linecap="round" stroke-linejoin="round"/><path d="M282.92,90.28c-4.05,0-6.75-2.72-6.75-6.07s2.42-6.08,5.41-6.08" fill="none" stroke="#333" stroke-linecap="round" stroke-linejoin="round"/><path d="M284.38,117.71s7.48-1.25,7.48-15" fill="none" stroke="#333" stroke-linecap="round" stroke-linejoin="round"/><line x1="289.37" y1="80.62" x2="293.42" y2="80.31" fill="none" stroke="#333" stroke-linecap="round" stroke-linejoin="round"/><path d="M297.74,96.57a6.23,6.23,0,0,0,7.49,0" fill="none" stroke="#333" stroke-linecap="round" stroke-linejoin="round"/><path d="M229.71,107.1A31.93,31.93,0,0,0,256,112.84" fill="none" stroke="#333" stroke-linecap="round" stroke-linejoin="round"/><path d="M281.88,83.08a13.07,13.07,0,0,0,3.32-4.9c1.71-5.14,12.47-2.77,16.63-8.32" fill="none" stroke="#333" stroke-linecap="round" stroke-linejoin="round"/><path d="M321.78,83.08a13.07,13.07,0,0,1-3.32-4.9C316.75,73,306,75.41,301.83,69.86" fill="none" stroke="#333" stroke-linecap="round" stroke-linejoin="round"/><path d="M262.14,235.42v1.83c.22,32.12,5.9,129.42,5.9,129.42a3.94,3.94,0,0,0,1.58,3.11c4.85,4,19.57,3.17,25.26-.67,1.41-1,2.26-2.1,2.26-3.4L296,261.42a4.9,4.9,0,0,1,4.9-5" fill="none" stroke="#333" stroke-linecap="round" stroke-linejoin="round"/><path d="M338.83,237.25c0,37.36-5.16,127-5.16,127a4.6,4.6,0,0,1-2.1,3.68c-5.38,4.08-19.63,4.29-24.95.9a3.73,3.73,0,0,1-2.05-3.07l1.18-104.29a4.9,4.9,0,0,0-4.89-5" fill="none" stroke="#333" stroke-linecap="round" stroke-linejoin="round"/><path d="M295.22,369.15a52.68,52.68,0,0,1,1.3,12.39c0,7.52-7.91,12.38-19.2,12.38s-20.43.09-20.43-7.43,12.32-16.1,12.32-16.1" fill="none" stroke="#333" stroke-linecap="round" stroke-linejoin="round"/><path d="M306.36,369.15a58.24,58.24,0,0,0-1.17,12.39c0,7.52,7.91,12.38,19.2,12.38s20.43.09,20.43-7.43-12.45-18.58-12.45-18.58" fill="none" stroke="#333" stroke-linecap="round" stroke-linejoin="round"/><path d="M534.55,154.53l-.12,0c-.42-.25-11.25-5.83-26.81,0,1.59,25.53,3.16,38.25,6,51.3v15.26H429.13V205.87h0c2.79-13.05,4.38-25.77,6-51.3-14.9-7-26.64,0-26.64,0l-.3-.07c2.61-11.79,6-23.5,10.54-33.23a60.49,60.49,0,0,1,33.75-31.06s4.05,6.76,18.9,6.76,18.9-6.76,18.9-6.76A60.52,60.52,0,0,1,524,121.22C528.6,131,531.94,142.71,534.55,154.53Z" fill="#eb5f67"/><path d="M429.13,221.13h84.45c0,40.73-6.46,140.39-6.46,140.39a5,5,0,0,1-2.3,4c-5.86,4.44-21.37,4.68-27.18,1a4.07,4.07,0,0,1-2.25-3.36l1.29-113.71a5.34,5.34,0,1,0-10.68,0l1.29,113.71a4.49,4.49,0,0,1-2.24,3.54c-6,4.34-22.41,5.35-27.76.91a4.32,4.32,0,0,1-1.72-3.4S429.13,253.92,429.13,221.13Z" fill="#999"/><path d="M505.69,365.57s13.58,12,13.58,20.25-10,8.09-22.27,8.09-20.94-5.29-20.94-13.5a63.22,63.22,0,0,1,1.28-13.49l.3-.39c5.81,3.68,21.32,3.44,27.18-1Z" fill="#333"/><path d="M493.28,47.3c3.23,0,5.85,2.94,5.85,6.58s-2.93,6.59-7.31,6.59l-.52-.19A33.14,33.14,0,0,0,493,53.71a28.76,28.76,0,0,0,.32-4.22c0-.74,0-1.46-.09-2.18Z" fill="#dcbab7"/><path d="M493.19,47.31c.06.72.09,1.44.09,2.18a28.76,28.76,0,0,1-.32,4.22h0s.34-6.41-7-10.8c-4.52-2.71-7.31,0-14.63,0s-9.89-2.32-14.63,0c-6.55,3.22-7.24,7.53-7.14,9.6a27.93,27.93,0,0,1-.17-3c0-.74,0-1.46.09-2.18.7-8.73,5.65-16.13,12.56-19.68a20.14,20.14,0,0,1,18.58,0C487.54,31.18,492.48,38.58,493.19,47.31Z" fill="#333"/><path d="M449.68,53.49c0-.06,0-.13,0-.22s0-.44-.07-.66a.31.31,0,0,1,0-.1c-.1-2.07.59-6.38,7.14-9.6,4.74-2.32,7.32,0,14.63,0s10.11-2.71,14.63,0c7.31,4.39,7,10.8,7,10.8h0a33.14,33.14,0,0,1-1.66,6.57,31.16,31.16,0,0,1-9.24,13.59,16,16,0,0,1-21.45,0,31.28,31.28,0,0,1-9.23-13.58A32.71,32.71,0,0,1,449.68,53.49Zm35.73,3.09A3.37,3.37,0,1,0,482,60,3.37,3.37,0,0,0,485.41,56.58ZM471.36,70c2.33,0,4.21-1.26,4.21-2.81s-1.88-.93-4.21-.93-4.2-.62-4.2.93S469,70,471.36,70Zm-6.77-13.54a3.38,3.38,0,1,0-3.38,3.38A3.37,3.37,0,0,0,464.59,56.41Z" fill="#ca9894"/><path d="M490.24,90.16s-4.05,6.76-18.9,6.76-18.9-6.76-18.9-6.76,8.09-1.35,8.09-16.2l.08-.09a16,16,0,0,0,21.45,0l.08.09C482.14,88.81,490.24,90.16,490.24,90.16Z" fill="#ca9894"/><path d="M482,53.21a3.38,3.38,0,1,1-3.37,3.37A3.37,3.37,0,0,1,482,53.21Zm1.45,3.71a1.86,1.86,0,1,0-1.85,1.86A1.86,1.86,0,0,0,483.49,56.92Z" fill="#f2f2f2"/><circle cx="481.64" cy="56.92" r="1.86" fill="#333"/><path d="M480.75,27.4l-.12.23a20.14,20.14,0,0,0-18.58,0l-.12-.23a9.41,9.41,0,0,1,18.82,0Z" fill="#333"/><path d="M465.19,366.92a57.27,57.27,0,0,1,1.42,13.49c0,8.21-8.62,13.5-20.92,13.5s-22.27.11-22.27-8.09,13.42-17.56,13.42-17.56l.45-.64c5.35,4.44,21.74,3.43,27.76-.91Z" fill="#333"/><path d="M461.21,53a3.38,3.38,0,1,1-3.37,3.37A3.37,3.37,0,0,1,461.21,53Zm2,3.88a1.86,1.86,0,1,0-1.86,1.86A1.86,1.86,0,0,0,463.24,56.92Z" fill="#f2f2f2"/><path d="M461.38,55.06a1.86,1.86,0,1,1-1.85,1.86A1.86,1.86,0,0,1,461.38,55.06Z" fill="#333"/><path d="M451.38,60.29l-.51.18c-4.39,0-7.31-2.95-7.31-6.59s2.61-6.58,5.84-6.58h.09c-.06.72-.09,1.44-.09,2.18a27.93,27.93,0,0,0,.17,3,.31.31,0,0,0,0,.1,4.6,4.6,0,0,0,.07.66c0,.09,0,.16,0,.22A32.71,32.71,0,0,0,451.38,60.29Z" fill="#ca9894"/><path d="M429.13,221.13c0,32.79,6.44,143.09,6.44,143.09a4.32,4.32,0,0,0,1.72,3.4c5.35,4.44,21.74,3.43,27.76-.91a4.49,4.49,0,0,0,2.24-3.54L466,249.46a5.33,5.33,0,0,1,5.34-5.39" fill="none" stroke="#333" stroke-linecap="round" stroke-linejoin="round"/><path d="M426.83,215.72c.84-3.43,1.6-6.65,2.28-9.85,2.79-13.05,4.38-25.77,6-51.3" fill="none" stroke="#333" stroke-linecap="round" stroke-linejoin="round"/><path d="M399.44,201.67c2.49-11.86,4.81-29.65,8.71-47.22,2.61-11.79,6-23.5,10.54-33.23a60.49,60.49,0,0,1,33.75-31.06s4.05,6.76,18.9,6.76" fill="none" stroke="#333" stroke-linecap="round" stroke-linejoin="round"/><path d="M515.86,215.72c-.84-3.43-1.6-6.65-2.28-9.85-2.8-13.05-4.37-25.77-6-51.3" fill="none" stroke="#333" stroke-linecap="round" stroke-linejoin="round"/><path d="M543.25,201.67c-2.5-11.84-4.81-29.6-8.7-47.14C531.94,142.71,528.6,131,524,121.22a60.52,60.52,0,0,0-33.75-31.06s-4.05,6.76-18.9,6.76" fill="none" stroke="#333" stroke-linecap="round" stroke-linejoin="round"/><path d="M449.57,52.51a27.93,27.93,0,0,1-.17-3c0-.74,0-1.46.09-2.18.7-8.73,5.65-16.13,12.56-19.68a20.12,20.12,0,0,1,9.29-2.27" fill="none" stroke="#333" stroke-linecap="round" stroke-linejoin="round"/><path d="M449.65,53.27c0-.21,0-.44-.07-.66" fill="none" stroke="#333" stroke-linecap="round" stroke-linejoin="round"/><path d="M471.34,78a17.09,17.09,0,0,1-10.73-4.14,31.28,31.28,0,0,1-9.23-13.58,32.71,32.71,0,0,1-1.7-6.8" fill="none" stroke="#333" stroke-linecap="round" stroke-linejoin="round"/><path d="M450.87,60.47c-4.39,0-7.31-2.95-7.31-6.59s2.61-6.58,5.84-6.58" fill="none" stroke="#333" stroke-linecap="round" stroke-linejoin="round"/><path d="M449.74,53.71l-.06-.22c0-.06,0-.13,0-.22a4.6,4.6,0,0,1-.07-.66.31.31,0,0,1,0-.1c-.1-2.07.59-6.38,7.14-9.6,4.74-2.32,7.32,0,14.63,0" fill="none" stroke="#333" stroke-linecap="round" stroke-linejoin="round"/><path d="M435.09,154.57c-14.9-7-26.64,0-26.64,0" fill="none" stroke="#333" stroke-linecap="round" stroke-linejoin="round"/><path d="M452.44,90.16s8.09-1.35,8.09-16.2" fill="none" stroke="#333" stroke-linecap="round" stroke-linejoin="round"/><path d="M513.58,221.13c0,40.73-6.46,140.39-6.46,140.39a5,5,0,0,1-2.3,4c-5.86,4.44-21.37,4.68-27.18,1a4.07,4.07,0,0,1-2.25-3.36l1.29-113.71a5.34,5.34,0,0,0-5.34-5.39" fill="none" stroke="#333" stroke-linecap="round" stroke-linejoin="round"/><path d="M471.34,78a17,17,0,0,0,10.72-4.14,31.16,31.16,0,0,0,9.24-13.59A33.14,33.14,0,0,0,493,53.71a28.76,28.76,0,0,0,.32-4.22c0-.74,0-1.46-.09-2.18-.71-8.73-5.65-16.13-12.56-19.68a20.12,20.12,0,0,0-9.29-2.27" fill="none" stroke="#333" stroke-linecap="round" stroke-linejoin="round"/><path d="M491.82,60.47c4.38,0,7.31-2.95,7.31-6.59s-2.62-6.58-5.85-6.58" fill="none" stroke="#333" stroke-linecap="round" stroke-linejoin="round"/><path d="M492.94,53.71s.34-6.41-7-10.8c-4.52-2.71-7.31,0-14.63,0" fill="none" stroke="#333" stroke-linecap="round" stroke-linejoin="round"/><path d="M534.44,154.57h0c-.42-.25-11.25-5.83-26.81,0" fill="none" stroke="#333" stroke-linecap="round" stroke-linejoin="round"/><polyline points="513.58 205.87 513.58 221.13 429.13 221.13 429.13 205.87" fill="none" stroke="#333" stroke-linecap="round" stroke-linejoin="round"/><path d="M490.24,90.16s-8.1-1.35-8.1-16.2" fill="none" stroke="#333" stroke-linecap="round" stroke-linejoin="round"/><path d="M465.19,366.92a57.27,57.27,0,0,1,1.42,13.49c0,8.21-8.62,13.5-20.92,13.5s-22.27.11-22.27-8.09,13.42-17.56,13.42-17.56" fill="none" stroke="#333" stroke-linecap="round" stroke-linejoin="round"/><path d="M477.34,366.92a63.22,63.22,0,0,0-1.28,13.49c0,8.21,8.63,13.5,20.94,13.5s22.27.11,22.27-8.09-13.58-20.25-13.58-20.25" fill="none" stroke="#333" stroke-linecap="round" stroke-linejoin="round"/><line x1="457.84" y1="50" x2="462.22" y2="49.66" fill="none" stroke="#333" stroke-linecap="round" stroke-linejoin="round"/><line x1="486.19" y1="50.33" x2="482.14" y2="49.66" fill="none" stroke="#333" stroke-linecap="round" stroke-linejoin="round"/><path d="M461.93,27.4a9.41,9.41,0,0,1,18.82,0" fill="none" stroke="#333" stroke-linecap="round" stroke-linejoin="round"/><path d="M475.57,67.14c0,1.55-1.88,2.81-4.21,2.81s-4.2-1.26-4.2-2.81,1.88-.93,4.2-.93S475.57,65.59,475.57,67.14Z" fill="none" stroke="#333" stroke-linecap="round" stroke-linejoin="round"/><path d="M345.32,223.82A76.23,76.23,0,0,1,332.58,207c-13.17-24.13-7.44-51.23,0-70.77a67.25,67.25,0,0,1,36.05-37.39s-1.33-8,6.68-8c3.44,3.27,7.58,5.34,12,5.34s8.58-2.07,12-5.34c8,0,6.67,8,6.67,8a67.29,67.29,0,0,1,36.06,37.39c7.44,19.54,13.16,46.64,0,70.77a77,77,0,0,1-13.17,17.29A109.23,109.23,0,0,1,418,233.68c-2,1.59-3.76,2.92-5.3,4.06l0-.05c0-1.34-4-13.36-17.36-21.37-2.86,2-5.36,3.91-7.68,5.88h0c-2.27-1.95-4.79-3.91-7.59-5.88-13.35,8-18.11,20-18.11,21.37l-.08.1c-1.71-1.35-3.46-2.68-5.26-4.11A109.64,109.64,0,0,1,345.32,223.82Z" fill="#33ab7b"/><path d="M428.91,224.26l-6.2,137.61a4.94,4.94,0,0,1-2.27,4c-5.8,4.4-21.16,4.63-26.9,1a4,4,0,0,1-2.21-3.31l1.27-90.31a5.27,5.27,0,0,0-10.47-.91V258.76l0-.08c2.51.58,4.28-1.87,3.28-4.78,2.14,6.85,9.67,3.33,7.67-1.57.83,1.66,2.89,1.67,4.31.44l.51.12a7.34,7.34,0,0,1,.23,1.83v4.84a2.67,2.67,0,0,0,2.67,2.67h1.34a2.67,2.67,0,0,0,2.67-2.67v-5.34a11.31,11.31,0,0,0-2.52-7.36l-.07-.11a2.76,2.76,0,0,0,1.06-1.9l.19,0c2-2,4.73-3.78,9.25-7.14,1.54-1.14,3.3-2.47,5.3-4.06A109.23,109.23,0,0,0,428.91,224.26Z" fill="#81aeff"/><path d="M421.31,365.88s13.42,11.91,13.42,20-9.86,8-22,8S392,388.68,392,380.56a62.35,62.35,0,0,1,1.27-13.35l.27-.39c5.74,3.65,21.1,3.42,26.9-1Z" fill="#666"/><path d="M409,67.93c4.08.87,7.63,5.46,6.65,10s-5.45,7.53-11,6.35l-.22-.12a34.47,34.47,0,0,0,3.36-8A30.65,30.65,0,0,0,409,67.93Z" fill="#e5e5e5"/><path d="M413.68,59.59c1.18,3.4-.55,6.93-4.65,8.34a25.6,25.6,0,0,0-3.19-12.46l.25-.15C409.11,54.28,412.51,56.19,413.68,59.59Z" fill="#e5e5e5"/><path d="M412.7,237.69l0,.05c-4.52,3.36-7.26,5.15-9.25,7.14l-.19,0a7.74,7.74,0,0,0-.68-3.95c-2-5.05-6.8-11.71-15-18.7h0c2.32-2,4.82-3.89,7.68-5.88C408.69,224.33,412.7,236.35,412.7,237.69Z" fill="#f5afb3"/><path d="M409,67.93a30.65,30.65,0,0,1-1.2,8.32l-.47-.14a9.24,9.24,0,0,1-4-5.34c-1.65-5-12-2.67-16-8-4,5.34-14.38,3.06-16,8a9.2,9.2,0,0,1-4,5.34l-.48.14a31,31,0,0,1-1.19-8.32,25.54,25.54,0,0,1,3.2-12.47c3.81-6.84,10.67-11.4,18.5-11.4s14.69,4.57,18.5,11.41h0A25.6,25.6,0,0,1,409,67.93Z" fill="#e5e5e5"/><path d="M407.36,76.11l.47.14a34.47,34.47,0,0,1-3.36,8,29.78,29.78,0,0,1-5.12,6.59c-3.44,3.27-7.58,5.34-12,5.34s-8.58-2.07-12-5.34a29.53,29.53,0,0,1-5.13-6.59,35.36,35.36,0,0,1-3.36-8l.48-.14a9.2,9.2,0,0,0,4-5.34c1.65-5,12-2.67,16-8,4,5.34,14.37,3.06,16,8A9.24,9.24,0,0,0,407.36,76.11Zm-8,.67A3.34,3.34,0,1,0,396,80.12,3.35,3.35,0,0,0,399.35,76.78Zm-17.36,0a3.34,3.34,0,1,0-3.34,3.34A3.35,3.35,0,0,0,382,76.78Z" fill="#f5afb3"/><path d="M404.83,254.22v5.34a2.67,2.67,0,0,1-2.67,2.67h-1.34a2.67,2.67,0,0,1-2.67-2.67v-4.84a7.34,7.34,0,0,0-.23-1.83l-.51-.12a4.87,4.87,0,0,0,1.21-5.19c-.37-.82-.78-1.66-1.22-2.5,1.44,2,3.55,2.57,4.84,1.67l.07.11A11.31,11.31,0,0,1,404.83,254.22Z" fill="#666"/><path d="M393.1,252.33c2,4.9-5.53,8.42-7.67,1.57,1,2.91-.77,5.36-3.28,4.78-1.29-.3-2.77-1.39-4.17-3.64q-1.2-1.9-2.4-3.57a64.89,64.89,0,0,0-13.7-13.68l.08-.1c0-1.34,4.76-13.36,18.11-21.37,2.8,2,5.32,3.93,7.59,5.88,8.16,7,12.94,13.65,15,18.7a7.74,7.74,0,0,1,.68,3.95,2.76,2.76,0,0,1-1.06,1.9c-1.29.9-3.4.34-4.84-1.67.44.84.85,1.68,1.22,2.5a4.87,4.87,0,0,1-1.21,5.19C396,254,393.93,254,393.1,252.33Z" fill="#f5afb3"/><path d="M396,73.44a3.34,3.34,0,1,1-3.34,3.34A3.35,3.35,0,0,1,396,73.44ZM397.68,77a1.84,1.84,0,1,0-1.84,1.83A1.84,1.84,0,0,0,397.68,77Z" fill="#f2f2f2"/><circle cx="395.84" cy="76.95" r="1.84" fill="#333"/><path d="M382.13,272.29v118a2.67,2.67,0,0,1-2.67,2.67h-1.34a2.66,2.66,0,0,1-2.67-2.67V251.55l.13-.08q1.2,1.67,2.4,3.57c1.4,2.25,2.88,3.34,4.17,3.64l0,.08Z" fill="#666"/><path d="M378.65,73.44a3.34,3.34,0,1,1-3.34,3.34A3.35,3.35,0,0,1,378.65,73.44Zm2,3.51a1.84,1.84,0,1,0-1.83,1.83A1.83,1.83,0,0,0,380.65,77Z" fill="#f2f2f2"/><circle cx="378.82" cy="76.95" r="1.84" fill="#333"/><path d="M375.58,251.47l-.13.08V368.16h-.25c-7.77,2-18.82,1.64-22.22-2.28a4.08,4.08,0,0,1-1-2.72l-6.62-139.34a109.64,109.64,0,0,0,11.3,9.86c1.8,1.43,3.55,2.76,5.26,4.11A64.89,64.89,0,0,1,375.58,251.47Z" fill="#81aeff"/><path d="M375.57,391.05l-.12,0A29.65,29.65,0,0,1,362,393.92c-12.17,0-22,.1-22-8s13.06-20,13.06-20c3.4,3.92,14.45,4.32,22.22,2.28h.25v22.09A2.67,2.67,0,0,0,375.57,391.05Z" fill="#666"/><path d="M370.18,84.21l-.21.12c-5.54,1.18-10-1.76-11-6.35s2.58-9.18,6.66-10a31,31,0,0,0,1.19,8.32A35.36,35.36,0,0,0,370.18,84.21Z" fill="#e5e5e5"/><path d="M368.57,55.32l.26.14a25.54,25.54,0,0,0-3.2,12.47c-4.1-1.41-5.82-4.94-4.65-8.34S365.55,54.28,368.57,55.32Z" fill="#e5e5e5"/><path d="M387.33,96.14c-4.44,0-8.58-2.07-12-5.34a29.53,29.53,0,0,1-5.13-6.59,35.36,35.36,0,0,1-3.36-8,31,31,0,0,1-1.19-8.32,25.54,25.54,0,0,1,3.2-12.47c3.81-6.84,10.67-11.4,18.5-11.4" fill="none" stroke="#333" stroke-linecap="round" stroke-linejoin="round"/><path d="M370,84.33c-5.54,1.18-10-1.76-11-6.35s2.58-9.18,6.66-10" fill="none" stroke="#333" stroke-linecap="round" stroke-linejoin="round"/><path d="M365.63,67.93c-4.1-1.41-5.82-4.94-4.65-8.34s4.57-5.31,7.59-4.27" fill="none" stroke="#333" stroke-linecap="round" stroke-linejoin="round"/><path d="M367.3,76.11a9.2,9.2,0,0,0,4-5.34c1.65-5,12-2.67,16-8" fill="none" stroke="#333" stroke-linecap="round" stroke-linejoin="round"/><path d="M375.31,80.79A6.22,6.22,0,0,0,380,80" fill="none" stroke="#333" stroke-linecap="round" stroke-linejoin="round"/><path d="M384.66,89.47a3.84,3.84,0,0,0,2.67,1.33" fill="none" stroke="#333" stroke-linecap="round" stroke-linejoin="round"/><path d="M385.43,253.9c1,2.91-.77,5.36-3.28,4.78-1.29-.3-2.77-1.39-4.17-3.64q-1.2-1.9-2.4-3.57a64.89,64.89,0,0,0-13.7-13.68c-1.71-1.35-3.46-2.68-5.26-4.11a109.64,109.64,0,0,1-11.3-9.86A76.23,76.23,0,0,1,332.58,207c-13.17-24.13-7.44-51.23,0-70.77a67.25,67.25,0,0,1,36.05-37.39s-1.33-8,6.68-8" fill="none" stroke="#333" stroke-linecap="round" stroke-linejoin="round"/><path d="M380.07,216.32c2.8,2,5.32,3.93,7.59,5.88,8.16,7,12.94,13.65,15,18.7a7.74,7.74,0,0,1,.68,3.95,2.76,2.76,0,0,1-1.06,1.9c-1.29.9-3.4.34-4.84-1.67l-.12-.17" fill="none" stroke="#333" stroke-linecap="round" stroke-linejoin="round"/><path d="M398.62,247.58c-.37-.82-.78-1.66-1.22-2.5a37.39,37.39,0,0,0-6.07-8.73" fill="none" stroke="#333" stroke-linecap="round" stroke-linejoin="round"/><path d="M393.1,252.33c-1.82-3.92-4.44-9.3-7.11-12" fill="none" stroke="#333" stroke-linecap="round" stroke-linejoin="round"/><path d="M385.43,253.9a28.9,28.9,0,0,0-6.11-9.54" fill="none" stroke="#333" stroke-linecap="round" stroke-linejoin="round"/><path d="M398.62,247.58a4.87,4.87,0,0,1-1.21,5.19c-1.42,1.23-3.48,1.22-4.31-.44,2,4.9-5.53,8.42-7.67,1.57" fill="none" stroke="#333" stroke-linecap="round" stroke-linejoin="round"/><path d="M362,237.69c0-1.34,4.76-13.36,18.11-21.37" fill="none" stroke="#333" stroke-linecap="round" stroke-linejoin="round"/><path d="M387.33,96.14c4.44,0,8.58-2.07,12-5.34a29.78,29.78,0,0,0,5.12-6.59,34.47,34.47,0,0,0,3.36-8,30.65,30.65,0,0,0,1.2-8.32,25.6,25.6,0,0,0-3.19-12.46h0c-3.81-6.84-10.67-11.41-18.5-11.41" fill="none" stroke="#333" stroke-linecap="round" stroke-linejoin="round"/><path d="M404.69,84.33c5.54,1.18,10-1.76,11-6.35s-2.57-9.18-6.65-10" fill="none" stroke="#333" stroke-linecap="round" stroke-linejoin="round"/><path d="M409,67.93c4.1-1.41,5.83-4.94,4.65-8.34s-4.57-5.31-7.59-4.27" fill="none" stroke="#333" stroke-linecap="round" stroke-linejoin="round"/><path d="M407.36,76.11a9.24,9.24,0,0,1-4-5.34c-1.65-5-12-2.67-16-8" fill="none" stroke="#333" stroke-linecap="round" stroke-linejoin="round"/><path d="M399.35,80.79a6.22,6.22,0,0,1-4.7-.83" fill="none" stroke="#333" stroke-linecap="round" stroke-linejoin="round"/><path d="M390,89.47a3.84,3.84,0,0,1-2.67,1.33" fill="none" stroke="#333" stroke-linecap="round" stroke-linejoin="round"/><path d="M403.49,244.88c2-2,4.73-3.78,9.25-7.14,1.54-1.14,3.3-2.47,5.3-4.06a109.23,109.23,0,0,0,10.87-9.42A77,77,0,0,0,442.08,207c13.16-24.13,7.44-51.23,0-70.77A67.29,67.29,0,0,0,406,98.81s1.34-8-6.67-8" fill="none" stroke="#333" stroke-linecap="round" stroke-linejoin="round"/><path d="M395.34,216.32c-2.86,2-5.36,3.91-7.68,5.88" fill="none" stroke="#333" stroke-linecap="round" stroke-linejoin="round"/><path d="M412.7,237.69c0-1.34-4-13.36-17.36-21.37" fill="none" stroke="#333" stroke-linecap="round" stroke-linejoin="round"/><path d="M397.92,252.89a7.34,7.34,0,0,1,.23,1.83v4.84a2.67,2.67,0,0,0,2.67,2.67h1.34a2.67,2.67,0,0,0,2.67-2.67v-5.34a11.31,11.31,0,0,0-2.52-7.36" fill="none" stroke="#333" stroke-linecap="round" stroke-linejoin="round"/><path d="M375.45,251.55v138.7a2.66,2.66,0,0,0,2.67,2.67h1.34a2.67,2.67,0,0,0,2.67-2.67V258.76" fill="none" stroke="#333" stroke-linecap="round" stroke-linejoin="round"/><path d="M382.06,273.2a4.54,4.54,0,0,1,.07-.91,5.25,5.25,0,0,1,5.2-4.41" fill="none" stroke="#333" stroke-linecap="round" stroke-linejoin="round"/><path d="M345.27,222.88l.05.94,6.62,139.34a4.08,4.08,0,0,0,1,2.72c3.4,3.92,14.45,4.32,22.22,2.28" fill="none" stroke="#333" stroke-linecap="round" stroke-linejoin="round"/><path d="M428.91,224.26l-6.2,137.61a4.94,4.94,0,0,1-2.27,4c-5.8,4.4-21.16,4.63-26.9,1a4,4,0,0,1-2.21-3.31l1.27-90.31a5.25,5.25,0,0,0-5.27-5.32" fill="none" stroke="#333" stroke-linecap="round" stroke-linejoin="round"/><path d="M375.45,391.09A29.65,29.65,0,0,1,362,393.92c-12.17,0-22,.1-22-8s13.06-20,13.06-20" fill="none" stroke="#333" stroke-linecap="round" stroke-linejoin="round"/><path d="M393.27,367.21A62.35,62.35,0,0,0,392,380.56c0,8.12,8.53,13.36,20.7,13.36s22,.1,22-8-13.42-20-13.42-20" fill="none" stroke="#333" stroke-linecap="round" stroke-linejoin="round"/><path d="M896.54,276.7c-.31.91-.66,1.81-1,2.72-1.76,4.17-5.83,3.19-6.38.76a2.7,2.7,0,0,1,.14-1.64c-2,4.49-9,2.27-6-3.58-2,3.86-7.52,2.25-4.8-4.82,1.25-3.26,3.62-14.24,5-26.19.61-5.07,1-10.32,1.14-15.22.4-19.2.18-36.4.18-36.4a30.6,30.6,0,0,1,23.63-.39h.08c1.7,12,2.44,26.29,1.88,43.83-.77,24.76-5.07,36.39-7.92,43.22-1.87,4.46-7.45,3.94-5.94-2.28Z" fill="#f5afb3"/><path d="M908.53,191.93h-.08a30.6,30.6,0,0,0-23.63.39s.22,17.2-.18,36.4c-.1,4.9-.53,10.15-1.14,15.22h-70V189c0-13.27,0-22.66-8.76-30.56,0,0,0,0,0,0,7.07-14.88,17.49-22.13,24-25.4a32.36,32.36,0,0,1,6.1-2.43h1.36s3.66,6.11,17.07,6.11,17.06-6.11,17.06-6.11v0l.11,0a30.33,30.33,0,0,1,6.36,2.71c6.09,3.31,15.31,10.26,21.82,24C903,166.35,906.48,177.4,908.53,191.93Z" fill="#fff"/><path d="M883.53,371.66s11.66,8.11,11.66,15.23-8.66,7-19.34,7-18.16-4.6-18.16-11.71a50,50,0,0,1,1.23-11.73l.13-.18c5,3.61,18.31,4.57,23.49,1.24Z" fill="#333"/><path d="M889.12,280.18l-.38.1-4.1,87.86a4,4,0,0,1-2.1,3.4c-5.18,3.33-18.48,2.37-23.49-1.24a3.92,3.92,0,0,1-1.94-3.07l1.12-98.67a4.64,4.64,0,0,0-4.64-4.69h-1.17a4.63,4.63,0,0,0-4.63,4.69l1.11,98.67A3.89,3.89,0,0,1,847,370.3c-5.22,3.76-19.44,4.65-24.09.79a3.76,3.76,0,0,1-1.5-2.95S813.51,251.56,813.51,244h70c-1.41,12-3.78,22.93-5,26.19-2.72,7.07,2.79,8.68,4.8,4.82-3,5.85,4,8.07,6,3.58A2.7,2.7,0,0,0,889.12,280.18Z" fill="#81aeff"/><path d="M873.38,90.17c3,0,5.52,2.78,5.52,6.2a6.24,6.24,0,0,1-5.83,6.14,7.35,7.35,0,0,1-1.06.07l-.49-.17a31.32,31.32,0,0,0,1.54-6v0a26.91,26.91,0,0,0,.32-4.08q0-1.05-.09-2.07Z" fill="#f5afb3"/><path d="M876.91,133.19l0,.06a30.33,30.33,0,0,0-6.36-2.71l-.11,0c-.94-.22-7.52-2.24-7.52-15.23l-.07-.09a29.47,29.47,0,0,0,8.7-12.79l.49.17a7.35,7.35,0,0,0,1.06-.07l0,.11S871.82,125.54,876.91,133.19Z" fill="#b97570"/><path d="M873.29,90.18q.09,1,.09,2.07a26.91,26.91,0,0,1-.32,4.08c0-.55.1-6.33-6.46-10.27-4.27-2.55-6.9,0-13.8,0h-.17c-6.9,0-9.53-2.55-13.8,0-6.56,3.94-6.48,9.72-6.46,10.27a26.91,26.91,0,0,1-.32-4.08q0-1.05.09-2.07c1-11.58,9.8-20.67,20.58-20.67S872.34,78.6,873.29,90.18Z" fill="#b97570"/><path d="M866.6,86.06c6.56,3.94,6.48,9.72,6.46,10.27v0a31.32,31.32,0,0,1-1.54,6,29.47,29.47,0,0,1-8.7,12.79,15,15,0,0,1-20.21,0,29.36,29.36,0,0,1-8.69-12.79,31.34,31.34,0,0,1-1.55-6v0c0-.55-.1-6.33,6.46-10.27,4.27-2.55,6.9,0,13.8,0h.17C859.7,86.06,862.33,83.51,866.6,86.06Zm-1,12.9a3.18,3.18,0,1,0-3.18,3.19A3.18,3.18,0,0,0,865.63,99Zm-12.9,12.81c2.31,0,4.17-1.25,4.17-2.78s-1.86-.93-4.17-.93-4.18-.61-4.18.93S850.42,111.77,852.73,111.77ZM846,98.8a3.18,3.18,0,1,0-3.18,3.19A3.18,3.18,0,0,0,846,98.8Z" fill="#f5afb3"/><path d="M870.41,130.52v0s-3.65,6.11-17.06,6.11-17.07-6.11-17.07-6.11h-1.36s7.63-1.26,7.63-15.25l.07-.09a15,15,0,0,0,20.21,0l.07.09C862.89,128.28,869.47,130.3,870.41,130.52Z" fill="#f5afb3"/><path d="M862.45,95.77A3.19,3.19,0,1,1,859.27,99,3.18,3.18,0,0,1,862.45,95.77Zm1.37,3.5a1.75,1.75,0,0,0-3.5,0,1.75,1.75,0,1,0,3.5,0Z" fill="#f2f2f2"/><path d="M862.08,97.53a1.75,1.75,0,0,1,0,3.5,1.75,1.75,0,1,1,0-3.5Z" fill="#333"/><path d="M856.9,109c0,1.53-1.86,2.78-4.17,2.78s-4.18-1.25-4.18-2.78,1.87-.93,4.18-.93S856.9,107.45,856.9,109Z" fill="#f2f2f2"/><path d="M847.09,370.48a50,50,0,0,1,1.23,11.73c0,7.11-7.48,11.71-18.16,11.71s-19.34.08-19.34-7,11.66-15.23,11.66-15.23l.39-.57c4.65,3.86,18.87,3,24.09-.79Z" fill="#333"/><path d="M842.81,95.62a3.19,3.19,0,1,1-3.18,3.18A3.18,3.18,0,0,1,842.81,95.62Zm1.92,3.65A1.76,1.76,0,1,0,843,101,1.75,1.75,0,0,0,844.73,99.27Z" fill="#f2f2f2"/><path d="M843,97.53a1.75,1.75,0,1,1-1.75,1.74A1.75,1.75,0,0,1,843,97.53Z" fill="#333"/><path d="M842.61,115.2l-.07.09c0,14-7.63,15.25-7.63,15.25a32.36,32.36,0,0,0-6.1,2.43l-.07-.13c5.1-7.65,3.6-30.22,3.6-30.22l0-.11a7.4,7.4,0,0,0,1.07.07l.49-.17A29.36,29.36,0,0,0,842.61,115.2Z" fill="#b97570"/><path d="M833.92,102.41l-.49.17a7.4,7.4,0,0,1-1.07-.07,6.23,6.23,0,0,1-5.82-6.14c0-3.42,2.47-6.2,5.51-6.2h.09q-.09,1-.09,2.07a26.91,26.91,0,0,0,.32,4.08v0A31.34,31.34,0,0,0,833.92,102.41Z" fill="#f5afb3"/><path d="M806.79,99.61c1.79-4.21,7.71-3,5.46,4.66-1.48,5-8.07,29.75-7.51,54.09h0s0,0,0,0c8.72,7.9,8.76,17.29,8.76,30.56v5.81h-.14c-4.19,3-8.92,4.34-13.18,3.2-10.64-2.87-16.89-15.26-19.71-33.81-4.6-30.31,3.35-59.73,5.79-67.16,1.57-4.83,7.61-4.77,6.5,1.6.27-.9.56-1.84.9-2.87,2-5.07,7.39-2.52,6.54.62C802,91.48,809.72,93.16,806.79,99.61Z" fill="#f5afb3"/><path d="M873.06,96.33a26.91,26.91,0,0,0,.32-4.08q0-1.05-.09-2.07c-.95-11.58-9.79-20.67-20.57-20.67" fill="none" stroke="#333" stroke-linecap="round" stroke-linejoin="round"/><path d="M852.72,119.11a16.07,16.07,0,0,0,10.1-3.91,29.47,29.47,0,0,0,8.7-12.79,31.32,31.32,0,0,0,1.54-6" fill="none" stroke="#333" stroke-linecap="round" stroke-linejoin="round"/><path d="M872,102.58a7.35,7.35,0,0,0,1.06-.07,6.24,6.24,0,0,0,5.83-6.14c0-3.42-2.48-6.2-5.52-6.2" fill="none" stroke="#333" stroke-linecap="round" stroke-linejoin="round"/><path d="M908.45,191.94a30.6,30.6,0,0,0-23.63.39" fill="none" stroke="#333" stroke-linecap="round" stroke-linejoin="round"/><path d="M870.52,130.54l-.11,0c-.94-.22-7.52-2.24-7.52-15.23" fill="none" stroke="#333" stroke-linecap="round" stroke-linejoin="round"/><line x1="865.44" y1="92.71" x2="861.3" y2="92.4" fill="none" stroke="#333" stroke-linecap="round" stroke-linejoin="round"/><path d="M834.91,130.54a32.36,32.36,0,0,0-6.1,2.43c-6.55,3.27-17,10.52-24,25.4,0,0,0,0,0,0,8.72,7.9,8.76,17.29,8.76,30.56v55c0,7.61,7.86,124.19,7.86,124.19a3.76,3.76,0,0,0,1.5,2.95c4.65,3.86,18.87,3,24.09-.79a3.89,3.89,0,0,0,1.94-3.07l-1.11-98.67a4.63,4.63,0,0,1,4.63-4.69H853" fill="none" stroke="#333" stroke-linecap="round" stroke-linejoin="round"/><path d="M792.77,98.61c1.11-6.37-4.93-6.43-6.5-1.6-2.44,7.43-10.39,36.85-5.79,67.16,2.82,18.55,9.07,30.94,19.71,33.81,4.26,1.14,9-.22,13.18-3.2" fill="none" stroke="#333" stroke-linecap="round" stroke-linejoin="round"/><path d="M806.79,99.61c1.79-4.21,7.71-3,5.46,4.66-1.48,5-8.07,29.75-7.51,54.09" fill="none" stroke="#333" stroke-linecap="round" stroke-linejoin="round"/><path d="M793.67,95.74c-.34,1-.63,2-.9,2.87,0,0,0,0,0,0a50.8,50.8,0,0,0-1.81,8.45" fill="none" stroke="#333" stroke-linecap="round" stroke-linejoin="round"/><path d="M800.21,96.36a94.13,94.13,0,0,0-2.85,11.89" fill="none" stroke="#333" stroke-linecap="round" stroke-linejoin="round"/><path d="M806.79,99.61a43,43,0,0,0-2.61,9.48" fill="none" stroke="#333" stroke-linecap="round" stroke-linejoin="round"/><path d="M793.67,95.74c2-5.07,7.39-2.52,6.54.62,1.75-4.88,9.51-3.2,6.58,3.25" fill="none" stroke="#333" stroke-linecap="round" stroke-linejoin="round"/><path d="M873.09,102.62s-1.27,22.92,3.82,30.57" fill="none" stroke="#333" stroke-linecap="round" stroke-linejoin="round"/><path d="M873.06,96.37v0c0-.55.1-6.33-6.46-10.27-4.27-2.55-6.9,0-13.8,0" fill="none" stroke="#333" stroke-linecap="round" stroke-linejoin="round"/><path d="M832.37,96.33a26.91,26.91,0,0,1-.32-4.08q0-1.05.09-2.07c1-11.58,9.8-20.67,20.58-20.67" fill="none" stroke="#333" stroke-linecap="round" stroke-linejoin="round"/><path d="M852.72,119.11a16.07,16.07,0,0,1-10.11-3.91,29.36,29.36,0,0,1-8.69-12.79,31.34,31.34,0,0,1-1.55-6" fill="none" stroke="#333" stroke-linecap="round" stroke-linejoin="round"/><path d="M833.43,102.58a7.4,7.4,0,0,1-1.07-.07,6.23,6.23,0,0,1-5.82-6.14c0-3.42,2.47-6.2,5.51-6.2" fill="none" stroke="#333" stroke-linecap="round" stroke-linejoin="round"/><path d="M834.91,130.54s7.63-1.26,7.63-15.25" fill="none" stroke="#333" stroke-linecap="round" stroke-linejoin="round"/><line x1="840" y1="92.71" x2="844.14" y2="92.4" fill="none" stroke="#333" stroke-linecap="round" stroke-linejoin="round"/><path d="M832.34,102.62s1.5,22.57-3.6,30.22" fill="none" stroke="#333" stroke-linecap="round" stroke-linejoin="round"/><path d="M832.37,96.37v0c0-.55-.1-6.33,6.46-10.27,4.27-2.55,6.9,0,13.8,0" fill="none" stroke="#333" stroke-linecap="round" stroke-linejoin="round"/><path d="M856.9,109c0,1.53-1.86,2.78-4.17,2.78s-4.18-1.25-4.18-2.78,1.87-.93,4.18-.93S856.9,107.45,856.9,109Z" fill="none" stroke="#333" stroke-linecap="round" stroke-linejoin="round"/><path d="M847.09,370.48a50,50,0,0,1,1.23,11.73c0,7.11-7.48,11.71-18.16,11.71s-19.34.08-19.34-7,11.66-15.23,11.66-15.23" fill="none" stroke="#333" stroke-linecap="round" stroke-linejoin="round"/><path d="M870.4,130.54s-3.65,6.11-17.06,6.11" fill="none" stroke="#333" stroke-linecap="round" stroke-linejoin="round"/><path d="M836.27,130.54s3.66,6.11,17.07,6.11" fill="none" stroke="#333" stroke-linecap="round" stroke-linejoin="round"/><path d="M896.55,276.7c-1.51,6.22,4.07,6.74,5.94,2.28,2.85-6.83,7.15-18.46,7.92-43.22.56-17.54-.18-31.87-1.88-43.83-2-14.53-5.52-25.58-9.83-34.67-6.51-13.75-15.73-20.7-21.82-24a30.33,30.33,0,0,0-6.36-2.71" fill="none" stroke="#333" stroke-linecap="round" stroke-linejoin="round"/><path d="M883.27,275c-2,3.86-7.52,2.25-4.8-4.82,1.25-3.26,3.62-14.24,5-26.19.61-5.07,1-10.32,1.14-15.22.4-19.2.18-36.4.18-36.4" fill="none" stroke="#333" stroke-linecap="round" stroke-linejoin="round"/><path d="M895.5,279.42c.38-.91.73-1.81,1-2.72a72.89,72.89,0,0,0,2.66-9.32" fill="none" stroke="#333" stroke-linecap="round" stroke-linejoin="round"/><path d="M889.26,278.54a90.78,90.78,0,0,0,3.9-12.32" fill="none" stroke="#333" stroke-linecap="round" stroke-linejoin="round"/><path d="M883.27,275a54.93,54.93,0,0,0,3.52-9.92" fill="none" stroke="#333" stroke-linecap="round" stroke-linejoin="round"/><path d="M895.5,279.42c-1.76,4.17-5.83,3.19-6.38.76a2.7,2.7,0,0,1,.14-1.64c-2,4.49-9,2.27-6-3.58" fill="none" stroke="#333" stroke-linecap="round" stroke-linejoin="round"/><path d="M888.74,280.28l-4.1,87.86a4,4,0,0,1-2.1,3.4c-5.18,3.33-18.48,2.37-23.49-1.24a3.92,3.92,0,0,1-1.94-3.07l1.12-98.67a4.64,4.64,0,0,0-4.64-4.69H853" fill="none" stroke="#333" stroke-linecap="round" stroke-linejoin="round"/><path d="M858.92,370.48a50,50,0,0,0-1.23,11.73c0,7.11,7.49,11.71,18.16,11.71s19.34.08,19.34-7-11.66-15.23-11.66-15.23" fill="none" stroke="#333" stroke-linecap="round" stroke-linejoin="round"/><polyline points="883.47 243.95 813.51 243.95 813.37 243.95" fill="none" stroke="#333" stroke-linecap="round" stroke-linejoin="round"/><path d="M108.7,291.67c-.34,1-.73,2-1.13,3h0c-2.34,3.91-6.25,1.58-5.33-.95a3.55,3.55,0,0,1-1.06,1.37C98.79,297,94.64,295,97,290.62c-1.74,3.34-6.51,2.64-4.7-3.31a160.78,160.78,0,0,0,4.36-21.79c.8-5.53,1.47-11.17,2-16.28a173.62,173.62,0,0,0-.84-39.06c10.18-6.11,18.3-3.91,18.3-3.91,2.82,13.25,4.12,29.94,4.12,49.31,0,14.25-4,32.59-6.53,38.53-1.62,3.87-6.24,3-4.93-2.41Z" fill="#b97570"/><path d="M116.13,206.27s-8.12-2.2-18.3,3.91a173.62,173.62,0,0,1,.84,39.06c-.51,5.11-1.18,10.75-2,16.28l-.4-.06H44.89l-.09,0c-.8-5.52-1.46-11.15-2-16.24a174.14,174.14,0,0,1,.83-39.06c-10.17-6.11-18.29-3.91-18.29-3.91a81.55,81.55,0,0,1,5.7-17.87,45.24,45.24,0,0,1,27-24.19s4.55,2.94,12.69,2.94,12.69-2.94,12.69-2.94a45.22,45.22,0,0,1,27,24.19A81.55,81.55,0,0,1,116.13,206.27Z" fill="#e5e5e5"/><path d="M97.4,373.61c2.52,3,7.89,9.47,7.89,14.2,0,6.18-6.23,6.11-15.5,6.11s-15-4-15-10.17A31.5,31.5,0,0,1,76,374.27h0C81.53,377.11,94.07,377.34,97.4,373.61Z" fill="#666"/><path d="M101.17,295.09l.1.13-3,76.32a3.07,3.07,0,0,1-.82,2.07c-3.33,3.73-15.87,3.5-21.43.65-1.65-.85-2.68-1.92-2.68-3.19l1-85.92a3.5,3.5,0,1,0-7,0l1,85.92c0,1.2-.92,2.22-2.4,3-5.41,3-18.33,3.3-21.71-.5a3.07,3.07,0,0,1-.82-2.07l-3.05-76.32.1-.13c2.39,1.88,6.54-.14,4.13-4.47,1.75,3.34,6.52,2.64,4.72-3.31a159.68,159.68,0,0,1-4.38-21.83l.09,0h51.4l.4.06a160.78,160.78,0,0,1-4.36,21.79c-1.81,5.95,3,6.65,4.7,3.31C94.64,295,98.79,297,101.17,295.09Z" fill="#ccc"/><path d="M91.37,126.45c3,0,5.5,2.78,5.5,6.19A6.21,6.21,0,0,1,91,138.76a6.94,6.94,0,0,1-1,.07l-.48-.18a31.22,31.22,0,0,0,1.35-4.9,28.34,28.34,0,0,0,.5-5.24c0-.69,0-1.38-.08-2Z" fill="#b97570"/><path d="M91.29,126.46c.06.67.08,1.36.08,2a28.34,28.34,0,0,1-.5,5.24h0c.32-4-.73-9.08-6.24-9.58-5.3-.47-10-1.06-13.87-4.38-3.83,3.32-8.57,3.91-13.86,4.38-5.52.5-6.57,5.61-6.25,9.58a28.36,28.36,0,0,1-.51-5.24c0-.69,0-1.38.08-2,.95-11.56,9.78-20.63,20.54-20.63S90.35,114.9,91.29,126.46Z" fill="#333"/><path d="M91,138.76l-.18,4.15a10.44,10.44,0,0,1-10.21,10l-1.75,0,0-.08c4.73-3,8.56-8.3,10.68-14.21l.48.18A6.94,6.94,0,0,0,91,138.76Z" fill="#333"/><path d="M84.62,124.17c5.51.5,6.56,5.61,6.24,9.58h0a31.22,31.22,0,0,1-1.35,4.9c-2.12,5.91-6,11.24-10.68,14.21a14.53,14.53,0,0,1-16.18,0c-4.73-3-8.55-8.3-10.68-14.21a31.19,31.19,0,0,1-1.34-4.9c-.32-4,.73-9.08,6.25-9.58,5.29-.47,10-1.06,13.86-4.38C74.58,123.11,79.32,123.7,84.62,124.17ZM83.44,135a3.17,3.17,0,1,0-3.17,3.17A3.17,3.17,0,0,0,83.44,135Zm-19,0a3.18,3.18,0,1,0-3.18,3.17A3.18,3.18,0,0,0,64.41,135Z" fill="#b97570"/><path d="M80.27,131.85A3.17,3.17,0,1,1,77.1,135,3.17,3.17,0,0,1,80.27,131.85Zm1.59,3.64a1.75,1.75,0,1,0-1.75,1.75A1.74,1.74,0,0,0,81.86,135.49Z" fill="#f2f2f2"/><circle cx="80.11" cy="135.49" r="1.75" fill="#333"/><path d="M78.89,152.94c.75,10.15,3,10.48,4.55,11.27,0,0-4.55,2.94-12.69,2.94s-12.69-2.94-12.69-2.94c1.55-.79,3.81-1.12,4.55-11.27l0-.08a14.53,14.53,0,0,0,16.18,0Z" fill="#b97570"/><path d="M65.81,374.11a43.49,43.49,0,0,1,.87,9.64c0,6.18-5.69,10.17-15,10.17s-15.5.07-15.5-6.11c0-4.73,5.38-11.17,7.89-14.2C47.48,377.41,60.4,377.1,65.81,374.11Z" fill="#666"/><path d="M61.23,131.85A3.17,3.17,0,1,1,58.06,135,3.18,3.18,0,0,1,61.23,131.85Zm1.91,3.64a1.75,1.75,0,1,0-1.75,1.75A1.74,1.74,0,0,0,63.14,135.49Z" fill="#f2f2f2"/><circle cx="61.39" cy="135.49" r="1.75" fill="#333"/><path d="M62.66,152.86l0,.08-1.75,0a10.44,10.44,0,0,1-10.21-10l-.18-4.14a8.52,8.52,0,0,0,1,.06l.48-.18C54.11,144.56,57.93,149.89,62.66,152.86Z" fill="#333"/><path d="M50.47,138.77a6.21,6.21,0,0,1-5.84-6.13c0-3.41,2.46-6.19,5.5-6.19h.08c-.06.67-.08,1.36-.08,2a28.36,28.36,0,0,0,.51,5.24,31.19,31.19,0,0,0,1.34,4.9l-.48.18A8.52,8.52,0,0,1,50.47,138.77Z" fill="#b97570"/><path d="M32.79,291.68l-.08,0c1.31,5.41-3.31,6.28-4.92,2.41-2.49-5.94-6.53-24.28-6.53-38.53,0-19.37,1.28-36.06,4.11-49.31,0,0,8.12-2.2,18.29,3.91a174.14,174.14,0,0,0-.83,39.06c.51,5.09,1.17,10.72,2,16.24a159.68,159.68,0,0,0,4.38,21.83c1.8,5.95-3,6.65-4.72,3.31,2.41,4.33-1.74,6.35-4.13,4.47a3.64,3.64,0,0,1-1.06-1.37c.91,2.53-3,4.86-5.32.95h0C33.52,293.7,33.15,292.7,32.79,291.68Z" fill="#b97570"/><path d="M40.23,295.22l3.05,76.32a3.07,3.07,0,0,0,.82,2.07c3.38,3.8,16.3,3.49,21.71.5,1.48-.82,2.4-1.84,2.4-3l-1-85.92a3.5,3.5,0,0,1,3.5-3.53" fill="none" stroke="#333" stroke-linecap="round" stroke-linejoin="round"/><path d="M44.46,290.62c1.75,3.34,6.52,2.64,4.72-3.31a159.68,159.68,0,0,1-4.38-21.83c-.8-5.52-1.46-11.15-2-16.24a174.14,174.14,0,0,1,.83-39.06" fill="none" stroke="#333" stroke-linecap="round" stroke-linejoin="round"/><path d="M34,294.77a.42.42,0,0,1,0-.1c-.41-1-.78-2-1.14-3A65.21,65.21,0,0,1,30.64,284" fill="none" stroke="#333" stroke-linecap="round" stroke-linejoin="round"/><path d="M39.27,293.72A77.13,77.13,0,0,1,35.88,283" fill="none" stroke="#333" stroke-linecap="round" stroke-linejoin="round"/><path d="M44.46,290.62A68.5,68.5,0,0,1,41.41,282" fill="none" stroke="#333" stroke-linecap="round" stroke-linejoin="round"/><path d="M34,294.67c2.33,3.91,6.23,1.58,5.32-.95a3.64,3.64,0,0,0,1.06,1.37c2.39,1.88,6.54-.14,4.13-4.47" fill="none" stroke="#333" stroke-linecap="round" stroke-linejoin="round"/><path d="M70.75,155.32a15.14,15.14,0,0,1-8.09-2.46c-4.73-3-8.55-8.3-10.68-14.21a31.19,31.19,0,0,1-1.34-4.9,28.36,28.36,0,0,1-.51-5.24c0-.69,0-1.38.08-2,.95-11.56,9.78-20.63,20.54-20.63" fill="none" stroke="#333" stroke-linecap="round" stroke-linejoin="round"/><path d="M51.5,138.83a8.52,8.52,0,0,1-1-.06,6.21,6.21,0,0,1-5.84-6.13c0-3.41,2.46-6.19,5.5-6.19" fill="none" stroke="#333" stroke-linecap="round" stroke-linejoin="round"/><path d="M50.64,133.75c-.32-4,.73-9.08,6.25-9.58,5.29-.47,10-1.06,13.86-4.38" fill="none" stroke="#333" stroke-linecap="round" stroke-linejoin="round"/><path d="M25.37,206.27s8.12-2.2,18.29,3.91" fill="none" stroke="#333" stroke-linecap="round" stroke-linejoin="round"/><path d="M32.71,291.7c1.31,5.41-3.31,6.28-4.92,2.41-2.49-5.94-6.53-24.28-6.53-38.53,0-19.37,1.28-36.06,4.11-49.31a81.55,81.55,0,0,1,5.7-17.87,45.24,45.24,0,0,1,27-24.19c1.55-.79,3.81-1.12,4.55-11.27" fill="none" stroke="#333" stroke-linecap="round" stroke-linejoin="round"/><path d="M65.81,374.11a43.49,43.49,0,0,1,.87,9.64c0,6.18-5.69,10.17-15,10.17s-15.5.07-15.5-6.11c0-4.73,5.38-11.17,7.89-14.2" fill="none" stroke="#333" stroke-linecap="round" stroke-linejoin="round"/><line x1="58.06" y1="128.99" x2="62.18" y2="128.67" fill="none" stroke="#333" stroke-linecap="round" stroke-linejoin="round"/><path d="M50.47,138.76h0l.18,4.14a10.44,10.44,0,0,0,10.21,10l1.75,0" fill="none" stroke="#333" stroke-linecap="round" stroke-linejoin="round"/><path d="M58.06,164.21s4.55,2.94,12.69,2.94" fill="none" stroke="#333" stroke-linecap="round" stroke-linejoin="round"/><path d="M101.27,295.22l-3,76.32a3.07,3.07,0,0,1-.82,2.07c-3.33,3.73-15.87,3.5-21.43.65-1.65-.85-2.68-1.92-2.68-3.19l1-85.92a3.5,3.5,0,0,0-3.5-3.53" fill="none" stroke="#333" stroke-linecap="round" stroke-linejoin="round"/><path d="M97,290.62c-1.74,3.34-6.51,2.64-4.7-3.31a160.78,160.78,0,0,0,4.36-21.79c.8-5.53,1.47-11.17,2-16.28a173.62,173.62,0,0,0-.84-39.06" fill="none" stroke="#333" stroke-linecap="round" stroke-linejoin="round"/><path d="M107.53,294.77l0-.1c.4-1,.79-2,1.13-3a66.47,66.47,0,0,0,2.16-7.63" fill="none" stroke="#333" stroke-linecap="round" stroke-linejoin="round"/><path d="M102.23,293.72a75.8,75.8,0,0,0,3.39-10.7" fill="none" stroke="#333" stroke-linecap="round" stroke-linejoin="round"/><path d="M97,290.62a67.14,67.14,0,0,0,3.06-8.62" fill="none" stroke="#333" stroke-linecap="round" stroke-linejoin="round"/><path d="M107.56,294.67c-2.34,3.91-6.25,1.58-5.33-.95a3.55,3.55,0,0,1-1.06,1.37C98.79,297,94.64,295,97,290.62" fill="none" stroke="#333" stroke-linecap="round" stroke-linejoin="round"/><path d="M70.75,155.32a15.11,15.11,0,0,0,8.09-2.46c4.73-3,8.56-8.3,10.68-14.21a31.22,31.22,0,0,0,1.35-4.9,28.34,28.34,0,0,0,.5-5.24c0-.69,0-1.38-.08-2-.94-11.56-9.78-20.63-20.54-20.63" fill="none" stroke="#333" stroke-linecap="round" stroke-linejoin="round"/><path d="M90,138.83a6.94,6.94,0,0,0,1-.07,6.21,6.21,0,0,0,5.84-6.12c0-3.41-2.46-6.19-5.5-6.19" fill="none" stroke="#333" stroke-linecap="round" stroke-linejoin="round"/><path d="M90.86,133.75c.32-4-.73-9.08-6.24-9.58-5.3-.47-10-1.06-13.87-4.38" fill="none" stroke="#333" stroke-linecap="round" stroke-linejoin="round"/><path d="M116.13,206.27s-8.12-2.2-18.3,3.91" fill="none" stroke="#333" stroke-linecap="round" stroke-linejoin="round"/><path d="M108.79,291.7c-1.31,5.41,3.31,6.28,4.93,2.41,2.48-5.94,6.53-24.28,6.53-38.53,0-19.37-1.3-36.06-4.12-49.31a81.55,81.55,0,0,0-5.7-17.87,45.22,45.22,0,0,0-27-24.19c-1.55-.79-3.8-1.12-4.55-11.27" fill="none" stroke="#333" stroke-linecap="round" stroke-linejoin="round"/><path d="M76,374.27a31.5,31.5,0,0,0-1.15,9.48c0,6.18,5.7,10.17,15,10.17s15.5.07,15.5-6.11c0-4.73-5.37-11.17-7.89-14.2" fill="none" stroke="#333" stroke-linecap="round" stroke-linejoin="round"/><line x1="83.44" y1="128.99" x2="79.32" y2="128.67" fill="none" stroke="#333" stroke-linecap="round" stroke-linejoin="round"/><path d="M91,138.76l-.18,4.15a10.44,10.44,0,0,1-10.21,10l-1.75,0" fill="none" stroke="#333" stroke-linecap="round" stroke-linejoin="round"/><path d="M83.44,164.21s-4.55,2.94-12.69,2.94" fill="none" stroke="#333" stroke-linecap="round" stroke-linejoin="round"/><line x1="44.89" y1="265.46" x2="96.29" y2="265.46" fill="none" stroke="#333" stroke-linecap="round" stroke-linejoin="round"/><path d="M66.94,146.33a6.36,6.36,0,0,0,7.62,0" fill="none" stroke="#000" stroke-linecap="round" stroke-linejoin="round"/><path d="M634.51,267c2.37,3.53-2.81,7.17-6.26,2.52-.62-.91-1.2-1.8-1.75-2.67h0c3,6.26-2.94,7.88-5.91,3.57-4.55-6.61-13-23.58-18.07-44.06-.79-3.21-1.5-6.23-2.14-9.23v0c-2.62-12.28-4.1-24.24-5.6-48.24,14.63-5.49,24.81-.24,25.21,0l.11,0c3.66,16.5,5.83,33.19,8.17,44.32,3.68,17.43,12.87,38,15.81,42.54,4.45,6.89-1,9.81-4,6.18C644.82,267.37,637.66,271.3,634.51,267Z" fill="#f5afb3"/><path d="M620.09,168.83l-.11,0c-.4-.23-10.58-5.48-25.21,0,1.5,24,3,36,5.6,48.24v14.34H521V217.11h0c2.63-12.28,4.12-24.24,5.63-48.24-14-6.54-25.06,0-25.06,0l-.29-.06c2.47-11.1,5.61-22.1,9.92-31.26A57.67,57.67,0,0,1,536.64,111a41.2,41.2,0,0,1,6.25-2.71s3.81,6.35,17.77,6.35,17.77-6.35,17.77-6.35a41.25,41.25,0,0,1,6.25,2.72,57.53,57.53,0,0,1,25.48,26.48C614.49,146.69,617.63,157.71,620.09,168.83Z" fill="#5793ff"/><path d="M521,231.45h79.4c0,38.3-6.07,132-6.07,132a4.71,4.71,0,0,1-2.16,3.78c-5.52,4.18-20.13,4.4-25.58.93a3.84,3.84,0,0,1-2.1-3.15l1.22-106.92a5,5,0,1,0-10,0L556.85,365a4.23,4.23,0,0,1-2.11,3.33c-5.65,4.07-21.06,5-26.11.85A4.07,4.07,0,0,1,527,366S521,262.28,521,231.45Z" fill="#abc9ff"/><path d="M593,367.26s12.77,11.33,12.77,19-9.38,7.62-21,7.62-19.67-5-19.67-12.69a59.65,59.65,0,0,1,1.2-12.7l.26-.37c5.45,3.47,20.06,3.25,25.58-.93Z" fill="#333"/><path d="M581.14,72.85a26,26,0,0,0,.15-2.77c0-.69,0-1.39-.09-2.06h.09c3,0,5.5,2.77,5.5,6.19A6.22,6.22,0,0,1,581,80.32a7.12,7.12,0,0,1-1.05.07l-.48-.18A31.31,31.31,0,0,0,581.14,72.85Z" fill="#f5afb3"/><path d="M584.77,110.85l-.09.18a41.25,41.25,0,0,0-6.25-2.72s-7.61-1.27-7.61-15.23l-.08-.09a29.33,29.33,0,0,0,8.69-12.78l.48.18a7.12,7.12,0,0,0,1.05-.07v.07S579.7,103.24,584.77,110.85Z" fill="#fddda6"/><path d="M581.2,68c.06.67.09,1.37.09,2.06a26,26,0,0,1-.15,2.77,13.43,13.43,0,0,1-3.39-5C576,62.57,564.94,65,560.67,59.3c-4.27,5.7-15.33,3.27-17.08,8.54a13.52,13.52,0,0,1-3.41,5,23.83,23.83,0,0,1-.15-2.79c0-.69,0-1.39.08-2.06.94-11.57,9.79-20.63,20.55-20.63S580.26,56.45,581.2,68Z" fill="#fddda6"/><path d="M581.14,72.85a31.31,31.31,0,0,1-1.71,7.36A29.33,29.33,0,0,1,570.74,93a15,15,0,0,1-20.17,0,29.42,29.42,0,0,1-8.68-12.77,30.63,30.63,0,0,1-1.71-7.35,13.52,13.52,0,0,0,3.41-5c1.75-5.27,12.81-2.84,17.08-8.54,4.27,5.7,15.32,3.27,17.08,8.54A13.43,13.43,0,0,0,581.14,72.85Zm-7.25,3.89a3.17,3.17,0,1,0-3.18,3.17A3.18,3.18,0,0,0,573.89,76.74Zm-13.22,13.2c2.32,0,4.2-1.26,4.2-2.81s-1.88-.93-4.2-.93-4.2-.62-4.2.93S558.34,89.94,560.67,89.94Zm-6.36-13.36a3.17,3.17,0,1,0-3.18,3.17A3.18,3.18,0,0,0,554.31,76.58Z" fill="#f5afb3"/><path d="M578.43,108.31s-3.81,6.35-17.77,6.35-17.77-6.35-17.77-6.35,7.61-1.27,7.61-15.23l.07-.09a15,15,0,0,0,20.17,0l.08.09C570.82,107,578.43,108.31,578.43,108.31Z" fill="#f5afb3"/><path d="M570.71,73.56a3.18,3.18,0,1,1-3.16,3.18A3.18,3.18,0,0,1,570.71,73.56Zm1.38,3.49a1.75,1.75,0,1,0-1.75,1.75A1.75,1.75,0,0,0,572.09,77.05Z" fill="#f2f2f2"/><circle cx="570.34" cy="77.05" r="1.75" fill="#333"/><path d="M564.87,87.13c0,1.55-1.88,2.81-4.2,2.81s-4.2-1.26-4.2-2.81,1.87-.93,4.2-.93S564.87,85.58,564.87,87.13Z" fill="#eb5f67"/><path d="M554.88,368.53a53.69,53.69,0,0,1,1.34,12.7c0,7.7-8.11,12.69-19.68,12.69s-20.95.1-20.95-7.62,12.63-16.5,12.63-16.5l.41-.61c5,4.17,20.46,3.22,26.11-.85Z" fill="#333"/><path d="M551.13,73.4A3.18,3.18,0,1,1,548,76.58,3.18,3.18,0,0,1,551.13,73.4ZM553,77.05a1.75,1.75,0,1,0-1.75,1.75A1.74,1.74,0,0,0,553,77.05Z" fill="#f2f2f2"/><path d="M551.29,75.31a1.75,1.75,0,1,1-1.74,1.74A1.74,1.74,0,0,1,551.29,75.31Z" fill="#333"/><path d="M550.57,93l-.07.09c0,14-7.61,15.23-7.61,15.23a41.2,41.2,0,0,0-6.25,2.71l-.1-.17c5.07-7.61,3.8-30.46,3.8-30.46v-.07a7.35,7.35,0,0,0,1.06.07l.48-.17A29.42,29.42,0,0,0,550.57,93Z" fill="#fddda6"/><path d="M541.89,80.22l-.48.17a7.35,7.35,0,0,1-1.06-.07,6.2,6.2,0,0,1-5.82-6.12c0-3.42,2.46-6.19,5.5-6.19h.08c-.06.67-.08,1.37-.08,2.06a23.83,23.83,0,0,0,.15,2.79A30.63,30.63,0,0,0,541.89,80.22Z" fill="#f5afb3"/><path d="M497.37,267.47c-.41.69-.85,1.38-1.31,2-3.45,4.65-8.63,1-6.26-2.52-3.15,4.3-9.59.44-5.53-5.13-3,3.63-7.41,1.29-4-6.18,6.31-13.92,9.13-25.11,12.81-42.54,2.35-11.15,4.52-27.87,8.18-44.38l.29.06s11-6.5,25.06,0c-1.51,24-3,36-5.63,48.24-.64,3-1.35,6-2.15,9.25-5,20.48-10.51,37.45-15.07,44.06C500.76,274.73,494.37,273.74,497.37,267.47Z" fill="#f5afb3"/><path d="M521,231.45c0,30.83,6,134.54,6,134.54a4.07,4.07,0,0,0,1.62,3.2c5,4.17,20.46,3.22,26.11-.85a4.23,4.23,0,0,0,2.11-3.33l-1.21-106.92a5,5,0,0,1,5-5.07" fill="none" stroke="#333" stroke-linecap="round" stroke-linejoin="round"/><path d="M497.37,267.47c-3,6.27,3.39,7.26,6.36,2.95,4.56-6.61,10-23.58,15.07-44.06.8-3.22,1.51-6.25,2.15-9.25,2.63-12.28,4.12-24.24,5.63-48.24" fill="none" stroke="#333" stroke-linecap="round" stroke-linejoin="round"/><path d="M484.27,261.87c-3,3.63-7.41,1.29-4-6.18,6.31-13.92,9.13-25.11,12.81-42.54,2.35-11.15,4.52-27.87,8.18-44.38,2.47-11.1,5.61-22.1,9.92-31.26A57.67,57.67,0,0,1,536.64,111a41.2,41.2,0,0,1,6.25-2.71s3.81,6.35,17.77,6.35" fill="none" stroke="#333" stroke-linecap="round" stroke-linejoin="round"/><path d="M496.06,269.52c.46-.67.9-1.36,1.31-2a62.92,62.92,0,0,0,4.72-10.42" fill="none" stroke="#333" stroke-linecap="round" stroke-linejoin="round"/><path d="M489.8,267c2.42-3.62,4-8.75,5.9-13.19" fill="none" stroke="#333" stroke-linecap="round" stroke-linejoin="round"/><path d="M484.27,261.87a61.45,61.45,0,0,0,5.53-10.74" fill="none" stroke="#333" stroke-linecap="round" stroke-linejoin="round"/><path d="M496.06,269.52c-3.45,4.65-8.63,1-6.26-2.52-3.15,4.3-9.59.44-5.53-5.13" fill="none" stroke="#333" stroke-linecap="round" stroke-linejoin="round"/><path d="M600.37,217.11c-2.62-12.28-4.1-24.24-5.6-48.24" fill="none" stroke="#333" stroke-linecap="round" stroke-linejoin="round"/><path d="M626.49,266.85c3,6.26-2.94,7.88-5.91,3.57-4.55-6.61-13-23.58-18.07-44.06-.79-3.21-1.5-6.23-2.14-9.23" fill="none" stroke="#333" stroke-linecap="round" stroke-linejoin="round"/><path d="M640.05,261.87c3,3.63,8.47.71,4-6.18-2.94-4.54-12.13-25.11-15.81-42.54-2.34-11.13-4.51-27.82-8.17-44.32-2.46-11.12-5.6-22.14-9.93-31.32A57.53,57.53,0,0,0,584.68,111a41.25,41.25,0,0,0-6.25-2.72s-3.81,6.35-17.77,6.35" fill="none" stroke="#333" stroke-linecap="round" stroke-linejoin="round"/><path d="M628.25,269.52c-.62-.91-1.2-1.8-1.75-2.67a72.15,72.15,0,0,1-4.65-8.8" fill="none" stroke="#333" stroke-linecap="round" stroke-linejoin="round"/><path d="M634.51,267a94.28,94.28,0,0,1-6.89-12.19" fill="none" stroke="#333" stroke-linecap="round" stroke-linejoin="round"/><path d="M640.05,261.87a54.56,54.56,0,0,1-5.95-9.74" fill="none" stroke="#333" stroke-linecap="round" stroke-linejoin="round"/><path d="M628.25,269.52c3.45,4.65,8.63,1,6.26-2.52,3.15,4.3,10.31.37,5.54-5.13" fill="none" stroke="#333" stroke-linecap="round" stroke-linejoin="round"/><path d="M560.66,96.89A16.05,16.05,0,0,1,550.57,93a29.42,29.42,0,0,1-8.68-12.77,30.63,30.63,0,0,1-1.71-7.35,23.83,23.83,0,0,1-.15-2.79c0-.69,0-1.39.08-2.06.94-11.57,9.79-20.63,20.55-20.63" fill="none" stroke="#333" stroke-linecap="round" stroke-linejoin="round"/><path d="M541.41,80.39a7.35,7.35,0,0,1-1.06-.07,6.2,6.2,0,0,1-5.82-6.12c0-3.42,2.46-6.19,5.5-6.19" fill="none" stroke="#333" stroke-linecap="round" stroke-linejoin="round"/><path d="M526.58,168.87c-14-6.54-25.06,0-25.06,0" fill="none" stroke="#333" stroke-linecap="round" stroke-linejoin="round"/><path d="M542.89,108.31s7.61-1.27,7.61-15.23" fill="none" stroke="#333" stroke-linecap="round" stroke-linejoin="round"/><path d="M540.34,80.39s1.27,22.85-3.8,30.46" fill="none" stroke="#333" stroke-linecap="round" stroke-linejoin="round"/><path d="M600.37,231.45c0,38.3-6.07,132-6.07,132a4.71,4.71,0,0,1-2.16,3.78c-5.52,4.18-20.13,4.4-25.58.93a3.84,3.84,0,0,1-2.1-3.15l1.22-106.92a5,5,0,0,0-5-5.07" fill="none" stroke="#333" stroke-linecap="round" stroke-linejoin="round"/><path d="M560.66,96.89A16,16,0,0,0,570.74,93a29.33,29.33,0,0,0,8.69-12.78,31.31,31.31,0,0,0,1.71-7.36,26,26,0,0,0,.15-2.77c0-.69,0-1.39-.09-2.06-.94-11.57-9.79-20.63-20.54-20.63" fill="none" stroke="#333" stroke-linecap="round" stroke-linejoin="round"/><path d="M579.91,80.39a7.12,7.12,0,0,0,1.05-.07,6.22,6.22,0,0,0,5.83-6.12c0-3.42-2.47-6.19-5.5-6.19" fill="none" stroke="#333" stroke-linecap="round" stroke-linejoin="round"/><path d="M620,168.87h0c-.4-.23-10.58-5.48-25.21,0" fill="none" stroke="#333" stroke-linecap="round" stroke-linejoin="round"/><path d="M600.37,217.11v14.34H521V217.11" fill="none" stroke="#333" stroke-linecap="round" stroke-linejoin="round"/><path d="M578.43,108.31s-7.61-1.27-7.61-15.23" fill="none" stroke="#333" stroke-linecap="round" stroke-linejoin="round"/><path d="M581,80.39s-1.27,22.85,3.8,30.46" fill="none" stroke="#333" stroke-linecap="round" stroke-linejoin="round"/><path d="M554.88,368.53a53.69,53.69,0,0,1,1.34,12.7c0,7.7-8.11,12.69-19.68,12.69s-20.95.1-20.95-7.62,12.63-16.5,12.63-16.5" fill="none" stroke="#333" stroke-linecap="round" stroke-linejoin="round"/><path d="M566.3,368.53a59.65,59.65,0,0,0-1.2,12.7c0,7.7,8.11,12.69,19.67,12.69s21,.1,21-7.62-12.77-19-12.77-19" fill="none" stroke="#333" stroke-linecap="round" stroke-linejoin="round"/><line x1="547.97" y1="70.55" x2="552.09" y2="70.24" fill="none" stroke="#333" stroke-linecap="round" stroke-linejoin="round"/><line x1="574.62" y1="70.87" x2="570.82" y2="70.24" fill="none" stroke="#333" stroke-linecap="round" stroke-linejoin="round"/><path d="M564.87,87.13c0,1.55-1.88,2.81-4.2,2.81s-4.2-1.26-4.2-2.81,1.87-.93,4.2-.93S564.87,85.58,564.87,87.13Z" fill="none" stroke="#333" stroke-linecap="round" stroke-linejoin="round"/><path d="M540.18,72.87a13.52,13.52,0,0,0,3.41-5c1.75-5.27,12.81-2.84,17.08-8.54" fill="none" stroke="#333" stroke-linecap="round" stroke-linejoin="round"/><path d="M581.16,72.87l0,0a13.43,13.43,0,0,1-3.39-5C576,62.57,564.94,65,560.67,59.3" fill="none" stroke="#333" stroke-linecap="round" stroke-linejoin="round"/><path d="M656,290.6c-.36,1-.74,2-1.15,3h0c-2,3.29-5,2.2-5.46.27a2.17,2.17,0,0,1,.08-1.23c-1.78,3.94-8.1,2-5.24-3.14-1.77,3.38-6.59,2.68-4.77-3.34a197.69,197.69,0,0,0,4.94-21.76c1-5.67,1.83-11.46,2.35-16.71a257.68,257.68,0,0,0,0-42.32c10.28-6.17,18-3.85,18-3.85l.48-.12c3.59,14.26,5.28,32.93,3.36,54-1.28,14.1-5,31.64-7.47,37.64-1.64,3.91-6.3,3-5-2.43Z" fill="#f5afb3"/><path d="M665.13,201.43l-.48.12s-7.68-2.32-18,3.85a257.68,257.68,0,0,1,0,42.32c-.52,5.25-1.36,11-2.35,16.71l-.21,0H595.39l-.21,0c-1-5.67-1.83-11.46-2.35-16.71a256.56,256.56,0,0,1,0-42.32c-10.29-6.17-18-3.85-18-3.85l-.48-.12a83.38,83.38,0,0,1,5.27-15.19,45.7,45.7,0,0,1,27.28-24.44h1.28a27.29,27.29,0,0,0,23.08,0l.34-.48c.34.19.65.33.94.48a45.7,45.7,0,0,1,27.28,24.44A83.38,83.38,0,0,1,665.13,201.43Z" fill="#99d5bd"/><path d="M645.42,373.42c2.55,3.07,8,9.56,8,14.33,0,6.25-6.3,6.17-15.67,6.17s-15.12-4-15.12-10.29a45.41,45.41,0,0,1,1-10.23l.1-.12C628.15,376.86,641.93,377.48,645.42,373.42Z" fill="#666"/><path d="M594.1,373.42a3.13,3.13,0,0,1-.82-2.12l-3-77.4h-.07a2.17,2.17,0,0,0-.08-1.23c1.78,3.94,8.1,2,5.25-3.14,1.77,3.38,6.58,2.68,4.76-3.34a197.69,197.69,0,0,1-4.94-21.76l.21,0h48.74l.21,0a197.69,197.69,0,0,1-4.94,21.76c-1.82,6,3,6.72,4.77,3.34-2.86,5.15,3.46,7.08,5.24,3.14a2.17,2.17,0,0,0-.08,1.23h-.07l-3,77.4a3.13,3.13,0,0,1-.82,2.12c-3.49,4.06-17.27,3.44-21.71-.14a3.18,3.18,0,0,1-1.38-2.44l.59-85.93a3.16,3.16,0,1,0-6.31,0v0l.59,85.93a3.19,3.19,0,0,1-1.39,2.44C611.37,376.86,597.59,377.48,594.1,373.42Z" fill="#999"/><path d="M640.6,123.64c3.06,0,5.55,2.8,5.55,6.26s-2.77,6.25-6.94,6.25l-.48-.18a31.78,31.78,0,0,0,1.57-6.23,27.27,27.27,0,0,0,.3-4c0-.7,0-1.4-.08-2.08Z" fill="#f5afb3"/><path d="M640.52,123.65c.05.68.08,1.38.08,2.08a27.27,27.27,0,0,1-.3,4h0c-3.85,0-2.57-6.42-6.63-10.26-3.64-3.45-6.95-2.57-13.89-2.57s-10.26-.88-13.9,2.57c-4.05,3.84-2.77,10.26-6.62,10.26h0a27.27,27.27,0,0,1-.3-4c0-.7,0-1.4.08-2.08,1-11.69,9.89-20.85,20.76-20.85S639.56,112,640.52,123.65Z" fill="#fddda6"/><path d="M611.53,150.29c-4.75-3-8.6-8.36-10.74-14.32a31.78,31.78,0,0,1-1.57-6.23h0c3.85,0,2.57-6.42,6.62-10.26,3.64-3.45,6.95-2.57,13.9-2.57s10.25-.88,13.89,2.57c4.06,3.84,2.78,10.26,6.63,10.26h0a31.78,31.78,0,0,1-1.57,6.23c-2.14,6-6,11.32-10.74,14.32a14.65,14.65,0,0,1-16.46,0Zm21.05-18a3.21,3.21,0,1,0-3.2,3.21A3.21,3.21,0,0,0,632.58,132.3Zm-19.23,0a3.21,3.21,0,1,0-3.21,3.21A3.21,3.21,0,0,0,613.35,132.3Z" fill="#f5afb3"/><path d="M629.38,129.09a3.21,3.21,0,1,1-3.21,3.21A3.21,3.21,0,0,1,629.38,129.09Zm1.6,3.69a1.77,1.77,0,1,0-1.76,1.77A1.76,1.76,0,0,0,631,132.78Z" fill="#fff"/><path d="M631.64,161.32l-.34.48a27.29,27.29,0,0,1-23.08,0h-1.28c1.57-.8,3.84-1.29,4.59-11.51a14.65,14.65,0,0,0,16.46,0C628.6,158.6,630.22,160.48,631.64,161.32Z" fill="#f5afb3"/><circle cx="629.22" cy="132.78" r="1.76" fill="#333"/><path d="M615.91,373.4a45.41,45.41,0,0,1,1,10.23c0,6.25-5.76,10.29-15.12,10.29s-15.67.08-15.67-6.17c0-4.77,5.41-11.26,8-14.33,3.49,4.06,17.27,3.44,21.71-.14Z" fill="#666"/><path d="M610.14,129.09a3.21,3.21,0,1,1-3.2,3.21A3.21,3.21,0,0,1,610.14,129.09Zm1.93,3.69a1.77,1.77,0,1,0-1.77,1.77A1.76,1.76,0,0,0,612.07,132.78Z" fill="#fff"/><circle cx="610.3" cy="132.78" r="1.76" fill="#333"/><path d="M600.79,136l-.48.18c-4.17,0-6.95-2.8-6.95-6.25s2.49-6.26,5.56-6.26H599c0,.68-.08,1.38-.08,2.08a27.27,27.27,0,0,0,.3,4A31.78,31.78,0,0,0,600.79,136Z" fill="#f5afb3"/><path d="M595.36,289.53c2.85,5.15-3.47,7.08-5.25,3.14a2.17,2.17,0,0,1,.08,1.23c-.42,1.93-3.5,3-5.46-.27h0c-.41-1-.79-2-1.15-3l-.09,0c1.33,5.46-3.33,6.34-5,2.43-2.51-6-6.19-23.54-7.47-37.64-1.92-21.06-.24-39.73,3.36-54l.48.12s7.67-2.32,18,3.85a256.56,256.56,0,0,0,0,42.32c.52,5.25,1.36,11,2.35,16.71a197.69,197.69,0,0,0,4.94,21.76C601.94,292.21,597.13,292.91,595.36,289.53Z" fill="#f5afb3"/><line x1="595.39" y1="264.39" x2="644.13" y2="264.39" fill="none" stroke="#333" stroke-linecap="round" stroke-linejoin="round"/><path d="M595.36,289.53c1.77,3.38,6.58,2.68,4.76-3.34a197.69,197.69,0,0,1-4.94-21.76c-1-5.67-1.83-11.46-2.35-16.71a256.56,256.56,0,0,1,0-42.32" fill="none" stroke="#333" stroke-linecap="round" stroke-linejoin="round"/><path d="M584.75,293.73l0-.1c-.41-1-.79-2-1.15-3a65.86,65.86,0,0,1-2.17-7.71" fill="none" stroke="#333" stroke-linecap="round" stroke-linejoin="round"/><path d="M590.11,292.67a78.43,78.43,0,0,1-3.43-10.82" fill="none" stroke="#333" stroke-linecap="round" stroke-linejoin="round"/><path d="M595.36,289.53a67.42,67.42,0,0,1-3.09-8.7" fill="none" stroke="#333" stroke-linecap="round" stroke-linejoin="round"/><path d="M584.73,293.63c2,3.29,5,2.2,5.46.27a2.17,2.17,0,0,0-.08-1.23c1.78,3.94,8.1,2,5.25-3.14" fill="none" stroke="#333" stroke-linecap="round" stroke-linejoin="round"/><path d="M619.76,152.82a15.31,15.31,0,0,1-8.23-2.53c-4.75-3-8.6-8.36-10.74-14.32a31.78,31.78,0,0,1-1.57-6.23,27.27,27.27,0,0,1-.3-4c0-.7,0-1.4.08-2.08,1-11.69,9.89-20.85,20.76-20.85" fill="none" stroke="#333" stroke-linecap="round" stroke-linejoin="round"/><path d="M600.31,136.15c-4.17,0-6.95-2.8-6.95-6.25s2.49-6.26,5.56-6.26" fill="none" stroke="#333" stroke-linecap="round" stroke-linejoin="round"/><path d="M599.24,129.74c3.85,0,2.57-6.42,6.62-10.26,3.64-3.45,6.95-2.57,13.9-2.57" fill="none" stroke="#333" stroke-linecap="round" stroke-linejoin="round"/><path d="M574.87,201.55s7.67-2.32,18,3.85" fill="none" stroke="#333" stroke-linecap="round" stroke-linejoin="round"/><path d="M583.47,290.63c1.33,5.46-3.33,6.34-5,2.43-2.51-6-6.19-23.54-7.47-37.64-1.92-21.06-.24-39.73,3.36-54a83.38,83.38,0,0,1,5.27-15.19,45.7,45.7,0,0,1,27.28-24.44c1.57-.8,3.84-1.29,4.59-11.51v0" fill="none" stroke="#333" stroke-linecap="round" stroke-linejoin="round"/><path d="M615.91,373.4a45.41,45.41,0,0,1,1,10.23c0,6.25-5.76,10.29-15.12,10.29s-15.67.08-15.67-6.17c0-4.77,5.41-11.26,8-14.33v0" fill="none" stroke="#333" stroke-linecap="round" stroke-linejoin="round"/><line x1="606.94" y1="126.21" x2="611.1" y2="125.89" fill="none" stroke="#333" stroke-linecap="round" stroke-linejoin="round"/><path d="M608.22,161.8a28.62,28.62,0,0,0,11.54,2.56" fill="none" stroke="#333" stroke-linecap="round" stroke-linejoin="round"/><path d="M649.26,293.89h0l-3,77.4a3.13,3.13,0,0,1-.82,2.12c-3.49,4.06-17.27,3.44-21.71-.14a3.18,3.18,0,0,1-1.38-2.44l.59-85.93a3.16,3.16,0,1,0-6.31,0v0l.59,85.93a3.19,3.19,0,0,1-1.39,2.44c-4.44,3.58-18.22,4.2-21.71.14a3.13,3.13,0,0,1-.82-2.12l-3-77.4h0" fill="none" stroke="#333" stroke-linecap="round" stroke-linejoin="round"/><path d="M644.17,289.53c-1.77,3.38-6.59,2.68-4.77-3.34a197.69,197.69,0,0,0,4.94-21.76c1-5.67,1.83-11.46,2.35-16.71a257.68,257.68,0,0,0,0-42.32" fill="none" stroke="#333" stroke-linecap="round" stroke-linejoin="round"/><path d="M654.77,293.73l0-.1c.41-1,.79-2,1.15-3a66,66,0,0,0,2.17-7.72" fill="none" stroke="#333" stroke-linecap="round" stroke-linejoin="round"/><path d="M649.41,292.67a77.09,77.09,0,0,0,3.42-10.82" fill="none" stroke="#333" stroke-linecap="round" stroke-linejoin="round"/><path d="M644.17,289.53a70.39,70.39,0,0,0,3.08-8.7" fill="none" stroke="#333" stroke-linecap="round" stroke-linejoin="round"/><path d="M654.79,293.63c-2,3.29-5,2.2-5.46.27a2.17,2.17,0,0,1,.08-1.23c-1.78,3.94-8.1,2-5.24-3.14" fill="none" stroke="#333" stroke-linecap="round" stroke-linejoin="round"/><path d="M619.76,152.82a15.31,15.31,0,0,0,8.23-2.53c4.75-3,8.6-8.36,10.74-14.32a31.78,31.78,0,0,0,1.57-6.23,27.27,27.27,0,0,0,.3-4c0-.7,0-1.4-.08-2.08-1-11.69-9.88-20.85-20.76-20.85" fill="none" stroke="#333" stroke-linecap="round" stroke-linejoin="round"/><path d="M639.21,136.15c4.17,0,6.94-2.8,6.94-6.25s-2.49-6.26-5.55-6.26" fill="none" stroke="#333" stroke-linecap="round" stroke-linejoin="round"/><path d="M640.28,129.74c-3.85,0-2.57-6.42-6.63-10.26-3.64-3.45-6.95-2.57-13.89-2.57" fill="none" stroke="#333" stroke-linecap="round" stroke-linejoin="round"/><path d="M664.65,201.55s-7.68-2.32-18,3.85" fill="none" stroke="#333" stroke-linecap="round" stroke-linejoin="round"/><path d="M656,290.63c-1.32,5.46,3.34,6.34,5,2.43,2.5-6,6.19-23.54,7.47-37.64,1.92-21.06.23-39.73-3.36-54a83.38,83.38,0,0,0-5.27-15.19,45.7,45.7,0,0,0-27.28-24.44c-.29-.15-.6-.29-.94-.48-1.42-.84-3-2.72-3.65-11v0" fill="none" stroke="#333" stroke-linecap="round" stroke-linejoin="round"/><path d="M623.61,373.4a45.41,45.41,0,0,0-1,10.23c0,6.25,5.76,10.29,15.12,10.29s15.67.08,15.67-6.17c0-4.77-5.41-11.26-8-14.33v0" fill="none" stroke="#333" stroke-linecap="round" stroke-linejoin="round"/><line x1="632.58" y1="126.21" x2="628.42" y2="125.89" fill="none" stroke="#333" stroke-linecap="round" stroke-linejoin="round"/><path d="M631.3,161.8a28.62,28.62,0,0,1-11.54,2.56" fill="none" stroke="#333" stroke-linecap="round" stroke-linejoin="round"/><path d="M615.91,143.84a6.42,6.42,0,0,0,7.7,0" fill="none" stroke="#333" stroke-linecap="round" stroke-linejoin="round"/></svg>