<svg xmlns="http://www.w3.org/2000/svg" width="465" height="240" viewBox="0 0 465 240"><rect width="465" height="240" fill="#f2f2f2"/><circle cx="205.29" cy="181.97" r="20.72" fill="#999" stroke="#333" stroke-linecap="round" stroke-linejoin="round"/><rect x="195.73" y="173.97" width="120" height="16" rx="7" fill="#ccc" stroke="#333" stroke-linecap="round" stroke-linejoin="round"/><path d="M228.28,189.36h0c-5.84,14.1-17.19,6.8-14.51-4.39,4.1-17.16,10.15-45.42,39.69-66.11,34.52-24.17,60.22-30.62,88-47.46,28.46-17.28,60,6.89,46,34.77-10.61,21.21-39.14,38.49-81.47,56-25.58,10.58-31.3,30.58-34.4,42-4.71,17.4-16.76,10.24-15.22,0-3.75,17-18.92,10-16.52-1.52-2.28,9.08-15.86,5.95-13.32-6.51C227.05,193.82,227.64,191.57,228.28,189.36Z" fill="#f5afb3"/><path d="M256.32,204.21c-1.54,10.24,10.51,17.4,15.22,0,3.1-11.46,8.82-31.46,34.4-42,42.33-17.52,70.86-34.8,81.47-56,13.94-27.88-17.56-52-46-34.77-27.74,16.84-53.44,23.29-88,47.46-29.54,20.69-35.59,49-39.69,66.11-2.68,11.19,8.67,18.49,14.51,4.39" fill="none" stroke="#333" stroke-linecap="round" stroke-linejoin="round"/><path d="M226.48,196.18c.57-2.36,1.16-4.61,1.8-6.82a156.6,156.6,0,0,1,7.53-20.51" fill="none" stroke="#333" stroke-linecap="round" stroke-linejoin="round"/><path d="M239.8,202.69a210.85,210.85,0,0,1,9.8-29.19" fill="none" stroke="#333" stroke-linecap="round" stroke-linejoin="round"/><path d="M256.32,204.21c1.73-10,4.55-17.14,7.17-24" fill="none" stroke="#333" stroke-linecap="round" stroke-linejoin="round"/><path d="M226.48,196.18c-2.54,12.46,11,15.59,13.32,6.51-2.4,11.48,12.77,18.48,16.52,1.52" fill="none" stroke="#333" stroke-linecap="round" stroke-linejoin="round"/><path d="M131.72,144.74c-6.72,16-20.39,6.41-16-4.45-3.87,8.52-16.67,3-11.93-8.79,1-2.22,2-4.33,3-6.39l0,0c-8.27,12.83-18.13,3.61-13.49-6.91,7.11-16.15,18.13-42.87,50.89-57.93,38.3-17.6,64.74-19.34,95-30.94,31.1-11.9,59.93,19.31,39,42.46-14.77,16.36-47.12,26.43-90.19,40.5-26.31,8.6-36.27,24.48-41.37,35.2C139,163.74,128.37,154.54,131.72,144.74Z" fill="#f5afb3"/><path d="M131.72,144.74c-3.35,9.8,7.23,19,15,2.73,5.1-10.72,15.06-26.6,41.37-35.2,43.07-14.07,75.42-24.14,90.19-40.5,20.88-23.15-7.95-54.36-39-42.46-30.3,11.6-56.74,13.34-95,30.94C111.41,75.31,100.39,102,93.28,118.18c-4.64,10.52,5.22,19.74,13.49,6.91" fill="none" stroke="#333" stroke-linecap="round" stroke-linejoin="round"/><path d="M103.81,131.5c1-2.22,2-4.33,3-6.39a156.92,156.92,0,0,1,11.08-18.83" fill="none" stroke="#333" stroke-linecap="round" stroke-linejoin="round"/><path d="M115.74,140.29a211,211,0,0,1,14.88-27" fill="none" stroke="#333" stroke-linecap="round" stroke-linejoin="round"/><path d="M131.72,144.74c3.49-9.5,7.55-16,11.36-22.34" fill="none" stroke="#333" stroke-linecap="round" stroke-linejoin="round"/><path d="M103.81,131.5c-4.74,11.8,8.06,17.31,11.93,8.79-4.41,10.86,9.26,20.47,16,4.45" fill="none" stroke="#333" stroke-linecap="round" stroke-linejoin="round"/><circle cx="290.07" cy="173.83" r="1.37" fill="#e63741"/><circle cx="214.19" cy="173.86" r="1.37" fill="#e63741"/><circle cx="203.59" cy="183.35" r="1.37" fill="#e63741"/><circle cx="301.43" cy="180" r="1.37" fill="#e63741"/><circle cx="271.46" cy="204.21" r="1.37" fill="#e63741"/><circle cx="197.7" cy="188.9" r="1.37" fill="#e63741"/><circle cx="286.02" cy="182.31" r="1.37" fill="#e63741"/><circle cx="285.07" cy="190.27" r="1.37" fill="#e63741"/><circle cx="210.28" cy="192.28" r="1.37" fill="#e63741"/><circle cx="213.34" cy="187.54" r="1.37" fill="#e63741"/><circle cx="295.19" cy="190.47" r="1.37" fill="#e63741"/><circle cx="293.73" cy="181.62" r="1.37" fill="#e63741"/><circle cx="286.16" cy="176.62" r="1.37" fill="#e63741"/><circle cx="223.96" cy="195.35" r="1.37" fill="#e63741"/><circle cx="215.56" cy="180.25" r="1.37" fill="#e63741"/><circle cx="216.92" cy="195.35" r="1.37" fill="#e63741"/><circle cx="299.47" cy="184.72" r="1.37" fill="#e63741"/><circle cx="308.74" cy="178.03" r="2.12" fill="#e63741"/><circle cx="281" cy="185.55" r="2.12" fill="#e63741"/><circle cx="298.91" cy="173.55" r="2.12" fill="#e63741"/><circle cx="274.94" cy="192.84" r="2.12" fill="#e63741"/><circle cx="280.17" cy="177.99" r="2.12" fill="#e63741"/><circle cx="206.04" cy="174.5" r="2.12" fill="#e63741"/><path d="M201.7,112.68l4,4a9,9,0,0,1,0,12.73l-34,34a9,9,0,0,1-12.73,0l-4-4Zm-13.81,23.85a4.32,4.32,0,0,0-6.11,0l-2.94,2.93a4.33,4.33,0,0,0,6.12,6.12l2.93-2.93a4.32,4.32,0,0,0,0-6.12Z" fill="#333"/><rect x="109.29" y="49.05" width="66.05" height="101.9" transform="translate(-29.03 129.92) rotate(-45)" fill="#81aeff"/><path d="M128.35,39.33l1.29,1.3-46.7,46.7L81.64,86a9,9,0,0,1,0-12.73l34-34A9,9,0,0,1,128.35,39.33ZM109.24,53.41a2.24,2.24,0,0,0-3.16,0L95.72,63.77a2.28,2.28,0,0,0-.66,1.58,2.24,2.24,0,0,0,3.82,1.57l10.36-10.36a2.23,2.23,0,0,0,0-3.15Z" fill="#333"/><path d="M106.08,53.41a2.23,2.23,0,0,1,3.16,3.15L98.88,66.92a2.24,2.24,0,0,1-3.82-1.57,2.28,2.28,0,0,1,.66-1.58Z" fill="#666"/><path d="M181.78,136.53a4.32,4.32,0,1,1,6.11,6.12L185,145.58a4.33,4.33,0,1,1-6.12-6.12Z" fill="#333"/><path d="M82.94,87.33,81.64,86a9,9,0,0,1,0-12.73l34-34a9,9,0,0,1,12.73,0l1.29,1.3" fill="none" stroke="#333" stroke-linecap="round" stroke-linejoin="round"/><path d="M201.7,112.68l4,4a9,9,0,0,1,0,12.73l-34,34a9,9,0,0,1-12.73,0l-4-4" fill="none" stroke="#333" stroke-linecap="round" stroke-linejoin="round"/><rect x="109.29" y="49.05" width="66.05" height="101.9" fill="none" stroke="#333" stroke-linecap="round" stroke-linejoin="round" transform="translate(-29.03 129.92) rotate(-45)"/><path d="M187.89,142.65,185,145.58a4.33,4.33,0,1,1-6.12-6.12l2.94-2.93a4.32,4.32,0,1,1,6.11,6.12Z" fill="none" stroke="#666" stroke-miterlimit="10"/><circle cx="175.8" cy="130.29" r="1.37" fill="#e63741"/><circle cx="136.89" cy="92.87" r="1.37" fill="#e63741"/><circle cx="119.62" cy="98.21" r="1.37" fill="#e63741"/><circle cx="187.16" cy="136.46" r="1.37" fill="#e63741"/><circle cx="164.52" cy="120.28" r="1.37" fill="#e63741"/><circle cx="120.39" cy="107.91" r="1.37" fill="#e63741"/><circle cx="148.61" cy="73.34" r="1.37" fill="#e63741"/><circle cx="148.64" cy="83.69" r="1.37" fill="#e63741"/><circle cx="132.98" cy="111.29" r="1.37" fill="#e63741"/><circle cx="153.35" cy="143.39" r="1.37" fill="#e63741"/><circle cx="180.92" cy="147.93" r="1.37" fill="#e63741"/><circle cx="179.46" cy="138.08" r="1.37" fill="#e63741"/><circle cx="128.24" cy="52.97" r="1.37" fill="#e63741"/><circle cx="146.66" cy="114.36" r="1.37" fill="#e63741"/><circle cx="136.61" cy="100.41" r="1.37" fill="#e63741"/><circle cx="137.41" cy="146.56" r="1.37" fill="#e63741"/><circle cx="185.2" cy="141.18" r="1.37" fill="#e63741"/><circle cx="114.12" cy="128.35" r="2.12" fill="#e63741"/><circle cx="139.12" cy="79.34" r="2.12" fill="#e63741"/><circle cx="184.64" cy="130.01" r="2.12" fill="#e63741"/><circle cx="130.35" cy="73.09" r="2.12" fill="#e63741"/><circle cx="140.63" cy="50.48" r="2.12" fill="#e63741"/><circle cx="92.52" cy="96.93" r="2.12" fill="#e63741"/><circle cx="119.94" cy="83.72" r="1.37" fill="#e63741"/><circle cx="174.56" cy="98.98" r="1.37" fill="#e63741"/><circle cx="173.61" cy="106.94" r="1.37" fill="#e63741"/><circle cx="189.47" cy="113.28" r="2.12" fill="#e63741"/><circle cx="164.24" cy="109.76" r="2.12" fill="#e63741"/><circle cx="169.15" cy="79.79" r="2.12" fill="#e63741"/><circle cx="154.04" cy="125.43" r="1.37" fill="#e63741"/><circle cx="105.73" cy="82.93" r="1.37" fill="#e63741"/><circle cx="97.64" cy="82.69" r="1.37" fill="#e63741"/><circle cx="104.15" cy="93.98" r="1.37" fill="#e63741"/><circle cx="111.65" cy="105.82" r="1.37" fill="#e63741"/><circle cx="134.53" cy="84.94" r="1.37" fill="#e63741"/><circle cx="171.21" cy="134.73" r="1.37" fill="#e63741"/><circle cx="188.82" cy="105.74" r="1.37" fill="#e63741"/><circle cx="142.62" cy="127.66" r="1.37" fill="#e63741"/><circle cx="128.95" cy="132.68" r="1.37" fill="#e63741"/><circle cx="168.85" cy="126.8" r="1.37" fill="#e63741"/><circle cx="102.76" cy="137.44" r="1.37" fill="#e63741"/><circle cx="94.43" cy="116.62" r="1.37" fill="#e63741"/><circle cx="116.9" cy="138.03" r="1.37" fill="#e63741"/><circle cx="108.11" cy="138.85" r="2.12" fill="#e63741"/><circle cx="98.05" cy="122.61" r="2.12" fill="#e63741"/><circle cx="93.35" cy="125.83" r="1.37" fill="#e63741"/><circle cx="123.43" cy="152.83" r="1.37" fill="#e63741"/><circle cx="107.81" cy="116.67" r="1.37" fill="#e63741"/><circle cx="113.73" cy="78.4" r="2.12" fill="#e63741"/></svg>