<svg xmlns="http://www.w3.org/2000/svg" width="465" height="415" viewBox="0 0 465 415"><rect width="465" height="415" fill="#f2f2f2"/><path d="M265.67,227.73h0c2.84,5.94-2.77,7.48-5.59,3.4-4.32-6.27-12.34-22.35-17.12-41.75-.75-3-1.42-5.91-2-8.76h0c-2.48-11.63-3.89-23-5.31-45.7,14.16-5.31,23.92,0,23.89,0l.11,0c3.47,15.62,5.52,31.43,7.74,42,3.49,16.52,12.2,36,15,40.3,4.13,6.41-.79,9.2-3.66,6,4.2,5.12-2.45,8.71-5.41,4.68,2.26,3.35-2.66,6.79-5.92,2.39C266.75,229.41,266.2,228.56,265.67,227.73Z" fill="#f5afb3"/><path d="M186.57,77.7c.68,1,4.78,5.85,16.73,5.85s16-4.9,16.72-5.85l.11-.16A53.87,53.87,0,0,1,250.2,105.2c4.1,8.7,7.08,19.15,9.41,29.69l-.11,0s-9.73-5.31-23.89,0c1.42,22.74,2.83,34.07,5.31,45.7h0v13.59H165.7v-13.6h0c2.49-11.63,3.91-22.95,5.33-45.69-13.27-6.2-23.73,0-23.73,0l-.27-.06c2.33-10.51,5.3-20.93,9.39-29.61a53.87,53.87,0,0,1,30.07-27.66Z" fill="#ccc"/><path d="M165.7,194.21h75.22c0,36.28-5.75,125.06-5.75,125.06a4.46,4.46,0,0,1-2,3.57c-5.22,4-19,4.17-24.21.89a3.63,3.63,0,0,1-2-3l1.15-101.29a4.76,4.76,0,1,0-9.51,0l1.15,101.29a4.18,4.18,0,0,1-2.2,3.3c-5.52,3.74-19.82,4.57-24.53.66a3.84,3.84,0,0,1-1.53-3S165.7,223.41,165.7,194.21Z" fill="#81aeff"/><path d="M233.9,322.87s12.09,10.74,12.09,18-8.88,7.22-19.84,7.22-18.65-4.72-18.65-12a56.33,56.33,0,0,1,1.14-12l.27-.35c5.18,3.28,19,3.07,24.21-.89Z" fill="#333"/><path d="M222.84,39.54c2.88,0,5.21,2.63,5.21,5.86s-2.61,5.87-6.52,5.87l-.44-.17a30.37,30.37,0,0,0,1.55-6.44,26,26,0,0,0,.2-3.16c0-.66,0-1.32-.08-2Z" fill="#f5afb3"/><path d="M222.76,39.55c.05.63.08,1.29.08,2a26,26,0,0,1-.2,3.16h-.1c-3.61,0-2.41-6-6.21-9.62-3.41-3.23-6.52-2.4-13-2.4s-9.63-.83-13,2.4c-3.8,3.61-2.6,9.62-6.21,9.62H184a26,26,0,0,1-.2-3.16c0-.66,0-1.32.08-2,.9-11,9.27-19.55,19.47-19.55S221.86,28.59,222.76,39.55Z" fill="#333"/><path d="M222.54,44.65h.1a30.37,30.37,0,0,1-1.55,6.44,28,28,0,0,1-8.24,12.11,14.22,14.22,0,0,1-19.11,0A28,28,0,0,1,185.5,51.1,30.37,30.37,0,0,1,184,44.66h.1c3.61,0,2.41-6,6.21-9.62,3.41-3.23,6.52-2.4,13-2.4s9.62-.83,13,2.4C220.13,38.64,218.93,44.65,222.54,44.65Zm-7.22,3a3,3,0,1,0-3,3A3,3,0,0,0,215.32,47.66Zm-12,12.46c2.2,0,4-1.19,4-2.65s-1.78-.89-4-.89-4-.58-4,.89S201.09,60.12,203.3,60.12Zm-6-12.46a3,3,0,1,0-3,3A3,3,0,0,0,197.28,47.66Z" fill="#f5afb3"/><path d="M220,77.7c-.68,1-4.78,5.85-16.72,5.85s-16.05-4.9-16.73-5.85c.89-.21,7.1-2.13,7.1-14.41l.07-.08a14.22,14.22,0,0,0,19.11,0l.07.08C212.92,75.57,219.13,77.49,220,77.7Z" fill="#f5afb3"/><path d="M212.32,44.65a3,3,0,1,1-3,3A3,3,0,0,1,212.32,44.65Zm1.78,3.8a1.66,1.66,0,1,0-1.66,1.66A1.65,1.65,0,0,0,214.1,48.45Z" fill="#f2f2f2"/><circle cx="212.44" cy="48.45" r="1.65" fill="#333"/><path d="M207.28,57.47c0,1.46-1.78,2.65-4,2.65s-4-1.19-4-2.65,1.78-.89,4-.89S207.28,56,207.28,57.47Z" fill="#eb5f67"/><path d="M197.82,324.08a50.82,50.82,0,0,1,1.27,12c0,7.31-7.68,12-18.64,12s-19.85.09-19.85-7.22,12-15.63,12-15.63l.4-.58c4.71,3.91,19,3.08,24.53-.66Z" fill="#333"/><path d="M194.28,44.65a3,3,0,1,1-3,3A3,3,0,0,1,194.28,44.65Zm2.05,3.8a1.66,1.66,0,1,0-1.66,1.66A1.65,1.65,0,0,0,196.33,48.45Z" fill="#f2f2f2"/><circle cx="194.67" cy="48.45" r="1.65" fill="#333"/><path d="M185.5,51.1l-.44.17c-3.91,0-6.52-2.63-6.52-5.87s2.33-5.86,5.21-5.86h.08c-.05.63-.08,1.29-.08,2a26,26,0,0,0,.2,3.16A30.37,30.37,0,0,0,185.5,51.1Z" fill="#f5afb3"/><path d="M133.33,227.88c-3,4-9.61.44-5.41-4.68-2.87,3.16-7.79.37-3.66-6,2.78-4.29,11.5-23.78,15-40.3,2.22-10.56,4.28-26.4,7.76-42.05l.27.06s10.46-6.16,23.73,0c-1.42,22.74-2.84,34.06-5.33,45.69-.61,2.85-1.28,5.72-2,8.78-4.78,19.4-12.8,35.48-17.12,41.75-2.82,4.08-8.43,2.54-5.59-3.4h0c-.53.83-1.08,1.68-1.67,2.54C136,234.67,131.07,231.23,133.33,227.88Z" fill="#f5afb3"/><path d="M203.3,66.9a15.17,15.17,0,0,1-9.56-3.69A28,28,0,0,1,185.5,51.1,30.37,30.37,0,0,1,184,44.66a26,26,0,0,1-.2-3.16c0-.66,0-1.32.08-2,.9-11,9.27-19.55,19.47-19.55" fill="none" stroke="#333" stroke-linecap="round" stroke-linejoin="round"/><path d="M185.06,51.27c-3.91,0-6.52-2.63-6.52-5.87s2.33-5.86,5.21-5.86" fill="none" stroke="#333" stroke-linecap="round" stroke-linejoin="round"/><path d="M186.46,77.72l.11,0c.89-.21,7.1-2.13,7.1-14.41" fill="none" stroke="#333" stroke-linecap="round" stroke-linejoin="round"/><line x1="191.27" y1="41.95" x2="195.18" y2="41.65" fill="none" stroke="#333" stroke-linecap="round" stroke-linejoin="round"/><path d="M184.05,44.65c3.61,0,2.41-6,6.21-9.62,3.41-3.23,6.52-2.4,13-2.4" fill="none" stroke="#333" stroke-linecap="round" stroke-linejoin="round"/><path d="M203.3,66.9a15.15,15.15,0,0,0,9.55-3.69,28,28,0,0,0,8.24-12.11,30.37,30.37,0,0,0,1.55-6.44,26,26,0,0,0,.2-3.16c0-.66,0-1.32-.08-2-.9-11-9.27-19.55-19.46-19.55" fill="none" stroke="#333" stroke-linecap="round" stroke-linejoin="round"/><path d="M221.53,51.27c3.91,0,6.52-2.63,6.52-5.87s-2.33-5.86-5.21-5.86" fill="none" stroke="#333" stroke-linecap="round" stroke-linejoin="round"/><path d="M220.13,77.72l-.11,0c-.89-.21-7.1-2.13-7.1-14.41" fill="none" stroke="#333" stroke-linecap="round" stroke-linejoin="round"/><line x1="215.32" y1="41.95" x2="211.41" y2="41.65" fill="none" stroke="#333" stroke-linecap="round" stroke-linejoin="round"/><path d="M222.54,44.65c-3.61,0-2.41-6-6.21-9.62-3.41-3.23-6.52-2.4-13-2.4" fill="none" stroke="#333" stroke-linecap="round" stroke-linejoin="round"/><path d="M165.7,194.21c0,29.2,5.73,127.46,5.73,127.46a3.84,3.84,0,0,0,1.53,3c4.71,3.91,19,3.08,24.53-.66a4.18,4.18,0,0,0,2.2-3.3l-1.15-101.29a4.76,4.76,0,0,1,4.76-4.81" fill="none" stroke="#333" stroke-linecap="round" stroke-linejoin="round"/><path d="M140.93,227.73c-2.84,5.94,2.77,7.48,5.59,3.4,4.32-6.27,12.34-22.35,17.12-41.75.75-3.06,1.42-5.93,2-8.78,2.49-11.63,3.91-22.95,5.33-45.69" fill="none" stroke="#333" stroke-linecap="round" stroke-linejoin="round"/><path d="M127.92,223.2c-2.87,3.16-7.79.37-3.66-6,2.78-4.29,11.5-23.78,15-40.3,2.22-10.56,4.28-26.4,7.76-42.05,2.33-10.51,5.3-20.93,9.39-29.61a53.87,53.87,0,0,1,30.07-27.66l.11.16c.68,1,4.78,5.85,16.73,5.85" fill="none" stroke="#333" stroke-linecap="round" stroke-linejoin="round"/><path d="M139.25,230.27c.59-.86,1.14-1.71,1.67-2.54a67.32,67.32,0,0,0,4.4-8.33" fill="none" stroke="#333" stroke-linecap="round" stroke-linejoin="round"/><path d="M133.33,227.88a91.83,91.83,0,0,0,6.53-11.56" fill="none" stroke="#333" stroke-linecap="round" stroke-linejoin="round"/><path d="M128.08,223a52.34,52.34,0,0,0,5.63-9.22" fill="none" stroke="#333" stroke-linecap="round" stroke-linejoin="round"/><path d="M139.25,230.27c-3.26,4.4-8.18,1-5.92-2.39-3,4-9.61.44-5.41-4.68l.16-.18" fill="none" stroke="#333" stroke-linecap="round" stroke-linejoin="round"/><path d="M240.92,180.61c-2.48-11.63-3.89-23-5.31-45.7" fill="none" stroke="#333" stroke-linecap="round" stroke-linejoin="round"/><path d="M265.66,227.73c2.84,5.94-2.77,7.48-5.59,3.4-4.32-6.27-12.34-22.35-17.12-41.75-.75-3-1.42-5.91-2-8.76" fill="none" stroke="#333" stroke-linecap="round" stroke-linejoin="round"/><path d="M278.67,223.2c2.87,3.16,7.79.37,3.66-6-2.78-4.29-11.49-23.78-15-40.3-2.22-10.54-4.27-26.35-7.74-42-2.33-10.54-5.31-21-9.41-29.69a53.87,53.87,0,0,0-30.07-27.66l-.11.16c-.68,1-4.78,5.85-16.72,5.85" fill="none" stroke="#333" stroke-linecap="round" stroke-linejoin="round"/><path d="M267.34,230.27c-.59-.86-1.14-1.71-1.67-2.54a68.7,68.7,0,0,1-4.4-8.33" fill="none" stroke="#333" stroke-linecap="round" stroke-linejoin="round"/><path d="M273.26,227.88a91.83,91.83,0,0,1-6.53-11.56" fill="none" stroke="#333" stroke-linecap="round" stroke-linejoin="round"/><path d="M278.51,223a52.34,52.34,0,0,1-5.63-9.22" fill="none" stroke="#333" stroke-linecap="round" stroke-linejoin="round"/><path d="M267.34,230.27c3.26,4.4,8.18,1,5.92-2.39,3,4,9.61.44,5.41-4.68l-.16-.18" fill="none" stroke="#333" stroke-linecap="round" stroke-linejoin="round"/><path d="M171,134.91c-13.27-6.2-23.73,0-23.73,0" fill="none" stroke="#333" stroke-linecap="round" stroke-linejoin="round"/><path d="M240.92,194.21c0,36.28-5.75,125.06-5.75,125.06a4.46,4.46,0,0,1-2,3.57c-5.22,4-19,4.17-24.21.89a3.63,3.63,0,0,1-2-3l1.15-101.29a4.75,4.75,0,0,0-4.75-4.81" fill="none" stroke="#333" stroke-linecap="round" stroke-linejoin="round"/><path d="M259.5,134.91s-9.73-5.31-23.89,0" fill="none" stroke="#333" stroke-linecap="round" stroke-linejoin="round"/><polyline points="240.92 180.61 240.92 180.62 240.92 194.21 165.69 194.21 165.69 180.61" fill="none" stroke="#333" stroke-linecap="round" stroke-linejoin="round"/><path d="M197.82,324.08a50.82,50.82,0,0,1,1.27,12c0,7.31-7.68,12-18.64,12s-19.85.09-19.85-7.22,12-15.63,12-15.63" fill="none" stroke="#333" stroke-linecap="round" stroke-linejoin="round"/><path d="M208.64,324.08a56.33,56.33,0,0,0-1.14,12c0,7.31,7.68,12,18.65,12s19.84.09,19.84-7.22-12.09-18-12.09-18" fill="none" stroke="#333" stroke-linecap="round" stroke-linejoin="round"/><path d="M207.28,57.47c0,1.46-1.78,2.65-4,2.65s-4-1.19-4-2.65,1.78-.89,4-.89S207.28,56,207.28,57.47Z" fill="none" stroke="#333" stroke-linecap="round" stroke-linejoin="round"/><circle cx="160.65" cy="107.08" r="1.37" fill="#e63741"/><circle cx="108.95" cy="100.72" r="1.37" fill="#e63741"/><circle cx="106.21" cy="211.95" r="1.37" fill="#e63741"/><circle cx="236.15" cy="122.48" r="1.37" fill="#e63741"/><circle cx="312.04" cy="138.69" r="1.37" fill="#e63741"/><circle cx="326.41" cy="167.84" r="1.37" fill="#e63741"/><circle cx="264.4" cy="295.75" r="1.37" fill="#e63741"/><circle cx="100.15" cy="137.32" r="1.37" fill="#e63741"/><circle cx="64.57" cy="138.69" r="1.37" fill="#e63741"/><circle cx="129.4" cy="265.01" r="1.37" fill="#e63741"/><circle cx="201.41" cy="83.85" r="1.37" fill="#e63741"/><circle cx="230.82" cy="99.35" r="1.37" fill="#e63741"/><circle cx="197.95" cy="75.39" r="1.37" fill="#e63741"/><circle cx="220.74" cy="124.79" r="1.37" fill="#e63741"/><circle cx="215.15" cy="85.22" r="1.37" fill="#e63741"/><circle cx="164.08" cy="153.32" r="1.37" fill="#e63741"/><circle cx="161.29" cy="179.95" r="1.37" fill="#e63741"/><circle cx="130.76" cy="133.44" r="1.37" fill="#e63741"/><circle cx="154.78" cy="279.91" r="1.37" fill="#e63741"/><circle cx="205.33" cy="111.7" r="1.37" fill="#e63741"/><circle cx="177.3" cy="121.12" r="1.37" fill="#e63741"/><circle cx="208.96" cy="70.56" r="1.37" fill="#e63741"/><circle cx="186.6" cy="138.69" r="1.37" fill="#e63741"/><circle cx="173.78" cy="124.79" r="1.37" fill="#e63741"/><circle cx="145.12" cy="173.34" r="1.37" fill="#e63741"/><circle cx="139.99" cy="210.59" r="1.37" fill="#e63741"/><circle cx="184.52" cy="198.63" r="1.37" fill="#e63741"/><circle cx="317.28" cy="123.85" r="1.37" fill="#e63741"/><circle cx="300.8" cy="100.72" r="1.37" fill="#e63741"/><circle cx="180.65" cy="242.97" r="1.37" fill="#e63741"/><circle cx="206.87" cy="155.61" r="1.37" fill="#e63741"/><circle cx="287.11" cy="125.22" r="1.37" fill="#e63741"/><circle cx="177.64" cy="292.27" r="2.12" fill="#e63741"/><circle cx="181.88" cy="317.82" r="2.12" fill="#e63741"/><circle cx="317.19" cy="330.72" r="2.12" fill="#e63741"/><circle cx="111.28" cy="353.85" r="2.12" fill="#e63741"/><circle cx="72.14" cy="349.61" r="2.12" fill="#e63741"/><circle cx="322.28" cy="358.08" r="2.12" fill="#e63741"/><circle cx="312.96" cy="381.94" r="2.12" fill="#e63741"/><circle cx="152.66" cy="314.14" r="2.12" fill="#e63741"/><circle cx="261" cy="371.6" r="2.12" fill="#e63741"/><circle cx="154.78" cy="369.92" r="2.12" fill="#e63741"/><circle cx="150.55" cy="332.84" r="2.12" fill="#e63741"/><circle cx="355.06" cy="367.8" r="2.12" fill="#e63741"/><circle cx="264.4" cy="330.72" r="2.12" fill="#e63741"/><circle cx="309.34" cy="351.73" r="2.12" fill="#e63741"/><circle cx="202.12" cy="345.45" r="2.12" fill="#e63741"/><circle cx="209.54" cy="372.03" r="2.12" fill="#e63741"/><circle cx="90.84" cy="320.55" r="2.12" fill="#e63741"/><path d="M190,87.88c-3.48-7.4-8.6.77-8.6.77,1.09-10.37-9.37-7.81-9.37-7.81,11.75-3.52,4.37-12.41,4.37-12.41" fill="none" stroke="#e63741" stroke-linecap="round" stroke-linejoin="round"/><path d="M227.59,75.26c-6.83,7.9,3.23,11.77,3.23,11.77-11.66-3.83-10.68,7.69-10.68,7.69-1.44-5.41-8.52-9.78-11.78-2" fill="none" stroke="#e63741" stroke-linecap="round" stroke-linejoin="round"/><path d="M308.46,273.5c-.41,1.19-.85,2.36-1.32,3.49h0c-2.43,4.08-6.36,2.31-6.36-.23h-.55c.36-9.17.59-16,.59-18.37,0-5.95-.06-11.79-.17-17.43-.6-32.36-2.62-58-2.62-58,10.62-5.57,21.48-.28,21.48-.28,2.35,13.17,3.46,29.38,2.81,50-.79,25-5.13,36.76-8,43.67-1.89,4.5-7.25,3.49-5.73-2.8Z" fill="#cfa19d"/><path d="M310.46,153.35a114.09,114.09,0,0,1,9,29.31s-10.86-5.29-21.48.28c0,0,2,25.65,2.62,58H228c.6-32.36,2.62-58,2.62-58-10.63-5.57-21.48-.28-21.48-.28h0a114.48,114.48,0,0,1,9-29.31C225.9,137,238,130,244.07,127.44a19,19,0,0,1-2.26,6.85,57.56,57.56,0,0,0,22.49,4.27c13.41,0,22.49-4.27,22.49-4.27a19.15,19.15,0,0,1-2.26-6.84C290.56,130,302.71,137,310.46,153.35Z" fill="#5793ff"/><path d="M295.14,370s11.77,8.19,11.77,15.38-8.74,7.1-19.53,7.1S269,387.8,269,380.61a50.11,50.11,0,0,1,1.25-11.84l.13-.18c5.06,3.64,18.48,4.61,23.72,1.24Z" fill="#333"/><path d="M300.63,241c.11,5.64.17,11.48.17,17.43,0,2.36-.23,9.2-.59,18.37C299,308,296.26,366.4,296.26,366.4a4,4,0,0,1-2.12,3.43c-5.24,3.37-18.66,2.4-23.72-1.24a4,4,0,0,1-2-3.1l1.14-99.69a4.69,4.69,0,0,0-4.69-4.74h-1.18A4.69,4.69,0,0,0,259,265.8l1.13,99.69a3.94,3.94,0,0,1-2,3.1c-5.27,3.8-19.64,4.69-24.34.79a3.78,3.78,0,0,1-1.51-3s-2.71-58.37-3.94-89.65c-.36-9.17-.59-16-.59-18.37,0-5.95.06-11.79.17-17.43h72.65Z" fill="#eb5f67"/><path d="M283.54,88.55c2.83,0,5.13,2.59,5.13,5.77a5.76,5.76,0,0,1-5.13,5.67V90.47c0-.64,0-1.29-.08-1.92Z" fill="#cfa19d"/><path d="M245.07,100V90.47c0-.64,0-1.29.08-1.92.88-10.78,9.11-19.23,19.15-19.23s18.28,8.45,19.16,19.23c.05.63.08,1.28.08,1.92v9.62s-.92,16.75,1,27.36a19.15,19.15,0,0,0,2.26,6.84s-9.08,4.27-22.49,4.27a57.56,57.56,0,0,1-22.49-4.27,19,19,0,0,0,2.26-6.85c1.91-10.61,1-27.35,1-27.35Z" fill="#333"/><path d="M258.32,368.77a50.11,50.11,0,0,1,1.25,11.84c0,7.19-7.56,11.83-18.35,11.83s-19.53.09-19.53-7.1S233.47,370,233.47,370l.38-.58c4.7,3.9,19.07,3,24.34-.79Z" fill="#333"/><path d="M245.07,88.55h.08c-.06.63-.08,1.28-.08,1.92V100a5.76,5.76,0,0,1-5.13-5.67C239.94,91.14,242.24,88.55,245.07,88.55Z" fill="#cfa19d"/><path d="M220.15,273.5l-.1,0c1.52,6.29-3.85,7.3-5.73,2.8-2.88-6.91-7.22-18.65-8-43.67-.65-20.62.47-36.83,2.81-50h0s10.85-5.29,21.48.28c0,0-2,25.65-2.62,58-.11,5.64-.17,11.48-.17,17.43,0,2.36.23,9.2.59,18.37h-.55c0,2.54-3.92,4.31-6.36.23h0C221,275.86,220.56,274.69,220.15,273.5Z" fill="#cfa19d"/><path d="M246.35,100.09a8.85,8.85,0,0,1-1.28-.1,5.76,5.76,0,0,1-5.13-5.67c0-3.18,2.3-5.77,5.13-5.77" fill="none" stroke="#333" stroke-linecap="round" stroke-linejoin="round"/><path d="M264.3,69.32c-10,0-18.27,8.45-19.15,19.23-.06.63-.08,1.28-.08,1.92v9.62s.91,16.74-1,27.35a19,19,0,0,1-2.26,6.85,57.56,57.56,0,0,0,22.49,4.27" fill="none" stroke="#333" stroke-linecap="round" stroke-linejoin="round"/><path d="M282.26,100.09a8.85,8.85,0,0,0,1.28-.1,5.76,5.76,0,0,0,5.13-5.67c0-3.18-2.3-5.77-5.13-5.77" fill="none" stroke="#333" stroke-linecap="round" stroke-linejoin="round"/><path d="M264.3,69.32c10,0,18.28,8.45,19.16,19.23.05.63.08,1.28.08,1.92v9.62s-.92,16.75,1,27.36a19.15,19.15,0,0,0,2.26,6.84s-9.08,4.27-22.49,4.27" fill="none" stroke="#333" stroke-linecap="round" stroke-linejoin="round"/><path d="M220.05,273.53c1.52,6.29-3.85,7.3-5.73,2.8-2.88-6.91-7.22-18.65-8-43.67-.65-20.62.47-36.83,2.81-50a114.48,114.48,0,0,1,9-29.31C225.9,137,238,130,244.07,127.44" fill="none" stroke="#333" stroke-linecap="round" stroke-linejoin="round"/><path d="M230.6,182.94s-2,25.65-2.62,58c-.11,5.64-.17,11.48-.17,17.43,0,2.36.23,9.2.59,18.37,1.23,31.28,3.94,89.65,3.94,89.65a3.78,3.78,0,0,0,1.51,3c4.7,3.9,19.07,3,24.34-.79a3.94,3.94,0,0,0,2-3.1L259,265.8a4.69,4.69,0,0,1,4.68-4.74h.59" fill="none" stroke="#333" stroke-linecap="round" stroke-linejoin="round"/><path d="M221.51,277.11s0-.08,0-.12c-.47-1.13-.91-2.3-1.32-3.49a76.58,76.58,0,0,1-2.51-8.89" fill="none" stroke="#333" stroke-linecap="round" stroke-linejoin="round"/><path d="M227.69,275.88a89.07,89.07,0,0,1-3.95-12.45" fill="none" stroke="#333" stroke-linecap="round" stroke-linejoin="round"/><path d="M221.49,277c2.44,4.08,6.36,2.31,6.36-.23a2.78,2.78,0,0,0-.16-.88" fill="none" stroke="#333" stroke-linecap="round" stroke-linejoin="round"/><path d="M209.12,182.66s10.85-5.29,21.48.28" fill="none" stroke="#333" stroke-linecap="round" stroke-linejoin="round"/><path d="M258.32,368.77a50.11,50.11,0,0,1,1.25,11.84c0,7.19-7.56,11.83-18.35,11.83s-19.53.09-19.53-7.1S233.47,370,233.47,370" fill="none" stroke="#333" stroke-linecap="round" stroke-linejoin="round"/><polyline points="264.21 240.94 227.98 240.95 227.81 240.95" fill="none" stroke="#333" stroke-linecap="round" stroke-linejoin="round"/><path d="M308.56,273.53c-1.52,6.29,3.84,7.3,5.73,2.8,2.88-6.91,7.22-18.65,8-43.67.65-20.62-.46-36.83-2.81-50a114.09,114.09,0,0,0-9-29.31c-7.75-16.37-19.9-23.33-25.93-25.9a26.36,26.36,0,0,0-3.66-1.32" fill="none" stroke="#333" stroke-linecap="round" stroke-linejoin="round"/><path d="M298,182.94s2,25.65,2.62,58c.11,5.64.17,11.48.17,17.43,0,2.36-.23,9.2-.59,18.37C299,308,296.26,366.4,296.26,366.4a4,4,0,0,1-2.12,3.43c-5.24,3.37-18.66,2.4-23.72-1.24a4,4,0,0,1-2-3.1l1.14-99.69a4.69,4.69,0,0,0-4.69-4.74h-.59" fill="none" stroke="#333" stroke-linecap="round" stroke-linejoin="round"/><path d="M307.1,277.11s0-.08,0-.12c.47-1.13.91-2.3,1.32-3.49a76.58,76.58,0,0,0,2.51-8.89" fill="none" stroke="#333" stroke-linecap="round" stroke-linejoin="round"/><path d="M300.92,275.88a89.07,89.07,0,0,0,3.95-12.45" fill="none" stroke="#333" stroke-linecap="round" stroke-linejoin="round"/><path d="M307.12,277c-2.43,4.08-6.36,2.31-6.36-.23a2.83,2.83,0,0,1,.16-.88" fill="none" stroke="#333" stroke-linecap="round" stroke-linejoin="round"/><path d="M319.49,182.66s-10.86-5.29-21.48.28" fill="none" stroke="#333" stroke-linecap="round" stroke-linejoin="round"/><path d="M270.29,368.77A50.11,50.11,0,0,0,269,380.61c0,7.19,7.56,11.83,18.34,11.83s19.53.09,19.53-7.1S295.14,370,295.14,370" fill="none" stroke="#333" stroke-linecap="round" stroke-linejoin="round"/><polyline points="264.21 240.94 264.39 240.94 300.63 240.95 300.8 240.95" fill="none" stroke="#333" stroke-linecap="round" stroke-linejoin="round"/></svg>