<svg xmlns="http://www.w3.org/2000/svg" viewBox="0 0 465 271"><rect width="465" height="271" fill="#e5e5e5"/><path d="M109.37,27.38h-1V32h-2.3V20.64h2.3v4.55h.77l2-4.55h2.79l-2.78,5.3,3.1,6.08h-2.74Z" fill="#333"/><path d="M119,32a3.18,3.18,0,0,1-.18-.66,1.91,1.91,0,0,1-1.61.81,2.36,2.36,0,0,1-1.76-.7,2.46,2.46,0,0,1-.7-1.82,2.58,2.58,0,0,1,.84-2.06,3.75,3.75,0,0,1,2.45-.74h.67v-.68a1.24,1.24,0,0,0-.2-.8.69.69,0,0,0-.57-.24c-.55,0-.83.33-.83,1h-2.21a2.46,2.46,0,0,1,.88-1.93,3.27,3.27,0,0,1,2.22-.76,3,3,0,0,1,2.16.72,2.74,2.74,0,0,1,.76,2.07v4a4.11,4.11,0,0,0,.31,1.71V32Zm-1.3-1.58a1.21,1.21,0,0,0,.62-.15,1.12,1.12,0,0,0,.39-.35V28.18h-.53a1.14,1.14,0,0,0-.89.36,1.36,1.36,0,0,0-.32,1C117,30.13,117.19,30.44,117.68,30.44Z" fill="#333"/><path d="M129.61,28.89h-.76V32h-2.2V28.89h-.75L124.78,32h-2.65l2.07-4.56-2.12-3.9h2.73L126,26.71h.63V23.56h2.2v3.15h.63l1.22-3.15h2.74l-2.1,3.85L133.43,32h-2.71Z" fill="#333"/><path d="M134.72,30.18a4.32,4.32,0,0,0,.78-1.26,5.57,5.57,0,0,0,.27-1.77l.07-3.59h5.5v6.62h1.12v4.38h-2.21V32h-3.9v2.54h-2.26V30.18Zm2.45,0h2V25.45H138v.83A8.29,8.29,0,0,1,137.17,30.18Z" fill="#333"/><path d="M145.94,26h1.13a3.29,3.29,0,0,1,2.35.82,2.91,2.91,0,0,1,.85,2.2,2.8,2.8,0,0,1-.86,2.16,3.31,3.31,0,0,1-2.35.82h-3.33V23.56h2.21Zm0,1.84V30.2h1.15a.9.9,0,0,0,.72-.31,1.26,1.26,0,0,0,.26-.84c0-.79-.35-1.19-1-1.19ZM153.45,32h-2.22V23.56h2.22Z" fill="#333"/><path d="M159.48,23.56h2.21V32h-2.21v-5.2l-2,5.2H155.3V23.56h2.22v5.19Zm1.78-3.43a2.11,2.11,0,0,1-.75,1.68,2.94,2.94,0,0,1-2,.64,3,3,0,0,1-2-.64,2.13,2.13,0,0,1-.74-1.68h1.62a1,1,0,0,0,.29.75,1.13,1.13,0,0,0,.81.27,1.1,1.1,0,0,0,.79-.27,1,1,0,0,0,.29-.75Z" fill="#333"/><path d="M170.58,26.06c0-.62-.24-.93-.71-.93a.81.81,0,0,0-.6.23.88.88,0,0,0-.22.64h-2.21a2.37,2.37,0,0,1,.82-1.87,3,3,0,0,1,2.1-.72,3.47,3.47,0,0,1,2.22.65,2.21,2.21,0,0,1,.8,1.82,2,2,0,0,1-.29,1,2,2,0,0,1-.8.75,2,2,0,0,1,1.22,2,2.28,2.28,0,0,1-.86,1.85,3.58,3.58,0,0,1-2.3.69,3.24,3.24,0,0,1-2.18-.72,2.42,2.42,0,0,1-.84-1.93H169a.91.91,0,0,0,.25.69.88.88,0,0,0,.67.25.73.73,0,0,0,.62-.27,1.16,1.16,0,0,0,.21-.74c0-.66-.25-1-.77-1h-1.1V27h1C170.34,27,170.58,26.66,170.58,26.06Z" fill="#333"/><path d="M178.24,32a3.78,3.78,0,0,1-.19-.66,1.88,1.88,0,0,1-1.6.81,2.4,2.4,0,0,1-1.77-.7,2.5,2.5,0,0,1-.7-1.82,2.59,2.59,0,0,1,.85-2.06,3.74,3.74,0,0,1,2.44-.74H178v-.68a1.24,1.24,0,0,0-.2-.8.69.69,0,0,0-.57-.24c-.55,0-.83.33-.83,1h-2.21a2.43,2.43,0,0,1,.88-1.93,3.27,3.27,0,0,1,2.22-.76,3,3,0,0,1,2.15.72,2.71,2.71,0,0,1,.77,2.07v4a4.11,4.11,0,0,0,.31,1.71V32Zm-1.3-1.58a1.19,1.19,0,0,0,1-.5V28.18h-.54a1.12,1.12,0,0,0-.88.36,1.37,1.37,0,0,0-.33,1C176.2,30.13,176.45,30.44,176.94,30.44Z" fill="#333"/><path d="M188.34,28.06a5.63,5.63,0,0,1-.68,3.05,2.26,2.26,0,0,1-2,1.06,2,2,0,0,1-1.65-.83v3.93h-2.21V23.56h2l.08.78a2,2,0,0,1,1.73-.93,2.31,2.31,0,0,1,2,1,5.38,5.38,0,0,1,.7,3Zm-2.2-.56a4,4,0,0,0-.27-1.73.94.94,0,0,0-.91-.51,1.05,1.05,0,0,0-1,.57v4a1.06,1.06,0,0,0,1,.55.93.93,0,0,0,.91-.56,4.36,4.36,0,0,0,.25-1.72Z" fill="#333"/><path d="M193.7,32a2.57,2.57,0,0,1-.19-.66,1.89,1.89,0,0,1-1.61.81,2.36,2.36,0,0,1-1.76-.7,2.46,2.46,0,0,1-.7-1.82,2.58,2.58,0,0,1,.84-2.06,3.75,3.75,0,0,1,2.45-.74h.67v-.68a1.24,1.24,0,0,0-.2-.8.69.69,0,0,0-.57-.24c-.55,0-.83.33-.83,1h-2.21a2.46,2.46,0,0,1,.88-1.93,3.28,3.28,0,0,1,2.23-.76,3,3,0,0,1,2.15.72,2.7,2.7,0,0,1,.76,2.07v4a4.11,4.11,0,0,0,.31,1.71V32Zm-1.31-1.58a1.25,1.25,0,0,0,.63-.15,1.18,1.18,0,0,0,.38-.35V28.18h-.53a1.14,1.14,0,0,0-.89.36,1.36,1.36,0,0,0-.32,1C191.66,30.13,191.9,30.44,192.39,30.44Z" fill="#333"/><path d="M204.32,28.89h-.76V32h-2.2V28.89h-.75L199.49,32h-2.65l2.07-4.56-2.12-3.9h2.73l1.21,3.15h.63V23.56h2.2v3.15h.63l1.22-3.15h2.74l-2.1,3.85L208.14,32h-2.71Z" fill="#333"/><path d="M212.67,32.17a3.47,3.47,0,0,1-2.65-1,4.09,4.09,0,0,1-1-2.91v-.67a4.8,4.8,0,0,1,.88-3.09,3,3,0,0,1,2.51-1.08,2.85,2.85,0,0,1,2.39,1,4.8,4.8,0,0,1,.82,3v1.08h-4.39a2.26,2.26,0,0,0,.41,1.38,1.39,1.39,0,0,0,1.13.44,2.5,2.5,0,0,0,1.85-.76l.87,1.33a2.87,2.87,0,0,1-1.18.92A4,4,0,0,1,212.67,32.17ZM211.28,27h2.21v-.21a2.34,2.34,0,0,0-.25-1.15.86.86,0,0,0-.81-.39.91.91,0,0,0-.84.42A2.87,2.87,0,0,0,211.28,27Z" fill="#333"/><path d="M223.28,32h-2.21V28.77h-1.95V32h-2.21V23.56h2.21V27h1.95V23.56h2.21Z" fill="#333"/><path d="M231.27,32h-2.22V28.77h-1.94V32h-2.22V23.56h2.22V27h1.94V23.56h2.22Z" fill="#333"/><path d="M235.23,26h1.14a3.27,3.27,0,0,1,2.34.82,2.91,2.91,0,0,1,.86,2.2,2.84,2.84,0,0,1-.86,2.16,3.31,3.31,0,0,1-2.35.82H233V23.56h2.21Zm0,1.84V30.2h1.16a.9.9,0,0,0,.72-.31,1.26,1.26,0,0,0,.26-.84c0-.79-.35-1.19-1-1.19ZM242.74,32h-2.21V23.56h2.21Z" fill="#333"/><path d="M248.78,23.56H251V32h-2.2v-5.2l-2,5.2h-2.22V23.56h2.22v5.19Zm1.77-3.43a2.1,2.1,0,0,1-.74,1.68,3.35,3.35,0,0,1-3.94,0,2.11,2.11,0,0,1-.75-1.68h1.62a1,1,0,0,0,.29.75,1.17,1.17,0,0,0,.81.27,1.12,1.12,0,0,0,.8-.27,1,1,0,0,0,.29-.75Z" fill="#333"/><path d="M259.22,28.91h-.58V32h-2.2V23.56h2.2v3.18h.55l1.28-3.18h2.77L261,27.46,263.41,32h-2.93Z" fill="#333"/><path d="M264.09,27.52a4.63,4.63,0,0,1,.9-3,3.45,3.45,0,0,1,5,0,4.59,4.59,0,0,1,.91,3v.54a4.61,4.61,0,0,1-.9,3,3.47,3.47,0,0,1-5,0,4.59,4.59,0,0,1-.9-3Zm2.21.55c0,1.51.41,2.27,1.22,2.27s1.14-.63,1.2-1.89v-.93a3.62,3.62,0,0,0-.32-1.72,1,1,0,0,0-.91-.56,1,1,0,0,0-.88.56,3.62,3.62,0,0,0-.32,1.72Z" fill="#333"/><path d="M278.89,28.06a5.72,5.72,0,0,1-.68,3.05,2.27,2.27,0,0,1-2,1.06,2,2,0,0,1-1.65-.83v3.93H272.3V23.56h2.05l.08.78a2,2,0,0,1,1.73-.93,2.31,2.31,0,0,1,2,1,5.38,5.38,0,0,1,.7,3Zm-2.2-.56a4,4,0,0,0-.27-1.73,1,1,0,0,0-.91-.51,1,1,0,0,0-1,.57v4a1,1,0,0,0,1,.55.92.92,0,0,0,.91-.56,4.32,4.32,0,0,0,.26-1.72Z" fill="#333"/><path d="M280,27.52a4.63,4.63,0,0,1,.9-3,3.46,3.46,0,0,1,5,0,4.64,4.64,0,0,1,.9,3v.54a4.61,4.61,0,0,1-.9,3,3.47,3.47,0,0,1-5,0,4.59,4.59,0,0,1-.9-3Zm2.22.55c0,1.51.4,2.27,1.21,2.27s1.14-.63,1.2-1.89v-.93a3.62,3.62,0,0,0-.32-1.72,1,1,0,0,0-.91-.56,1,1,0,0,0-.88.56,3.64,3.64,0,0,0-.31,1.72Z" fill="#333"/><path d="M294.55,32h-2.21V28.77H290.4V32h-2.22V23.56h2.22V27h1.94V23.56h2.21Z" fill="#333"/><path d="M300.19,32a2.57,2.57,0,0,1-.19-.66,1.89,1.89,0,0,1-1.61.81,2.36,2.36,0,0,1-1.76-.7,2.46,2.46,0,0,1-.7-1.82,2.56,2.56,0,0,1,.85-2.06,3.72,3.72,0,0,1,2.44-.74h.67v-.68a1.25,1.25,0,0,0-.19-.8.73.73,0,0,0-.58-.24c-.55,0-.82.33-.82,1h-2.21a2.46,2.46,0,0,1,.87-1.93,3.28,3.28,0,0,1,2.23-.76,3,3,0,0,1,2.15.72,2.7,2.7,0,0,1,.76,2.07v4a4.28,4.28,0,0,0,.31,1.71V32Zm-1.31-1.58a1.22,1.22,0,0,0,.63-.15,1.08,1.08,0,0,0,.38-.35V28.18h-.53a1.14,1.14,0,0,0-.89.36,1.41,1.41,0,0,0-.32,1C298.15,30.13,298.39,30.44,298.88,30.44Z" fill="#333"/><path d="M303.84,32V23.56h3.07a3.7,3.7,0,0,1,2.27.61,2.08,2.08,0,0,1,.8,1.75,1.78,1.78,0,0,1-.34,1,2.2,2.2,0,0,1-1,.72,2.26,2.26,0,0,1,1.24.66,1.76,1.76,0,0,1,.46,1.25c0,1.61-1,2.42-3,2.42Zm2.21-5h.9a.82.82,0,0,0,.62-.19.75.75,0,0,0,.19-.56c0-.55-.26-.84-.77-.86h-.94Zm0,1.53V30.2h1.32A.75.75,0,0,0,308,30a1,1,0,0,0,.17-.62.91.91,0,0,0-.19-.66.74.74,0,0,0-.54-.19Z" fill="#333"/><path d="M315.84,23.56h2.21V32h-2.21v-5.2l-2,5.2h-2.21V23.56h2.21v5.19Z" fill="#333"/><path d="M326.24,28.06a5.72,5.72,0,0,1-.68,3.05,2.27,2.27,0,0,1-2,1.06,2,2,0,0,1-1.65-.83v3.93h-2.21V23.56h2l.08.78a2,2,0,0,1,1.73-.93,2.31,2.31,0,0,1,2,1,5.38,5.38,0,0,1,.7,3ZM324,27.5a4,4,0,0,0-.27-1.73.94.94,0,0,0-.91-.51,1.05,1.05,0,0,0-1,.57v4a1,1,0,0,0,1,.55.91.91,0,0,0,.91-.56,4.32,4.32,0,0,0,.26-1.72Z" fill="#333"/><path d="M330.29,28.34l1.12-4.78h2.36L331,33.28c-.41,1.43-1.2,2.15-2.35,2.15a3.25,3.25,0,0,1-.91-.15V33.56H328a1.23,1.23,0,0,0,.78-.2,1.2,1.2,0,0,0,.39-.69l.18-.57-2.44-8.54h2.37Z" fill="#333"/><path d="M337.77,30.34c.64,0,1-.42,1-1.25h2.08a3.13,3.13,0,0,1-.85,2.23,2.89,2.89,0,0,1-2.16.85,3.09,3.09,0,0,1-2.49-1,4.57,4.57,0,0,1-.88-3v-.67a4.77,4.77,0,0,1,.85-3,3.05,3.05,0,0,1,2.5-1,2.89,2.89,0,0,1,2.21.86,3.55,3.55,0,0,1,.82,2.45h-2.08a2.27,2.27,0,0,0-.23-1.09.82.82,0,0,0-.75-.39.89.89,0,0,0-.83.41,3.47,3.47,0,0,0-.27,1.59v.86a7.46,7.46,0,0,0,.1,1.44,1.09,1.09,0,0,0,.34.61A1.08,1.08,0,0,0,337.77,30.34Z" fill="#333"/><path d="M341.82,27.52a4.57,4.57,0,0,1,.91-3,3.06,3.06,0,0,1,2.5-1.09,3.11,3.11,0,0,1,2.53,1.09,4.64,4.64,0,0,1,.9,3v.54a4.66,4.66,0,0,1-.89,3,3.48,3.48,0,0,1-5,0,4.59,4.59,0,0,1-.9-3Zm2.22.55c0,1.51.4,2.27,1.21,2.27s1.15-.63,1.2-1.89v-.93a3.62,3.62,0,0,0-.32-1.72,1,1,0,0,0-.91-.56,1,1,0,0,0-.87.56,3.5,3.5,0,0,0-.32,1.72Z" fill="#333"/><path d="M354.47,29.33l1.58-5.77h2.78V32h-2.21V27.49L355.21,32h-1.48l-1.35-4.38V32h-2.2V23.56h2.73Z" fill="#333"/><path d="M97.1,51.22H94.88V48.61a4,4,0,0,1-.76.08,3.48,3.48,0,0,1-2.53-.84,3.19,3.19,0,0,1-.85-2.41V42.76H93v2.69a1.77,1.77,0,0,0,.25,1.09,1.11,1.11,0,0,0,.91.31,3.63,3.63,0,0,0,.76-.09v-4H97.1Z" fill="#333"/><path d="M102.11,51.37a3.48,3.48,0,0,1-2.66-1,4.08,4.08,0,0,1-1-2.91v-.67a4.86,4.86,0,0,1,.87-3.09,3,3,0,0,1,2.51-1.08,2.88,2.88,0,0,1,2.4,1,4.87,4.87,0,0,1,.82,3v1.08h-4.4a2.33,2.33,0,0,0,.41,1.38,1.43,1.43,0,0,0,1.14.44,2.51,2.51,0,0,0,1.85-.76l.86,1.34a2.93,2.93,0,0,1-1.18.91A4,4,0,0,1,102.11,51.37Zm-1.4-5.18h2.22V46a2.45,2.45,0,0,0-.25-1.15.88.88,0,0,0-.82-.39.93.93,0,0,0-.84.42A3,3,0,0,0,100.71,46.19Z" fill="#333"/><path d="M112.74,42.76v8.46h-2.21V44.61h-1.32l-.12,2.61a6.49,6.49,0,0,1-.73,3,2.05,2.05,0,0,1-1.81,1h-.72l0-1.85.25,0c.3,0,.51-.26.65-.65a6.73,6.73,0,0,0,.28-1.92l.15-4Z" fill="#333"/><path d="M114.09,46.72a4.57,4.57,0,0,1,.91-3,3.06,3.06,0,0,1,2.5-1.09A3.11,3.11,0,0,1,120,43.7a4.64,4.64,0,0,1,.9,3v.54a4.61,4.61,0,0,1-.9,3,3.07,3.07,0,0,1-2.51,1.08A3.1,3.1,0,0,1,115,50.28a4.59,4.59,0,0,1-.9-3Zm2.22.55c0,1.51.4,2.27,1.21,2.27s1.15-.63,1.2-1.89v-.93a3.62,3.62,0,0,0-.32-1.72,1,1,0,0,0-.91-.56,1,1,0,0,0-.88.56,3.64,3.64,0,0,0-.31,1.72Z" fill="#333"/><path d="M122.45,51.22V42.76h3.07a3.72,3.72,0,0,1,2.27.61,2.07,2.07,0,0,1,.79,1.75,1.71,1.71,0,0,1-.34,1.05,2.1,2.1,0,0,1-1,.72,2.26,2.26,0,0,1,1.25.66A1.8,1.8,0,0,1,129,48.8c0,1.61-1,2.42-3,2.42Zm2.2-5h.9a.83.83,0,0,0,.63-.19.79.79,0,0,0,.18-.56c0-.55-.25-.84-.76-.86h-.95Zm0,1.53V49.4H126a.73.73,0,0,0,.6-.21,1.2,1.2,0,0,0,0-1.28.77.77,0,0,0-.54-.19Z" fill="#333"/><path d="M133.68,51.37a3.47,3.47,0,0,1-2.65-1,4.09,4.09,0,0,1-1-2.91v-.67a4.86,4.86,0,0,1,.88-3.09,3,3,0,0,1,2.51-1.08,2.88,2.88,0,0,1,2.4,1,4.87,4.87,0,0,1,.82,3v1.08h-4.4a2.33,2.33,0,0,0,.41,1.38,1.4,1.4,0,0,0,1.13.44,2.53,2.53,0,0,0,1.86-.76l.86,1.34a2.93,2.93,0,0,1-1.18.91A4,4,0,0,1,133.68,51.37Zm-1.39-5.18h2.21V46a2.34,2.34,0,0,0-.25-1.15.85.85,0,0,0-.81-.39.93.93,0,0,0-.84.42A2.87,2.87,0,0,0,132.29,46.19Z" fill="#333"/><path d="M140.86,48.12h-.58v3.1h-2.2V42.76h2.2v3.18h.55l1.28-3.18h2.78l-2.23,3.9,2.4,4.56h-2.93Z" fill="#333"/><path d="M152.73,49.54c.64,0,1-.42,1-1.25h2.07a3.09,3.09,0,0,1-.85,2.23,2.85,2.85,0,0,1-2.15.85,3.13,3.13,0,0,1-2.5-1,4.61,4.61,0,0,1-.87-3v-.68a4.73,4.73,0,0,1,.85-3,3,3,0,0,1,2.5-1,2.87,2.87,0,0,1,2.2.86,3.5,3.5,0,0,1,.82,2.45h-2.07a2.26,2.26,0,0,0-.24-1.09.8.8,0,0,0-.75-.39.91.91,0,0,0-.83.41,3.65,3.65,0,0,0-.26,1.59v.86a6.72,6.72,0,0,0,.1,1.44,1.09,1.09,0,0,0,.34.61A1,1,0,0,0,152.73,49.54Z" fill="#333"/><path d="M163.42,51.22h-2.21V44.61h-2v6.61H157V42.76h6.39Z" fill="#333"/><path d="M164.77,46.72a4.57,4.57,0,0,1,.91-3,3.06,3.06,0,0,1,2.5-1.09,3.11,3.11,0,0,1,2.53,1.09,4.64,4.64,0,0,1,.9,3v.54a4.61,4.61,0,0,1-.9,3,3.07,3.07,0,0,1-2.51,1.08,3.1,3.1,0,0,1-2.53-1.09,4.59,4.59,0,0,1-.9-3Zm2.22.55c0,1.51.4,2.27,1.21,2.27s1.14-.63,1.2-1.89v-.93a3.62,3.62,0,0,0-.32-1.72,1,1,0,0,0-.91-.56,1,1,0,0,0-.88.56,3.64,3.64,0,0,0-.31,1.72Z" fill="#333"/><path d="M176,49.54c.64,0,1-.42,1-1.25h2.08a3.13,3.13,0,0,1-.85,2.23,2.89,2.89,0,0,1-2.16.85,3.09,3.09,0,0,1-2.49-1,4.56,4.56,0,0,1-.88-3v-.68a4.73,4.73,0,0,1,.85-3,3.05,3.05,0,0,1,2.5-1,2.89,2.89,0,0,1,2.21.86,3.55,3.55,0,0,1,.82,2.45H177a2.15,2.15,0,0,0-.24-1.09.8.8,0,0,0-.75-.39.89.89,0,0,0-.82.41,3.47,3.47,0,0,0-.27,1.59v.86a6.72,6.72,0,0,0,.1,1.44,1.09,1.09,0,0,0,.34.61A1.06,1.06,0,0,0,176,49.54Z" fill="#333"/><path d="M180.09,46.72a4.57,4.57,0,0,1,.91-3,3.06,3.06,0,0,1,2.5-1.09A3.11,3.11,0,0,1,186,43.7a4.64,4.64,0,0,1,.9,3v.54a4.61,4.61,0,0,1-.9,3,3.07,3.07,0,0,1-2.51,1.08A3.1,3.1,0,0,1,181,50.28a4.59,4.59,0,0,1-.9-3Zm2.22.55c0,1.51.4,2.27,1.21,2.27s1.15-.63,1.2-1.89v-.93a3.62,3.62,0,0,0-.32-1.72,1,1,0,0,0-.91-.56,1,1,0,0,0-.88.56,3.64,3.64,0,0,0-.31,1.72Z" fill="#333"/><path d="M192,43.23a2.57,2.57,0,0,1,2.17,1.08,4.8,4.8,0,0,1,.8,2.92v.12a4.44,4.44,0,0,1-.92,2.94,3,3,0,0,1-2.48,1.09,3,3,0,0,1-2.49-1.19,5.19,5.19,0,0,1-.91-3.25v-.36a10.48,10.48,0,0,1,.81-4.46,3.59,3.59,0,0,1,2.4-2,2.88,2.88,0,0,0,1-.45.8.8,0,0,0,.22-.58h1.76a2.71,2.71,0,0,1-.56,1.87,3.84,3.84,0,0,1-2,.93,2.17,2.17,0,0,0-1.24.77,3.38,3.38,0,0,0-.59,1.57A2.73,2.73,0,0,1,192,43.23Zm-.44,1.84c-.75,0-1.14.66-1.17,2v.29a3.49,3.49,0,0,0,.3,1.68,1,1,0,0,0,.88.51c.77,0,1.16-.67,1.19-2v-.32C192.78,45.77,192.38,45.07,191.58,45.07Z" fill="#333"/><path d="M199.75,51.37a3.48,3.48,0,0,1-2.66-1,4.08,4.08,0,0,1-1-2.91v-.67a4.86,4.86,0,0,1,.87-3.09,3,3,0,0,1,2.51-1.08,2.88,2.88,0,0,1,2.4,1,4.87,4.87,0,0,1,.82,3v1.08h-4.4a2.33,2.33,0,0,0,.41,1.38,1.43,1.43,0,0,0,1.14.44,2.51,2.51,0,0,0,1.85-.76l.87,1.34a3.08,3.08,0,0,1-1.18.91A4.1,4.1,0,0,1,199.75,51.37Zm-1.39-5.18h2.21V46a2.45,2.45,0,0,0-.25-1.15.88.88,0,0,0-.82-.39.93.93,0,0,0-.84.42A2.89,2.89,0,0,0,198.36,46.19Z" fill="#333"/><path d="M210.36,51.22h-2.22V48H206.2v3.25H204V42.76h2.22v3.39h1.94V42.76h2.22Z" fill="#333"/><path d="M219.25,45.26c0-.62-.23-.93-.7-.93a.8.8,0,0,0-.6.23.86.86,0,0,0-.22.64h-2.21a2.39,2.39,0,0,1,.81-1.87,3,3,0,0,1,2.1-.71,3.43,3.43,0,0,1,2.22.64,2.18,2.18,0,0,1,.81,1.82,2,2,0,0,1-.29,1,2.12,2.12,0,0,1-.81.76,1.92,1.92,0,0,1,1.22,2,2.25,2.25,0,0,1-.86,1.85,3.55,3.55,0,0,1-2.29.69,3.22,3.22,0,0,1-2.18-.72,2.42,2.42,0,0,1-.84-1.93h2.21a.86.86,0,0,0,.93.94.74.74,0,0,0,.62-.27,1.16,1.16,0,0,0,.21-.74c0-.66-.26-1-.77-1H217.5V46.16h1.05C219,46.16,219.25,45.86,219.25,45.26Z" fill="#333"/><path d="M226.92,51.22a3.05,3.05,0,0,1-.19-.66,1.89,1.89,0,0,1-1.61.81,2.37,2.37,0,0,1-1.76-.7,2.46,2.46,0,0,1-.7-1.82,2.56,2.56,0,0,1,.85-2.06,3.72,3.72,0,0,1,2.44-.74h.67v-.68a1.25,1.25,0,0,0-.19-.8.69.69,0,0,0-.57-.24c-.56,0-.83.33-.83,1h-2.21a2.43,2.43,0,0,1,.88-1.93,3.24,3.24,0,0,1,2.22-.76,3,3,0,0,1,2.15.72,2.7,2.7,0,0,1,.76,2.07v4a4.28,4.28,0,0,0,.31,1.71v.14Zm-1.31-1.58a1.22,1.22,0,0,0,.63-.15,1.08,1.08,0,0,0,.38-.35V47.38h-.53a1.14,1.14,0,0,0-.89.36,1.41,1.41,0,0,0-.32,1C224.88,49.33,225.12,49.64,225.61,49.64Z" fill="#333"/><path d="M237,47.26a5.72,5.72,0,0,1-.68,3.05,2.27,2.27,0,0,1-2,1.06,2,2,0,0,1-1.66-.83v3.93h-2.21V42.76h2l.08.78a2,2,0,0,1,1.72-.93,2.33,2.33,0,0,1,2,1,5.38,5.38,0,0,1,.7,3Zm-2.2-.56a4,4,0,0,0-.27-1.73,1,1,0,0,0-.91-.51,1.06,1.06,0,0,0-1,.57v4a1.07,1.07,0,0,0,1,.55.92.92,0,0,0,.91-.56,4.32,4.32,0,0,0,.26-1.72Z" fill="#333"/><path d="M242.37,51.22a3.78,3.78,0,0,1-.19-.66,1.88,1.88,0,0,1-1.61.81,2.39,2.39,0,0,1-1.76-.7,2.5,2.5,0,0,1-.7-1.82,2.59,2.59,0,0,1,.85-2.06,3.74,3.74,0,0,1,2.44-.74h.67v-.68a1.25,1.25,0,0,0-.19-.8.69.69,0,0,0-.57-.24c-.55,0-.83.33-.83,1h-2.21a2.43,2.43,0,0,1,.88-1.93,3.24,3.24,0,0,1,2.22-.76,3,3,0,0,1,2.15.72,2.7,2.7,0,0,1,.76,2.07v4a4.26,4.26,0,0,0,.32,1.71v.14Zm-1.3-1.58a1.21,1.21,0,0,0,.62-.15,1.08,1.08,0,0,0,.38-.35V47.38h-.53a1.12,1.12,0,0,0-.88.36,1.37,1.37,0,0,0-.33,1C240.33,49.33,240.58,49.64,241.07,49.64Z" fill="#333"/><path d="M249.48,45.26c0-.62-.23-.93-.7-.93a.78.78,0,0,0-.6.23.86.86,0,0,0-.22.64h-2.21a2.39,2.39,0,0,1,.81-1.87,3,3,0,0,1,2.1-.71,3.47,3.47,0,0,1,2.22.64,2.18,2.18,0,0,1,.8,1.82,1.87,1.87,0,0,1-.29,1,2.09,2.09,0,0,1-.8.76,1.93,1.93,0,0,1,1.22,2,2.28,2.28,0,0,1-.86,1.85,3.56,3.56,0,0,1-2.3.69,3.21,3.21,0,0,1-2.17-.72,2.42,2.42,0,0,1-.84-1.93h2.21a.91.91,0,0,0,.25.69.89.89,0,0,0,.68.25.72.72,0,0,0,.61-.27,1.16,1.16,0,0,0,.22-.74q0-1-.78-1h-1.1V46.16h1.05C249.25,46.16,249.48,45.86,249.48,45.26Z" fill="#333"/><path d="M257.31,42.76h2.2v8.46h-2.2V46l-2,5.2h-2.22V42.76h2.22V48Z" fill="#333"/><path d="M267.21,44.58H265v6.64h-2.21V44.58h-2.15V42.76h6.54Z" fill="#333"/><path d="M270.74,45.22h1.13a3.28,3.28,0,0,1,2.35.82,2.91,2.91,0,0,1,.85,2.2,2.8,2.8,0,0,1-.86,2.16,3.29,3.29,0,0,1-2.35.82h-3.33V42.76h2.21Zm0,1.84V49.4h1.15a.9.9,0,0,0,.72-.31,1.26,1.26,0,0,0,.26-.84c0-.79-.35-1.19-1-1.19Z" fill="#333"/><path d="M286.61,51.22H279.9V49.65L283,45.74a8.16,8.16,0,0,0,.86-1.43,2.74,2.74,0,0,0,.28-1.17,2.33,2.33,0,0,0-.26-1.19.84.84,0,0,0-.75-.43,1,1,0,0,0-.86.5,2.63,2.63,0,0,0-.32,1.41h-2.22a4.24,4.24,0,0,1,.44-1.92,3.23,3.23,0,0,1,1.22-1.34,3.31,3.31,0,0,1,1.77-.48,2.92,2.92,0,0,1,3.21,3.22,4.57,4.57,0,0,1-.47,2,11.91,11.91,0,0,1-1.68,2.43l-1.46,2.09h3.87Z" fill="#333"/><path d="M295.28,46.58h-6.85V44.72h6.85Z" fill="#333"/><path d="M303.46,51.22h-6.71V49.65l3.08-3.91a9,9,0,0,0,.87-1.43,2.88,2.88,0,0,0,.27-1.17,2.24,2.24,0,0,0-.26-1.19.82.82,0,0,0-.75-.43,1,1,0,0,0-.86.5,2.63,2.63,0,0,0-.32,1.41h-2.21a4.23,4.23,0,0,1,.43-1.92,3.26,3.26,0,0,1,3-1.82,2.92,2.92,0,0,1,3.2,3.22,4.57,4.57,0,0,1-.47,2,11.91,11.91,0,0,1-1.68,2.43l-1.46,2.09h3.87Z" fill="#333"/><path d="M305.57,54.08l-1.18-.61.29-.56a3.9,3.9,0,0,0,.52-1.86V49.29h1.92v1.58a4,4,0,0,1-.42,1.71A4.22,4.22,0,0,1,305.57,54.08Z" fill="#333"/><path d="M309,45.62l.57-5.78h5.5v1.89h-3.69l-.2,2.44a2.28,2.28,0,0,1,1.32-.43,2.54,2.54,0,0,1,2.16,1,4.58,4.58,0,0,1,.77,2.83,4.1,4.1,0,0,1-.91,2.76,3.05,3.05,0,0,1-2.42,1,3.42,3.42,0,0,1-1.67-.42,3.12,3.12,0,0,1-1.2-1.19,3.27,3.27,0,0,1-.45-1.72H311a2.08,2.08,0,0,0,.36,1.11.9.9,0,0,0,.76.39.94.94,0,0,0,.85-.53,3.4,3.4,0,0,0,.29-1.57,2.62,2.62,0,0,0-.35-1.49,1.28,1.28,0,0,0-2-.07l-.14.2Z" fill="#333"/><path d="M326.86,51.22h-2.22V48.61a4,4,0,0,1-.75.08,3.46,3.46,0,0,1-2.53-.84,3.19,3.19,0,0,1-.86-2.41V42.76h2.22v2.69a1.76,1.76,0,0,0,.26,1.09,1.11,1.11,0,0,0,.91.31,3.47,3.47,0,0,0,.75-.09v-4h2.22Z" fill="#333"/><path d="M331.87,51.37a3.51,3.51,0,0,1-2.66-1,4.13,4.13,0,0,1-.95-2.91v-.67a4.8,4.8,0,0,1,.88-3.09,3,3,0,0,1,2.5-1.08,2.85,2.85,0,0,1,2.4,1,4.8,4.8,0,0,1,.82,3v1.08h-4.4a2.33,2.33,0,0,0,.42,1.38,1.39,1.39,0,0,0,1.13.44,2.5,2.5,0,0,0,1.85-.76l.87,1.34a2.93,2.93,0,0,1-1.18.91A4.1,4.1,0,0,1,331.87,51.37Zm-1.39-5.18h2.21V46a2.34,2.34,0,0,0-.25-1.15.88.88,0,0,0-.81-.39.91.91,0,0,0-.84.42A2.75,2.75,0,0,0,330.48,46.19Z" fill="#333"/><path d="M342.5,42.76v8.46h-2.21V44.61H339l-.12,2.61a6.62,6.62,0,0,1-.73,3,2.06,2.06,0,0,1-1.81,1h-.72l0-1.85.25,0c.3,0,.52-.26.66-.65a7.21,7.21,0,0,0,.27-1.92l.15-4Z" fill="#333"/><path d="M343.86,46.72a4.63,4.63,0,0,1,.9-3,3.45,3.45,0,0,1,5,0,4.59,4.59,0,0,1,.91,3v.54a4.61,4.61,0,0,1-.9,3,3.47,3.47,0,0,1-5,0,4.59,4.59,0,0,1-.9-3Zm2.21.55c0,1.51.41,2.27,1.21,2.27s1.15-.63,1.21-1.89v-.93a3.62,3.62,0,0,0-.32-1.72,1,1,0,0,0-.91-.56,1,1,0,0,0-.88.56,3.62,3.62,0,0,0-.32,1.72Z" fill="#333"/><path d="M352.21,51.22V42.76h3.07a3.68,3.68,0,0,1,2.27.61,2.08,2.08,0,0,1,.8,1.75,1.78,1.78,0,0,1-.34,1.05,2.2,2.2,0,0,1-1,.72,2.29,2.29,0,0,1,1.25.66,1.79,1.79,0,0,1,.45,1.25c0,1.61-1,2.42-3,2.42Zm2.21-5h.9A.86.86,0,0,0,356,46a.79.79,0,0,0,.18-.56c0-.55-.26-.84-.77-.86h-.94Zm0,1.53V49.4h1.32a.75.75,0,0,0,.6-.21,1,1,0,0,0,.17-.62.91.91,0,0,0-.19-.66.74.74,0,0,0-.54-.19Z" fill="#333"/><path d="M363.45,51.37a3.5,3.5,0,0,1-2.66-1,4.13,4.13,0,0,1-1-2.91v-.67a4.86,4.86,0,0,1,.87-3.09,3.05,3.05,0,0,1,2.51-1.08,2.88,2.88,0,0,1,2.4,1,4.8,4.8,0,0,1,.82,3v1.08H362a2.26,2.26,0,0,0,.42,1.38,1.39,1.39,0,0,0,1.13.44,2.5,2.5,0,0,0,1.85-.76l.87,1.34a3,3,0,0,1-1.18.91A4.1,4.1,0,0,1,363.45,51.37Zm-1.39-5.18h2.21V46a2.34,2.34,0,0,0-.25-1.15.88.88,0,0,0-.81-.39.91.91,0,0,0-.84.42A2.75,2.75,0,0,0,362.06,46.19Z" fill="#333"/><path d="M370.63,48.12h-.58v3.1h-2.2V42.76h2.2v3.18h.55l1.28-3.18h2.77l-2.22,3.9,2.39,4.56h-2.93Z" fill="#333"/><line x1="205.67" y1="168.94" x2="183.64" y2="146.91" fill="none" stroke="#333" stroke-linecap="round" stroke-linejoin="round"/><polygon points="188.87 146.36 188.84 147.36 183.91 147.18 184.09 152.11 183.09 152.14 182.87 146.14 188.87 146.36" fill="#333"/><line x1="287.62" y1="202.34" x2="322.54" y2="202.34" fill="none" stroke="#333" stroke-linecap="round" stroke-linejoin="round"/><polygon points="319.22 206.43 318.54 205.7 322.15 202.34 318.54 198.99 319.22 198.25 323.62 202.34 319.22 206.43" fill="#333"/><path d="M358.6,185.68a30.56,30.56,0,0,1-4.78-6.41c-5.23-9.6-3-20.37,0-28.14a26.72,26.72,0,0,1,14.33-14.86s-.53-3.19,2.66-3.19a6.42,6.42,0,0,0,9.55,0c3.19,0,2.66,3.19,2.66,3.19a26.72,26.72,0,0,1,14.33,14.86c3,7.77,5.23,18.54,0,28.14a30.22,30.22,0,0,1-4.78,6.41,42.93,42.93,0,0,1-4.77,4.2l-2.08,1.66-.05-.06c0-.53-1.59-5.31-6.9-8.5a38.76,38.76,0,0,0-3.18,2.23l-.09.11c-.93-.77-2-1.55-3.1-2.34-5.31,3.19-6.9,8-6.9,8.5l0,0c-.68-.54-1.38-1.07-2.09-1.64A41.84,41.84,0,0,1,358.6,185.68Z" fill="#fccc7a"/><path d="M381.6,195c.83-.8,2.23-2,4.12-3.48l2.08-1.66a42.93,42.93,0,0,0,4.77-4.2l-2.65,53a2.11,2.11,0,0,1-1.23,1.77c-2.56,1.53-8.44,1.45-10.65-.24a1.91,1.91,0,0,1-.86-1.53l.51-34.48a1.59,1.59,0,0,0-1.6-1.61h-1a1.58,1.58,0,0,0-1.59,1.61l.5,34.48a2,2,0,0,1-1,1.66c-2.35,1.57-8.05,1.6-10.52.08a2.07,2.07,0,0,1-1.18-1.74l-2.65-53a41.84,41.84,0,0,0,4.78,4.2c.71.57,1.41,1.1,2.09,1.64a24.85,24.85,0,0,1,6.4,6.86c1.64,2.62,3.56,1.3,3-.46.85,2.73,3.84,1.33,3.05-.62.6,1.19,2.79.25,2.19-1.89q-.21-.49-.48-1c.6.84,1.51,1,2,.6Z" fill="#999"/><path d="M388.69,240.49s4.51,4.84,4.51,7.81-3.61,2.94-8.07,2.94-7.59-1.92-7.59-4.89a44.56,44.56,0,0,1,.5-6.1h0C380.25,241.94,386.13,242,388.69,240.49Z" fill="#666"/><path d="M384.62,124.06a3.21,3.21,0,0,1,2.24,3.93,3.47,3.47,0,0,1-4.37,2.52l-.09,0a13.77,13.77,0,0,0,1.34-3.16,12.16,12.16,0,0,0,.47-3.25l.34-.14Z" fill="#e5e5e5"/><path d="M386.06,120.68a2.6,2.6,0,0,1-1.51,3.23l-.34.14V124a10.09,10.09,0,0,0-1.27-4.95l.1-.06A2.45,2.45,0,0,1,386.06,120.68Z" fill="#e5e5e5"/><path d="M385.67,191.48l.05.06c-1.89,1.51-3.29,2.68-4.12,3.48h0c.4-.35.54-1.11.08-2.26-.82-2.06-2.79-4.65-6.17-7.44l.09-.11a38.76,38.76,0,0,1,3.18-2.23C384.08,186.17,385.67,191,385.67,191.48Z" fill="#f5afb3"/><path d="M367,124.05V124a10.09,10.09,0,0,1,1.27-4.95h0a8.23,8.23,0,0,1,14.71,0h0a10.09,10.09,0,0,1,1.27,4.95v.06a12.16,12.16,0,0,1-.47,3.25l-.19-.06a3.67,3.67,0,0,1-1.59-2.12c-.66-2-4.78-1.06-6.37-3.18-1.6,2.12-5.72,1.21-6.37,3.18a3.71,3.71,0,0,1-1.6,2.12l-.19.06A12.16,12.16,0,0,1,367,124.05Z" fill="#e5e5e5"/><path d="M383.55,127.24l.19.06a13.77,13.77,0,0,1-1.34,3.16,11.35,11.35,0,0,1-2,2.62,6.42,6.42,0,0,1-9.55,0,11.35,11.35,0,0,1-2-2.62,13.77,13.77,0,0,1-1.34-3.16l.19-.06a3.71,3.71,0,0,0,1.6-2.12c.65-2,4.77-1.06,6.37-3.18,1.59,2.12,5.71,1.21,6.37,3.18A3.67,3.67,0,0,0,383.55,127.24Zm-3.19.27a1.33,1.33,0,1,0-1.32,1.33A1.33,1.33,0,0,0,380.36,127.51Zm-6.9,0a1.33,1.33,0,1,0-1.32,1.33A1.33,1.33,0,0,0,373.46,127.51Z" fill="#f5afb3"/><path d="M377.88,197.3c.79,1.95-2.2,3.35-3.05.62.6,1.76-1.32,3.08-3,.46a24.85,24.85,0,0,0-6.4-6.86l0,0c0-.53,1.59-5.31,6.9-8.5,1.14.79,2.17,1.57,3.1,2.34,3.38,2.79,5.35,5.38,6.17,7.44.46,1.15.32,1.91-.08,2.26s-1.4.24-2-.6q.27.5.48,1C380.67,197.55,378.48,198.49,377.88,197.3Z" fill="#f5afb3"/><path d="M379,126.18a1.33,1.33,0,1,1-1.33,1.33A1.33,1.33,0,0,1,379,126.18Zm.66,1.4a.73.73,0,1,0-.73.73A.73.73,0,0,0,379.7,127.58Z" fill="#fff"/><circle cx="378.97" cy="127.58" r="0.73" fill="#333"/><path d="M373,240.4a31.44,31.44,0,0,1,.66,5.95c0,3-3.13,4.89-7.59,4.89s-8.07,0-8.07-2.94,4.43-7.71,4.43-7.71l0-.13c2.47,1.52,8.17,1.49,10.52-.08Z" fill="#666"/><path d="M372.14,126.18a1.33,1.33,0,1,1-1.33,1.33A1.33,1.33,0,0,1,372.14,126.18Zm.79,1.4a.73.73,0,1,0-.73.73A.73.73,0,0,0,372.93,127.58Z" fill="#fff"/><circle cx="372.2" cy="127.58" r="0.73" fill="#333"/><path d="M368.77,130.46l-.09,0a3.47,3.47,0,0,1-4.37-2.52,3.21,3.21,0,0,1,2.24-3.93l.07-.15.34.14a12.16,12.16,0,0,0,.47,3.25A13.77,13.77,0,0,0,368.77,130.46Z" fill="#e5e5e5"/><path d="M368.13,119l.1.06A10.09,10.09,0,0,0,367,124v.06l-.34-.14a2.6,2.6,0,0,1-1.51-3.23A2.46,2.46,0,0,1,368.13,119Z" fill="#e5e5e5"/><path d="M358.6,185.64v0l2.65,53a2.07,2.07,0,0,0,1.18,1.74c2.47,1.52,8.17,1.49,10.52-.08a2,2,0,0,0,1-1.66l-.5-34.48a1.58,1.58,0,0,1,1.59-1.61h1a1.59,1.59,0,0,1,1.6,1.61l-.51,34.48a1.91,1.91,0,0,0,.86,1.53c2.21,1.69,8.09,1.77,10.65.24a2.11,2.11,0,0,0,1.23-1.77l2.65-53v0" fill="none" stroke="#333" stroke-linecap="round" stroke-linejoin="round"/><path d="M375.59,135.21a7,7,0,0,1-4.78-2.13,11.35,11.35,0,0,1-2-2.62,13.77,13.77,0,0,1-1.34-3.16,12.16,12.16,0,0,1-.47-3.25V124a10.09,10.09,0,0,1,1.27-4.95h0a8.48,8.48,0,0,1,7.36-4.54" fill="none" stroke="#333" stroke-linecap="round" stroke-linejoin="round"/><path d="M368.68,130.51a3.47,3.47,0,0,1-4.37-2.52,3.21,3.21,0,0,1,2.24-3.93" fill="none" stroke="#333" stroke-linecap="round" stroke-linejoin="round"/><path d="M367,124.06h0l-.34-.14a2.6,2.6,0,0,1-1.51-3.23,2.46,2.46,0,0,1,3-1.7" fill="none" stroke="#333" stroke-linecap="round" stroke-linejoin="round"/><path d="M367.62,127.24a3.71,3.71,0,0,0,1.6-2.12c.65-2,4.77-1.06,6.37-3.18" fill="none" stroke="#333" stroke-linecap="round" stroke-linejoin="round"/><path d="M370.81,129.37a2.49,2.49,0,0,0,1.87-.33" fill="none" stroke="#333" stroke-linecap="round" stroke-linejoin="round"/><path d="M374.52,132.55a1.52,1.52,0,0,0,1.07.53" fill="none" stroke="#333" stroke-linecap="round" stroke-linejoin="round"/><path d="M374.83,197.92c.6,1.76-1.32,3.08-3,.46a24.85,24.85,0,0,0-6.4-6.86c-.68-.54-1.38-1.07-2.09-1.64a41.84,41.84,0,0,1-4.78-4.2,30.56,30.56,0,0,1-4.78-6.41c-5.23-9.6-3-20.37,0-28.14a26.72,26.72,0,0,1,14.33-14.86s-.53-3.19,2.66-3.19" fill="none" stroke="#333" stroke-linecap="round" stroke-linejoin="round"/><path d="M372.4,183c1.14.79,2.17,1.57,3.1,2.34,3.38,2.79,5.35,5.38,6.17,7.44.46,1.15.32,1.91-.08,2.26s-1.4.24-2-.6l0-.07" fill="none" stroke="#333" stroke-linecap="round" stroke-linejoin="round"/><path d="M380.07,195.41q-.21-.49-.48-1a15,15,0,0,0-2.41-3.47" fill="none" stroke="#333" stroke-linecap="round" stroke-linejoin="round"/><path d="M377.88,197.3a18.46,18.46,0,0,0-2.83-4.76" fill="none" stroke="#333" stroke-linecap="round" stroke-linejoin="round"/><path d="M374.83,197.92a11.5,11.5,0,0,0-2.43-3.79" fill="none" stroke="#333" stroke-linecap="round" stroke-linejoin="round"/><path d="M380.07,195.41c.6,2.14-1.59,3.08-2.19,1.89.79,1.95-2.2,3.35-3.05.62" fill="none" stroke="#333" stroke-linecap="round" stroke-linejoin="round"/><path d="M365.5,191.48c0-.53,1.59-5.31,6.9-8.5" fill="none" stroke="#333" stroke-linecap="round" stroke-linejoin="round"/><path d="M375.59,135.21a6.94,6.94,0,0,0,4.77-2.13,11.35,11.35,0,0,0,2-2.62,13.77,13.77,0,0,0,1.34-3.16,12.16,12.16,0,0,0,.47-3.25V124a10.09,10.09,0,0,0-1.27-4.95h0a8.48,8.48,0,0,0-7.35-4.54" fill="none" stroke="#333" stroke-linecap="round" stroke-linejoin="round"/><path d="M382.49,130.51a3.47,3.47,0,0,0,4.37-2.52,3.21,3.21,0,0,0-2.24-3.93" fill="none" stroke="#333" stroke-linecap="round" stroke-linejoin="round"/><path d="M384.19,124.06h0l.34-.14a2.6,2.6,0,0,0,1.51-3.23,2.45,2.45,0,0,0-3-1.7" fill="none" stroke="#333" stroke-linecap="round" stroke-linejoin="round"/><path d="M383.55,127.24a3.67,3.67,0,0,1-1.59-2.12c-.66-2-4.78-1.06-6.37-3.18" fill="none" stroke="#333" stroke-linecap="round" stroke-linejoin="round"/><path d="M380.36,129.37a2.47,2.47,0,0,1-1.86-.33" fill="none" stroke="#333" stroke-linecap="round" stroke-linejoin="round"/><path d="M376.65,132.55a1.52,1.52,0,0,1-1.06.53" fill="none" stroke="#333" stroke-linecap="round" stroke-linejoin="round"/><path d="M381.42,195.19l.18-.17c.83-.8,2.23-2,4.12-3.48l2.08-1.66a42.93,42.93,0,0,0,4.77-4.2,30.22,30.22,0,0,0,4.78-6.41c5.23-9.6,3-20.37,0-28.14A26.72,26.72,0,0,0,383,136.27s.53-3.19-2.66-3.19" fill="none" stroke="#333" stroke-linecap="round" stroke-linejoin="round"/><path d="M378.77,183a38.76,38.76,0,0,0-3.18,2.23" fill="none" stroke="#333" stroke-linecap="round" stroke-linejoin="round"/><path d="M385.67,191.48c0-.53-1.59-5.31-6.9-8.5" fill="none" stroke="#333" stroke-linecap="round" stroke-linejoin="round"/><path d="M373,240.4a31.44,31.44,0,0,1,.66,5.95c0,3-3.13,4.89-7.59,4.89s-8.07,0-8.07-2.94,4.43-7.71,4.43-7.71" fill="none" stroke="#333" stroke-linecap="round" stroke-linejoin="round"/><path d="M378,240.25a44.56,44.56,0,0,0-.5,6.1c0,3,3.13,4.89,7.59,4.89s8.07,0,8.07-2.94-4.51-7.81-4.51-7.81" fill="none" stroke="#333" stroke-linecap="round" stroke-linejoin="round"/><path d="M174.81,106.37c3,7.87,5.31,18.78,0,28.51a31.19,31.19,0,0,1-5.3,7,42.63,42.63,0,0,1-4.38,3.79c-.8.64-1.51,1.18-2.13,1.64l0,0c0-.54-1.61-5.38-7-8.61-1.15.8-2.16,1.58-3.09,2.37q-1.36-1.17-3.06-2.37c-5.38,3.23-7.29,8.07-7.29,8.61l0,0-2.12-1.66a43.43,43.43,0,0,1-4.47-3.89,31,31,0,0,1-5.21-6.86c-5.3-9.73-3-20.64,0-28.51a27.09,27.09,0,0,1,14.53-15.05s-.54-3.23,2.68-3.23a6.52,6.52,0,0,0,9.68,0c3.23,0,2.69,3.23,2.69,3.23A27.06,27.06,0,0,1,174.81,106.37Z" fill="#ccc"/><path d="M169.51,141.84,167,197.26a2,2,0,0,1-.92,1.6c-2.34,1.77-8.51,1.87-10.83.4a1.62,1.62,0,0,1-.89-1.34l.51-36.37a2.12,2.12,0,0,0-4.22-.37V155.7c1,.24,1.72-.75,1.32-1.92.86,2.76,3.89,1.34,3.09-.64a1.07,1.07,0,0,0,1.73.18l.21.05a2.92,2.92,0,0,1,.09.73v2a1.08,1.08,0,0,0,1.08,1.08h.54a1.08,1.08,0,0,0,1.07-1.08v-2.15a4.57,4.57,0,0,0-1-3l0-.05a1.09,1.09,0,0,0,.43-.76h.07a39.71,39.71,0,0,1,3.73-2.87c.62-.46,1.33-1,2.13-1.64A42.63,42.63,0,0,0,169.51,141.84Z" fill="#66c09c"/><path d="M166.45,198.88s5.41,4.8,5.41,8.06-4,3.23-8.88,3.23-8.33-2.11-8.33-5.38a25.79,25.79,0,0,1,.5-5.38l.12-.15c2.32,1.47,8.49,1.37,10.83-.4Z" fill="#333"/><path d="M161.39,80.53a2.48,2.48,0,0,1,1.77,3,2.69,2.69,0,0,1-3.37,2l-.15-.07a14.13,14.13,0,0,0,1.59-4.07c.06-.3.11-.59.15-.89Z" fill="#f5afb3"/><path d="M163,147.25l0,0a39.71,39.71,0,0,0-3.73,2.87h-.07a3.09,3.09,0,0,0-.28-1.59c-.81-2-2.74-4.71-6-7.53.93-.79,1.94-1.57,3.09-2.37C161.37,141.87,163,146.71,163,147.25Z" fill="#f5afb3"/><path d="M161.5,78.88a11.42,11.42,0,0,1-.12,1.64c0,.3-.09.59-.15.89h0s-2.37-.57-2.37-2.64c0-3.22,1.57-5.19-.33-7.15A10,10,0,0,1,161.5,78.88Z" fill="#e5e5e5"/><path d="M161.18,81.4h0a14.13,14.13,0,0,1-1.59,4.07,11.51,11.51,0,0,1-2,2.61,6.52,6.52,0,0,1-9.68,0,11.76,11.76,0,0,1-2-2.61,13.91,13.91,0,0,1-1.59-4.08h.06s2.36-.56,2.35-2.63c0-3.22-1.57-5.19.33-7.15l0,0a8.18,8.18,0,0,1,11.39,0s0,0,0,0c1.9,2,.34,3.93.33,7.15C158.81,80.83,161.18,81.4,161.18,81.4Zm-3.58,1a1.34,1.34,0,1,0-1.34,1.35A1.34,1.34,0,0,0,157.6,82.44Zm-7,0a1.35,1.35,0,0,0-2.69,0,1.35,1.35,0,1,0,2.69,0Z" fill="#f5afb3"/><path d="M159.81,153.91v2.15a1.08,1.08,0,0,1-1.07,1.08h-.54a1.08,1.08,0,0,1-1.08-1.08v-2a2.92,2.92,0,0,0-.09-.73l-.21-.05a1.94,1.94,0,0,0,.49-2.09c-.15-.33-.31-.67-.49-1,.58.81,1.43,1,2,.67l0,.05A4.57,4.57,0,0,1,159.81,153.91Z" fill="#666"/><path d="M156.82,150.22c.18.34.34.68.49,1a1.94,1.94,0,0,1-.49,2.09,1.07,1.07,0,0,1-1.73-.18c.8,2-2.23,3.4-3.09.64.4,1.17-.31,2.16-1.32,1.92a3,3,0,0,1-1.68-1.46c-.32-.51-.65-1-1-1.44a26.14,26.14,0,0,0-5.52-5.51l0,0c0-.54,1.91-5.38,7.29-8.61q1.69,1.2,3.06,2.37c3.28,2.82,5.21,5.5,6,7.53a3.09,3.09,0,0,1,.28,1.59,1.09,1.09,0,0,1-.43.76C158.25,151.26,157.4,151,156.82,150.22Z" fill="#f5afb3"/><path d="M156.26,81.1a1.35,1.35,0,1,1-1.34,1.34A1.34,1.34,0,0,1,156.26,81.1Zm.67,1.41a.74.74,0,1,0-.74.74A.74.74,0,0,0,156.93,82.51Z" fill="#f2f2f2"/><circle cx="156.19" cy="82.51" r="0.74" fill="#333"/><path d="M150.67,161.18v47.51a1.08,1.08,0,0,1-1.08,1.08h-.53a1.08,1.08,0,0,1-1-.76,1.13,1.13,0,0,1-.05-.32V152.83l.05,0c.32.45.65.93,1,1.44a3,3,0,0,0,1.68,1.46v5.48Z" fill="#666"/><path d="M149.27,81.1a1.35,1.35,0,0,1,0,2.69,1.35,1.35,0,1,1,0-2.69Zm.81,1.41a.74.74,0,1,0-.74.74A.74.74,0,0,0,150.08,82.51Z" fill="#f2f2f2"/><circle cx="149.34" cy="82.51" r="0.74" fill="#333"/><path d="M148,152.8l-.05,0v47.52h-.1c-2.95.77-7.07.68-8.68-.66a1.74,1.74,0,0,1-.69-1.35l-2.68-56.5.09-.1a43.43,43.43,0,0,0,4.47,3.89l2.12,1.66A26.14,26.14,0,0,1,148,152.8Z" fill="#66c09c"/><path d="M148,209l-.05,0a12,12,0,0,1-5.43,1.14c-4.9,0-8.88,0-8.88-3.23s5.35-7,5.35-7l.18-.26c1.61,1.34,5.73,1.43,8.68.66h.1v8.34A1.13,1.13,0,0,0,148,209Z" fill="#333"/><path d="M144,78.88a10,10,0,0,1,3-7.27c-1.9,2-.33,3.93-.33,7.15,0,2.07-2.35,2.63-2.35,2.63h-.06c-.06-.29-.11-.58-.15-.88A11.42,11.42,0,0,1,144,78.88Z" fill="#e5e5e5"/><path d="M145.89,85.48l-.15.07a2.69,2.69,0,0,1-3.37-2,2.47,2.47,0,0,1,1.77-3h0c0,.3.09.59.15.88A13.91,13.91,0,0,0,145.89,85.48Z" fill="#f5afb3"/><path d="M147.07,71.58a8.28,8.28,0,0,1,5.69-2.31" fill="none" stroke="#333" stroke-linecap="round" stroke-linejoin="round"/><path d="M152.76,90.24a7.1,7.1,0,0,1-4.84-2.15,11.76,11.76,0,0,1-2-2.61,13.91,13.91,0,0,1-1.59-4.08c-.06-.29-.11-.58-.15-.88a11.42,11.42,0,0,1-.12-1.64,10,10,0,0,1,3-7.27" fill="none" stroke="#333" stroke-linecap="round" stroke-linejoin="round"/><path d="M144.36,81.39s2.36-.56,2.35-2.63c0-3.22-1.57-5.19.33-7.15l0,0" fill="none" stroke="#333" stroke-linecap="round" stroke-linejoin="round"/><path d="M147.92,84.06a2.54,2.54,0,0,0,1.89-.33" fill="none" stroke="#333" stroke-linecap="round" stroke-linejoin="round"/><path d="M151.69,87.55a1.55,1.55,0,0,0,1.07.54" fill="none" stroke="#333" stroke-linecap="round" stroke-linejoin="round"/><path d="M152,153.78c.4,1.17-.31,2.16-1.32,1.92a3,3,0,0,1-1.68-1.46c-.32-.51-.65-1-1-1.44a26.14,26.14,0,0,0-5.52-5.51l-2.12-1.66a43.43,43.43,0,0,1-4.47-3.89,31,31,0,0,1-5.21-6.86c-5.3-9.73-3-20.64,0-28.51a27.09,27.09,0,0,1,14.53-15.05s-.54-3.23,2.68-3.23" fill="none" stroke="#333" stroke-linecap="round" stroke-linejoin="round"/><path d="M149.84,138.64q1.69,1.2,3.06,2.37c3.28,2.82,5.21,5.5,6,7.53a3.09,3.09,0,0,1,.28,1.59,1.09,1.09,0,0,1-.43.76c-.52.37-1.37.14-2-.67l0-.07" fill="none" stroke="#333" stroke-linecap="round" stroke-linejoin="round"/><path d="M157.31,151.23c-.15-.33-.31-.67-.49-1a15,15,0,0,0-2.44-3.51" fill="none" stroke="#333" stroke-linecap="round" stroke-linejoin="round"/><path d="M155.09,153.14a19.2,19.2,0,0,0-2.86-4.82" fill="none" stroke="#333" stroke-linecap="round" stroke-linejoin="round"/><path d="M152,153.78a11.59,11.59,0,0,0-2.46-3.84" fill="none" stroke="#333" stroke-linecap="round" stroke-linejoin="round"/><path d="M157.31,151.23a1.94,1.94,0,0,1-.49,2.09,1.07,1.07,0,0,1-1.73-.18c.8,2-2.23,3.4-3.09.64" fill="none" stroke="#333" stroke-linecap="round" stroke-linejoin="round"/><path d="M142.55,147.25c0-.54,1.91-5.38,7.29-8.61" fill="none" stroke="#333" stroke-linecap="round" stroke-linejoin="round"/><path d="M153.84,87.55a1.56,1.56,0,0,1-1.08.54" fill="none" stroke="#333" stroke-linecap="round" stroke-linejoin="round"/><path d="M159.27,150.14a39.71,39.71,0,0,1,3.73-2.87c.62-.46,1.33-1,2.13-1.64a42.63,42.63,0,0,0,4.38-3.79,31.19,31.19,0,0,0,5.3-7c5.31-9.73,3-20.64,0-28.51a27.06,27.06,0,0,0-14.52-15.05s.54-3.23-2.69-3.23" fill="none" stroke="#333" stroke-linecap="round" stroke-linejoin="round"/><path d="M156,138.64c-1.15.8-2.16,1.58-3.09,2.37" fill="none" stroke="#333" stroke-linecap="round" stroke-linejoin="round"/><path d="M163,147.25c0-.54-1.61-5.38-7-8.61" fill="none" stroke="#333" stroke-linecap="round" stroke-linejoin="round"/><path d="M157,153.37a2.92,2.92,0,0,1,.09.73v2a1.08,1.08,0,0,0,1.08,1.08h.54a1.08,1.08,0,0,0,1.07-1.08v-2.15a4.57,4.57,0,0,0-1-3" fill="none" stroke="#333" stroke-linecap="round" stroke-linejoin="round"/><path d="M148,152.83v55.86a1.13,1.13,0,0,0,.05.32,1.08,1.08,0,0,0,1,.76h.53a1.08,1.08,0,0,0,1.08-1.08V155.74" fill="none" stroke="#333" stroke-linecap="round" stroke-linejoin="round"/><path d="M145.74,85.55a2.69,2.69,0,0,1-3.37-2,2.47,2.47,0,0,1,1.77-3" fill="none" stroke="#333" stroke-linecap="round" stroke-linejoin="round"/><path d="M159.79,85.55a2.69,2.69,0,0,0,3.37-2,2.48,2.48,0,0,0-1.77-3" fill="none" stroke="#333" stroke-linecap="round" stroke-linejoin="round"/><path d="M158.46,71.58a8.28,8.28,0,0,0-5.7-2.31" fill="none" stroke="#333" stroke-linecap="round" stroke-linejoin="round"/><path d="M152.76,90.24a7.06,7.06,0,0,0,4.84-2.15,11.51,11.51,0,0,0,2-2.61,14.13,14.13,0,0,0,1.59-4.07c.06-.3.11-.59.15-.89a11.42,11.42,0,0,0,.12-1.64,10,10,0,0,0-3-7.27" fill="none" stroke="#333" stroke-linecap="round" stroke-linejoin="round"/><path d="M161.18,81.4s-2.37-.57-2.37-2.64c0-3.22,1.57-5.19-.33-7.15,0,0,0,0,0,0" fill="none" stroke="#333" stroke-linecap="round" stroke-linejoin="round"/><path d="M157.6,84.06a2.54,2.54,0,0,1-1.89-.33" fill="none" stroke="#333" stroke-linecap="round" stroke-linejoin="round"/><path d="M150.64,161.55a2.31,2.31,0,0,1,0-.37,2.11,2.11,0,0,1,2.09-1.77" fill="none" stroke="#333" stroke-linecap="round" stroke-linejoin="round"/><path d="M135.83,141.84l2.68,56.5a1.74,1.74,0,0,0,.69,1.35c1.61,1.34,5.73,1.43,8.68.66" fill="none" stroke="#333" stroke-linecap="round" stroke-linejoin="round"/><path d="M169.51,141.84,167,197.26a2,2,0,0,1-.92,1.6c-2.34,1.77-8.51,1.87-10.83.4a1.62,1.62,0,0,1-.89-1.34l.51-36.37a2.12,2.12,0,0,0-2.13-2.14" fill="none" stroke="#333" stroke-linecap="round" stroke-linejoin="round"/><path d="M148,209a12,12,0,0,1-5.43,1.14c-4.9,0-8.88,0-8.88-3.23s5.35-7,5.35-7" fill="none" stroke="#333" stroke-linecap="round" stroke-linejoin="round"/><path d="M155.15,199.41a25.79,25.79,0,0,0-.5,5.38c0,3.27,3.43,5.38,8.33,5.38s8.88,0,8.88-3.23-5.41-8.06-5.41-8.06" fill="none" stroke="#333" stroke-linecap="round" stroke-linejoin="round"/><path d="M100.65,209c-.15.43-.31.84-.47,1.24h0c-1,1.61-2.58.65-2.2-.39a1.39,1.39,0,0,1-.44.56c-1,.78-2.7,0-1.7-1.84-.73,1.38-2.7,1.09-2-1.37a67.16,67.16,0,0,0,1.8-9c.33-2.28.61-4.62.82-6.73a72.07,72.07,0,0,0-.34-16.13c4.2-2.53,7.56-1.62,7.56-1.62a101.46,101.46,0,0,1,1.69,20.37,53.79,53.79,0,0,1-2.7,15.92c-.66,1.6-2.57,1.24-2-1Z" fill="#b97570"/><path d="M103.72,173.72s-3.36-.91-7.56,1.62a72.07,72.07,0,0,1,.34,16.13c-.21,2.11-.49,4.45-.82,6.73l-.16,0H74.25c-.33-2.28-.61-4.6-.82-6.71a71.55,71.55,0,0,1,.35-16.13c-4.21-2.53-7.56-1.62-7.56-1.62a34.3,34.3,0,0,1,2.35-7.38,18.69,18.69,0,0,1,11.15-10,12,12,0,0,0,10.49,0,18.66,18.66,0,0,1,11.15,10A33.73,33.73,0,0,1,103.72,173.72Z" fill="#e5e5e5"/><path d="M96,242.85c1,1.25,3.26,3.91,3.26,5.87,0,2.55-2.57,2.52-6.4,2.52s-6.18-1.65-6.18-4.2a12.91,12.91,0,0,1,.48-3.92C89.42,244.29,94.6,244.39,96,242.85Z" fill="#666"/><path d="M97.53,210.41l0,.06L96.32,242a1.25,1.25,0,0,1-.35.86c-1.37,1.54-6.55,1.44-8.84.27-.69-.35-1.12-.79-1.12-1.32l.4-35.49a1.45,1.45,0,1,0-2.89,0l.4,35.49c0,.49-.38.92-1,1.25-2.24,1.24-7.57,1.37-9-.2a1.24,1.24,0,0,1-.34-.86l-1.26-31.52,0-.06c1,.78,2.7,0,1.71-1.84.72,1.38,2.69,1.09,1.94-1.37a67.52,67.52,0,0,1-1.8-9H95.52l.16,0a67.16,67.16,0,0,1-1.8,9c-.75,2.46,1.22,2.75,2,1.37C94.83,210.36,96.55,211.19,97.53,210.41Z" fill="#fccc7a"/><path d="M93.34,145.84l-.42,0-.2-.07a12,12,0,0,0,.55-2,11.37,11.37,0,0,0,.21-2.16c0-.28,0-.57,0-.85h0a2.43,2.43,0,0,1,2.28,2.56A2.57,2.57,0,0,1,93.34,145.84Z" fill="#b97570"/><path d="M93.45,140.75c0,.28,0,.57,0,.85a11.37,11.37,0,0,1-.21,2.16c.14-1.63-.3-3.75-2.57-3.95S86.55,139.37,85,138c-1.59,1.37-3.54,1.61-5.73,1.81s-2.71,2.32-2.58,3.95h0a11.37,11.37,0,0,1-.21-2.16c0-.28,0-.57,0-.85.39-4.77,4-8.52,8.49-8.52S93.06,136,93.45,140.75Z" fill="#333"/><path d="M93.34,145.84l-.07,1.71a4.31,4.31,0,0,1-4.22,4.13h-.72l0,0a11.64,11.64,0,0,0,4.41-5.87l.2.07Z" fill="#333"/><path d="M90.7,139.81c2.27.2,2.71,2.32,2.57,3.95a12,12,0,0,1-.55,2,11.64,11.64,0,0,1-4.41,5.87,6,6,0,0,1-6.68,0,11.6,11.6,0,0,1-4.42-5.87,12,12,0,0,1-.55-2h0c-.13-1.63.3-3.75,2.58-3.95s4.14-.44,5.73-1.81C86.55,139.37,88.5,139.61,90.7,139.81Zm-.49,4.48a1.31,1.31,0,1,0-1.31,1.31A1.31,1.31,0,0,0,90.21,144.29Zm-7.87,0A1.31,1.31,0,1,0,81,145.6,1.3,1.3,0,0,0,82.34,144.29Z" fill="#b97570"/><path d="M88.9,143a1.31,1.31,0,1,1-1.31,1.31A1.31,1.31,0,0,1,88.9,143Zm.65,1.5a.72.72,0,0,0-1.44,0,.72.72,0,1,0,1.44,0Z" fill="#f2f2f2"/><circle cx="88.83" cy="144.48" r="0.72" fill="#333"/><path d="M88.33,151.69c.3,4.19,1.24,4.33,1.88,4.66a12,12,0,0,1-10.49,0c.64-.33,1.58-.47,1.88-4.66l0,0a6,6,0,0,0,6.68,0Z" fill="#b97570"/><path d="M82.93,243.06a18.36,18.36,0,0,1,.35,4c0,2.55-2.35,4.2-6.18,4.2s-6.4,0-6.4-2.52c0-2,2.22-4.62,3.26-5.87,1.4,1.57,6.73,1.44,9,.2Z" fill="#666"/><path d="M81,143a1.31,1.31,0,1,1-1.31,1.31A1.3,1.3,0,0,1,81,143Zm.79,1.5a.72.72,0,1,0-.72.73A.72.72,0,0,0,81.82,144.48Z" fill="#f2f2f2"/><circle cx="81.1" cy="144.48" r="0.72" fill="#333"/><path d="M81.63,151.66l0,0h-.72a4.33,4.33,0,0,1-4.22-4.13l-.07-1.71.42,0,.2-.07A11.6,11.6,0,0,0,81.63,151.66Z" fill="#333"/><path d="M76.59,145.84a2.56,2.56,0,0,1-2.41-2.53,2.42,2.42,0,0,1,2.27-2.56h0c0,.28,0,.57,0,.85a11.37,11.37,0,0,0,.21,2.16,12,12,0,0,0,.55,2l-.2.07Z" fill="#b97570"/><path d="M72,209.85c.38,1-1.23,2-2.2.39h0c-.17-.4-.33-.81-.47-1.24h0c.54,2.24-1.37,2.6-2,1a53.79,53.79,0,0,1-2.7-15.92,100.65,100.65,0,0,1,1.7-20.37s3.35-.91,7.56,1.62a71.55,71.55,0,0,0-.35,16.13c.21,2.11.49,4.43.82,6.71a67.52,67.52,0,0,0,1.8,9c.75,2.46-1.22,2.75-1.94,1.37,1,1.79-.73,2.62-1.71,1.84A1.39,1.39,0,0,1,72,209.85Z" fill="#b97570"/><path d="M72.36,210.47,73.62,242a1.24,1.24,0,0,0,.34.86c1.4,1.57,6.73,1.44,9,.2.61-.33,1-.76,1-1.25l-.4-35.49A1.44,1.44,0,0,1,85,204.85" fill="none" stroke="#333" stroke-linecap="round" stroke-linejoin="round"/><path d="M74.11,208.57c.72,1.38,2.69,1.09,1.94-1.37a67.52,67.52,0,0,1-1.8-9c-.33-2.28-.61-4.6-.82-6.71a71.55,71.55,0,0,1,.35-16.13" fill="none" stroke="#333" stroke-linecap="round" stroke-linejoin="round"/><path d="M69.77,210.28v0c-.17-.4-.33-.81-.47-1.24a26.86,26.86,0,0,1-.89-3.15" fill="none" stroke="#333" stroke-linecap="round" stroke-linejoin="round"/><path d="M72,209.85a33.67,33.67,0,0,1-1.4-4.42" fill="none" stroke="#333" stroke-linecap="round" stroke-linejoin="round"/><path d="M74.11,208.57A27.24,27.24,0,0,1,72.85,205" fill="none" stroke="#333" stroke-linecap="round" stroke-linejoin="round"/><path d="M69.76,210.24c1,1.61,2.58.65,2.2-.39a1.39,1.39,0,0,0,.44.56c1,.78,2.7,0,1.71-1.84" fill="none" stroke="#333" stroke-linecap="round" stroke-linejoin="round"/><path d="M85,152.68a6.27,6.27,0,0,1-3.34-1,11.6,11.6,0,0,1-4.42-5.87,12,12,0,0,1-.55-2,11.37,11.37,0,0,1-.21-2.16c0-.28,0-.57,0-.85.39-4.77,4-8.52,8.49-8.52" fill="none" stroke="#333" stroke-linecap="round" stroke-linejoin="round"/><path d="M77,145.86l-.42,0a2.56,2.56,0,0,1-2.41-2.53,2.42,2.42,0,0,1,2.27-2.56" fill="none" stroke="#333" stroke-linecap="round" stroke-linejoin="round"/><path d="M76.66,143.76c-.13-1.63.3-3.75,2.58-3.95s4.14-.44,5.73-1.81" fill="none" stroke="#333" stroke-linecap="round" stroke-linejoin="round"/><path d="M66.22,173.72s3.35-.91,7.56,1.62" fill="none" stroke="#333" stroke-linecap="round" stroke-linejoin="round"/><path d="M69.25,209c.54,2.24-1.37,2.6-2,1a53.79,53.79,0,0,1-2.7-15.92,100.65,100.65,0,0,1,1.7-20.37,34.3,34.3,0,0,1,2.35-7.38,18.69,18.69,0,0,1,11.15-10c.64-.33,1.58-.47,1.88-4.66" fill="none" stroke="#333" stroke-linecap="round" stroke-linejoin="round"/><path d="M82.93,243.06a18.36,18.36,0,0,1,.35,4c0,2.55-2.35,4.2-6.18,4.2s-6.4,0-6.4-2.52c0-2,2.22-4.62,3.26-5.87" fill="none" stroke="#333" stroke-linecap="round" stroke-linejoin="round"/><line x1="79.72" y1="141.8" x2="81.43" y2="141.67" fill="none" stroke="#333" stroke-linecap="round" stroke-linejoin="round"/><path d="M76.59,145.83h0l.07,1.71a4.33,4.33,0,0,0,4.22,4.13h.72" fill="none" stroke="#333" stroke-linecap="round" stroke-linejoin="round"/><path d="M79.72,156.35A10.33,10.33,0,0,0,85,157.56" fill="none" stroke="#333" stroke-linecap="round" stroke-linejoin="round"/><path d="M97.58,210.47,96.32,242a1.25,1.25,0,0,1-.35.86c-1.37,1.54-6.55,1.44-8.84.27-.69-.35-1.12-.79-1.12-1.32l.4-35.49A1.44,1.44,0,0,0,85,204.85" fill="none" stroke="#333" stroke-linecap="round" stroke-linejoin="round"/><path d="M95.83,208.57c-.73,1.38-2.7,1.09-2-1.37a67.16,67.16,0,0,0,1.8-9c.33-2.28.61-4.62.82-6.73a72.07,72.07,0,0,0-.34-16.13" fill="none" stroke="#333" stroke-linecap="round" stroke-linejoin="round"/><path d="M100.16,210.28l0,0c.16-.4.32-.81.47-1.24a26.86,26.86,0,0,0,.88-3.15" fill="none" stroke="#333" stroke-linecap="round" stroke-linejoin="round"/><path d="M98,209.85a33.67,33.67,0,0,0,1.4-4.42" fill="none" stroke="#333" stroke-linecap="round" stroke-linejoin="round"/><path d="M95.83,208.57A28.8,28.8,0,0,0,97.09,205" fill="none" stroke="#333" stroke-linecap="round" stroke-linejoin="round"/><path d="M100.17,210.24c-1,1.61-2.58.65-2.2-.39a1.39,1.39,0,0,1-.44.56c-1,.78-2.7,0-1.7-1.84" fill="none" stroke="#333" stroke-linecap="round" stroke-linejoin="round"/><path d="M85,152.68a6.32,6.32,0,0,0,3.34-1,11.64,11.64,0,0,0,4.41-5.87,12,12,0,0,0,.55-2,11.37,11.37,0,0,0,.21-2.16c0-.28,0-.57,0-.85-.39-4.77-4-8.52-8.48-8.52" fill="none" stroke="#333" stroke-linecap="round" stroke-linejoin="round"/><path d="M92.92,145.86l.42,0a2.57,2.57,0,0,0,2.42-2.53,2.43,2.43,0,0,0-2.28-2.56" fill="none" stroke="#333" stroke-linecap="round" stroke-linejoin="round"/><path d="M93.27,143.76c.14-1.63-.3-3.75-2.57-3.95S86.55,139.37,85,138" fill="none" stroke="#333" stroke-linecap="round" stroke-linejoin="round"/><path d="M103.72,173.72s-3.36-.91-7.56,1.62" fill="none" stroke="#333" stroke-linecap="round" stroke-linejoin="round"/><path d="M100.68,209c-.54,2.24,1.37,2.6,2,1a53.79,53.79,0,0,0,2.7-15.92,101.46,101.46,0,0,0-1.69-20.37,33.73,33.73,0,0,0-2.36-7.38,18.66,18.66,0,0,0-11.15-10c-.64-.33-1.58-.47-1.88-4.66" fill="none" stroke="#333" stroke-linecap="round" stroke-linejoin="round"/><path d="M87.13,243.12a12.91,12.91,0,0,0-.48,3.92c0,2.55,2.35,4.2,6.18,4.2s6.4,0,6.4-2.52c0-2-2.21-4.62-3.26-5.87" fill="none" stroke="#333" stroke-linecap="round" stroke-linejoin="round"/><line x1="90.21" y1="141.8" x2="88.5" y2="141.67" fill="none" stroke="#333" stroke-linecap="round" stroke-linejoin="round"/><path d="M93.34,145.83h0l-.07,1.71a4.31,4.31,0,0,1-4.22,4.13h-.72" fill="none" stroke="#333" stroke-linecap="round" stroke-linejoin="round"/><path d="M90.21,156.35A10.31,10.31,0,0,1,85,157.56" fill="none" stroke="#333" stroke-linecap="round" stroke-linejoin="round"/><line x1="74.29" y1="198.17" x2="95.52" y2="198.17" fill="none" stroke="#333" stroke-linecap="round" stroke-linejoin="round"/><path d="M83.39,149a2.62,2.62,0,0,0,3.15,0" fill="none" stroke="#000" stroke-linecap="round" stroke-linejoin="round"/><path d="M315,136.78c-.64,1.22-2.38,1-1.72-1.21a73.87,73.87,0,0,0,1.78-7.88c.36-2,.66-4.15.85-6a91.94,91.94,0,0,0,0-15.31c3.73-2.24,6.5-1.4,6.5-1.4l.18,0a59.65,59.65,0,0,1,1.22,19.54c-.47,5.1-1.8,11.45-2.71,13.62-.59,1.42-2.28,1.1-1.8-.88h0c-.13.38-.27.74-.42,1.1h0c-.72,1.2-1.84.79-2,.09a.83.83,0,0,1,0-.44C316.3,139.34,314,138.64,315,136.78Z" fill="#f5afb3"/><path d="M322.63,104.89l-.18,0s-2.77-.84-6.5,1.4a91.94,91.94,0,0,1,0,15.31c-.19,1.9-.49,4-.85,6H297.31c-.36-2-.66-4.15-.85-6a93,93,0,0,1,0-15.31c-3.72-2.24-6.5-1.4-6.5-1.4l-.17,0a29.5,29.5,0,0,1,1.91-5.5,16.51,16.51,0,0,1,9.87-8.84H302a10,10,0,0,0,8.36,0l.12-.18.34.18a16.51,16.51,0,0,1,9.87,8.84A29.5,29.5,0,0,1,322.63,104.89Z" fill="#99d5bd"/><path d="M315.5,167.13c.92,1.12,2.88,3.46,2.88,5.19,0,2.26-2.28,2.23-5.67,2.23s-5.48-1.46-5.48-3.72a16.34,16.34,0,0,1,.37-3.7l0,0C309.24,168.38,314.24,168.61,315.5,167.13Z" fill="#333"/><path d="M296.92,167.13a1.11,1.11,0,0,1-.29-.76l-1.1-28h0a.83.83,0,0,0,0-.44c.64,1.43,2.93.73,1.9-1.13.64,1.22,2.38,1,1.72-1.21a73.65,73.65,0,0,1-1.79-7.88H315.1a73.87,73.87,0,0,1-1.78,7.88c-.66,2.18,1.08,2.43,1.72,1.21-1,1.86,1.26,2.56,1.9,1.13a.83.83,0,0,0,0,.44h0l-1.09,28a1.11,1.11,0,0,1-.29.76c-1.26,1.48-6.26,1.25-7.86,0a1.13,1.13,0,0,1-.5-.88l.21-31.1a1.14,1.14,0,1,0-2.28,0h0l.21,31.1a1.16,1.16,0,0,1-.5.88C303.17,168.38,298.18,168.61,296.92,167.13Z" fill="#999"/><path d="M313.75,76.74a2.14,2.14,0,0,1,2,2.26,2.32,2.32,0,0,1-2.51,2.26l-.18-.06a11.34,11.34,0,0,0,.57-2.26,10.11,10.11,0,0,0,.11-1.45q0-.37,0-.75Z" fill="#f5afb3"/><path d="M313.72,76.74q0,.38,0,.75a10.11,10.11,0,0,1-.11,1.45h0c-1.39,0-.92-2.32-2.39-3.71s-2.52-.93-5-.93-3.71-.32-5,.93c-1.47,1.39-1,3.71-2.4,3.71h0a8.85,8.85,0,0,1-.11-1.45q0-.37,0-.75c.34-4.23,3.57-7.54,7.51-7.54S313.37,72.51,313.72,76.74Z" fill="#fddda6"/><path d="M303.23,86.38a10.33,10.33,0,0,1-3.89-5.18,11.32,11.32,0,0,1-.56-2.26h0c1.39,0,.93-2.32,2.4-3.71,1.32-1.25,2.51-.93,5-.93s3.71-.32,5,.93,1,3.71,2.39,3.71h0a11.34,11.34,0,0,1-.57,2.26,10.25,10.25,0,0,1-3.88,5.18,5.29,5.29,0,0,1-6,0Zm7.62-6.51A1.16,1.16,0,1,0,309.69,81,1.16,1.16,0,0,0,310.85,79.87Zm-7,0A1.16,1.16,0,1,0,302.73,81,1.16,1.16,0,0,0,303.89,79.87Z" fill="#f5afb3"/><path d="M309.69,78.71a1.16,1.16,0,1,1-1.16,1.16A1.16,1.16,0,0,1,309.69,78.71Zm.58,1.33a.64.64,0,1,0-.64.64A.64.64,0,0,0,310.27,80Z" fill="#fff"/><path d="M310.51,90.37l-.12.18a10,10,0,0,1-8.36,0h-.46c.57-.29,1.39-.47,1.66-4.17a5.29,5.29,0,0,0,6,0C309.41,89.39,310,90.07,310.51,90.37Z" fill="#f5afb3"/><circle cx="309.63" cy="80.04" r="0.64" fill="#333"/><path d="M304.82,167.13a16.78,16.78,0,0,1,.36,3.7c0,2.26-2.08,3.72-5.47,3.72s-5.67,0-5.67-2.23c0-1.73,2-4.07,2.88-5.19,1.26,1.48,6.25,1.25,7.86,0Z" fill="#333"/><path d="M302.73,78.71a1.16,1.16,0,1,1-1.16,1.16A1.16,1.16,0,0,1,302.73,78.71Zm.69,1.33a.64.64,0,1,0-.63.64A.63.63,0,0,0,303.42,80Z" fill="#fff"/><circle cx="302.79" cy="80.04" r="0.64" fill="#333"/><path d="M299.34,81.2l-.17.06A2.32,2.32,0,0,1,296.66,79a2.14,2.14,0,0,1,2-2.26h0q0,.38,0,.75a8.85,8.85,0,0,0,.11,1.45A11.32,11.32,0,0,0,299.34,81.2Z" fill="#f5afb3"/><path d="M297.38,136.78c1,1.86-1.26,2.56-1.9,1.13a.83.83,0,0,1,0,.44c-.15.7-1.26,1.11-2-.09h0c-.15-.36-.29-.72-.42-1.1h0c.48,2-1.21,2.3-1.8.88-.91-2.17-2.24-8.52-2.71-13.62a59.65,59.65,0,0,1,1.22-19.54l.17,0s2.78-.84,6.5,1.4a93,93,0,0,0,0,15.31c.19,1.9.49,4,.85,6a73.65,73.65,0,0,0,1.79,7.88C299.76,137.75,298,138,297.38,136.78Z" fill="#f5afb3"/><line x1="297.39" y1="127.68" x2="315.03" y2="127.68" fill="none" stroke="#333" stroke-linecap="round" stroke-linejoin="round"/><path d="M297.38,136.78c.64,1.22,2.38,1,1.72-1.21a73.65,73.65,0,0,1-1.79-7.88c-.36-2-.66-4.15-.85-6a93,93,0,0,1,0-15.31" fill="none" stroke="#333" stroke-linecap="round" stroke-linejoin="round"/><path d="M293.54,138.3v0c-.15-.36-.29-.72-.42-1.1a25.87,25.87,0,0,1-.79-2.79" fill="none" stroke="#333" stroke-linecap="round" stroke-linejoin="round"/><path d="M295.48,137.91a26.74,26.74,0,0,1-1.24-3.91" fill="none" stroke="#333" stroke-linecap="round" stroke-linejoin="round"/><path d="M297.38,136.78a24,24,0,0,1-1.12-3.16" fill="none" stroke="#333" stroke-linecap="round" stroke-linejoin="round"/><path d="M293.53,138.26c.72,1.2,1.83.79,2,.09a.83.83,0,0,0,0-.44c.64,1.43,2.93.73,1.9-1.13" fill="none" stroke="#333" stroke-linecap="round" stroke-linejoin="round"/><path d="M306.21,87.3a5.56,5.56,0,0,1-3-.92,10.33,10.33,0,0,1-3.89-5.18,11.32,11.32,0,0,1-.56-2.26,8.85,8.85,0,0,1-.11-1.45q0-.37,0-.75c.34-4.23,3.57-7.54,7.51-7.54" fill="none" stroke="#333" stroke-linecap="round" stroke-linejoin="round"/><path d="M299.17,81.26A2.32,2.32,0,0,1,296.66,79a2.14,2.14,0,0,1,2-2.26" fill="none" stroke="#333" stroke-linecap="round" stroke-linejoin="round"/><path d="M298.78,78.94c1.39,0,.93-2.32,2.4-3.71,1.32-1.25,2.51-.93,5-.93" fill="none" stroke="#333" stroke-linecap="round" stroke-linejoin="round"/><path d="M290,104.93s2.78-.84,6.5,1.4" fill="none" stroke="#333" stroke-linecap="round" stroke-linejoin="round"/><path d="M293.08,137.17c.48,2-1.21,2.3-1.8.88-.91-2.17-2.24-8.52-2.71-13.62a59.65,59.65,0,0,1,1.22-19.54,29.5,29.5,0,0,1,1.91-5.5,16.51,16.51,0,0,1,9.87-8.84c.57-.29,1.39-.47,1.66-4.17h0" fill="none" stroke="#333" stroke-linecap="round" stroke-linejoin="round"/><path d="M304.82,167.13a16.78,16.78,0,0,1,.36,3.7c0,2.26-2.08,3.72-5.47,3.72s-5.67,0-5.67-2.23c0-1.73,2-4.07,2.88-5.19h0" fill="none" stroke="#333" stroke-linecap="round" stroke-linejoin="round"/><line x1="301.57" y1="77.67" x2="303.08" y2="77.55" fill="none" stroke="#333" stroke-linecap="round" stroke-linejoin="round"/><path d="M302,90.55a10.44,10.44,0,0,0,4.18.92" fill="none" stroke="#333" stroke-linecap="round" stroke-linejoin="round"/><path d="M316.88,138.35l-1.09,28a1.11,1.11,0,0,1-.29.76c-1.26,1.48-6.26,1.25-7.86,0a1.13,1.13,0,0,1-.5-.88l.21-31.1a1.14,1.14,0,1,0-2.28,0h0l.21,31.1a1.16,1.16,0,0,1-.5.88c-1.61,1.3-6.6,1.53-7.86,0a1.11,1.11,0,0,1-.29-.76l-1.1-28" fill="none" stroke="#333" stroke-linecap="round" stroke-linejoin="round"/><path d="M315,136.78c-.64,1.22-2.38,1-1.72-1.21a73.87,73.87,0,0,0,1.78-7.88c.36-2,.66-4.15.85-6a91.94,91.94,0,0,0,0-15.31" fill="none" stroke="#333" stroke-linecap="round" stroke-linejoin="round"/><path d="M318.88,138.3v0c.15-.36.29-.72.42-1.1a25.87,25.87,0,0,0,.79-2.79" fill="none" stroke="#333" stroke-linecap="round" stroke-linejoin="round"/><path d="M316.94,137.91a28,28,0,0,0,1.24-3.91" fill="none" stroke="#333" stroke-linecap="round" stroke-linejoin="round"/><path d="M315,136.78a25.56,25.56,0,0,0,1.12-3.16" fill="none" stroke="#333" stroke-linecap="round" stroke-linejoin="round"/><path d="M318.89,138.26c-.72,1.2-1.84.79-2,.09a.83.83,0,0,1,0-.44c-.64,1.43-2.93.73-1.9-1.13" fill="none" stroke="#333" stroke-linecap="round" stroke-linejoin="round"/><path d="M306.21,87.3a5.56,5.56,0,0,0,3-.92,10.25,10.25,0,0,0,3.88-5.18,11.34,11.34,0,0,0,.57-2.26,10.11,10.11,0,0,0,.11-1.45q0-.37,0-.75c-.35-4.23-3.58-7.54-7.51-7.54" fill="none" stroke="#333" stroke-linecap="round" stroke-linejoin="round"/><path d="M313.25,81.26A2.32,2.32,0,0,0,315.76,79a2.14,2.14,0,0,0-2-2.26" fill="none" stroke="#333" stroke-linecap="round" stroke-linejoin="round"/><path d="M313.63,78.94c-1.39,0-.92-2.32-2.39-3.71s-2.52-.93-5-.93" fill="none" stroke="#333" stroke-linecap="round" stroke-linejoin="round"/><path d="M322.45,104.93s-2.77-.84-6.5,1.4" fill="none" stroke="#333" stroke-linecap="round" stroke-linejoin="round"/><path d="M319.34,137.17c-.48,2,1.21,2.3,1.8.88.91-2.17,2.24-8.52,2.71-13.62a59.65,59.65,0,0,0-1.22-19.54,29.5,29.5,0,0,0-1.91-5.5,16.51,16.51,0,0,0-9.87-8.84l-.34-.18c-.52-.3-1.1-1-1.32-4h0" fill="none" stroke="#333" stroke-linecap="round" stroke-linejoin="round"/><path d="M307.6,167.13a16.34,16.34,0,0,0-.37,3.7c0,2.26,2.09,3.72,5.48,3.72s5.67,0,5.67-2.23c0-1.73-2-4.07-2.88-5.19h0" fill="none" stroke="#333" stroke-linecap="round" stroke-linejoin="round"/><line x1="310.85" y1="77.67" x2="309.34" y2="77.55" fill="none" stroke="#333" stroke-linecap="round" stroke-linejoin="round"/><path d="M310.39,90.55a10.44,10.44,0,0,1-4.18.92" fill="none" stroke="#333" stroke-linecap="round" stroke-linejoin="round"/><path d="M304.82,84.05a2.31,2.31,0,0,0,2.78,0" fill="none" stroke="#333" stroke-linecap="round" stroke-linejoin="round"/><path d="M255.38,198.68c-.89,1.7-3.33,1-2.13-2.13A63.77,63.77,0,0,0,255.54,185a57.46,57.46,0,0,0,.44-6.74V159.61a9.54,9.54,0,0,1,9.84,0h0a137,137,0,0,1,1.52,21.75,61.73,61.73,0,0,1-3.5,19.1c-.83,2-3.18,1.53-2.51-1.22l0,0c-.18.52-.38,1-.58,1.53h0c-1.19,2-3.18.8-2.71-.48a1.74,1.74,0,0,1-.54.69C256.27,201.91,254.16,200.88,255.38,198.68Z" fill="#f5afb3"/><path d="M232.17,135.79a14.28,14.28,0,0,1,2.59-1s1.55,2.59,7.24,2.59,7.25-2.59,7.25-2.59a14.28,14.28,0,0,1,2.59,1,22.84,22.84,0,0,1,10.35,10.87,50.1,50.1,0,0,1,3.66,12.94h0a9.54,9.54,0,0,0-9.84,0v18.63a57.46,57.46,0,0,1-.44,6.74H228.46a59.66,59.66,0,0,1-.43-6.74V159.61a9.54,9.54,0,0,0-9.84,0h0a49.74,49.74,0,0,1,3.65-12.94A22.85,22.85,0,0,1,232.17,135.79Z" fill="#81aeff"/><path d="M256,239.85s4.66,5.14,4.66,8.28-3.83,3.11-8.54,3.11-8-2-8-5.18a18.51,18.51,0,0,1,.67-5.2c2.22,1.63,9.25,1.27,10.89-1Z" fill="#666"/><path d="M244.74,240.86a1.44,1.44,0,0,1-.67-1.15V195.59a1.81,1.81,0,0,0-1.81-1.82h-.52a1.81,1.81,0,0,0-1.81,1.82v44.12a1.56,1.56,0,0,1-.65,1.19C236.78,243,228,243,228,239.85L226.47,201l.05-.07c1.22,1,3.33-.07,2.11-2.27.89,1.7,3.32,1,2.12-2.13A64.69,64.69,0,0,1,228.46,185h27.08a63.77,63.77,0,0,1-2.29,11.57c-1.2,3.12,1.24,3.83,2.13,2.13-1.22,2.2.89,3.23,2.1,2.27l0,.07L256,238.81a1.72,1.72,0,0,1-.35,1c-1.64,2.28-8.67,2.64-10.89,1Z" fill="#ccc"/><path d="M250.42,118.32a2.4,2.4,0,0,1,2.24,2.52,2.52,2.52,0,0,1-2.38,2.5,2.9,2.9,0,0,1-.43,0l-.19-.07a12.56,12.56,0,0,0,.63-2.52,11.17,11.17,0,0,0,.13-1.62,7.87,7.87,0,0,0,0-.84Z" fill="#f5afb3"/><path d="M250.38,118.32a7.87,7.87,0,0,1,0,.84,11.17,11.17,0,0,1-.13,1.62h0s-1-3-2.68-4.14-2.8,0-5.61,0-3.92-1.12-5.61,0-2.67,4.14-2.67,4.14h0a11.14,11.14,0,0,1-.12-1.62q0-.42,0-.84c.39-4.71,4-8.41,8.38-8.41S250,113.61,250.38,118.32Z" fill="#333"/><path d="M250.29,120.78h0a12.56,12.56,0,0,1-.63,2.52,12,12,0,0,1-3.54,5.21,6.12,6.12,0,0,1-8.23,0,12,12,0,0,1-3.54-5.21,12.59,12.59,0,0,1-.64-2.52h0s1-3,2.67-4.14,2.81,0,5.61,0,3.93-1.12,5.61,0S250.29,120.78,250.29,120.78Zm-2.89,1.1a1.3,1.3,0,1,0-1.29,1.29A1.29,1.29,0,0,0,247.4,121.88Zm-8-.07a1.29,1.29,0,1,0-1.29,1.3A1.29,1.29,0,0,0,239.41,121.81Z" fill="#f5afb3"/><path d="M250.28,123.34v0s-.52,9.31,1.55,12.42a14.28,14.28,0,0,0-2.59-1s-3.11-.52-3.11-6.22l0,0a12,12,0,0,0,3.54-5.21l.19.07A2.9,2.9,0,0,0,250.28,123.34Z" fill="#333"/><path d="M249.25,134.76s-1.55,2.59-7.25,2.59-7.24-2.59-7.24-2.59,3.1-.52,3.1-6.22l0,0a6.12,6.12,0,0,0,8.23,0l0,0C246.14,134.24,249.25,134.76,249.25,134.76Z" fill="#f5afb3"/><path d="M246.11,120.59a1.29,1.29,0,1,1-1.3,1.29A1.29,1.29,0,0,1,246.11,120.59Zm.55,1.42a.71.71,0,1,0-.71.71A.71.71,0,0,0,246.66,122Z" fill="#fff"/><circle cx="245.95" cy="122.01" r="0.71" fill="#333"/><path d="M239.28,240.91a18.33,18.33,0,0,1,.65,5.15c0,3.15-3.31,5.18-8,5.18s-8.54,0-8.54-3.11,4.66-8.28,4.66-8.28c0,3.18,8.75,3.13,11.25,1.05Z" fill="#666"/><path d="M238.12,120.52a1.3,1.3,0,1,1-1.29,1.29A1.29,1.29,0,0,1,238.12,120.52Zm.78,1.49a.72.72,0,1,0-.71.71A.71.71,0,0,0,238.9,122Z" fill="#fff"/><circle cx="238.19" cy="122.01" r="0.71" fill="#333"/><path d="M237.89,128.51l0,0c0,5.7-3.1,6.22-3.1,6.22a14.28,14.28,0,0,0-2.59,1c2.07-3.11,1.55-12.42,1.55-12.42v0a3,3,0,0,0,.43,0l.2-.07A12,12,0,0,0,237.89,128.51Z" fill="#333"/><path d="M234.35,123.3l-.2.07a3,3,0,0,1-.43,0,2.52,2.52,0,0,1-2.37-2.5,2.39,2.39,0,0,1,2.24-2.52h0q0,.42,0,.84a11.14,11.14,0,0,0,.12,1.62A12.59,12.59,0,0,0,234.35,123.3Z" fill="#f5afb3"/><path d="M228.63,198.68c1.22,2.2-.89,3.23-2.11,2.27a1.72,1.72,0,0,1-.53-.69c.46,1.28-1.53,2.47-2.71.48h0c-.21-.5-.4-1-.58-1.53l0,0c.66,2.75-1.69,3.19-2.51,1.22a61.73,61.73,0,0,1-3.5-19.1,137,137,0,0,1,1.52-21.75h0a9.54,9.54,0,0,1,9.84,0v18.63a59.66,59.66,0,0,0,.43,6.74,64.69,64.69,0,0,0,2.29,11.57C232,199.67,229.52,200.38,228.63,198.68Z" fill="#f5afb3"/><path d="M222.65,199.23c.66,2.75-1.69,3.19-2.51,1.22a61.73,61.73,0,0,1-3.5-19.1,137,137,0,0,1,1.52-21.75,49.74,49.74,0,0,1,3.65-12.94,22.85,22.85,0,0,1,10.36-10.87,14.28,14.28,0,0,1,2.59-1s1.55,2.59,7.24,2.59" fill="none" stroke="#333" stroke-linecap="round" stroke-miterlimit="10"/><path d="M226.47,201,228,239.85c0,3.18,8.75,3.13,11.25,1.05a1.56,1.56,0,0,0,.65-1.19V195.59a1.81,1.81,0,0,1,1.81-1.82H242" fill="none" stroke="#333" stroke-linecap="round" stroke-miterlimit="10"/><path d="M228.63,198.68c.89,1.7,3.32,1,2.12-2.13A64.69,64.69,0,0,1,228.46,185a59.66,59.66,0,0,1-.43-6.74V159.61" fill="none" stroke="#333" stroke-linecap="round" stroke-miterlimit="10"/><path d="M223.29,200.79s0,0,0,0c-.21-.5-.4-1-.58-1.53a34.38,34.38,0,0,1-1.1-3.88" fill="none" stroke="#333" stroke-linecap="round" stroke-miterlimit="10"/><path d="M226,200.26a39.12,39.12,0,0,1-1.73-5.45" fill="none" stroke="#333" stroke-linecap="round" stroke-miterlimit="10"/><path d="M228.63,198.68a36,36,0,0,1-1.56-4.39" fill="none" stroke="#333" stroke-linecap="round" stroke-miterlimit="10"/><path d="M223.28,200.74c1.18,2,3.17.8,2.71-.48a1.72,1.72,0,0,0,.53.69c1.22,1,3.33-.07,2.11-2.27" fill="none" stroke="#333" stroke-linecap="round" stroke-miterlimit="10"/><path d="M242,130.1a6.59,6.59,0,0,1-4.11-1.59,12,12,0,0,1-3.54-5.21,12.59,12.59,0,0,1-.64-2.52,11.14,11.14,0,0,1-.12-1.62q0-.42,0-.84c.39-4.71,4-8.41,8.38-8.41" fill="none" stroke="#333" stroke-linecap="round" stroke-miterlimit="10"/><path d="M234.15,123.37a3,3,0,0,1-.43,0,2.52,2.52,0,0,1-2.37-2.5,2.39,2.39,0,0,1,2.24-2.52" fill="none" stroke="#333" stroke-linecap="round" stroke-miterlimit="10"/><path d="M233.72,120.78s1-3,2.67-4.14,2.81,0,5.61,0" fill="none" stroke="#333" stroke-linecap="round" stroke-miterlimit="10"/><path d="M218.19,159.61a9.54,9.54,0,0,1,9.84,0" fill="none" stroke="#333" stroke-linecap="round" stroke-miterlimit="10"/><path d="M234.76,134.76s3.1-.52,3.1-6.22" fill="none" stroke="#333" stroke-linecap="round" stroke-miterlimit="10"/><path d="M233.72,123.37s.52,9.31-1.55,12.42h0" fill="none" stroke="#333" stroke-linecap="round" stroke-miterlimit="10"/><path d="M261.36,199.23c-.67,2.75,1.68,3.19,2.51,1.22a61.73,61.73,0,0,0,3.5-19.1,137,137,0,0,0-1.52-21.75,50.1,50.1,0,0,0-3.66-12.94,22.84,22.84,0,0,0-10.35-10.87,14.28,14.28,0,0,0-2.59-1s-1.55,2.59-7.25,2.59" fill="none" stroke="#333" stroke-linecap="round" stroke-miterlimit="10"/><path d="M244.74,240.86a1.44,1.44,0,0,1-.67-1.15V195.59a1.81,1.81,0,0,0-1.81-1.82H242" fill="none" stroke="#333" stroke-linecap="round" stroke-miterlimit="10"/><path d="M257.53,201,256,238.81a1.72,1.72,0,0,1-.35,1c-1.64,2.28-8.67,2.64-10.89,1" fill="none" stroke="#333" stroke-linecap="round" stroke-miterlimit="10"/><path d="M255.38,198.68c-.89,1.7-3.33,1-2.13-2.13A63.77,63.77,0,0,0,255.54,185a57.46,57.46,0,0,0,.44-6.74V159.61" fill="none" stroke="#333" stroke-linecap="round" stroke-miterlimit="10"/><path d="M260.72,200.79l0,0c.2-.5.4-1,.58-1.53a34.37,34.37,0,0,0,1.09-3.88" fill="none" stroke="#333" stroke-linecap="round" stroke-miterlimit="10"/><path d="M258,200.26a39.17,39.17,0,0,0,1.58-4.87" fill="none" stroke="#333" stroke-linecap="round" stroke-miterlimit="10"/><path d="M255.38,198.68a34.73,34.73,0,0,0,1.4-3.87" fill="none" stroke="#333" stroke-linecap="round" stroke-miterlimit="10"/><path d="M260.73,200.74c-1.19,2-3.18.8-2.71-.48a1.74,1.74,0,0,1-.54.69c-1.21,1-3.32-.07-2.1-2.27" fill="none" stroke="#333" stroke-linecap="round" stroke-miterlimit="10"/><path d="M242,130.1a6.59,6.59,0,0,0,4.12-1.59,12,12,0,0,0,3.54-5.21,12.56,12.56,0,0,0,.63-2.52,11.17,11.17,0,0,0,.13-1.62,7.87,7.87,0,0,0,0-.84c-.38-4.71-4-8.41-8.38-8.41" fill="none" stroke="#333" stroke-linecap="round" stroke-miterlimit="10"/><path d="M249.85,123.37a2.9,2.9,0,0,0,.43,0,2.52,2.52,0,0,0,2.38-2.5,2.4,2.4,0,0,0-2.24-2.52" fill="none" stroke="#333" stroke-linecap="round" stroke-miterlimit="10"/><path d="M250.29,120.78s-1-3-2.68-4.14-2.8,0-5.61,0" fill="none" stroke="#333" stroke-linecap="round" stroke-miterlimit="10"/><path d="M265.82,159.61a9.54,9.54,0,0,0-9.84,0" fill="none" stroke="#333" stroke-linecap="round" stroke-miterlimit="10"/><line x1="255.46" y1="184.97" x2="228.54" y2="184.97" fill="none" stroke="#333" stroke-linecap="round" stroke-miterlimit="10"/><path d="M249.25,134.76s-3.11-.52-3.11-6.22" fill="none" stroke="#333" stroke-linecap="round" stroke-miterlimit="10"/><path d="M250.29,123.37s-.52,9.31,1.55,12.42h0" fill="none" stroke="#333" stroke-linecap="round" stroke-miterlimit="10"/><path d="M239.28,240.91a18.33,18.33,0,0,1,.65,5.15c0,3.15-3.31,5.18-8,5.18s-8.54,0-8.54-3.11,4.66-8.28,4.66-8.28" fill="none" stroke="#333" stroke-linecap="round" stroke-miterlimit="10"/><path d="M244.74,240.85h0a18.51,18.51,0,0,0-.67,5.2c0,3.15,3.31,5.18,8,5.18s8.54,0,8.54-3.11-4.66-8.28-4.66-8.28" fill="none" stroke="#333" stroke-linecap="round" stroke-miterlimit="10"/><path d="M240.45,126a2.6,2.6,0,0,0,3.11,0" fill="none" stroke="#333" stroke-linecap="round" stroke-miterlimit="10"/><line x1="236.83" y1="119.36" x2="238.51" y2="119.23" fill="none" stroke="#333" stroke-linecap="round" stroke-miterlimit="10"/><line x1="247.7" y1="119.49" x2="246.14" y2="119.23" fill="none" stroke="#333" stroke-linecap="round" stroke-miterlimit="10"/><circle cx="222.11" cy="184.97" r="2.12" fill="#e63741"/><circle cx="230.85" cy="184.97" r="2.12" fill="#e63741"/><circle cx="215.34" cy="164.21" r="2.12" fill="#e63741"/><circle cx="263.88" cy="187.45" r="2.12" fill="#e63741"/><circle cx="238.96" cy="240.78" r="2.12" fill="#e63741"/><circle cx="242.7" cy="159.12" r="2.12" fill="#e63741"/><circle cx="249.85" cy="179.28" r="2.12" fill="#e63741"/><circle cx="266.56" cy="168.44" r="2.12" fill="#e63741"/><circle cx="224.23" cy="208.08" r="2.12" fill="#e63741"/><circle cx="259.41" cy="196.22" r="2.12" fill="#e63741"/><circle cx="257.29" cy="212.31" r="2.12" fill="#e63741"/><circle cx="240.75" cy="210.19" r="2.12" fill="#e63741"/><circle cx="232.17" cy="232.31" r="2.12" fill="#e63741"/><circle cx="228.08" cy="140.61" r="2.12" fill="#e63741"/><circle cx="226.55" cy="223.61" r="2.12" fill="#e63741"/><circle cx="236.35" cy="172.06" r="2.12" fill="#e63741"/><circle cx="251.97" cy="157.66" r="2.12" fill="#e63741"/><circle cx="256.6" cy="236.54" r="2.12" fill="#e63741"/><circle cx="223.61" cy="238.66" r="2.12" fill="#e63741"/><circle cx="268.68" cy="177.17" r="2.12" fill="#e63741"/><circle cx="258.14" cy="183.64" r="2.12" fill="#e63741"/><circle cx="264.44" cy="202.91" r="2.12" fill="#e63741"/><circle cx="219.99" cy="175.05" r="2.12" fill="#e63741"/><circle cx="236.83" cy="111" r="2.12" fill="#e63741"/><circle cx="246.14" cy="204.17" r="2.12" fill="#e63741"/><circle cx="216.64" cy="189.57" r="2.12" fill="#e63741"/><circle cx="261.75" cy="164.16" r="2.12" fill="#e63741"/><circle cx="224.46" cy="166.28" r="2.12" fill="#e63741"/><circle cx="215.19" cy="150.19" r="2.12" fill="#e63741"/><circle cx="243.12" cy="152.31" r="2.12" fill="#e63741"/><circle cx="232.17" cy="150.19" r="2.12" fill="#e63741"/><circle cx="253.96" cy="150.19" r="2.12" fill="#e63741"/><circle cx="246.21" cy="137.07" r="2.12" fill="#e63741"/><circle cx="246.21" cy="108.88" r="2.12" fill="#e63741"/><circle cx="258.81" cy="221.88" r="2.12" fill="#e63741"/><circle cx="257.32" cy="138.89" r="2.12" fill="#e63741"/><circle cx="247.52" cy="190.44" r="2.12" fill="#e63741"/><circle cx="230.51" cy="203.88" r="2.12" fill="#e63741"/><circle cx="232.17" cy="130.61" r="2.12" fill="#e63741"/><circle cx="253.96" cy="127.66" r="2.12" fill="#e63741"/><circle cx="354.7" cy="182.98" r="2.12" fill="#e63741"/><circle cx="363.44" cy="184.97" r="2.12" fill="#e63741"/><circle cx="349.51" cy="164.88" r="2.12" fill="#e63741"/><circle cx="373.66" cy="238.66" r="2.12" fill="#e63741"/><circle cx="370.81" cy="158.92" r="2.12" fill="#e63741"/><circle cx="398.58" cy="154.21" r="2.12" fill="#e63741"/><circle cx="392" cy="196.22" r="2.12" fill="#e63741"/><circle cx="373.34" cy="210.19" r="2.12" fill="#e63741"/><circle cx="360.67" cy="140.61" r="2.12" fill="#e63741"/><circle cx="359.58" cy="225.08" r="2.12" fill="#e63741"/><circle cx="368.94" cy="172.06" r="2.12" fill="#e63741"/><circle cx="385.95" cy="158.62" r="2.12" fill="#e63741"/><circle cx="390.42" cy="235.61" r="2.12" fill="#e63741"/><circle cx="361.7" cy="234.43" r="2.12" fill="#e63741"/><circle cx="400.06" cy="176.3" r="2.12" fill="#e63741"/><circle cx="390.73" cy="183.64" r="2.12" fill="#e63741"/><circle cx="387.79" cy="206.29" r="2.12" fill="#e63741"/><circle cx="376.65" cy="114.5" r="2.12" fill="#e63741"/><circle cx="378.73" cy="204.17" r="2.12" fill="#e63741"/><circle cx="394.34" cy="164.16" r="2.12" fill="#e63741"/><circle cx="357.05" cy="166.28" r="2.12" fill="#e63741"/><circle cx="358.6" cy="154.21" r="2.12" fill="#e63741"/><circle cx="375.71" cy="152.31" r="2.12" fill="#e63741"/><circle cx="389.91" cy="221.33" r="2.12" fill="#e63741"/><circle cx="389.91" cy="138.89" r="2.12" fill="#e63741"/><circle cx="378.5" cy="187.23" r="2.12" fill="#e63741"/><circle cx="363.1" cy="203.88" r="2.12" fill="#e63741"/><circle cx="368.13" cy="137.07" r="2.12" fill="#e63741"/><circle cx="386.94" cy="129.78" r="2.12" fill="#e63741"/><circle cx="135.57" cy="148.96" r="2.12" fill="#e63741"/><circle cx="142.58" cy="148.96" r="2.12" fill="#e63741"/><circle cx="127.06" cy="128.2" r="2.12" fill="#e63741"/><circle cx="169.86" cy="202.74" r="2.12" fill="#e63741"/><circle cx="177.98" cy="124.32" r="2.12" fill="#e63741"/><circle cx="171.13" cy="160.21" r="2.12" fill="#e63741"/><circle cx="153.84" cy="178.06" r="2.12" fill="#e63741"/><circle cx="139.8" cy="104.6" r="2.12" fill="#e63741"/><circle cx="138.27" cy="187.6" r="2.12" fill="#e63741"/><circle cx="148.07" cy="136.05" r="2.12" fill="#e63741"/><circle cx="165.08" cy="122.61" r="2.12" fill="#e63741"/><circle cx="159.98" cy="193.23" r="2.12" fill="#e63741"/><circle cx="134.06" cy="204.18" r="2.12" fill="#e63741"/><circle cx="169.86" cy="147.63" r="2.12" fill="#e63741"/><circle cx="131.72" cy="139.04" r="2.12" fill="#e63741"/><circle cx="155.09" cy="73.7" r="2.12" fill="#e63741"/><circle cx="157.87" cy="168.16" r="2.12" fill="#e63741"/><circle cx="171.98" cy="137.54" r="2.12" fill="#e63741"/><circle cx="136.18" cy="130.27" r="2.12" fill="#e63741"/><circle cx="126.91" cy="114.18" r="2.12" fill="#e63741"/><circle cx="154.84" cy="116.29" r="2.12" fill="#e63741"/><circle cx="167.51" cy="185.87" r="2.12" fill="#e63741"/><circle cx="169.04" cy="102.88" r="2.12" fill="#e63741"/><circle cx="162.96" cy="155.31" r="2.12" fill="#e63741"/><circle cx="142.23" cy="167.87" r="2.12" fill="#e63741"/><circle cx="142.58" cy="92.68" r="2.12" fill="#e63741"/><circle cx="165.68" cy="92.68" r="2.12" fill="#e63741"/></svg>