<svg xmlns="http://www.w3.org/2000/svg" viewBox="0 0 465 380"><rect width="465" height="380" fill="#e5e5e5"/><circle cx="54.07" cy="329.76" r="8.8" fill="#e63741"/><circle cx="77.86" cy="329.76" r="8.8" fill="#e63741"/><circle cx="149.23" cy="329.76" r="8.8" fill="#e63741"/><circle cx="244.4" cy="329.76" r="8.8" fill="#e63741"/><circle cx="315.77" cy="329.76" r="8.8" fill="#e63741"/><circle cx="410.93" cy="329.76" r="8.8" fill="#e63741"/><circle cx="30.28" cy="305.16" r="8.8" fill="#e63741"/><circle cx="54.07" cy="305.16" r="8.8" fill="#e63741"/><circle cx="77.86" cy="305.16" r="8.8" fill="#e63741"/><circle cx="101.65" cy="305.16" r="8.8" fill="#e63741"/><circle cx="173.02" cy="305.16" r="8.8" fill="#e63741"/><circle cx="220.6" cy="305.16" r="8.8" fill="#e63741"/><circle cx="244.4" cy="305.16" r="8.8" fill="#e63741"/><circle cx="268.19" cy="305.16" r="8.8" fill="#e63741"/><circle cx="315.77" cy="305.16" r="8.8" fill="#e63741"/><circle cx="339.56" cy="305.16" r="8.8" fill="#e63741"/><circle cx="387.14" cy="305.16" r="8.8" fill="#e63741"/><circle cx="434.72" cy="305.16" r="8.8" fill="#e63741"/><circle cx="101.76" cy="255.54" r="8.8" fill="#e63741"/><circle cx="339.69" cy="255.54" r="8.8" fill="#e63741"/><circle cx="387.28" cy="255.54" r="8.8" fill="#e63741"/><circle cx="125.55" cy="230.93" r="8.8" fill="#e63741"/><circle cx="149.34" cy="230.93" r="8.8" fill="#e63741"/><circle cx="339.69" cy="230.93" r="8.8" fill="#e63741"/><circle cx="363.48" cy="230.93" r="8.8" fill="#e63741"/><circle cx="101.55" cy="181.31" r="8.8" fill="#e63741"/><circle cx="172.92" cy="181.31" r="8.8" fill="#e63741"/><circle cx="292.22" cy="181.31" r="8.8" fill="#e63741"/><circle cx="316.01" cy="181.31" r="8.8" fill="#e63741"/><circle cx="196.71" cy="131.69" r="8.8" fill="#e63741"/><ellipse cx="232.5" cy="82.07" rx="8.73" ry="8.8" fill="#e63741"/><circle cx="30.28" cy="329.76" r="8.8" fill="#e63741"/><circle cx="101.65" cy="329.76" r="8.8" fill="#e63741"/><circle cx="125.44" cy="329.76" r="8.8" fill="#e63741"/><circle cx="173.02" cy="329.76" r="8.8" fill="#e63741"/><circle cx="196.81" cy="329.76" r="8.8" fill="#e63741"/><circle cx="220.6" cy="329.76" r="8.8" fill="#e63741"/><circle cx="268.19" cy="329.76" r="8.8" fill="#e63741"/><circle cx="291.98" cy="329.76" r="8.8" fill="#e63741"/><circle cx="339.56" cy="329.76" r="8.8" fill="#e63741"/><circle cx="363.35" cy="329.76" r="8.8" fill="#e63741"/><circle cx="387.14" cy="329.76" r="8.8" fill="#e63741"/><circle cx="434.72" cy="329.76" r="8.8" fill="#e63741"/><circle cx="125.44" cy="305.16" r="8.8" fill="#e63741"/><circle cx="149.23" cy="305.16" r="8.8" fill="#e63741"/><circle cx="196.81" cy="305.16" r="8.8" fill="#e63741"/><circle cx="291.98" cy="305.16" r="8.8" fill="#e63741"/><circle cx="363.35" cy="305.16" r="8.8" fill="#e63741"/><circle cx="410.93" cy="305.16" r="8.8" fill="#e63741"/><circle cx="77.96" cy="255.54" r="8.8" fill="#e63741"/><circle cx="125.55" cy="255.54" r="8.8" fill="#e63741"/><circle cx="149.34" cy="255.54" r="8.8" fill="#e63741"/><circle cx="315.9" cy="255.54" r="8.8" fill="#e63741"/><circle cx="363.48" cy="255.54" r="8.8" fill="#e63741"/><circle cx="77.96" cy="230.93" r="8.8" fill="#e63741"/><circle cx="101.76" cy="230.93" r="8.8" fill="#e63741"/><circle cx="315.9" cy="230.93" r="8.8" fill="#e63741"/><circle cx="387.28" cy="230.93" r="8.8" fill="#e63741"/><circle cx="125.34" cy="181.31" r="8.8" fill="#e63741"/><circle cx="149.13" cy="181.31" r="8.8" fill="#e63741"/><circle cx="339.8" cy="181.31" r="8.8" fill="#e63741"/><circle cx="363.59" cy="181.31" r="8.8" fill="#e63741"/><circle cx="172.92" cy="131.69" r="8.8" fill="#e63741"/><circle cx="268.43" cy="131.69" r="8.8" fill="#e63741"/><circle cx="292.22" cy="131.69" r="8.8" fill="#e63741"/><path d="M308.34,131.23c14.9,0,18.94,5.6,19.16,18.07" fill="none" stroke="#333" stroke-linecap="round" stroke-linejoin="round"/><polygon points="323.24 146.17 323.94 145.46 327.44 148.92 330.65 145.17 331.41 145.82 327.51 150.39 323.24 146.17" fill="#333"/><path d="M258.61,81.56c14.9,0,18.94,5.6,19.15,18.08" fill="none" stroke="#333" stroke-linecap="round" stroke-linejoin="round"/><polygon points="273.5 96.5 274.2 95.79 277.71 99.26 280.91 95.51 281.67 96.16 277.77 100.73 273.5 96.5" fill="#333"/><path d="M379.72,181c14.9,0,18.94,5.6,19.15,18.07" fill="none" stroke="#333" stroke-linecap="round" stroke-linejoin="round"/><polygon points="394.61 195.95 395.31 195.24 398.82 198.7 402.02 194.95 402.78 195.6 398.88 200.17 394.61 195.95" fill="#333"/><path d="M404,242.61c14.9,0,18.94,5.6,19.16,18.08" fill="none" stroke="#333" stroke-linecap="round" stroke-linejoin="round"/><polygon points="418.88 257.56 419.59 256.84 423.09 260.31 426.3 256.56 427.06 257.21 423.15 261.78 418.88 257.56" fill="#333"/><path d="M156.66,131.22c-14.9,0-18.94,5.6-19.15,18.07" fill="none" stroke="#333" stroke-linecap="round" stroke-linejoin="round"/><polygon points="133.59 145.82 134.36 145.17 137.56 148.92 141.06 145.45 141.77 146.16 137.5 150.38 133.59 145.82" fill="#333"/><path d="M206.4,81.56c-14.91,0-19,5.6-19.16,18.07" fill="none" stroke="#333" stroke-linecap="round" stroke-linejoin="round"/><polygon points="183.33 96.16 184.09 95.5 187.29 99.25 190.8 95.79 191.5 96.5 187.23 100.72 183.33 96.16" fill="#333"/><path d="M85.29,181c-14.9,0-18.94,5.6-19.16,18.08" fill="none" stroke="#333" stroke-linecap="round" stroke-linejoin="round"/><polygon points="62.22 195.6 62.98 194.95 66.18 198.7 69.69 195.23 70.39 195.94 66.12 200.16 62.22 195.6" fill="#333"/><path d="M61,242.61c-14.9,0-18.94,5.6-19.15,18.07" fill="none" stroke="#333" stroke-linecap="round" stroke-linejoin="round"/><polygon points="37.95 257.2 38.71 256.55 41.91 260.3 45.41 256.84 46.12 257.55 41.85 261.77 37.95 257.2" fill="#333"/><path d="M169.61,28v4h-2.3V20.62h3.88a3.55,3.55,0,0,1,2.69,1.05,3.77,3.77,0,0,1,1,2.72,3.51,3.51,0,0,1-1,2.64,3.75,3.75,0,0,1-2.75,1Zm0-1.91h1.58a1.27,1.27,0,0,0,1-.43,1.92,1.92,0,0,0,.36-1.25,2.31,2.31,0,0,0-.36-1.36,1.17,1.17,0,0,0-1-.51h-1.6Z" fill="#333"/><path d="M176.05,27.5a4.63,4.63,0,0,1,.9-3,3.45,3.45,0,0,1,5,0,4.6,4.6,0,0,1,.91,3v.53a4.59,4.59,0,0,1-.9,3,3.46,3.46,0,0,1-5,0,4.64,4.64,0,0,1-.9-3Zm2.22.55c0,1.52.4,2.27,1.21,2.27s1.14-.63,1.2-1.89V27.5a3.57,3.57,0,0,0-.32-1.71,1,1,0,0,0-.91-.56,1,1,0,0,0-.88.56,3.59,3.59,0,0,0-.31,1.71Z" fill="#333"/><path d="M187.32,30.32c.64,0,1-.42,1-1.25h2.07a3.07,3.07,0,0,1-.85,2.23,2.86,2.86,0,0,1-2.15.86,3.1,3.1,0,0,1-2.5-1,4.59,4.59,0,0,1-.87-3v-.67a4.71,4.71,0,0,1,.85-3,3,3,0,0,1,2.5-1.05,2.87,2.87,0,0,1,2.2.86,3.52,3.52,0,0,1,.82,2.45H188.3a2.26,2.26,0,0,0-.24-1.09.79.79,0,0,0-.75-.38.89.89,0,0,0-.83.41,3.59,3.59,0,0,0-.26,1.59v.86a6.84,6.84,0,0,0,.1,1.44,1.1,1.1,0,0,0,.34.6A1,1,0,0,0,187.32,30.32Z" fill="#333"/><path d="M197.71,25.37h-2.17V32h-2.21V25.37h-2.16V23.55h6.54Z" fill="#333"/><path d="M209,32h-2.21V25.39h-2V32h-2.22V23.55H209Z" fill="#333"/><path d="M210.31,27.5a4.57,4.57,0,0,1,.91-3,3.45,3.45,0,0,1,5,0,4.65,4.65,0,0,1,.91,3v.53a4.59,4.59,0,0,1-.9,3,3.11,3.11,0,0,1-2.52,1.09,3.14,3.14,0,0,1-2.53-1.09,4.64,4.64,0,0,1-.9-3Zm2.22.55c0,1.52.4,2.27,1.21,2.27s1.15-.63,1.21-1.89V27.5a3.46,3.46,0,0,0-.32-1.71,1,1,0,0,0-.9-.56,1,1,0,0,0-.88.56,3.57,3.57,0,0,0-.32,1.71Z" fill="#333"/><path d="M224.87,25.23a.73.73,0,0,0-.67.34,1.61,1.61,0,0,0-.22.91H221.9a3,3,0,0,1,.85-2.21,2.8,2.8,0,0,1,2.12-.88,2.93,2.93,0,0,1,2.44,1.16,5,5,0,0,1,.91,3.2v.14a4.88,4.88,0,0,1-.91,3.11,2.93,2.93,0,0,1-2.44,1.16,2.75,2.75,0,0,1-2.17-.91,3.5,3.5,0,0,1-.8-2.4H224a2.09,2.09,0,0,0,.24,1.1.75.75,0,0,0,.65.39c.67,0,1-.64,1.12-1.9h-1.54V27.05H226C225.91,25.84,225.54,25.23,224.87,25.23Z" fill="#333"/><path d="M232.42,28.9h-.58V32h-2.2V23.55h2.2v3.17h.55l1.28-3.17h2.78l-2.23,3.9,2.4,4.55h-2.93Z" fill="#333"/><path d="M240.6,30.32c.64,0,1-.42,1-1.25h2.08a3.08,3.08,0,0,1-.86,2.23,2.86,2.86,0,0,1-2.15.86,3.07,3.07,0,0,1-2.49-1,4.54,4.54,0,0,1-.88-3v-.67a4.71,4.71,0,0,1,.85-3,3,3,0,0,1,2.5-1.05,2.91,2.91,0,0,1,2.21.86,3.56,3.56,0,0,1,.82,2.45h-2.08a2.26,2.26,0,0,0-.24-1.09.79.79,0,0,0-.75-.38.87.87,0,0,0-.82.41,3.41,3.41,0,0,0-.27,1.59v.86a6.84,6.84,0,0,0,.1,1.44,1.1,1.1,0,0,0,.34.6A1,1,0,0,0,240.6,30.32Z" fill="#333"/><path d="M251.29,32h-2.21V25.39h-2V32H244.9V23.55h6.39Z" fill="#333"/><path d="M252.64,27.5a4.57,4.57,0,0,1,.91-3,3.09,3.09,0,0,1,2.5-1.09,3.14,3.14,0,0,1,2.53,1.09,4.65,4.65,0,0,1,.9,3v.53a4.65,4.65,0,0,1-.89,3,3.47,3.47,0,0,1-5,0,4.64,4.64,0,0,1-.9-3Zm2.22.55c0,1.52.4,2.27,1.21,2.27s1.15-.63,1.2-1.89V27.5a3.57,3.57,0,0,0-.32-1.71,1,1,0,0,0-.91-.56,1,1,0,0,0-.87.56,3.46,3.46,0,0,0-.32,1.71Z" fill="#333"/><path d="M267.23,32H265V28.75h-1.95V32h-2.22V23.55h2.22v3.38H265V23.55h2.21Z" fill="#333"/><path d="M272.26,32.16a3.47,3.47,0,0,1-2.66-1,4.11,4.11,0,0,1-1-2.91v-.67a4.81,4.81,0,0,1,.87-3.08A3,3,0,0,1,272,23.39a2.88,2.88,0,0,1,2.4,1,4.82,4.82,0,0,1,.82,3v1.09h-4.4a2.23,2.23,0,0,0,.42,1.37,1.36,1.36,0,0,0,1.13.44,2.47,2.47,0,0,0,1.85-.76l.87,1.34a2.92,2.92,0,0,1-1.18.91A4.11,4.11,0,0,1,272.26,32.16ZM270.87,27h2.21v-.2a2.42,2.42,0,0,0-.25-1.15.88.88,0,0,0-.81-.39.9.9,0,0,0-.84.41A2.79,2.79,0,0,0,270.87,27Z" fill="#333"/><path d="M282.87,32h-2.21V28.75h-2V32h-2.22V23.55h2.22v3.38h2V23.55h2.21Z" fill="#333"/><path d="M290.57,25.37H288.4V32h-2.21V25.37H284V23.55h6.54Z" fill="#333"/><path d="M295.16,32.16a3.44,3.44,0,0,1-2.65-1,4.07,4.07,0,0,1-1-2.91v-.67a4.81,4.81,0,0,1,.88-3.08,3,3,0,0,1,2.51-1.09,2.88,2.88,0,0,1,2.4,1,4.89,4.89,0,0,1,.82,3v1.09h-4.4a2.3,2.3,0,0,0,.41,1.37,1.37,1.37,0,0,0,1.13.44,2.5,2.5,0,0,0,1.86-.76L298,30.9a2.85,2.85,0,0,1-1.18.91A4,4,0,0,1,295.16,32.16ZM293.77,27H296v-.2a2.31,2.31,0,0,0-.25-1.15.85.85,0,0,0-.81-.39.92.92,0,0,0-.84.41A2.91,2.91,0,0,0,293.77,27Z" fill="#333"/></svg>