<svg xmlns="http://www.w3.org/2000/svg" viewBox="0 0 465 395"><rect width="465" height="395" fill="#f2f2f2"/><path d="M338.78,190.82c-11.77-1.5-20.89-10.65-18.78-30.33l.11-1.21a115.26,115.26,0,0,1,6.21-22.59A62.38,62.38,0,0,1,359.76,102s-1.24-7.42,6.19-7.42h0c3.19,3,7,5,11.14,5s8-1.91,11.14-5h0c7.43,0,6.19,7.42,6.19,7.42a62.35,62.35,0,0,1,33.43,34.68c6.9,18.11,12.21,43.24,0,65.62a70.39,70.39,0,0,1-12.21,16.05c-2,2-4,3.74-5.62,5.14-1.91,1.6-3.47,2.79-4.46,3.58s-2.88,2.15-5,3.75l0,0c0-1.23-4.41-12.38-16.79-19.81a78.92,78.92,0,0,0-14.43,12.74l-.19-.16H338.68V191.62Zm38.65-16.88a93,93,0,0,0,17.89-21.56c2.59-4.23-1.5-8.26-4.73-3.66.41-.63.83-1.31,1.29-2,2.56-4.76-2.86-7.23-4.69-4.56,2.58-4.47-3.7-9.26-6.71-2.89,2-4.07-2.74-7.39-6.27-2.2a170.13,170.13,0,0,1-13.55,16.83l-.12.16c0,1.25,4.41,12.38,16.79,19.82Z" fill="#999"/><path d="M410,223.5c1.66-1.4,3.6-3.11,5.62-5.14l-.24,5.2h-5.34Z" fill="#999"/><path d="M415.41,223.56,409.91,346a4.6,4.6,0,0,1-2.11,3.68c-5.38,4.08-19.59,4.29-24.93.92a3.75,3.75,0,0,1-2.06-3.08L382,263.72a4.88,4.88,0,0,0-9.69-.9h0v-14.4l.13-.13c1.7,1.73,5.12,1.69,6.41-2.46-1.39,4.09,3.45,7.39,6.91,1.06.38-.68.77-1.35,1.2-2a7.24,7.24,0,0,1,.21,1.69v4.5a2.48,2.48,0,0,0,2.47,2.48h1.24a2.48,2.48,0,0,0,2.48-2.48v-5a10.53,10.53,0,0,0-2.12-6.55l-.11-.1a72.1,72.1,0,0,1,9.52-8.65c2.08-1.6,3.85-2.87,5-3.75s2.55-2,4.46-3.58l0,.06Z" fill="#eb5f67"/><path d="M408.6,349.66s12.45,11,12.45,18.58-9.15,7.43-20.43,7.43-19.19-4.86-19.19-12.38a58.24,58.24,0,0,1,1.17-12.39l.27-.35c5.34,3.37,19.55,3.16,24.93-.92Z" fill="#333"/><path d="M397,77.16c2.9.59,4.72,3.71,4.07,7s-3.82,5.39-7.77,4.6l-.34-.16a31.83,31.83,0,0,0,3.65-9.38c.15-.67.27-1.36.37-2Z" fill="#f5afb3"/><path d="M371.71,244.37c-1.13,2.24-4.69,1.24-5.28-1.87a5.73,5.73,0,0,1,.15-2.53c.34-.76.71-1.53,1.12-2.3-2.51,3.49-7.27,2.19-4.83-3.89a37,37,0,0,1,6.49-10.06A78.92,78.92,0,0,1,383.79,211c12.38,7.43,16.79,18.58,16.79,19.81l0,0a72.1,72.1,0,0,0-9.52,8.65,40.11,40.11,0,0,0-4.17,5.41c-.43.65-.82,1.32-1.2,2-3.46,6.33-8.3,3-6.91-1.06-1.29,4.15-4.71,4.19-6.41,2.46A3.48,3.48,0,0,1,371.71,244.37Z" fill="#f5afb3"/><path d="M397.21,73.38a26.91,26.91,0,0,1-.27,3.78c-.1.68-.22,1.37-.37,2l-.1,0S391,77.87,391,73.1c0-7.45,3.64-12-.82-16.51A23,23,0,0,1,397.21,73.38Z" fill="#fff"/><path d="M396.47,79.18l.1,0a31.83,31.83,0,0,1-3.65,9.38,27.22,27.22,0,0,1-4.69,6c-3.19,3-7,5-11.14,5s-7.95-1.91-11.14-5a27.12,27.12,0,0,1-4.68-6,31.65,31.65,0,0,1-3.66-9.41h.14s5.43-1.3,5.41-6.07c0-7.45-3.64-12,.83-16.51a18.75,18.75,0,0,1,26.21,0c4.46,4.52.84,9.06.82,16.51C391,77.87,396.47,79.18,396.47,79.18Zm-8.23,2.4a3.1,3.1,0,1,0-3.1,3.09A3.1,3.1,0,0,0,388.24,81.58ZM381,94.17c0-1.45-1.76-2.62-3.93-2.62s-3.92,1.17-3.92,2.62,1.75.87,3.92.87S381,95.62,381,94.17Zm-8.89-12.59a3.1,3.1,0,1,0-3.09,3.09A3.1,3.1,0,0,0,372.14,81.58Z" fill="#f5afb3"/><path d="M387.19,142.12c1.83-2.67,7.25-.2,4.69,4.56-.46.73-.88,1.41-1.29,2,3.23-4.6,7.32-.57,4.73,3.66a93,93,0,0,1-17.89,21.56l-.1-.1C365,166.4,360.54,155.27,360.54,154l.12-.16A170.13,170.13,0,0,0,374.21,137c3.53-5.19,8.32-1.87,6.27,2.2C383.49,132.86,389.77,137.65,387.19,142.12Z" fill="#f5afb3"/><path d="M393.32,246.13v5a2.48,2.48,0,0,1-2.48,2.48H389.6a2.48,2.48,0,0,1-2.47-2.48v-4.5a7.24,7.24,0,0,0-.21-1.69,40.11,40.11,0,0,1,4.17-5.41l.11.1A10.53,10.53,0,0,1,393.32,246.13Z" fill="#ca9894"/><path d="M385.14,78.48a3.1,3.1,0,1,1-3.09,3.1A3.1,3.1,0,0,1,385.14,78.48Zm1.54,3.25A1.7,1.7,0,1,0,385,83.44,1.7,1.7,0,0,0,386.68,81.73Z" fill="#fff"/><path d="M385,80a1.71,1.71,0,1,1-1.71,1.7A1.7,1.7,0,0,1,385,80Z" fill="#333"/><path d="M377.1,91.55c2.17,0,3.93,1.17,3.93,2.62s-1.76.87-3.93.87-3.92.58-3.92-.87S374.93,91.55,377.1,91.55Z" fill="#eb5f67"/><path d="M372.4,248.29l-.13.13V372.27a2.48,2.48,0,0,1-2.48,2.47h-1.24a2.48,2.48,0,0,1-2.36-1.73,2.6,2.6,0,0,1-.11-.74V244.66a10.65,10.65,0,0,1,.35-2.16c.59,3.11,4.15,4.11,5.28,1.87A3.48,3.48,0,0,0,372.4,248.29Z" fill="#ca9894"/><path d="M369.05,78.48a3.1,3.1,0,1,1-3.1,3.1A3.1,3.1,0,0,1,369.05,78.48Zm1.85,3.25a1.7,1.7,0,1,0-1.7,1.71A1.7,1.7,0,0,0,370.9,81.73Z" fill="#fff"/><path d="M369.2,80a1.71,1.71,0,1,1-1.7,1.7A1.7,1.7,0,0,1,369.2,80Z" fill="#333"/><path d="M369.17,223.56l.19.16a37,37,0,0,0-6.49,10.06c-2.44,6.08,2.32,7.38,4.83,3.89-.41.77-.78,1.54-1.12,2.3a5.73,5.73,0,0,0-.15,2.53,10.65,10.65,0,0,0-.35,2.16V351.78h-.23c-7.22,1.89-17.45,1.53-20.6-2.12a3.74,3.74,0,0,1-1-2.52l-5.6-123.58Z" fill="#eb5f67"/><path d="M366.19,373l-.11,0a27.63,27.63,0,0,1-12.51,2.62c-11.29,0-20.43.09-20.43-7.43s12.1-18.58,12.1-18.58h0c3.15,3.65,13.38,4,20.6,2.12h.23v20.49A2.6,2.6,0,0,0,366.19,373Z" fill="#333"/><path d="M357,73.38a23,23,0,0,1,7-16.79c-4.47,4.52-.85,9.06-.83,16.51,0,4.77-5.41,6.07-5.41,6.07h-.14q-.23-1-.36-2A26.91,26.91,0,0,1,357,73.38Z" fill="#fff"/><path d="M361.27,88.58l-.35.16c-3.94.79-7.1-1.33-7.76-4.6s1.16-6.39,4.07-7h0q.13,1,.36,2A31.65,31.65,0,0,0,361.27,88.58Z" fill="#f5afb3"/><path d="M373.18,94.17c0-1.45,1.75-2.62,3.92-2.62S381,92.72,381,94.17s-1.76.87-3.93.87S373.18,95.62,373.18,94.17Z" fill="none" stroke="#333" stroke-linecap="round" stroke-linejoin="round"/><path d="M380.48,139.23c2-4.07-2.74-7.39-6.27-2.2a170.13,170.13,0,0,1-13.55,16.83" fill="none" stroke="#333" stroke-linecap="round" stroke-linejoin="round"/><path d="M390.39,149a51.58,51.58,0,0,1-5.39,7" fill="none" stroke="#333" stroke-linecap="round" stroke-linejoin="round"/><path d="M391.88,146.68c-.46.73-.88,1.41-1.29,2" fill="none" stroke="#333" stroke-linecap="round" stroke-linejoin="round"/><path d="M387.19,142.12a93.58,93.58,0,0,1-7.18,9.81" fill="none" stroke="#333" stroke-linecap="round" stroke-linejoin="round"/><path d="M380.48,139.23A42.8,42.8,0,0,1,375,147.3" fill="none" stroke="#333" stroke-linecap="round" stroke-linejoin="round"/><path d="M391.88,146.68c2.56-4.76-2.86-7.23-4.69-4.56,2.58-4.47-3.7-9.26-6.71-2.89" fill="none" stroke="#333" stroke-linecap="round" stroke-linejoin="round"/><path d="M377.09,99.53c-4.12,0-7.95-1.91-11.14-5a27.12,27.12,0,0,1-4.68-6,31.65,31.65,0,0,1-3.66-9.41q-.23-1-.36-2a26.91,26.91,0,0,1-.27-3.78,23,23,0,0,1,7-16.79,19,19,0,0,1,13.1-5.34" fill="none" stroke="#333" stroke-linecap="round" stroke-linejoin="round"/><path d="M357.75,79.17s5.43-1.3,5.41-6.07c0-7.45-3.64-12,.83-16.51" fill="none" stroke="#333" stroke-linecap="round" stroke-linejoin="round"/><path d="M366,85.29a5.73,5.73,0,0,0,4.35-.76" fill="none" stroke="#333" stroke-linecap="round" stroke-linejoin="round"/><path d="M360.92,88.74c-3.94.79-7.1-1.33-7.76-4.6s1.16-6.39,4.07-7" fill="none" stroke="#333" stroke-linecap="round" stroke-linejoin="round"/><path d="M393.26,88.74c3.95.79,7.11-1.33,7.77-4.6s-1.17-6.39-4.07-7" fill="none" stroke="#333" stroke-linecap="round" stroke-linejoin="round"/><path d="M377.09,99.53c4.12,0,8-1.91,11.14-5a27.22,27.22,0,0,0,4.69-6,31.83,31.83,0,0,0,3.65-9.38c.15-.67.27-1.36.37-2a26.91,26.91,0,0,0,.27-3.78,23,23,0,0,0-7-16.79,19,19,0,0,0-13.11-5.34" fill="none" stroke="#333" stroke-linecap="round" stroke-linejoin="round"/><path d="M396.47,79.18S391,77.87,391,73.1c0-7.45,3.64-12-.82-16.51" fill="none" stroke="#333" stroke-linecap="round" stroke-linejoin="round"/><path d="M388.24,85.29a5.76,5.76,0,0,1-4.36-.76" fill="none" stroke="#333" stroke-linecap="round" stroke-linejoin="round"/><line x1="369.17" y1="223.56" x2="338.68" y2="223.56" fill="none" stroke="#333" stroke-linecap="round" stroke-linejoin="round"/><path d="M338.68,191.62v31.94" fill="none" stroke="#333" stroke-linecap="round" stroke-linejoin="round"/><path d="M378.81,245.83c-1.39,4.09,3.45,7.39,6.91,1.06.38-.68.77-1.35,1.2-2a40.11,40.11,0,0,1,4.17-5.41,72.1,72.1,0,0,1,9.52-8.65c2.08-1.6,3.85-2.87,5-3.75s2.55-2,4.46-3.58c1.66-1.4,3.6-3.11,5.62-5.14a70.39,70.39,0,0,0,12.21-16.05c12.21-22.38,6.9-47.51,0-65.62A62.35,62.35,0,0,0,394.43,102s1.24-7.42-6.19-7.42" fill="none" stroke="#333" stroke-linecap="round" stroke-linejoin="round"/><path d="M366,94.59c-7.43,0-6.19,7.42-6.19,7.42a62.38,62.38,0,0,0-33.44,34.68,115.26,115.26,0,0,0-6.21,22.59l-.11,1.21c-2.11,19.68,7,28.83,18.78,30.33,7.55,1,16.2-1.23,23.68-5.82a104.66,104.66,0,0,0,15-11.06,93,93,0,0,0,17.89-21.56c2.59-4.23-1.5-8.26-4.73-3.66l-.2.31" fill="none" stroke="#333" stroke-linecap="round" stroke-linejoin="round"/><path d="M383.79,211a78.92,78.92,0,0,0-14.43,12.74,37,37,0,0,0-6.49,10.06c-2.44,6.08,2.32,7.38,4.83,3.89l.12-.18" fill="none" stroke="#333" stroke-linecap="round" stroke-linejoin="round"/><path d="M366.58,240c.34-.76.71-1.53,1.12-2.3a34.77,34.77,0,0,1,5.64-8.11" fill="none" stroke="#333" stroke-linecap="round" stroke-linejoin="round"/><path d="M371.71,244.37c1.68-3.64,4.1-8.62,6.58-11.1" fill="none" stroke="#333" stroke-linecap="round" stroke-linejoin="round"/><path d="M378.81,245.83a27,27,0,0,1,5.67-8.85" fill="none" stroke="#333" stroke-linecap="round" stroke-linejoin="round"/><path d="M366.58,240a5.73,5.73,0,0,0-.15,2.53c.59,3.11,4.15,4.11,5.28,1.87a3.48,3.48,0,0,0,.69,3.92c1.7,1.73,5.12,1.69,6.41-2.46" fill="none" stroke="#333" stroke-linecap="round" stroke-linejoin="round"/><path d="M400.58,230.79c0-1.23-4.41-12.38-16.79-19.81" fill="none" stroke="#333" stroke-linecap="round" stroke-linejoin="round"/><path d="M360.54,154c0,1.25,4.41,12.38,16.79,19.82" fill="none" stroke="#333" stroke-linecap="round" stroke-linejoin="round"/><path d="M386.92,244.89a7.24,7.24,0,0,1,.21,1.69v4.5a2.48,2.48,0,0,0,2.47,2.48h1.24a2.48,2.48,0,0,0,2.48-2.48v-5a10.53,10.53,0,0,0-2.12-6.55" fill="none" stroke="#333" stroke-linecap="round" stroke-linejoin="round"/><path d="M372.27,248.42V372.27a2.48,2.48,0,0,1-2.48,2.47h-1.24a2.48,2.48,0,0,1-2.36-1.73,2.6,2.6,0,0,1-.11-.74V244.66a10.65,10.65,0,0,1,.35-2.16" fill="none" stroke="#333" stroke-linecap="round" stroke-linejoin="round"/><path d="M372.28,262.82a4.87,4.87,0,0,1,4.81-4" fill="none" stroke="#333" stroke-linecap="round" stroke-linejoin="round"/><path d="M338.68,223.56l5.6,123.58a3.74,3.74,0,0,0,1,2.52c3.15,3.65,13.38,4,20.6,2.12" fill="none" stroke="#333" stroke-linecap="round" stroke-linejoin="round"/><path d="M415.65,218.34v0l-.24,5.2L409.91,346a4.6,4.6,0,0,1-2.11,3.68c-5.38,4.08-19.59,4.29-24.93.92a3.75,3.75,0,0,1-2.06-3.08L382,263.72a4.86,4.86,0,0,0-4.88-4.93" fill="none" stroke="#333" stroke-linecap="round" stroke-linejoin="round"/><path d="M366.08,373.05a27.63,27.63,0,0,1-12.51,2.62c-11.29,0-20.43.09-20.43-7.43s12.1-18.58,12.1-18.58" fill="none" stroke="#333" stroke-linecap="round" stroke-linejoin="round"/><path d="M382.6,350.9a58.24,58.24,0,0,0-1.17,12.39c0,7.52,7.9,12.38,19.19,12.38s20.43.09,20.43-7.43-12.45-18.58-12.45-18.58" fill="none" stroke="#333" stroke-linecap="round" stroke-linejoin="round"/><line x1="410.07" y1="223.56" x2="415.41" y2="223.56" fill="none" stroke="#333" stroke-linecap="round" stroke-linejoin="round"/><path d="M238.87,98.65c-.33-3.12,2.3-5.17,4.49-3.47a7.37,7.37,0,0,1,2.27,4.32c0,.19.08.37.13.55.43,2,1.38,6.07,2.91,11.28,3.5,12,10,29.68,20.29,39.85,9.77,9.7,19.46,5,19.71,5h.05c1.24,6.94.92,13.25-2,17.32s-7.72,5.94-13.3,5.72c-8-.3-17.51-4.82-25-13.09q-1.26-1.36-2.43-2.88a120.38,120.38,0,0,1-12.62-20.29,148.52,148.52,0,0,1-11.28-31.73h0c-.34-1.46-.62-2.75-.85-3.84-.18-.89-.33-1.65-.45-2.27-.73-3.73,2.32-4.85,4.13-3.74a2.54,2.54,0,0,1,1.16,1.62h.09c-.09-.44-.19-.9-.28-1.38-.72-5.24,5-6.51,5.85-2.56C230.91,94,237.88,92.31,238.87,98.65Z" fill="#f5afb3"/><path d="M288.72,156.14h-.05c-.25.07-9.94,4.74-19.71-5C258.7,141,252.17,123.3,248.67,111.33a10.2,10.2,0,0,0,3.55-3s15.29,5,24.72,19.28C282.16,135.45,287,146.42,288.72,156.14Z" fill="#81aeff"/><path d="M273.46,179.18v44.34H197.72v-28.3c7.78,1.27,16.84-.91,24.64-5.68,12.61-7.73,20.51-16.69,26.06-23.45C256,174.36,265.48,178.88,273.46,179.18Z" fill="#81aeff"/><path d="M235.59,223.52h37.86c0,17.5-5.78,125.94-5.78,125.94a4,4,0,0,1-2.13,3.44c-5.26,3.39-18.74,2.41-23.81-1.23a4,4,0,0,1-2-3.13l1.13-100.07v-.05a4.7,4.7,0,0,0-4.7-4.7H235a4.69,4.69,0,0,0-4.69,4.7v.05l1.13,100.07a4,4,0,0,1-2,3.13c-5.29,3.8-19.71,4.69-24.43.78a3.8,3.8,0,0,1-1.51-3S197.72,241,197.72,223.52Z" fill="#999"/><path d="M266.54,353s11.82,8.22,11.82,15.44-8.78,7.13-19.6,7.13-18.42-4.66-18.42-11.88a50.38,50.38,0,0,1,1.25-11.88l.14-.17c5.07,3.64,18.55,4.62,23.81,1.23Z" fill="#333"/><path d="M254.9,70.55c2.84,0,5.14,2.6,5.14,5.79s-2.57,5.8-6.43,5.8l-.46-.16a29.31,29.31,0,0,0,1.55-6.37,25.42,25.42,0,0,0,.2-3.13c0-.64,0-1.29-.08-1.92Z" fill="#f5afb3"/><path d="M254.82,70.56c.05.63.08,1.28.08,1.92a25.42,25.42,0,0,1-.2,3.13h-.1c-3.57,0-2.38-5.94-6.14-9.5-3.37-3.19-6.44-2.38-12.87-2.38s-9.51-.81-12.87,2.38c-3.76,3.56-2.58,9.5-6.14,9.5h-.1a25.42,25.42,0,0,1-.2-3.13c0-.64,0-1.29.08-1.92.88-10.82,9.15-19.31,19.23-19.31S253.93,59.74,254.82,70.56Z" fill="#fddda6"/><path d="M226.15,93.93A27.45,27.45,0,0,1,218,82a29.87,29.87,0,0,1-1.54-6.37h.1c3.56,0,2.38-5.94,6.14-9.5,3.36-3.19,6.43-2.38,12.87-2.38s9.5-.81,12.87,2.38c3.76,3.56,2.57,9.5,6.14,9.5h.1A29.31,29.31,0,0,1,253.15,82a27.45,27.45,0,0,1-8.13,12,18.3,18.3,0,0,1-1.63,1.19l0,.06c-2.19-1.7-4.82.35-4.49,3.47-1-6.34-8-4.62-7.13.36-.86-4-6.57-2.68-5.85,2.56.09.48.19.94.28,1.38h-.09a2.54,2.54,0,0,0-1.16-1.62l.12-.19a19.56,19.56,0,0,0,1-7.13Zm13.37-4.11c0-1.45-1.76-2.62-3.93-2.62s-3.93,1.17-3.93,2.62,1.76.87,3.93.87S239.52,91.26,239.52,89.82Z" fill="#f5afb3"/><path d="M252.22,108.28a10.2,10.2,0,0,1-3.55,3c-1.53-5.21-2.48-9.33-2.91-11.28C247.53,107.21,252.22,108.28,252.22,108.28Z" fill="#f5afb3"/><path d="M197.72,195.22c-11.3-1.87-19.87-11.05-17.82-30.2,0,0,11.44-6.84,23.32.28,0,0-1.77,7.16,6.56,2.51,8.09-4.53,19.91-19.79,23.26-24.73l.33-.16A120.38,120.38,0,0,0,246,163.21q1.17,1.51,2.43,2.88c-5.55,6.76-13.45,15.72-26.06,23.45C214.56,194.31,205.5,196.49,197.72,195.22Z" fill="#f5afb3"/><path d="M245.09,94a26.23,26.23,0,0,0,.54,5.48,7.37,7.37,0,0,0-2.27-4.32l0-.06A18.3,18.3,0,0,0,245,93.93Z" fill="#f5afb3"/><path d="M235.59,87.2c2.17,0,3.93,1.17,3.93,2.62s-1.76.87-3.93.87-3.93.57-3.93-.87S233.42,87.2,235.59,87.2Z" fill="#eb5f67"/><path d="M233.37,142.92l-.33.16c-3.35,4.94-15.17,20.2-23.26,24.73-8.33,4.65-6.56-2.51-6.56-2.51-11.88-7.12-23.32-.28-23.32-.28A114.83,114.83,0,0,1,189,135.6c10.69-22.57,29.7-27.32,29.7-27.32a8.22,8.22,0,0,0,3.43,2.91h0A148.52,148.52,0,0,0,233.37,142.92Z" fill="#81aeff"/><path d="M229.58,351.84a50,50,0,0,1,1.26,11.88c0,7.22-7.6,11.88-18.42,11.88s-19.6.09-19.6-7.13S204.63,353,204.63,353l.39-.58c4.72,3.91,19.14,3,24.43-.78Z" fill="#333"/><path d="M221.24,107.35c.23,1.09.51,2.38.85,3.84a8.22,8.22,0,0,1-3.43-2.91,13.37,13.37,0,0,0,2.24-.86Z" fill="#f5afb3"/><path d="M218,82l-.45.16c-3.87,0-6.44-2.59-6.44-5.8s2.31-5.79,5.15-5.79h.08c-.05.63-.08,1.28-.08,1.92a25.42,25.42,0,0,0,.2,3.13A29.87,29.87,0,0,0,218,82Z" fill="#f5afb3"/><path d="M231.7,97a16.51,16.51,0,0,1-5.55-3.06A27.45,27.45,0,0,1,218,82a29.87,29.87,0,0,1-1.54-6.37,25.42,25.42,0,0,1-.2-3.13c0-.64,0-1.29.08-1.92.88-10.82,9.15-19.31,19.23-19.31" fill="none" stroke="#333" stroke-linecap="round" stroke-linejoin="round"/><path d="M217.57,82.14c-3.87,0-6.44-2.59-6.44-5.8s2.31-5.79,5.15-5.79" fill="none" stroke="#333" stroke-linecap="round" stroke-linejoin="round"/><line x1="223.71" y1="72.93" x2="227.57" y2="72.63" fill="none" stroke="#333" stroke-linecap="round" stroke-linejoin="round"/><path d="M216.58,75.6c3.56,0,2.38-5.94,6.14-9.5,3.36-3.19,6.43-2.38,12.87-2.38" fill="none" stroke="#333" stroke-linecap="round" stroke-linejoin="round"/><path d="M235.59,243.72H235a4.69,4.69,0,0,0-4.69,4.7v.05l1.13,100.07a4,4,0,0,1-2,3.13c-5.29,3.8-19.71,4.69-24.43.78a3.8,3.8,0,0,1-1.51-3S197.72,241,197.72,223.52v-28.3h0" fill="none" stroke="#333" stroke-linecap="round" stroke-linejoin="round"/><path d="M229.58,351.84a50,50,0,0,1,1.26,11.88c0,7.22-7.6,11.88-18.42,11.88s-19.6.09-19.6-7.13S204.63,353,204.63,353" fill="none" stroke="#333" stroke-linecap="round" stroke-linejoin="round"/><path d="M245.63,99.5a7.37,7.37,0,0,0-2.27-4.32c-2.19-1.7-4.82.35-4.49,3.47" fill="none" stroke="#333" stroke-linecap="round" stroke-linejoin="round"/><path d="M288.67,156.14c-.25.07-9.94,4.74-19.71-5C258.7,141,252.17,123.3,248.67,111.33c-1.53-5.21-2.48-9.33-2.91-11.28" fill="none" stroke="#333" stroke-linecap="round" stroke-linejoin="round"/><path d="M221.24,107.35c-.18-.89-.33-1.65-.45-2.27-.73-3.73,2.32-4.85,4.13-3.74a2.54,2.54,0,0,1,1.16,1.62" fill="none" stroke="#333" stroke-linecap="round" stroke-linejoin="round"/><path d="M222.09,111.19c-.34-1.46-.62-2.75-.85-3.84" fill="none" stroke="#333" stroke-linecap="round" stroke-linejoin="round"/><path d="M248.63,111.35l0,0a10.2,10.2,0,0,0,3.55-3s15.29,5,24.72,19.28c5.22,7.89,10,18.86,11.78,28.58,1.24,6.94.92,13.25-2,17.32s-7.72,5.94-13.3,5.72c-8-.3-17.51-4.82-25-13.09q-1.26-1.36-2.43-2.88a120.38,120.38,0,0,1-12.62-20.29,148.52,148.52,0,0,1-11.28-31.73" fill="none" stroke="#333" stroke-linecap="round" stroke-linejoin="round"/><path d="M243.39,95.12A18.3,18.3,0,0,0,245,93.93a27.45,27.45,0,0,0,8.13-12,29.31,29.31,0,0,0,1.55-6.37,25.42,25.42,0,0,0,.2-3.13c0-.64,0-1.29-.08-1.92-.89-10.82-9.16-19.31-19.23-19.31" fill="none" stroke="#333" stroke-linecap="round" stroke-linejoin="round"/><path d="M253.61,82.14c3.86,0,6.43-2.59,6.43-5.8s-2.3-5.79-5.14-5.79" fill="none" stroke="#333" stroke-linecap="round" stroke-linejoin="round"/><path d="M252.22,108.28s-4.69-1.07-6.46-8.23c0-.18-.09-.36-.13-.55a26.23,26.23,0,0,1-.54-5.48" fill="none" stroke="#333" stroke-linecap="round" stroke-linejoin="round"/><path d="M225,101.15a19.56,19.56,0,0,0,1-7.13" fill="none" stroke="#333" stroke-linecap="round" stroke-linejoin="round"/><path d="M218.66,108.28a13.37,13.37,0,0,0,2.24-.86" fill="none" stroke="#333" stroke-linecap="round" stroke-linejoin="round"/><line x1="247.47" y1="72.93" x2="243.61" y2="72.63" fill="none" stroke="#333" stroke-linecap="round" stroke-linejoin="round"/><path d="M254.6,75.6c-3.57,0-2.38-5.94-6.14-9.5-3.37-3.19-6.44-2.38-12.87-2.38" fill="none" stroke="#333" stroke-linecap="round" stroke-linejoin="round"/><line x1="235.59" y1="223.52" x2="197.72" y2="223.52" fill="none" stroke="#333" stroke-linecap="round" stroke-linejoin="round"/><path d="M235.59,243.72h.59a4.7,4.7,0,0,1,4.7,4.7v.05l-1.13,100.07a4,4,0,0,0,2,3.13c5.07,3.64,18.55,4.62,23.81,1.23a4,4,0,0,0,2.13-3.44s5.78-108.44,5.78-125.94v-43.9" fill="none" stroke="#333" stroke-linecap="round" stroke-linejoin="round"/><path d="M241.59,351.84a50.38,50.38,0,0,0-1.25,11.88c0,7.22,7.59,11.88,18.42,11.88s19.6.09,19.6-7.13S266.54,353,266.54,353" fill="none" stroke="#333" stroke-linecap="round" stroke-linejoin="round"/><line x1="235.59" y1="223.52" x2="273.45" y2="223.52" fill="none" stroke="#333" stroke-linecap="round" stroke-linejoin="round"/><path d="M231.66,89.82c0-1.45,1.76-2.62,3.93-2.62s3.93,1.17,3.93,2.62-1.76.87-3.93.87S231.66,91.26,231.66,89.82Z" fill="none" stroke="#333" stroke-linecap="round" stroke-linejoin="round"/><path d="M224.11,80.21a8,8,0,0,0,5.35-2.3" fill="none" stroke="#333" stroke-linecap="round" stroke-linejoin="round"/><line x1="224.11" y1="77.39" x2="229.46" y2="77.84" fill="none" stroke="#333" stroke-linecap="round" stroke-linejoin="round"/><path d="M247.07,80.21a8,8,0,0,1-5.36-2.3" fill="none" stroke="#333" stroke-linecap="round" stroke-linejoin="round"/><line x1="247.07" y1="77.39" x2="241.71" y2="77.84" fill="none" stroke="#333" stroke-linecap="round" stroke-linejoin="round"/><path d="M225.89,101.57c.09.48.19.94.28,1.38a52.63,52.63,0,0,0,2.81,9.57" fill="none" stroke="#333" stroke-linecap="round" stroke-linejoin="round"/><path d="M231.74,99A91.19,91.19,0,0,0,235,110.44" fill="none" stroke="#333" stroke-linecap="round" stroke-linejoin="round"/><path d="M238.87,98.65a64.87,64.87,0,0,0,2.27,9.27" fill="none" stroke="#333" stroke-linecap="round" stroke-linejoin="round"/><path d="M225.89,101.57c-.72-5.24,5-6.51,5.85-2.56-.83-5,6.14-6.7,7.13-.36" fill="none" stroke="#333" stroke-linecap="round" stroke-linejoin="round"/><path d="M179.9,165A114.83,114.83,0,0,1,189,135.6c10.69-22.57,29.7-27.32,29.7-27.32a8.22,8.22,0,0,0,3.43,2.91h0" fill="none" stroke="#333" stroke-linecap="round" stroke-linejoin="round"/><path d="M179.9,165s11.44-6.84,23.32.28" fill="none" stroke="#333" stroke-linecap="round" stroke-linejoin="round"/><path d="M248.42,166.09c-5.55,6.76-13.45,15.72-26.06,23.45-7.8,4.77-16.86,7-24.64,5.68-11.3-1.87-19.87-11.05-17.82-30.2" fill="none" stroke="#333" stroke-linecap="round" stroke-linejoin="round"/><path d="M233,143.08c-3.35,4.94-15.17,20.2-23.26,24.73-8.33,4.65-6.56-2.51-6.56-2.51" fill="none" stroke="#333" stroke-linecap="round" stroke-linejoin="round"/><path d="M240.48,155.82c-.32.41-.64.8-1,1.18" fill="none" stroke="#333" stroke-linecap="round" stroke-linejoin="round"/><path d="M236.57,149.74c-.69.9-1.36,1.74-2,2.52" fill="none" stroke="#333" stroke-linecap="round" stroke-linejoin="round"/><path d="M218.1,101.25c-2.63-5.45-6,0-6,0,.76-7.73-7-5.76-7-5.76,8.73-2.68,3.19-9.26,3.19-9.26" fill="none" stroke="#e63741" stroke-linecap="round" stroke-linejoin="round"/><path d="M259.79,84.59c-3.28,8.56,6.18,8.77,6.18,8.77-10.77.3-6.54,9.53-6.54,9.53-1.63-2.37-4.76-3.86-7.15-3.22" fill="none" stroke="#e63741" stroke-linecap="round" stroke-linejoin="round"/><path d="M369.77,117.34c-4.8-7.4-9.07,2.09-9.07,2.09-.35-11.26-11.17-7-11.17-7,10.47-6.09,2.55-13.17-1.88-12.87" fill="none" stroke="#abc9ff" stroke-linecap="round" stroke-linejoin="round"/><path d="M404.07,102.24c-7.93,9.18,3.75,13.69,3.75,13.69-13.55-4.46-12.41,8.93-12.41,8.93-1.68-6.29-9.9-11.37-13.7-2.33" fill="none" stroke="#abc9ff" stroke-linecap="round" stroke-linejoin="round"/><path d="M84.57,27.41H83.48V32H81.19V27.41H80.06L78.27,32H75.41l2.87-6.23-2.74-5.14H78.4l1.85,4.57h.94V20.65h2.29v4.57h.91l1.79-4.57H89l-2.68,5.12L89.15,32H86.29Z" fill="#333"/><path d="M94.11,32a2.47,2.47,0,0,1-.19-.65,1.89,1.89,0,0,1-1.61.81,2.36,2.36,0,0,1-1.76-.7,2.46,2.46,0,0,1-.7-1.82,2.56,2.56,0,0,1,.85-2.06,3.72,3.72,0,0,1,2.44-.74h.67v-.68a1.24,1.24,0,0,0-.2-.8.69.69,0,0,0-.57-.24c-.55,0-.82.33-.82,1H90a2.46,2.46,0,0,1,.87-1.93,3.28,3.28,0,0,1,2.23-.76,3,3,0,0,1,2.15.72A2.69,2.69,0,0,1,96,26.2v4a4.28,4.28,0,0,0,.31,1.71V32ZM92.8,30.45a1.22,1.22,0,0,0,.63-.15,1.08,1.08,0,0,0,.38-.35V28.19h-.53a1.14,1.14,0,0,0-.89.36,1.41,1.41,0,0,0-.32,1C92.07,30.13,92.31,30.45,92.8,30.45Z" fill="#333"/><path d="M104.21,28.06a5.64,5.64,0,0,1-.69,3.06,2.24,2.24,0,0,1-2,1.06,2,2,0,0,1-1.66-.83v3.92H97.62V23.57h2l.08.78a2,2,0,0,1,1.72-.93,2.31,2.31,0,0,1,2,1,5.47,5.47,0,0,1,.7,3Zm-2.2-.55a4,4,0,0,0-.27-1.74,1,1,0,0,0-.91-.5,1.06,1.06,0,0,0-1,.57v4a1.07,1.07,0,0,0,1,.55.92.92,0,0,0,.91-.56,4.35,4.35,0,0,0,.26-1.73Z" fill="#333"/><path d="M212.9,27.38h-1V32h-2.3V20.65h2.3V25.2h.77l2-4.55h2.79L214.66,26,217.75,32H215Z" fill="#333"/><path d="M222.51,32a3.6,3.6,0,0,1-.19-.65,1.88,1.88,0,0,1-1.6.81,2.4,2.4,0,0,1-1.77-.7,2.5,2.5,0,0,1-.7-1.82,2.59,2.59,0,0,1,.85-2.06,3.74,3.74,0,0,1,2.44-.74h.68v-.68a1.24,1.24,0,0,0-.2-.8.69.69,0,0,0-.57-.24c-.55,0-.83.33-.83,1h-2.21a2.43,2.43,0,0,1,.88-1.93,3.27,3.27,0,0,1,2.22-.76,3,3,0,0,1,2.15.72,2.7,2.7,0,0,1,.77,2.06v4a4.11,4.11,0,0,0,.31,1.71V32Zm-1.3-1.57a1.19,1.19,0,0,0,1-.5V28.19h-.54a1.12,1.12,0,0,0-.88.36,1.37,1.37,0,0,0-.33,1C220.47,30.13,220.72,30.45,221.21,30.45Z" fill="#333"/><path d="M228.24,23.57v6.62h1.58V23.57H232v6.62h1.61V23.57h2.21V32H226V23.57Z" fill="#333"/><path d="M241,32.18a3.47,3.47,0,0,1-2.65-1,4.08,4.08,0,0,1-.95-2.91v-.67a4.84,4.84,0,0,1,.87-3.09,3,3,0,0,1,2.51-1.08,2.87,2.87,0,0,1,2.4,1,4.92,4.92,0,0,1,.82,3v1.08h-4.4a2.33,2.33,0,0,0,.41,1.38,1.41,1.41,0,0,0,1.14.44,2.53,2.53,0,0,0,1.85-.76l.86,1.33a2.77,2.77,0,0,1-1.18.91A4,4,0,0,1,241,32.18ZM239.61,27h2.21v-.2a2.34,2.34,0,0,0-.25-1.15.85.85,0,0,0-.81-.39.93.93,0,0,0-.84.42A3,3,0,0,0,239.61,27Z" fill="#333"/><path d="M251.64,23.57V32h-2.21v-6.6h-1.32L248,28a6.5,6.5,0,0,1-.73,3,2,2,0,0,1-1.81,1h-.72l0-1.84.25,0c.29,0,.51-.26.65-.65a7.12,7.12,0,0,0,.28-1.92l.15-4Z" fill="#333"/><path d="M255.6,26h1.13a3.28,3.28,0,0,1,2.35.82,2.91,2.91,0,0,1,.85,2.2,2.83,2.83,0,0,1-.86,2.16,3.29,3.29,0,0,1-2.35.81h-3.33V23.57h2.21Zm0,1.84V30.2h1.15a.89.89,0,0,0,.72-.3,1.21,1.21,0,0,0,.26-.84c0-.8-.35-1.19-1-1.19Z" fill="#333"/><path d="M303.75,23.78a1.43,1.43,0,0,0-.35-1,1.21,1.21,0,0,0-.94-.37,1.1,1.1,0,0,0-.85.36,1.35,1.35,0,0,0-.34,1H299a3.19,3.19,0,0,1,.45-1.69,3.12,3.12,0,0,1,1.27-1.14,4.32,4.32,0,0,1,4.41.44,3,3,0,0,1,.95,2.39,2.69,2.69,0,0,1-.4,1.42,2.79,2.79,0,0,1-1.08,1,2.52,2.52,0,0,1,1.2,1,3.05,3.05,0,0,1,.42,1.66,3.1,3.1,0,0,1-1,2.44,4,4,0,0,1-2.72.89,4.3,4.3,0,0,1-1.86-.39,3,3,0,0,1-1.3-1.15,3.23,3.23,0,0,1-.46-1.76h2.3a1.44,1.44,0,0,0,.37,1,1.19,1.19,0,0,0,.95.41,1.36,1.36,0,0,0,1.05-.41,1.5,1.5,0,0,0,.39-1.07,1.89,1.89,0,0,0-.34-1.27,1.24,1.24,0,0,0-1-.38h-1.17V25.3h1.17C303.37,25.29,303.75,24.79,303.75,23.78Z" fill="#333"/><path d="M311.77,32a2.57,2.57,0,0,1-.19-.66,1.89,1.89,0,0,1-1.61.81,2.36,2.36,0,0,1-1.76-.7,2.46,2.46,0,0,1-.7-1.82,2.56,2.56,0,0,1,.85-2.06,3.7,3.7,0,0,1,2.44-.74h.67v-.68a1.24,1.24,0,0,0-.2-.8.69.69,0,0,0-.57-.24c-.55,0-.82.33-.82,1h-2.22a2.46,2.46,0,0,1,.88-1.93,3.28,3.28,0,0,1,2.23-.76,3,3,0,0,1,2.15.72,2.7,2.7,0,0,1,.76,2.07v4a4.11,4.11,0,0,0,.31,1.71V32Zm-1.31-1.58a1.25,1.25,0,0,0,.63-.15,1.08,1.08,0,0,0,.38-.35V28.19h-.53a1.14,1.14,0,0,0-.89.36,1.36,1.36,0,0,0-.32,1C309.73,30.13,310,30.45,310.46,30.45Z" fill="#333"/><path d="M321.37,25.39H319.2V32H317V25.39h-2.15V23.57h6.54Z" fill="#333"/><path d="M329.13,28.06a5.64,5.64,0,0,1-.68,3.06,2.26,2.26,0,0,1-2,1.06,2,2,0,0,1-1.65-.83v3.93h-2.21V23.57h2l.08.78a2,2,0,0,1,1.73-.93,2.29,2.29,0,0,1,2,1,5.38,5.38,0,0,1,.7,3Zm-2.2-.55a3.93,3.93,0,0,0-.27-1.73.94.94,0,0,0-.91-.51,1.05,1.05,0,0,0-1,.57v4a1.06,1.06,0,0,0,1,.55.93.93,0,0,0,.91-.56,4.38,4.38,0,0,0,.25-1.73Z" fill="#333"/><path d="M333.18,28.35l1.13-4.78h2.35l-2.78,9.72c-.41,1.43-1.2,2.15-2.35,2.15a3.19,3.19,0,0,1-.9-.15V33.56h.25a1.21,1.21,0,0,0,.78-.2,1.26,1.26,0,0,0,.4-.69l.17-.57-2.44-8.54h2.37Z" fill="#333"/><path d="M337.78,30.19a3.94,3.94,0,0,0,.78-1.26,5.83,5.83,0,0,0,.28-1.77l.06-3.59h5.51v6.62h1.11v4.37h-2.21V32h-3.9v2.53h-2.26V30.19Zm2.45,0h2V25.46h-1.12v.83A8.06,8.06,0,0,1,340.23,30.19Z" fill="#333"/><path d="M353,32h-2.21V28.78h-1.95V32h-2.22V23.57h2.22V27h1.95V23.57H353Z" fill="#333"/><path d="M358.05,32.18a3.5,3.5,0,0,1-2.66-1,4.13,4.13,0,0,1-.95-2.91v-.67a4.84,4.84,0,0,1,.87-3.09,3.05,3.05,0,0,1,2.51-1.08,2.9,2.9,0,0,1,2.4,1,4.85,4.85,0,0,1,.82,3v1.08h-4.4a2.26,2.26,0,0,0,.42,1.38,1.39,1.39,0,0,0,1.13.44,2.51,2.51,0,0,0,1.85-.76l.87,1.33a2.83,2.83,0,0,1-1.18.91A4,4,0,0,1,358.05,32.18ZM356.66,27h2.21v-.2a2.45,2.45,0,0,0-.25-1.15.88.88,0,0,0-.81-.39.91.91,0,0,0-.84.42A2.71,2.71,0,0,0,356.66,27Z" fill="#333"/><path d="M368.66,32h-2.21V28.78H364.5V32h-2.22V23.57h2.22V27h1.95V23.57h2.21Z" fill="#333"/><path d="M376.64,32h-2.21V28.78h-1.95V32h-2.21V23.57h2.21V27h1.95V23.57h2.21Z" fill="#333"/><path d="M378,27.53a4.56,4.56,0,0,1,.91-3,3.06,3.06,0,0,1,2.5-1.09,3.11,3.11,0,0,1,2.53,1.09,4.64,4.64,0,0,1,.9,3v.54a4.66,4.66,0,0,1-.89,3,3.48,3.48,0,0,1-5.05,0,4.6,4.6,0,0,1-.9-3Zm2.22.55c0,1.51.4,2.27,1.21,2.27s1.15-.63,1.2-1.89v-.93a3.59,3.59,0,0,0-.32-1.72,1,1,0,0,0-.91-.56,1,1,0,0,0-.87.56,3.48,3.48,0,0,0-.32,1.72Z" fill="#333"/><path d="M389.63,32.18a3.47,3.47,0,0,1-2.65-1,4.09,4.09,0,0,1-1-2.91v-.67a4.84,4.84,0,0,1,.88-3.09,3,3,0,0,1,2.51-1.08,2.9,2.9,0,0,1,2.4,1,5,5,0,0,1,.82,3v1.08h-4.4a2.33,2.33,0,0,0,.41,1.38,1.4,1.4,0,0,0,1.13.44,2.53,2.53,0,0,0,1.86-.76l.86,1.33a2.77,2.77,0,0,1-1.18.91A3.89,3.89,0,0,1,389.63,32.18ZM388.24,27h2.21v-.2a2.34,2.34,0,0,0-.25-1.15.85.85,0,0,0-.81-.39.93.93,0,0,0-.84.42A2.83,2.83,0,0,0,388.24,27Z" fill="#333"/><path d="M397.73,30.19a4.16,4.16,0,0,0,.79-1.26,6.21,6.21,0,0,0,.27-1.77l.06-3.59h5.51v6.62h1.12v4.37h-2.21V32h-3.9v2.53H397.1V30.19Zm2.46,0h2V25.46H401v.83A8.18,8.18,0,0,1,400.19,30.19Z" fill="#333"/><path d="M409,26h1.14a3.27,3.27,0,0,1,2.34.82,2.91,2.91,0,0,1,.86,2.2,2.87,2.87,0,0,1-.86,2.16,3.31,3.31,0,0,1-2.35.82h-3.34V23.57H409Zm0,1.84v2.34h1.16a.9.9,0,0,0,.72-.31,1.26,1.26,0,0,0,.26-.84c0-.79-.35-1.19-1-1.19ZM416.46,32h-2.21V23.57h2.21Z" fill="#333"/><path d="M421.15,26.08l1-2.51h2.35l-1.93,4.14,2,4.32H422.2l-1-2.65-1,2.65h-2.36l2-4.32-1.92-4.14h2.35Z" fill="#333"/><path d="M429.58,32a3.05,3.05,0,0,1-.19-.66,1.88,1.88,0,0,1-1.61.81,2.37,2.37,0,0,1-1.76-.7,2.46,2.46,0,0,1-.7-1.82,2.56,2.56,0,0,1,.85-2.06,3.72,3.72,0,0,1,2.44-.74h.67v-.68a1.25,1.25,0,0,0-.19-.8.69.69,0,0,0-.57-.24c-.56,0-.83.33-.83,1h-2.21a2.43,2.43,0,0,1,.88-1.93,3.24,3.24,0,0,1,2.22-.76,3,3,0,0,1,2.15.72,2.7,2.7,0,0,1,.76,2.07v4a4.1,4.1,0,0,0,.32,1.71V32Zm-1.31-1.58a1.22,1.22,0,0,0,.63-.15,1.08,1.08,0,0,0,.38-.35V28.19h-.53a1.15,1.15,0,0,0-.89.36,1.41,1.41,0,0,0-.32,1C427.54,30.13,427.78,30.45,428.27,30.45Z" fill="#333"/><path d="M439.46,32h-2.21V28.78h-1.94V32h-2.22V23.57h2.22V27h1.94V23.57h2.21Z" fill="#333"/><path d="M445.26,23.57h2.2V32h-2.2v-5.2l-2,5.2h-2.22V23.57h2.22v5.19Z" fill="#333"/><path d="M452.48,32.18a3.47,3.47,0,0,1-2.65-1,4.08,4.08,0,0,1-.95-2.91v-.67a4.84,4.84,0,0,1,.87-3.09,3,3,0,0,1,2.51-1.08,2.9,2.9,0,0,1,2.4,1,4.92,4.92,0,0,1,.82,3v1.08h-4.4a2.33,2.33,0,0,0,.41,1.38,1.41,1.41,0,0,0,1.14.44,2.53,2.53,0,0,0,1.85-.76l.86,1.33a2.77,2.77,0,0,1-1.18.91A3.89,3.89,0,0,1,452.48,32.18ZM451.09,27h2.22v-.2a2.58,2.58,0,0,0-.25-1.15.88.88,0,0,0-.82-.39.93.93,0,0,0-.84.42A3,3,0,0,0,451.09,27Z" fill="#333"/><path d="M120.56,255c-2,3.91-7.62,2.29-4.87-4.88,1.27-3.31,3.67-14.45,5.1-26.56.62-5.15,1.06-10.48,1.16-15.45.39-19.46,0-42.78,0-42.78,11.88-7.12,23.3-.37,23.3-.37,2.37,13.24,3.49,29.54,2.84,50.28-.79,25.12-5.15,36.9-8.05,43.84-1.89,4.52-7.54,4-6-2.33-.33.93-.69,1.85-1.08,2.77-1.78,4.23-5.91,3.23-6.47.76a2.82,2.82,0,0,1,.15-1.65C124.57,263.15,117.52,260.9,120.56,255Z" fill="#cfa19d"/><path d="M67.34,110.62h0a31.67,31.67,0,0,1,5.89-2.34s3.57,5.94,16.64,5.94,16.63-5.94,16.63-5.94a32.49,32.49,0,0,1,5.9,2.34c6.48,3.23,16.88,10.37,23.8,25a114.34,114.34,0,0,1,9.05,29.33s-11.42-6.75-23.3.37c0,0,.39,23.32,0,42.78-.1,5-.54,10.3-1.16,15.45H52.05c0-15.43,0-58.22,0-58.22,0-2.53,0-4.92-.06-7.18-.27-9.25-1.63-16.35-8.45-22.52a58.11,58.11,0,0,1,3.37-6.14l0-.05A51.31,51.31,0,0,1,67.34,110.62Z" fill="#666"/><path d="M120.82,353s11.82,8.22,11.82,15.44-8.77,7.13-19.6,7.13-18.42-4.66-18.42-11.88a50.38,50.38,0,0,1,1.25-11.88l.13-.17c5.08,3.64,18.56,4.62,23.81,1.23Z" fill="#333"/><path d="M126.48,260.25l-.37.1L122,349.46a4,4,0,0,1-2.14,3.44c-5.25,3.39-18.73,2.41-23.81-1.23a4,4,0,0,1-2-3.13l.64-99.81v0a4.71,4.71,0,1,0-9.42,0l.46,99.81a4,4,0,0,1-2,3.13c-5.29,3.8-19.72,4.69-24.43.78a3.8,3.8,0,0,1-1.51-3S52.05,239,52.05,223.52h68.74c-1.43,12.11-3.83,23.25-5.1,26.56-2.75,7.17,2.83,8.79,4.87,4.88-3,5.93,4,8.18,6.07,3.63A2.82,2.82,0,0,0,126.48,260.25Z" fill="#fddda6"/><path d="M109.17,70.55c2.85,0,5.16,2.6,5.16,5.79a5.82,5.82,0,0,1-5.43,5.74c-.33,0-.67.06-1,.06l-.44-.17a30,30,0,0,0,1.43-5.63h0a26.47,26.47,0,0,0,.29-3.85c0-.64,0-1.29-.07-1.92Z" fill="#cfa19d"/><path d="M109.1,70.56c.05.63.07,1.28.07,1.92a26.47,26.47,0,0,1-.29,3.85c0-.36.19-5.87-6-9.61-4-2.39-6.45,0-12.89,0s-8.73-2-12.9,0a12.09,12.09,0,0,0-5.21,4.38l-.06,0A3.15,3.15,0,0,0,70,69.64l.74,0C72,59.24,80.09,51.25,89.87,51.25,99.94,51.25,108.21,59.74,109.1,70.56Z" fill="#333"/><path d="M108.9,82.08v.1s-1.18,21.19,3.49,28.44a32.49,32.49,0,0,0-5.9-2.34S99.37,107.09,99.37,94l-.06-.09a27.61,27.61,0,0,0,8.14-12l.44.17C108.23,82.14,108.57,82.11,108.9,82.08Z" fill="#333"/><path d="M102.84,66.72c6.23,3.74,6.06,9.25,6,9.61h0A30,30,0,0,1,107.45,82a27.61,27.61,0,0,1-8.14,12,14,14,0,0,1-18.86,0,23.83,23.83,0,0,1-4.31-4.58l-.21-.18c1-1.24,1.78-2.14,2.24-2.61,5.44-5.52.93-9.28-2.54-6.49,5.46-4.18-.41-9.19-4.15-5.81a2.63,2.63,0,0,0,.3-3.1l.06,0a12.09,12.09,0,0,1,5.21-4.38c4.17-2,6.45,0,12.9,0S98.85,64.33,102.84,66.72Z" fill="#ca9894"/><path d="M106.5,108.28s-3.56,5.94-16.63,5.94-16.64-5.94-16.64-5.94,7.13-1.19,7.13-14.26l.09-.11a14,14,0,0,0,18.86,0l.06.09C99.37,107.09,106.5,108.28,106.5,108.28Z" fill="#ca9894"/><path d="M83.86,351.84a50,50,0,0,1,1.26,11.88c0,7.22-7.59,11.88-18.42,11.88s-19.6.09-19.6-7.13S58.91,353,58.91,353l.39-.58c4.71,3.91,19.14,3,24.43-.78Z" fill="#333"/><path d="M80.45,93.91l-.09.11c0,13.07-7.13,14.26-7.13,14.26a31.67,31.67,0,0,0-5.89,2.34c2.07-3.23,3-9.21,3.38-14.86,2-2.66,3.84-4.94,5.21-6.61l.21.18A23.83,23.83,0,0,0,80.45,93.91Z" fill="#333"/><path d="M75.63,80.05c3.47-2.79,8,1,2.54,6.49-.46.47-1.24,1.37-2.24,2.61-1.37,1.67-3.18,3.95-5.21,6.61-8.15,10.58-20.14,27-23.79,33.65l0,.05a58.11,58.11,0,0,0-3.37,6.14c6.82,6.17,8.18,13.27,8.45,22.52-8.45,7.18-20.91,9.07-27.16,3.19C17,154,19,138.09,25.13,120.89c10-28.09,28.61-47.24,34.1-52.49C62.81,65,68,67.81,64,72.78h0c.65-.66,1.35-1.34,2.13-2.09A3.92,3.92,0,0,1,70,69.64a3.15,3.15,0,0,1,1.79,1.5,2.63,2.63,0,0,1-.3,3.1C75.22,70.86,81.09,75.87,75.63,80.05Z" fill="#ca9894"/><path d="M70.73,69.62C72,59.24,80.09,51.25,89.87,51.25" fill="none" stroke="#333" stroke-linecap="round" stroke-linejoin="round"/><path d="M89.87,97.58a15,15,0,0,1-9.42-3.67,23.83,23.83,0,0,1-4.31-4.58" fill="none" stroke="#333" stroke-linecap="round" stroke-linejoin="round"/><path d="M73.23,108.28s7.13-1.19,7.13-14.26" fill="none" stroke="#333" stroke-linecap="round" stroke-linejoin="round"/><line x1="77.99" y1="72.93" x2="81.85" y2="72.63" fill="none" stroke="#333" stroke-linecap="round" stroke-linejoin="round"/><path d="M83.86,351.84a50,50,0,0,1,1.26,11.88c0,7.22-7.59,11.88-18.42,11.88s-19.6.09-19.6-7.13S58.91,353,58.91,353" fill="none" stroke="#333" stroke-linecap="round" stroke-linejoin="round"/><path d="M134,256.72c-1.53,6.32,4.12,6.85,6,2.33,2.9-6.94,7.26-18.72,8.05-43.84.65-20.74-.47-37-2.84-50.28a114.34,114.34,0,0,0-9.05-29.33c-6.92-14.61-17.32-21.75-23.8-25a32.49,32.49,0,0,0-5.9-2.34s-3.56,5.94-16.63,5.94" fill="none" stroke="#333" stroke-linecap="round" stroke-linejoin="round"/><path d="M120.56,255c-2,3.91-7.62,2.29-4.87-4.88,1.27-3.31,3.67-14.45,5.1-26.56.62-5.15,1.06-10.48,1.16-15.45.39-19.46,0-42.78,0-42.78" fill="none" stroke="#333" stroke-linecap="round" stroke-linejoin="round"/><path d="M133,259.49c.39-.92.75-1.84,1.08-2.77a75.51,75.51,0,0,0,2.68-9.44" fill="none" stroke="#333" stroke-linecap="round" stroke-linejoin="round"/><path d="M126.63,258.6a90.21,90.21,0,0,0,4-12.5" fill="none" stroke="#333" stroke-linecap="round" stroke-linejoin="round"/><path d="M120.56,255a57.59,57.59,0,0,0,3.57-10.06" fill="none" stroke="#333" stroke-linecap="round" stroke-linejoin="round"/><path d="M133,259.49c-1.78,4.23-5.91,3.23-6.47.76a2.82,2.82,0,0,1,.15-1.65c-2.06,4.55-9.11,2.3-6.07-3.63" fill="none" stroke="#333" stroke-linecap="round" stroke-linejoin="round"/><path d="M108.88,76.33a26.47,26.47,0,0,0,.29-3.85c0-.64,0-1.29-.07-1.92-.89-10.82-9.16-19.31-19.23-19.31" fill="none" stroke="#333" stroke-linecap="round" stroke-linejoin="round"/><path d="M89.87,97.58a15,15,0,0,0,9.44-3.65,27.61,27.61,0,0,0,8.14-12,30,30,0,0,0,1.43-5.63" fill="none" stroke="#333" stroke-linecap="round" stroke-linejoin="round"/><path d="M107.89,82.14c.34,0,.68,0,1-.06a5.82,5.82,0,0,0,5.43-5.74c0-3.19-2.31-5.79-5.16-5.79" fill="none" stroke="#333" stroke-linecap="round" stroke-linejoin="round"/><path d="M145.25,164.93s-11.42-6.75-23.3.37" fill="none" stroke="#333" stroke-linecap="round" stroke-linejoin="round"/><path d="M106.5,108.28S99.37,107.09,99.37,94" fill="none" stroke="#333" stroke-linecap="round" stroke-linejoin="round"/><line x1="101.75" y1="72.93" x2="97.89" y2="72.63" fill="none" stroke="#333" stroke-linecap="round" stroke-linejoin="round"/><path d="M95.87,351.84a50.38,50.38,0,0,0-1.25,11.88c0,7.22,7.59,11.88,18.42,11.88s19.6.09,19.6-7.13S120.82,353,120.82,353" fill="none" stroke="#333" stroke-linecap="round" stroke-linejoin="round"/><path d="M46.9,129.46a58.11,58.11,0,0,0-3.37,6.14c6.82,6.17,8.18,13.27,8.45,22.52.06,2.26.06,4.65.06,7.18,0,0,0,42.79,0,58.22s5.74,125.94,5.74,125.94a3.8,3.8,0,0,0,1.51,3c4.71,3.91,19.14,3,24.43-.78a4,4,0,0,0,2-3.13l-.46-99.81a4.71,4.71,0,1,1,9.42,0v0L94,348.54a4,4,0,0,0,2,3.13c5.08,3.64,18.56,4.62,23.81,1.23a4,4,0,0,0,2.14-3.44l4.16-89.11" fill="none" stroke="#333" stroke-linecap="round" stroke-linejoin="round"/><path d="M67.34,110.62a51.31,51.31,0,0,0-20.41,18.79" fill="none" stroke="#333" stroke-linecap="round" stroke-linejoin="round"/><path d="M89.87,114.22c-13.07,0-16.64-5.94-16.64-5.94a31.67,31.67,0,0,0-5.89,2.34" fill="none" stroke="#333" stroke-linecap="round" stroke-linejoin="round"/><line x1="120.76" y1="223.52" x2="52.05" y2="223.52" fill="none" stroke="#333" stroke-linecap="round" stroke-linejoin="round"/><path d="M93.44,89.19a5.94,5.94,0,0,0-7.14,0" fill="none" stroke="#333" stroke-linecap="round" stroke-linejoin="round"/><path d="M79.92,79.73a4.64,4.64,0,0,0,3.57-1.85" fill="none" stroke="#333" stroke-linecap="round" stroke-linejoin="round"/><path d="M102.08,79.17a4.51,4.51,0,0,1-5.83-1.29" fill="none" stroke="#333" stroke-linecap="round" stroke-linejoin="round"/><path d="M64,72.78c3.94-5-1.23-7.81-4.81-4.38-5.49,5.25-24.14,24.4-34.1,52.49C19,138.09,17,154,24.82,161.31c6.25,5.88,18.71,4,27.16-3.19" fill="none" stroke="#333" stroke-linecap="round" stroke-linejoin="round"/><path d="M46.93,129.41l0,.05" fill="none" stroke="#333" stroke-linecap="round" stroke-linejoin="round"/><path d="M75.63,80.05c3.47-2.79,8,1,2.54,6.49-.46.47-1.24,1.37-2.24,2.61-1.37,1.67-3.18,3.95-5.21,6.61-8.15,10.58-20.14,27-23.79,33.65" fill="none" stroke="#333" stroke-linecap="round" stroke-linejoin="round"/><path d="M66.17,70.7c-.78.75-1.48,1.43-2.13,2.09a51.53,51.53,0,0,0-5.43,6.42" fill="none" stroke="#333" stroke-linecap="round" stroke-linejoin="round"/><path d="M71.48,74.24a90,90,0,0,0-7.89,8.88" fill="none" stroke="#333" stroke-linecap="round" stroke-linejoin="round"/><path d="M75.63,80.05A41.59,41.59,0,0,0,69.05,87" fill="none" stroke="#333" stroke-linecap="round" stroke-linejoin="round"/><path d="M66.17,70.7A3.92,3.92,0,0,1,70,69.64a3.15,3.15,0,0,1,1.79,1.5,2.63,2.63,0,0,1-.3,3.1c3.74-3.38,9.61,1.63,4.15,5.81" fill="none" stroke="#333" stroke-linecap="round" stroke-linejoin="round"/><path d="M67.34,110.62a.5.5,0,0,1-.08.12" fill="none" stroke="#333" stroke-linecap="round" stroke-linejoin="round"/><line x1="67.34" y1="110.62" x2="67.34" y2="110.62" fill="none" stroke="#333" stroke-linecap="round" stroke-linejoin="round"/><path d="M70.72,95.76c-.38,5.65-1.31,11.63-3.38,14.86" fill="none" stroke="#333" stroke-linecap="round" stroke-linejoin="round"/><path d="M108.91,82.18s-1.18,21.19,3.49,28.44l.07.12" fill="none" stroke="#333" stroke-linecap="round" stroke-linejoin="round"/><path d="M71.84,71.1a12.09,12.09,0,0,1,5.21-4.38c4.17-2,6.45,0,12.9,0" fill="none" stroke="#333" stroke-linecap="round" stroke-linejoin="round"/><path d="M108.88,76.34h0c0-.36.19-5.87-6-9.61-4-2.39-6.45,0-12.89,0" fill="none" stroke="#333" stroke-linecap="round" stroke-linejoin="round"/><path d="M133.21,84.92a5.15,5.15,0,1,1-5.24,0V61.62a2.62,2.62,0,0,1,5.24,0Z" fill="#fff"/><path d="M133.21,84.92V61.62a2.62,2.62,0,0,0-5.24,0v23.3a5.15,5.15,0,1,0,5.24,0Z" fill="none" stroke="#333" stroke-linecap="round" stroke-linejoin="round"/><path d="M130.59,92.71a3.36,3.36,0,0,1-1.71-6.26l.82-.49.05-15.48a.85.85,0,0,1,.84-.84.84.84,0,0,1,.83.84v15.4l.88.57a3.36,3.36,0,0,1-1.71,6.26Z" fill="#e63741"/></svg>