<svg xmlns="http://www.w3.org/2000/svg" xmlns:xlink="http://www.w3.org/1999/xlink" width="445" height="295" viewBox="0 0 445 295"><defs><clipPath id="a"><rect width="445" height="295" fill="none"/></clipPath></defs><g clip-path="url(#a)"><rect width="445" height="295" fill="#f2f2f2"/><line x1="394.1" y1="20" x2="423.97" y2="50.4" fill="none" stroke="#e63741" stroke-linecap="round" stroke-linejoin="round"/><line x1="393.97" y1="50.53" x2="423.97" y2="20" fill="none" stroke="#e63741" stroke-linecap="round" stroke-linejoin="round"/><path d="M250.55,166.09c17.83-4,30.86-11.58,45.71-26.74,4.45,7.05,9.16,14.66,13.88,22.55,20.18,33.67,33.58,72.57,19.67,92.3-6,8.48-15.14,12.37-26.85,11.66v90.92H231.22l-.05.05a178.69,178.69,0,0,0-18.79-15.09c-24.95,15-33.84,37.41-33.84,39.9l-.13.19c-3.2-2.51-6.46-5-9.84-7.67a206.68,206.68,0,0,1-20.74-18.05,142.84,142.84,0,0,1-24.16-31.83c-24.59-45.09-13.89-95.71,0-132.19,20-52.37,67.34-69.83,67.34-69.83s-3-15,12-15c5.3,5.23,11.53,8.94,18.26,10.17h.15a9.52,9.52,0,0,0,.91,3.89C225.36,128.36,238.13,146.75,250.55,166.09Z" fill="#66c09c"/><path d="M296.26,139.35c-14.85,15.16-27.88,22.7-45.71,26.74-12.42-19.34-25.19-37.73-28.26-44.73a9.52,9.52,0,0,1-.91-3.89,5.56,5.56,0,0,1,10.31-3.2c-.36-.61-.72-1.25-1.1-1.9-4.1-9.43,6.81-14.08,10.83-7.93-3.78-8,7.57-14.31,13.17-3.59-3.26-5.64.6-11.16,5.83-10.28a10.38,10.38,0,0,1,6.08,3.91,15.88,15.88,0,0,1,1.06,1.37C269.75,99,281.72,116.3,296.26,139.35Z" fill="#f5afb3"/><path d="M203.48,81.11a6.24,6.24,0,1,0,6.24-6.24A6.24,6.24,0,0,0,203.48,81.11Zm38.66,6.23a6.24,6.24,0,1,0-6.23-6.23A6.23,6.23,0,0,0,242.14,87.34Zm18.28,3.23c-5.23-.88-9.09,4.64-5.83,10.28-5.6-10.72-17-4.39-13.17,3.59-4-6.15-14.93-1.5-10.83,7.93.38.65.74,1.29,1.1,1.9a5.56,5.56,0,0,0-10.31,3.2h-.15c-6.73-1.23-13-4.94-18.26-10.17A56.61,56.61,0,0,1,193.12,94a64.91,64.91,0,0,1-5-11.86l.35-.1s5-2.51,7.5-10c3.08-9.27,22.45-5,30-15,7.52,9.94,26.88,5.7,30,15,2.51,7.49,7.51,10,7.51,10l.2.06a65.27,65.27,0,0,1-3.12,8Z" fill="#f5afb3"/><path d="M193.12,94l-.7.39c-9.56,1.43-17.57-3.66-19.28-11.73-1.79-8.43,4.74-16.87,12.24-18.45,0,.21,0,.43,0,.65a58.6,58.6,0,0,0,2.75,17.28A64.91,64.91,0,0,0,193.12,94Z" fill="#e5e5e5"/><path d="M190.78,41.06l.61.34a47.84,47.84,0,0,0-6,22.84c-7.55-2.61-10.71-9.09-8.56-15.34S185.23,39.13,190.78,41.06Z" fill="#e5e5e5"/><path d="M225.94,57.1c-7.53,9.94-26.9,5.7-30,15-2.5,7.49-7.5,10-7.5,10l-.35.1a58.6,58.6,0,0,1-2.75-17.28c0-.22,0-.44,0-.65a47.84,47.84,0,0,1,6-22.84c7.14-12.76,19.93-21.31,34.54-21.39h.24c14.55.08,27.28,8.61,34.37,21.36a47.78,47.78,0,0,1,5.92,22.87v.35a58.38,58.38,0,0,1-2.84,17.54l-.2-.06s-5-2.51-7.51-10C252.82,62.8,233.46,67,225.94,57.1Z" fill="#e5e5e5"/><path d="M210,84.85a3.43,3.43,0,1,0-3.43-3.43A3.44,3.44,0,0,0,210,84.85Zm-.31,2.49A6.24,6.24,0,1,1,216,81.11,6.24,6.24,0,0,1,209.72,87.34Z" fill="#f2f2f2"/><path d="M266.5,64.24c7.49,1.58,14,10,12.23,18.45-1.25,5.89-5.84,10.18-11.93,11.53l-.3.26a10.38,10.38,0,0,0-6.08-3.91l.08-.44a65.27,65.27,0,0,0,3.12-8,58.38,58.38,0,0,0,2.84-17.54v-.35Z" fill="#e5e5e5"/><path d="M275.05,48.9c2.15,6.25-1,12.73-8.55,15.34h0a47.78,47.78,0,0,0-5.92-22.87l.56-.31C266.65,39.13,272.89,42.65,275.05,48.9Z" fill="#e5e5e5"/><path d="M242.14,74.87a6.24,6.24,0,1,1-6.23,6.24A6.23,6.23,0,0,1,242.14,74.87Zm3.12,6.55a3.43,3.43,0,1,0-3.43,3.43A3.43,3.43,0,0,0,245.26,81.42Z" fill="#f2f2f2"/><circle cx="241.83" cy="81.42" r="3.43" fill="#333"/><circle cx="210.03" cy="81.42" r="3.43" fill="#333"/><path d="M222.39,411.93c1.86,5.44-1.46,10-6.14,8.92-2.39-.56-5.16-2.61-7.78-6.79-1.49-2.39-3-4.61-4.5-6.69-8.17-11.3-16.54-18.46-25.56-25.54-3.2-2.51-6.46-5-9.84-7.67a206.68,206.68,0,0,1-20.74-18.05,142.84,142.84,0,0,1-24.16-31.83c-24.59-45.09-13.89-95.71,0-132.19,20-52.37,67.34-69.83,67.34-69.83s-3-15,12-15h0" fill="none" stroke="#333" stroke-linecap="round" stroke-linejoin="round"/><path d="M260.5,90.13a65.27,65.27,0,0,0,3.12-8,58.38,58.38,0,0,0,2.84-17.54v-.35a47.78,47.78,0,0,0-5.92-22.87C253.45,28.62,240.72,20.09,226.17,20" fill="none" stroke="#333" stroke-linecap="round" stroke-linejoin="round"/><path d="M231.69,114.27a5.56,5.56,0,0,0-10.31,3.2,9.52,9.52,0,0,0,.91,3.89c3.07,7,15.84,25.39,28.26,44.73,17.83-4,30.86-11.58,45.71-26.74" fill="none" stroke="#333" stroke-linecap="round" stroke-linejoin="round"/><path d="M230.59,112.37c.38.65.74,1.29,1.1,1.9,2.81,4.74,5.48,8.52,9.73,15.8" fill="none" stroke="#333" stroke-linecap="round" stroke-linejoin="round"/><path d="M241.42,104.44c3.84,7.12,7.13,12.48,10.93,19.14" fill="none" stroke="#333" stroke-linecap="round" stroke-linejoin="round"/><path d="M254.59,100.85c3.28,6.17,6.62,11.1,9.42,16" fill="none" stroke="#333" stroke-linecap="round" stroke-linejoin="round"/><path d="M230.59,112.37c-4.1-9.43,6.81-14.08,10.83-7.93-3.78-8,7.57-14.31,13.17-3.59" fill="none" stroke="#333" stroke-linecap="round" stroke-linejoin="round"/><path d="M231.22,356.78H303V265.86" fill="none" stroke="#333" stroke-linecap="round" stroke-linejoin="round"/><path d="M303,265.86c11.71.71,20.86-3.18,26.85-11.66,13.91-19.73.51-58.63-19.67-92.3-4.72-7.89-9.43-15.5-13.88-22.55-14.54-23-26.51-40.36-28.7-43.5a15.88,15.88,0,0,0-1.06-1.37,10.38,10.38,0,0,0-6.08-3.91c-5.23-.88-9.09,4.64-5.83,10.28" fill="none" stroke="#333" stroke-linecap="round" stroke-linejoin="round"/><path d="M192.42,94.42c-9.56,1.43-17.57-3.66-19.28-11.73-1.79-8.43,4.74-16.87,12.24-18.45" fill="none" stroke="#333" stroke-linecap="round" stroke-linejoin="round"/><path d="M185.38,64.24c-7.55-2.61-10.71-9.09-8.56-15.34s8.41-9.77,14-7.84" fill="none" stroke="#333" stroke-linecap="round" stroke-linejoin="round"/><path d="M188.46,82.07s5-2.51,7.5-10c3.08-9.27,22.45-5,30-15a.1.1,0,0,0,0-.05" fill="none" stroke="#333" stroke-linecap="round" stroke-linejoin="round"/><path d="M266.8,94.22c6.09-1.35,10.68-5.64,11.93-11.53,1.79-8.43-4.74-16.87-12.23-18.45" fill="none" stroke="#333" stroke-linecap="round" stroke-linejoin="round"/><path d="M266.5,64.24c7.53-2.61,10.7-9.09,8.55-15.34s-8.4-9.77-13.95-7.84" fill="none" stroke="#333" stroke-linecap="round" stroke-linejoin="round"/><path d="M263.42,82.07s-5-2.51-7.51-10c-3.09-9.27-22.45-5-30-15,0,0,0,0-.05-.05" fill="none" stroke="#333" stroke-linecap="round" stroke-linejoin="round"/><path d="M185.38,64.24a47.84,47.84,0,0,1,6-22.84c7.14-12.76,19.93-21.31,34.54-21.39h.24" fill="none" stroke="#333" stroke-linecap="round" stroke-linejoin="round"/><path d="M221.23,117.47c-6.73-1.23-13-4.94-18.26-10.17A56.61,56.61,0,0,1,193.12,94a64.91,64.91,0,0,1-5-11.86,58.6,58.6,0,0,1-2.75-17.28c0-.22,0-.44,0-.65" fill="none" stroke="#333" stroke-linecap="round" stroke-linejoin="round"/><path d="M203.57,89.05s5,1.25,8.83-1.54" fill="none" stroke="#333" stroke-linecap="round" stroke-linejoin="round"/><path d="M221.15,105.38a7.25,7.25,0,0,0,5,2.5" fill="none" stroke="#333" stroke-linecap="round" stroke-linejoin="round"/><path d="M248.78,89.05s-5,1.25-8.85-1.54" fill="none" stroke="#333" stroke-linecap="round" stroke-linejoin="round"/><path d="M229.72,106.64a6.15,6.15,0,0,1-3.55,1.24" fill="none" stroke="#333" stroke-linecap="round" stroke-linejoin="round"/><circle cx="253.15" cy="96.18" r="1.47" fill="#e63741"/><circle cx="258.02" cy="109.19" r="1.47" fill="#e63741"/><circle cx="265.27" cy="96.52" r="1.47" fill="#e63741"/><circle cx="227.67" cy="110.89" r="1.47" fill="#e63741"/><circle cx="234.94" cy="117.51" r="1.47" fill="#e63741"/><circle cx="234.94" cy="103.31" r="1.47" fill="#e63741"/><circle cx="254.23" cy="100.26" r="1.47" fill="#e63741"/><circle cx="245.6" cy="96.18" r="1.47" fill="#e63741"/><circle cx="231.99" cy="108.45" r="1.47" fill="#e63741"/><circle cx="230.52" cy="131.13" r="1.47" fill="#e63741"/><circle cx="223.44" cy="121.41" r="1.47" fill="#e63741"/><circle cx="228.3" cy="119.94" r="1.47" fill="#e63741"/><circle cx="247.08" cy="109.42" r="1.47" fill="#e63741"/><circle cx="240.51" cy="104.51" r="2.28" fill="#e63741"/><circle cx="258.95" cy="91.84" r="2.28" fill="#e63741"/><circle cx="225.36" cy="115.12" r="2.28" fill="#e63741"/></g></svg>