<svg xmlns="http://www.w3.org/2000/svg" viewBox="0 0 465 395"><rect width="465" height="395" fill="#e5e5e5"/><path d="M65.71,218A70.89,70.89,0,0,1,53.9,202.35c-12.2-22.38-6.89-47.5,0-65.61a62.38,62.38,0,0,1,33.43-34.67s-1.24-7.43,6.19-7.43c3.18,3,7,5,11.14,5s8-1.92,11.14-5c7.43,0,6.19,7.43,6.19,7.43a62.38,62.38,0,0,1,33.43,34.67c6.9,18.11,12.2,43.23,0,65.61a71.78,71.78,0,0,1-12.21,16,103,103,0,0,1-10.08,8.74c-1.86,1.47-3.48,2.7-4.91,3.76l0-.05c0-1.24-3.71-12.38-16.09-19.81-2.66,1.85-5,3.63-7.12,5.46-2.1-1.8-4.45-3.63-7-5.46-12.38,7.43-16.79,18.57-16.79,19.81l-.08.09c-1.58-1.24-3.2-2.48-4.87-3.8A102.19,102.19,0,0,1,65.71,218Z" fill="#fddda6"/><path d="M143.21,218.37,137.46,346a4.62,4.62,0,0,1-2.1,3.69c-5.38,4.08-19.62,4.29-24.94.9a3.72,3.72,0,0,1-2-3.07l1.17-83.72a4.88,4.88,0,0,0-9.7-.82V250.37l0-.09c2.32.54,4-1.72,3-4.42,2,6.35,9,3.09,7.11-1.46.77,1.54,2.68,1.55,4,.4l.47.12a6.75,6.75,0,0,1,.21,1.69v4.5a2.48,2.48,0,0,0,2.48,2.47h1.24a2.48,2.48,0,0,0,2.47-2.47v-5a10.46,10.46,0,0,0-2.33-6.82l-.06-.11a2.51,2.51,0,0,0,1-1.76l.18,0c1.85-1.85,4.39-3.51,8.58-6.62,1.43-1.06,3.05-2.29,4.91-3.76A103,103,0,0,0,143.21,218.37Z" fill="#66c09c"/><path d="M136.16,349.67s12.45,11.05,12.45,18.57-9.15,7.42-20.43,7.42S109,370.81,109,363.29a57.61,57.61,0,0,1,1.18-12.38l.25-.37c5.32,3.39,19.56,3.18,24.94-.9Z" fill="#333"/><path d="M124.78,73.44c3.78.81,7.07,5.06,6.17,9.32s-5.06,7-10.2,5.89l-.2-.12a32.28,32.28,0,0,0,3.12-7.38A28.51,28.51,0,0,0,124.78,73.44Z" fill="#fff"/><path d="M129.09,65.71c1.09,3.15-.51,6.42-4.31,7.73a23.74,23.74,0,0,0-3-11.55l.23-.14C124.86,60.79,128,62.56,129.09,65.71Z" fill="#fff"/><path d="M128.18,230.82l0,.05c-4.19,3.11-6.73,4.77-8.58,6.62l-.18,0a7,7,0,0,0-.62-3.65C117,229.12,112.54,223,105,216.47c2.15-1.83,4.46-3.61,7.12-5.46C124.47,218.44,128.18,229.58,128.18,230.82Z" fill="#f5afb3"/><path d="M124.78,73.44a28.51,28.51,0,0,1-1.11,7.71l-.44-.12a8.59,8.59,0,0,1-3.72-5c-1.52-4.58-11.14-2.47-14.85-7.42-3.72,4.95-13.33,2.84-14.86,7.42a8.6,8.6,0,0,1-3.71,5l-.44.12a28.51,28.51,0,0,1-1.11-7.71,23.6,23.6,0,0,1,3-11.56C91,55.54,97.4,51.32,104.66,51.32s13.62,4.23,17.15,10.57h0A23.74,23.74,0,0,1,124.78,73.44Z" fill="#fff"/><path d="M123.23,81l.44.12a32.28,32.28,0,0,1-3.12,7.38,27.07,27.07,0,0,1-4.75,6.11c-3.19,3-7,5-11.14,5s-8-1.92-11.14-5a27.11,27.11,0,0,1-4.76-6.11,31.81,31.81,0,0,1-3.11-7.38l.44-.12a8.6,8.6,0,0,0,3.71-5c1.53-4.58,11.14-2.47,14.86-7.42,3.71,4.95,13.33,2.84,14.85,7.42A8.59,8.59,0,0,0,123.23,81Zm-7.43.62a3.1,3.1,0,1,0-3.09,3.09A3.09,3.09,0,0,0,115.8,81.65Zm-16.09,0a3.1,3.1,0,1,0-3.1,3.09A3.1,3.1,0,0,0,99.71,81.65Z" fill="#f5afb3"/><path d="M120.88,246.15v5a2.48,2.48,0,0,1-2.47,2.47h-1.24a2.48,2.48,0,0,1-2.48-2.47v-4.5a6.75,6.75,0,0,0-.21-1.69l-.47-.12a4.5,4.5,0,0,0,1.12-4.8c-.34-.77-.72-1.54-1.13-2.32,1.33,1.86,3.29,2.38,4.49,1.54l.06.11A10.46,10.46,0,0,1,120.88,246.15Z" fill="#666"/><path d="M102.9,245.86c.92,2.7-.72,5-3,4.42-1.2-.27-2.57-1.28-3.87-3.36-.74-1.19-1.48-2.29-2.23-3.32a60.47,60.47,0,0,0-12.7-12.69l.08-.09c0-1.24,4.41-12.38,16.79-19.81,2.59,1.83,4.94,3.66,7,5.46,7.57,6.48,12,12.65,13.87,17.34a7,7,0,0,1,.62,3.65,2.51,2.51,0,0,1-1,1.76c-1.2.84-3.16.32-4.49-1.54.41.78.79,1.55,1.13,2.32a4.5,4.5,0,0,1-1.12,4.8c-1.32,1.15-3.23,1.14-4-.4C111.86,249,104.89,252.21,102.9,245.86Z" fill="#f5afb3"/><path d="M112.71,78.55a3.1,3.1,0,1,1-3.1,3.1A3.09,3.09,0,0,1,112.71,78.55Zm1.54,3.25a1.7,1.7,0,1,0-1.7,1.7A1.7,1.7,0,0,0,114.25,81.8Z" fill="#f2f2f2"/><circle cx="112.55" cy="81.8" r="1.7" fill="#333"/><path d="M99.84,262.93V372.27a2.48,2.48,0,0,1-2.48,2.47H96.12A2.47,2.47,0,0,1,93.76,373a2.29,2.29,0,0,1-.11-.74V243.68l.11-.08c.75,1,1.49,2.13,2.23,3.32,1.3,2.08,2.67,3.09,3.87,3.36l0,.09Z" fill="#666"/><path d="M96.61,78.55a3.1,3.1,0,1,1-3.09,3.1A3.1,3.1,0,0,1,96.61,78.55Zm1.86,3.25a1.71,1.71,0,1,0-1.7,1.7A1.7,1.7,0,0,0,98.47,81.8Z" fill="#f2f2f2"/><circle cx="96.77" cy="81.8" r="1.7" fill="#333"/><path d="M93.76,243.6l-.11.08v108.1h-.23c-7.21,1.89-17.45,1.53-20.6-2.11a3.74,3.74,0,0,1-1-2.52L65.71,218a102.19,102.19,0,0,0,10.48,9.14c1.67,1.32,3.29,2.56,4.87,3.8A60.47,60.47,0,0,1,93.76,243.6Z" fill="#66c09c"/><path d="M93.76,373l-.11,0a27.5,27.5,0,0,1-12.51,2.61c-11.28,0-20.43.1-20.43-7.42s12.11-18.57,12.11-18.57c3.15,3.64,13.39,4,20.6,2.11h.23v20.49A2.29,2.29,0,0,0,93.76,373Z" fill="#333"/><path d="M88.76,88.53l-.2.12c-5.13,1.09-9.29-1.64-10.19-5.89s2.39-8.51,6.17-9.32a28.51,28.51,0,0,0,1.11,7.71A31.81,31.81,0,0,0,88.76,88.53Z" fill="#fff"/><path d="M87.27,61.75l.24.13a23.6,23.6,0,0,0-3,11.56c-3.8-1.31-5.4-4.58-4.31-7.73S84.47,60.79,87.27,61.75Z" fill="#fff"/><path d="M104.66,99.6c-4.12,0-8-1.92-11.14-5a27.11,27.11,0,0,1-4.76-6.11,31.81,31.81,0,0,1-3.11-7.38,28.51,28.51,0,0,1-1.11-7.71,23.6,23.6,0,0,1,3-11.56C91,55.54,97.4,51.32,104.66,51.32" fill="none" stroke="#333" stroke-linecap="round" stroke-linejoin="round"/><path d="M88.56,88.65c-5.13,1.09-9.29-1.64-10.19-5.89s2.39-8.51,6.17-9.32" fill="none" stroke="#333" stroke-linecap="round" stroke-linejoin="round"/><path d="M84.54,73.44c-3.8-1.31-5.4-4.58-4.31-7.73s4.24-4.92,7-4" fill="none" stroke="#333" stroke-linecap="round" stroke-linejoin="round"/><path d="M86.09,81a8.6,8.6,0,0,0,3.71-5c1.53-4.58,11.14-2.47,14.86-7.42" fill="none" stroke="#333" stroke-linecap="round" stroke-linejoin="round"/><path d="M93.52,85.36a5.73,5.73,0,0,0,4.35-.76" fill="none" stroke="#333" stroke-linecap="round" stroke-linejoin="round"/><path d="M102.18,93.41a3.56,3.56,0,0,0,2.48,1.23" fill="none" stroke="#333" stroke-linecap="round" stroke-linejoin="round"/><path d="M102.9,245.86c.92,2.7-.72,5-3,4.42-1.2-.27-2.57-1.28-3.87-3.36-.74-1.19-1.48-2.29-2.23-3.32a60.47,60.47,0,0,0-12.7-12.69c-1.58-1.24-3.2-2.48-4.87-3.8A102.19,102.19,0,0,1,65.71,218,70.89,70.89,0,0,1,53.9,202.35c-12.2-22.38-6.89-47.5,0-65.61a62.38,62.38,0,0,1,33.43-34.67s-1.24-7.43,6.19-7.43" fill="none" stroke="#333" stroke-linecap="round" stroke-linejoin="round"/><path d="M97.93,211c2.59,1.83,4.94,3.66,7,5.46,7.57,6.48,12,12.65,13.87,17.34a7,7,0,0,1,.62,3.65,2.51,2.51,0,0,1-1,1.76c-1.2.84-3.16.32-4.49-1.54l-.11-.16" fill="none" stroke="#333" stroke-linecap="round" stroke-linejoin="round"/><path d="M115.13,240c-.34-.77-.72-1.54-1.13-2.32a34.81,34.81,0,0,0-5.63-8.1" fill="none" stroke="#333" stroke-linecap="round" stroke-linejoin="round"/><path d="M110,244.4c-1.68-3.64-4.11-8.63-6.59-11.1" fill="none" stroke="#333" stroke-linecap="round" stroke-linejoin="round"/><path d="M102.9,245.86A26.86,26.86,0,0,0,97.23,237" fill="none" stroke="#333" stroke-linecap="round" stroke-linejoin="round"/><path d="M115.13,240a4.5,4.5,0,0,1-1.12,4.8c-1.32,1.15-3.23,1.14-4-.4,1.85,4.55-5.12,7.81-7.11,1.46" fill="none" stroke="#333" stroke-linecap="round" stroke-linejoin="round"/><path d="M81.14,230.82c0-1.24,4.41-12.38,16.79-19.81" fill="none" stroke="#333" stroke-linecap="round" stroke-linejoin="round"/><path d="M104.66,99.6c4.11,0,8-1.92,11.14-5a27.07,27.07,0,0,0,4.75-6.11,32.28,32.28,0,0,0,3.12-7.38,28.51,28.51,0,0,0,1.11-7.71,23.74,23.74,0,0,0-3-11.55h0c-3.53-6.34-9.89-10.57-17.15-10.57" fill="none" stroke="#333" stroke-linecap="round" stroke-linejoin="round"/><path d="M120.75,88.65c5.14,1.09,9.3-1.64,10.2-5.89s-2.39-8.51-6.17-9.32" fill="none" stroke="#333" stroke-linecap="round" stroke-linejoin="round"/><path d="M124.78,73.44c3.8-1.31,5.4-4.58,4.31-7.73s-4.23-4.92-7-4" fill="none" stroke="#333" stroke-linecap="round" stroke-linejoin="round"/><path d="M123.23,81a8.59,8.59,0,0,1-3.72-5c-1.52-4.58-11.14-2.47-14.85-7.42" fill="none" stroke="#333" stroke-linecap="round" stroke-linejoin="round"/><path d="M115.8,85.36a5.73,5.73,0,0,1-4.35-.76" fill="none" stroke="#333" stroke-linecap="round" stroke-linejoin="round"/><path d="M107.13,93.41a3.51,3.51,0,0,1-2.47,1.23" fill="none" stroke="#333" stroke-linecap="round" stroke-linejoin="round"/><path d="M119.64,237.49c1.85-1.85,4.39-3.51,8.58-6.62,1.43-1.06,3.05-2.29,4.91-3.76a103,103,0,0,0,10.08-8.74,71.78,71.78,0,0,0,12.21-16c12.2-22.38,6.9-47.5,0-65.61A62.38,62.38,0,0,0,122,102.07s1.24-7.43-6.19-7.43" fill="none" stroke="#333" stroke-linecap="round" stroke-linejoin="round"/><path d="M112.09,211c-2.66,1.85-5,3.63-7.12,5.46" fill="none" stroke="#333" stroke-linecap="round" stroke-linejoin="round"/><path d="M128.18,230.82c0-1.24-3.71-12.38-16.09-19.81" fill="none" stroke="#333" stroke-linecap="round" stroke-linejoin="round"/><path d="M114.48,244.92a6.75,6.75,0,0,1,.21,1.69v4.5a2.48,2.48,0,0,0,2.48,2.47h1.24a2.48,2.48,0,0,0,2.47-2.47v-5a10.46,10.46,0,0,0-2.33-6.82" fill="none" stroke="#333" stroke-linecap="round" stroke-linejoin="round"/><path d="M93.65,243.68V372.27a2.29,2.29,0,0,0,.11.74,2.47,2.47,0,0,0,2.36,1.73h1.24a2.48,2.48,0,0,0,2.48-2.47V250.37" fill="none" stroke="#333" stroke-linecap="round" stroke-linejoin="round"/><path d="M99.78,263.75a3.69,3.69,0,0,1,.06-.82,4.85,4.85,0,0,1,4.82-4.11" fill="none" stroke="#333" stroke-linecap="round" stroke-linejoin="round"/><path d="M65.67,217.1l0,.87,6.14,129.18a3.74,3.74,0,0,0,1,2.52c3.15,3.64,13.39,4,20.6,2.11" fill="none" stroke="#333" stroke-linecap="round" stroke-linejoin="round"/><path d="M143.21,218.37,137.46,346a4.62,4.62,0,0,1-2.1,3.69c-5.38,4.08-19.62,4.29-24.94.9a3.72,3.72,0,0,1-2-3.07l1.17-83.72a4.86,4.86,0,0,0-4.88-4.93" fill="none" stroke="#333" stroke-linecap="round" stroke-linejoin="round"/><path d="M93.65,373.05a27.5,27.5,0,0,1-12.51,2.61c-11.28,0-20.43.1-20.43-7.42s12.11-18.57,12.11-18.57" fill="none" stroke="#333" stroke-linecap="round" stroke-linejoin="round"/><path d="M110.17,350.91A57.61,57.61,0,0,0,109,363.29c0,7.52,7.91,12.37,19.19,12.37s20.43.1,20.43-7.42-12.45-18.57-12.45-18.57" fill="none" stroke="#333" stroke-linecap="round" stroke-linejoin="round"/><path d="M399.54,218.39c-2,2-4,3.74-5.63,5.15-1.89,1.59-3.45,2.78-4.45,3.57s-2.87,2.15-4.95,3.76l0-.05c0-1.24-4.41-12.38-16.79-19.81a79.5,79.5,0,0,0-14.42,12.74l-.19-.16H322.59v-56c-8.73,6.48-19.87,8-26.13,2.09-7.81-7.33-5.79-23.22.31-40.41a135.68,135.68,0,0,1,18.13-34l.08.06c8.2,11.89,16.86,14.14,21.94,15.87l.05,0c5.9-7.9,11.24-14.71,12.84-16.33l.16-.16.11.11A16.21,16.21,0,0,0,361,99.6c4.12,0,7.95-1.92,11.14-5,7.43,0,6.19,7.43,6.19,7.43a62.38,62.38,0,0,1,33.43,34.67c6.9,18.11,12.2,43.23,0,65.61A70.32,70.32,0,0,1,399.54,218.39Z" fill="#fddda6"/><path d="M393.91,223.54c1.67-1.41,3.6-3.12,5.63-5.15l-.23,5.2H394Z" fill="#33ab7b"/><path d="M399.31,223.59,393.8,346a4.63,4.63,0,0,1-2.11,3.69c-5.38,4.07-19.59,4.29-24.92.91a3.76,3.76,0,0,1-2.07-3.08l1.17-83.72a4.88,4.88,0,0,0-9.69-.9h0V248.44l.13-.11c1.71,1.72,5.12,1.67,6.41-2.47-1.39,4.08,3.44,7.39,6.91,1.06.37-.69.77-1.35,1.19-2a6.69,6.69,0,0,1,.21,1.69v4.5a2.48,2.48,0,0,0,2.48,2.47h1.24a2.47,2.47,0,0,0,2.47-2.47v-5a10.52,10.52,0,0,0-2.11-6.54l-.12-.11a71.18,71.18,0,0,1,9.53-8.63c2.08-1.61,3.85-2.88,4.95-3.76s2.56-2,4.45-3.57l0,.05Z" fill="#66c09c"/><path d="M392.49,349.67s12.45,11.05,12.45,18.57-9.14,7.43-20.43,7.43-19.19-4.86-19.19-12.38a58.08,58.08,0,0,1,1.17-12.38l.28-.36c5.33,3.38,19.54,3.16,24.92-.91Z" fill="#333"/><path d="M381.11,73.44c3.78.81,7.07,5.06,6.17,9.32s-5.06,7-10.2,5.89l-.19-.11A32.07,32.07,0,0,0,380,81.15,28.51,28.51,0,0,0,381.11,73.44Z" fill="#fff"/><path d="M385.42,65.71c1.09,3.15-.51,6.42-4.31,7.73a23.77,23.77,0,0,0-3-11.55l.23-.14C381.18,60.79,384.34,62.56,385.42,65.71Z" fill="#fff"/><path d="M355.6,244.4c-1.12,2.24-4.69,1.23-5.27-1.88a5.55,5.55,0,0,1,.16-2.52c.34-.77.71-1.55,1.12-2.32-2.51,3.52-7.28,2.22-4.84-3.87a37.11,37.11,0,0,1,6.49-10.06A79.5,79.5,0,0,1,367.68,211c12.38,7.43,16.79,18.57,16.79,19.81l0,.05A71.18,71.18,0,0,0,375,239.5a43.55,43.55,0,0,0-4.17,5.42c-.42.65-.82,1.31-1.19,2-3.47,6.33-8.3,3-6.91-1.06-1.29,4.14-4.7,4.19-6.41,2.47A3.53,3.53,0,0,1,355.6,244.4Z" fill="#f5afb3"/><path d="M381.11,73.44A28.51,28.51,0,0,1,380,81.15l-.44-.12a8.55,8.55,0,0,1-3.71-5c-1.53-4.58-11.15-2.47-14.86-7.42-3.71,4.95-13.33,2.84-14.86,7.42a9.69,9.69,0,0,1-2.45,4h0a3.16,3.16,0,0,0-2.48-2.18l0-.23a27.51,27.51,0,0,1-.34-4.23,23.77,23.77,0,0,1,3-11.55h0c3.53-6.34,9.89-10.57,17.15-10.57s13.62,4.23,17.15,10.57h0A23.77,23.77,0,0,1,381.11,73.44Z" fill="#fff"/><path d="M379.56,81l.44.12a32.07,32.07,0,0,1-3.11,7.39,27.27,27.27,0,0,1-4.76,6.1c-3.19,3-7,5-11.14,5a16.21,16.21,0,0,1-10.91-4.73l-.11-.11c5.2-5.43.73-9.09-2.7-6.33,5.46-4.18-.41-9.2-4.15-5.81a2.52,2.52,0,0,0,.54-2.54h0a9.69,9.69,0,0,0,2.45-4c1.53-4.58,11.15-2.47,14.86-7.42,3.71,4.95,13.33,2.84,14.86,7.42A8.55,8.55,0,0,0,379.56,81Z" fill="#f0878d"/><path d="M377.21,246.15v5a2.47,2.47,0,0,1-2.47,2.47H373.5a2.48,2.48,0,0,1-2.48-2.47v-4.5a6.69,6.69,0,0,0-.21-1.69A43.55,43.55,0,0,1,375,239.5l.12.11A10.52,10.52,0,0,1,377.21,246.15Z" fill="#666"/><path d="M356.3,248.33l-.13.11V372.27a2.48,2.48,0,0,1-2.48,2.47h-1.24a2.47,2.47,0,0,1-2.47-2.47V244.69a10.8,10.8,0,0,1,.35-2.17c.58,3.11,4.15,4.12,5.27,1.88A3.53,3.53,0,0,0,356.3,248.33Z" fill="#666"/><path d="M353.07,223.59l.19.16a37.11,37.11,0,0,0-6.49,10.06c-2.44,6.09,2.33,7.39,4.84,3.87-.41.77-.78,1.55-1.12,2.32a5.55,5.55,0,0,0-.16,2.52,10.8,10.8,0,0,0-.35,2.17V351.78h-.23c-7.21,1.89-17.45,1.53-20.6-2.11a3.74,3.74,0,0,1-1-2.52l-5.59-123.56Z" fill="#66c09c"/><path d="M343.12,82.62c3.74-3.39,9.61,1.63,4.15,5.81,3.43-2.76,7.9.9,2.7,6.33l-.16.16c-1.6,1.62-6.94,8.43-12.84,16.33l-.05,0c-5.08-1.73-13.74-4-21.94-15.87l-.08-.06a139.67,139.67,0,0,1,16-18.51c2-1.91,4.49-1.86,5.61-.59.9,1,.93,2.79-.81,5,.65-.65,1.35-1.33,2.13-2.08a4.17,4.17,0,0,1,3.37-1.18,3.16,3.16,0,0,1,2.48,2.18A2.52,2.52,0,0,1,343.12,82.62Z" fill="#f5afb3"/><path d="M350.09,373l-.11.05a27.63,27.63,0,0,1-12.51,2.62c-11.28,0-20.43.09-20.43-7.43s12.11-18.57,12.11-18.57c3.15,3.64,13.39,4,20.6,2.11H350v20.49A2.48,2.48,0,0,0,350.09,373Z" fill="#333"/><path d="M343.6,61.75l.23.14a23.77,23.77,0,0,0-3,11.55c-3.8-1.31-5.39-4.58-4.31-7.73S340.8,60.79,343.6,61.75Z" fill="#fff"/><path d="M341.21,77.67l0,.23a4.17,4.17,0,0,0-3.37,1.18c-.78.75-1.48,1.43-2.13,2.08,1.74-2.19,1.71-4,.81-5l.07-.06a8.06,8.06,0,0,1,4.31-2.68A27.51,27.51,0,0,0,341.21,77.67Z" fill="#fff"/><path d="M341.21,77.67a27.51,27.51,0,0,1-.34-4.23,23.77,23.77,0,0,1,3-11.55h0c3.53-6.34,9.89-10.57,17.15-10.57" fill="none" stroke="#333" stroke-linecap="round" stroke-linejoin="round"/><path d="M361,99.6a16.21,16.21,0,0,1-10.91-4.73" fill="none" stroke="#333" stroke-linecap="round" stroke-linejoin="round"/><path d="M336.56,76.12a8.06,8.06,0,0,1,4.31-2.68" fill="none" stroke="#333" stroke-linecap="round" stroke-linejoin="round"/><path d="M340.87,73.44c-3.8-1.31-5.39-4.58-4.31-7.73s4.24-4.92,7-4" fill="none" stroke="#333" stroke-linecap="round" stroke-linejoin="round"/><path d="M343.68,80.08a9.69,9.69,0,0,0,2.45-4c1.53-4.58,11.15-2.47,14.86-7.42" fill="none" stroke="#333" stroke-linecap="round" stroke-linejoin="round"/><path d="M349.85,85.36a5.73,5.73,0,0,0,4.35-.76" fill="none" stroke="#333" stroke-linecap="round" stroke-linejoin="round"/><path d="M363.47,94.64A3.6,3.6,0,0,0,361,93.41" fill="none" stroke="#333" stroke-linecap="round" stroke-linejoin="round"/><path d="M336.92,111.21c-5.08-1.73-13.74-4-21.94-15.87" fill="none" stroke="#333" stroke-linecap="round" stroke-linejoin="round"/><path d="M361,99.6c4.12,0,7.95-1.92,11.14-5a27.27,27.27,0,0,0,4.76-6.1A32.07,32.07,0,0,0,380,81.15a28.51,28.51,0,0,0,1.11-7.71,23.77,23.77,0,0,0-3-11.55h0c-3.53-6.34-9.89-10.57-17.15-10.57" fill="none" stroke="#333" stroke-linecap="round" stroke-linejoin="round"/><path d="M377.08,88.65c5.14,1.09,9.29-1.64,10.2-5.89s-2.39-8.51-6.17-9.32" fill="none" stroke="#333" stroke-linecap="round" stroke-linejoin="round"/><path d="M381.11,73.44c3.8-1.31,5.4-4.58,4.31-7.73s-4.24-4.92-7-4" fill="none" stroke="#333" stroke-linecap="round" stroke-linejoin="round"/><path d="M379.56,81a8.55,8.55,0,0,1-3.71-5c-1.53-4.58-11.15-2.47-14.86-7.42" fill="none" stroke="#333" stroke-linecap="round" stroke-linejoin="round"/><path d="M372.13,85.36a5.73,5.73,0,0,1-4.35-.76" fill="none" stroke="#333" stroke-linecap="round" stroke-linejoin="round"/><path d="M358.51,94.64A3.6,3.6,0,0,1,361,93.41" fill="none" stroke="#333" stroke-linecap="round" stroke-linejoin="round"/><path d="M335.68,81.16c1.74-2.19,1.71-4,.81-5-1.12-1.27-3.61-1.32-5.61.59a139.67,139.67,0,0,0-16,18.51,135.68,135.68,0,0,0-18.13,34c-6.1,17.19-8.12,33.08-.31,40.41,6.26,5.88,17.4,4.39,26.13-2.09" fill="none" stroke="#333" stroke-linecap="round" stroke-linejoin="round"/><path d="M347.27,88.43c3.43-2.76,7.9.9,2.7,6.33l-.16.16c-1.6,1.62-6.94,8.43-12.84,16.33" fill="none" stroke="#333" stroke-linecap="round" stroke-linejoin="round"/><path d="M337.81,79.08c-.78.75-1.48,1.43-2.13,2.08a50.84,50.84,0,0,0-5.42,6.43" fill="none" stroke="#333" stroke-linecap="round" stroke-linejoin="round"/><path d="M343.12,82.62a90.1,90.1,0,0,0-7.89,8.88" fill="none" stroke="#333" stroke-linecap="round" stroke-linejoin="round"/><path d="M347.27,88.43a42,42,0,0,0-6.58,6.91" fill="none" stroke="#333" stroke-linecap="round" stroke-linejoin="round"/><path d="M337.81,79.08a4.17,4.17,0,0,1,3.37-1.18,3.16,3.16,0,0,1,2.48,2.18,2.52,2.52,0,0,1-.54,2.54c3.74-3.39,9.61,1.63,4.15,5.81" fill="none" stroke="#333" stroke-linecap="round" stroke-linejoin="round"/><line x1="353.07" y1="223.59" x2="322.59" y2="223.59" fill="none" stroke="#333" stroke-linecap="round" stroke-linejoin="round"/><path d="M322.59,167.59v56" fill="none" stroke="#333" stroke-linecap="round" stroke-linejoin="round"/><path d="M373.1,82.46a4.52,4.52,0,0,1-5.83-1.29" fill="none" stroke="#333" stroke-linecap="round" stroke-linejoin="round"/><path d="M348.89,82.46a4.52,4.52,0,0,0,5.83-1.29" fill="none" stroke="#333" stroke-linecap="round" stroke-linejoin="round"/><path d="M362.71,245.86c-1.39,4.08,3.44,7.39,6.91,1.06.37-.69.77-1.35,1.19-2A43.55,43.55,0,0,1,375,239.5a71.18,71.18,0,0,1,9.53-8.63c2.08-1.61,3.85-2.88,4.95-3.76s2.56-2,4.45-3.57c1.67-1.41,3.6-3.12,5.63-5.15a70.32,70.32,0,0,0,12.21-16c12.2-22.38,6.9-47.5,0-65.61a62.38,62.38,0,0,0-33.43-34.67s1.24-7.43-6.19-7.43" fill="none" stroke="#333" stroke-linecap="round" stroke-linejoin="round"/><path d="M367.68,211a79.5,79.5,0,0,0-14.42,12.74,37.11,37.11,0,0,0-6.49,10.06c-2.44,6.09,2.33,7.39,4.84,3.87a.91.91,0,0,0,.11-.16" fill="none" stroke="#333" stroke-linecap="round" stroke-linejoin="round"/><path d="M350.49,240c.34-.77.71-1.55,1.12-2.32a35.11,35.11,0,0,1,5.63-8.1" fill="none" stroke="#333" stroke-linecap="round" stroke-linejoin="round"/><path d="M355.6,244.4c1.69-3.64,4.12-8.63,6.59-11.1" fill="none" stroke="#333" stroke-linecap="round" stroke-linejoin="round"/><path d="M362.71,245.86a26.86,26.86,0,0,1,5.67-8.85" fill="none" stroke="#333" stroke-linecap="round" stroke-linejoin="round"/><path d="M350.49,240a5.55,5.55,0,0,0-.16,2.52c.58,3.11,4.15,4.12,5.27,1.88a3.53,3.53,0,0,0,.7,3.93c1.71,1.72,5.12,1.67,6.41-2.47" fill="none" stroke="#333" stroke-linecap="round" stroke-linejoin="round"/><path d="M384.47,230.82c0-1.24-4.41-12.38-16.79-19.81" fill="none" stroke="#333" stroke-linecap="round" stroke-linejoin="round"/><path d="M370.81,244.92a6.69,6.69,0,0,1,.21,1.69v4.5a2.48,2.48,0,0,0,2.48,2.47h1.24a2.47,2.47,0,0,0,2.47-2.47v-5a10.52,10.52,0,0,0-2.11-6.54" fill="none" stroke="#333" stroke-linecap="round" stroke-linejoin="round"/><path d="M356.17,248.44V372.27a2.48,2.48,0,0,1-2.48,2.47h-1.24a2.47,2.47,0,0,1-2.47-2.47V244.69a10.8,10.8,0,0,1,.35-2.17" fill="none" stroke="#333" stroke-linecap="round" stroke-linejoin="round"/><path d="M356.18,262.85a4.86,4.86,0,0,1,4.81-4" fill="none" stroke="#333" stroke-linecap="round" stroke-linejoin="round"/><path d="M322.59,223.59l5.59,123.56a3.74,3.74,0,0,0,1,2.52c3.15,3.64,13.39,4,20.6,2.11" fill="none" stroke="#333" stroke-linecap="round" stroke-linejoin="round"/><path d="M399.54,218.37v0l-.23,5.2L393.8,346a4.63,4.63,0,0,1-2.11,3.69c-5.38,4.07-19.59,4.29-24.92.91a3.76,3.76,0,0,1-2.07-3.08l1.17-83.72a4.86,4.86,0,0,0-4.88-4.93" fill="none" stroke="#333" stroke-linecap="round" stroke-linejoin="round"/><path d="M350,373.05a27.63,27.63,0,0,1-12.51,2.62c-11.28,0-20.43.09-20.43-7.43s12.11-18.57,12.11-18.57" fill="none" stroke="#333" stroke-linecap="round" stroke-linejoin="round"/><path d="M366.49,350.91a58.08,58.08,0,0,0-1.17,12.38c0,7.52,7.91,12.38,19.19,12.38s20.43.09,20.43-7.43-12.45-18.57-12.45-18.57" fill="none" stroke="#333" stroke-linecap="round" stroke-linejoin="round"/><line x1="393.96" y1="223.59" x2="399.31" y2="223.59" fill="none" stroke="#333" stroke-linecap="round" stroke-linejoin="round"/><line x1="194.64" y1="83.01" x2="269.27" y2="83.01" fill="none" stroke="#333" stroke-linecap="round" stroke-linejoin="round"/><polygon points="265.96 87.1 265.28 86.37 268.89 83.01 265.28 79.65 265.96 78.92 270.36 83.01 265.96 87.1" fill="#333"/><path d="M113.76,20.62h2.3V32h-2.3V24.47L110.41,32h-2.3V20.62h2.3v7.54Z" fill="#333"/><path d="M124.14,32h-2.21V28.75H120V32h-2.22V23.55H120v3.38h1.94V23.55h2.21Z" fill="#333"/><path d="M128.7,28.9h-.58V32h-2.2V23.55h2.2v3.17h.55L130,23.55h2.77l-2.22,3.9L132.89,32H130Z" fill="#333"/><path d="M136.54,28.32l1.12-4.77H140l-2.78,9.72c-.42,1.43-1.2,2.14-2.35,2.14a3.61,3.61,0,0,1-.91-.14V33.54h.26a1.32,1.32,0,0,0,.78-.2,1.34,1.34,0,0,0,.39-.69l.17-.57-2.44-8.54h2.38Z" fill="#333"/><path d="M144.68,24a2.53,2.53,0,0,1,2.16,1.07,4.76,4.76,0,0,1,.8,2.93v.11a4.44,4.44,0,0,1-.91,2.94,3.06,3.06,0,0,1-2.48,1.09A3,3,0,0,1,141.76,31a5.22,5.22,0,0,1-.91-3.26v-.35a10.5,10.5,0,0,1,.81-4.47,3.61,3.61,0,0,1,2.4-2,2.41,2.41,0,0,0,1-.45.74.74,0,0,0,.22-.57H147a2.65,2.65,0,0,1-.57,1.86,3.77,3.77,0,0,1-2,.93,2.29,2.29,0,0,0-1.25.77,3.37,3.37,0,0,0-.58,1.57A2.72,2.72,0,0,1,144.68,24Zm-.44,1.83c-.76,0-1.15.67-1.17,2v.29a3.49,3.49,0,0,0,.3,1.68,1,1,0,0,0,.88.52c.76,0,1.16-.68,1.18-2V28C145.43,26.56,145,25.85,144.24,25.85Z" fill="#333"/><path d="M153,32a3.18,3.18,0,0,1-.18-.66,1.89,1.89,0,0,1-1.61.82,2.37,2.37,0,0,1-1.76-.71,2.45,2.45,0,0,1-.7-1.82,2.56,2.56,0,0,1,.84-2.05,3.69,3.69,0,0,1,2.45-.74h.67v-.68a1.3,1.3,0,0,0-.2-.81.72.72,0,0,0-.57-.23c-.55,0-.83.32-.83,1H148.9a2.47,2.47,0,0,1,.88-1.94,3.27,3.27,0,0,1,2.22-.76,3,3,0,0,1,2.16.72,2.76,2.76,0,0,1,.76,2.07v4a4.11,4.11,0,0,0,.31,1.71V32Zm-1.3-1.58a1.21,1.21,0,0,0,.62-.15,1,1,0,0,0,.39-.35V28.16h-.53a1.12,1.12,0,0,0-.89.36,1.37,1.37,0,0,0-.33,1C151,30.11,151.21,30.42,151.7,30.42Z" fill="#333"/><path d="M156.51,23.55h2.22v6.61h2V23.55h2.21v6.63h1.16l-.16,4.33h-2V32h-5.35Z" fill="#333"/><path d="M169.36,23.55h2.21V32h-2.21V26.8l-2,5.2h-2.21V23.55h2.21v5.18Z" fill="#333"/><path d="M172.92,27.5a4.63,4.63,0,0,1,.9-3,3.46,3.46,0,0,1,5,0,4.65,4.65,0,0,1,.9,3v.53a4.59,4.59,0,0,1-.9,3,3.46,3.46,0,0,1-5,0,4.64,4.64,0,0,1-.9-3Zm2.22.55c0,1.52.4,2.27,1.21,2.27s1.14-.63,1.2-1.89V27.5a3.57,3.57,0,0,0-.32-1.71,1,1,0,0,0-.91-.56,1,1,0,0,0-.88.56,3.59,3.59,0,0,0-.31,1.71Z" fill="#333"/><path d="M187.5,32h-2.21V28.75h-1.94V32h-2.22V23.55h2.22v3.38h1.94V23.55h2.21Z" fill="#333"/><path d="M195.49,32h-2.21V28.75h-1.95V32h-2.22V23.55h2.22v3.38h1.95V23.55h2.21Z" fill="#333"/><path d="M199.46,26h1.13a3.25,3.25,0,0,1,2.35.82,2.88,2.88,0,0,1,.85,2.19,2.84,2.84,0,0,1-.86,2.16,3.27,3.27,0,0,1-2.35.82h-3.33V23.55h2.21Zm0,1.83v2.34h1.15a.87.87,0,0,0,.72-.31,1.26,1.26,0,0,0,.26-.84c0-.79-.35-1.19-1-1.19ZM207,32h-2.21V23.55H207Z" fill="#333"/><path d="M213,23.55h2.21V32H213V26.8L211,32h-2.22V23.55H211v5.18Zm1.78-3.44a2.11,2.11,0,0,1-.75,1.68,2.89,2.89,0,0,1-2,.64,2.93,2.93,0,0,1-2-.64,2.13,2.13,0,0,1-.74-1.68H211a1,1,0,0,0,.3.75,1.13,1.13,0,0,0,.81.27,1.1,1.1,0,0,0,.79-.27,1,1,0,0,0,.29-.75Z" fill="#333"/><path d="M226.89,32h-2.21V25.39h-2V32H220.5V23.55h6.39Z" fill="#333"/><path d="M231.91,32.16a3.47,3.47,0,0,1-2.66-1,4.11,4.11,0,0,1-.95-2.91v-.67a4.75,4.75,0,0,1,.88-3.08,3,3,0,0,1,2.5-1.09,2.85,2.85,0,0,1,2.4,1,4.82,4.82,0,0,1,.82,3v1.09h-4.4a2.29,2.29,0,0,0,.42,1.37,1.36,1.36,0,0,0,1.13.44,2.46,2.46,0,0,0,1.85-.76l.87,1.34a2.85,2.85,0,0,1-1.18.91A4.11,4.11,0,0,1,231.91,32.16ZM230.52,27h2.21v-.2a2.31,2.31,0,0,0-.25-1.15.88.88,0,0,0-.81-.39.9.9,0,0,0-.84.41A2.79,2.79,0,0,0,230.52,27Z" fill="#333"/><path d="M242.74,28a5.58,5.58,0,0,1-.69,3.05,2.25,2.25,0,0,1-2,1.07,2,2,0,0,1-1.66-.84v3.93h-2.21V23.55h2l.08.77a2,2,0,0,1,1.72-.93,2.33,2.33,0,0,1,2,1,5.4,5.4,0,0,1,.7,3Zm-2.2-.56a4,4,0,0,0-.27-1.73,1,1,0,0,0-.91-.51,1.06,1.06,0,0,0-1,.57v4a1.05,1.05,0,0,0,1,.55.91.91,0,0,0,.91-.55,4.38,4.38,0,0,0,.26-1.73Z" fill="#333"/><path d="M248.25,23.55h2.21V32h-2.21V26.8l-2,5.2h-2.22V23.55h2.22v5.18Z" fill="#333"/><path d="M251.81,27.5a4.63,4.63,0,0,1,.9-3,3.46,3.46,0,0,1,5,0,4.65,4.65,0,0,1,.9,3v.53a4.59,4.59,0,0,1-.9,3,3.07,3.07,0,0,1-2.51,1.09,3.13,3.13,0,0,1-2.53-1.09,4.64,4.64,0,0,1-.9-3Zm2.22.55c0,1.52.4,2.27,1.21,2.27s1.14-.63,1.2-1.89V27.5a3.57,3.57,0,0,0-.32-1.71,1,1,0,0,0-.91-.56,1,1,0,0,0-.88.56A3.59,3.59,0,0,0,254,27.5Z" fill="#333"/><path d="M260.2,30.16a4.16,4.16,0,0,0,.78-1.25,5.69,5.69,0,0,0,.27-1.78l.07-3.58h5.5v6.61h1.12v4.38h-2.21V32h-3.9v2.54h-2.26V30.16Zm2.45,0h2V25.43H263.5v.84A8.28,8.28,0,0,1,262.65,30.16Z" fill="#333"/><path d="M276.35,26.05c0-.62-.24-.93-.71-.93a.81.81,0,0,0-.6.22.9.9,0,0,0-.22.64h-2.21a2.35,2.35,0,0,1,.82-1.86,3,3,0,0,1,2.1-.72,3.47,3.47,0,0,1,2.22.64,2.22,2.22,0,0,1,.8,1.82,2,2,0,0,1-.29,1,2.09,2.09,0,0,1-.8.76,1.94,1.94,0,0,1,1.22,2,2.26,2.26,0,0,1-.86,1.85,3.58,3.58,0,0,1-2.3.7,3.19,3.19,0,0,1-2.18-.73,2.41,2.41,0,0,1-.84-1.93h2.21a1,1,0,0,0,.25.7,1,1,0,0,0,.68.25.74.74,0,0,0,.62-.27,1.18,1.18,0,0,0,.21-.74c0-.66-.26-1-.77-1h-1.1V27h1C276.11,26.94,276.35,26.64,276.35,26.05Z" fill="#333"/><path d="M284,32a3.78,3.78,0,0,1-.19-.66,1.87,1.87,0,0,1-1.61.82,2.4,2.4,0,0,1-1.76-.71,2.49,2.49,0,0,1-.7-1.82,2.57,2.57,0,0,1,.85-2.05,3.68,3.68,0,0,1,2.44-.74h.67v-.68a1.3,1.3,0,0,0-.19-.81.72.72,0,0,0-.57-.23c-.55,0-.83.32-.83,1h-2.21a2.44,2.44,0,0,1,.88-1.94,3.25,3.25,0,0,1,2.22-.76,3,3,0,0,1,2.15.72,2.72,2.72,0,0,1,.77,2.07v4a4.11,4.11,0,0,0,.31,1.71V32Zm-1.3-1.58a1.21,1.21,0,0,0,.62-.15,1,1,0,0,0,.38-.35V28.16h-.53a1.12,1.12,0,0,0-.88.36,1.37,1.37,0,0,0-.33,1C282,30.11,282.22,30.42,282.71,30.42Z" fill="#333"/><path d="M291.24,24a2.56,2.56,0,0,1,2.17,1.07,4.83,4.83,0,0,1,.8,2.93v.11a4.44,4.44,0,0,1-.92,2.94,3,3,0,0,1-2.48,1.09A3,3,0,0,1,288.32,31a5.22,5.22,0,0,1-.91-3.26v-.35a10.5,10.5,0,0,1,.81-4.47,3.61,3.61,0,0,1,2.4-2,2.54,2.54,0,0,0,1-.45.77.77,0,0,0,.21-.57h1.77a2.7,2.7,0,0,1-.56,1.86,3.84,3.84,0,0,1-2,.93,2.23,2.23,0,0,0-1.24.77,3.38,3.38,0,0,0-.59,1.57A2.72,2.72,0,0,1,291.24,24Zm-.44,1.83c-.75,0-1.14.67-1.17,2v.29a3.49,3.49,0,0,0,.3,1.68,1,1,0,0,0,.88.52c.76,0,1.16-.68,1.19-2V28C292,26.56,291.6,25.85,290.8,25.85Z" fill="#333"/><path d="M295.29,27.5a4.57,4.57,0,0,1,.91-3,3.45,3.45,0,0,1,5,0,4.65,4.65,0,0,1,.91,3v.53a4.59,4.59,0,0,1-.9,3,3.46,3.46,0,0,1-5,0,4.59,4.59,0,0,1-.91-3Zm2.22.55c0,1.52.4,2.27,1.21,2.27s1.15-.63,1.21-1.89V27.5a3.46,3.46,0,0,0-.32-1.71,1,1,0,0,0-.9-.56,1,1,0,0,0-.88.56,3.57,3.57,0,0,0-.32,1.71Z" fill="#333"/><path d="M309.9,23.55V32h-2.21V25.39h-1.31L306.25,28a6.47,6.47,0,0,1-.72,3,2.07,2.07,0,0,1-1.82,1H303l0-1.84.25,0a.84.84,0,0,0,.66-.64,7.23,7.23,0,0,0,.27-1.93l.15-4Z" fill="#333"/><path d="M314.93,32.16a3.47,3.47,0,0,1-2.66-1,4.07,4.07,0,0,1-.95-2.91v-.67a4.81,4.81,0,0,1,.87-3.08,3,3,0,0,1,2.51-1.09,2.88,2.88,0,0,1,2.4,1,4.89,4.89,0,0,1,.82,3v1.09h-4.4a2.3,2.3,0,0,0,.41,1.37,1.39,1.39,0,0,0,1.14.44,2.47,2.47,0,0,0,1.85-.76l.87,1.34a3,3,0,0,1-1.18.91A4.11,4.11,0,0,1,314.93,32.16ZM313.54,27h2.21v-.2a2.42,2.42,0,0,0-.25-1.15.88.88,0,0,0-.82-.39.92.92,0,0,0-.84.41A2.93,2.93,0,0,0,313.54,27Z" fill="#333"/><path d="M319.31,32V23.55h3.07a3.65,3.65,0,0,1,2.27.61,2.06,2.06,0,0,1,.79,1.75A1.71,1.71,0,0,1,325.1,27a2.07,2.07,0,0,1-1,.71,2.29,2.29,0,0,1,1.25.66,1.81,1.81,0,0,1,.46,1.26c0,1.61-1,2.41-3,2.41Zm2.2-5h.9a.88.88,0,0,0,.63-.19.81.81,0,0,0,.18-.57c0-.55-.25-.83-.76-.85h-.95Zm0,1.52v1.68h1.32a.73.73,0,0,0,.6-.21.94.94,0,0,0,.18-.62.92.92,0,0,0-.19-.65.77.77,0,0,0-.54-.2Z" fill="#333"/><path d="M331.14,32a3.18,3.18,0,0,1-.18-.66,1.89,1.89,0,0,1-1.61.82,2.37,2.37,0,0,1-1.76-.71,2.45,2.45,0,0,1-.7-1.82,2.56,2.56,0,0,1,.84-2.05,3.69,3.69,0,0,1,2.45-.74h.67v-.68a1.3,1.3,0,0,0-.2-.81.72.72,0,0,0-.57-.23c-.55,0-.83.32-.83,1H327a2.47,2.47,0,0,1,.88-1.94,3.27,3.27,0,0,1,2.22-.76,3,3,0,0,1,2.16.72,2.76,2.76,0,0,1,.76,2.07v4a4.11,4.11,0,0,0,.31,1.71V32Zm-1.3-1.58a1.21,1.21,0,0,0,.62-.15,1,1,0,0,0,.39-.35V28.16h-.53a1.14,1.14,0,0,0-.89.36,1.36,1.36,0,0,0-.32,1C329.11,30.11,329.35,30.42,329.84,30.42Z" fill="#333"/><path d="M341,32h-2.21V28.75h-1.95V32h-2.22V23.55h2.22v3.38h1.95V23.55H341Z" fill="#333"/><path d="M346.82,23.55H349V32h-2.21V26.8l-2,5.2h-2.22V23.55h2.22v5.18Z" fill="#333"/><path d="M356.75,23.55V32h-2.19V29.09h-.82L352.36,32h-2.22l1.57-3.34a2.43,2.43,0,0,1-1-.94,2.6,2.6,0,0,1-.35-1.34,2.64,2.64,0,0,1,.86-2,3.33,3.33,0,0,1,2.34-.79Zm-4.17,2.9a1.08,1.08,0,0,0,.27.75.89.89,0,0,0,.69.3h1V25.37h-1a.86.86,0,0,0-.69.31A1.15,1.15,0,0,0,352.58,26.45Z" fill="#333"/><path d="M161.69,49.52c.64,0,1-.42,1-1.25h2.08a3.08,3.08,0,0,1-.86,2.23,2.86,2.86,0,0,1-2.15.86,3.07,3.07,0,0,1-2.49-1,4.54,4.54,0,0,1-.88-3v-.67a4.71,4.71,0,0,1,.85-3,3,3,0,0,1,2.5-1,2.89,2.89,0,0,1,2.21.86,3.56,3.56,0,0,1,.82,2.45h-2.08a2.26,2.26,0,0,0-.24-1.09.79.79,0,0,0-.75-.38.87.87,0,0,0-.82.41,3.41,3.41,0,0,0-.27,1.59v.86a6.84,6.84,0,0,0,.1,1.44,1.1,1.1,0,0,0,.34.6A1,1,0,0,0,161.69,49.52Z" fill="#333"/><path d="M165.74,46.7a4.63,4.63,0,0,1,.9-3,3.46,3.46,0,0,1,5,0,4.65,4.65,0,0,1,.9,3v.53a4.59,4.59,0,0,1-.9,3,3.46,3.46,0,0,1-5,0,4.64,4.64,0,0,1-.9-3Zm2.22.55c0,1.52.4,2.27,1.21,2.27s1.14-.63,1.2-1.89V46.7a3.57,3.57,0,0,0-.32-1.71,1,1,0,0,0-.91-.56,1,1,0,0,0-.88.56A3.59,3.59,0,0,0,168,46.7Z" fill="#333"/><path d="M177,49.52c.64,0,1-.42,1-1.25h2.08a3.08,3.08,0,0,1-.86,2.23,2.86,2.86,0,0,1-2.15.86,3.07,3.07,0,0,1-2.49-1,4.54,4.54,0,0,1-.88-3v-.67a4.71,4.71,0,0,1,.85-3,3,3,0,0,1,2.5-1,2.89,2.89,0,0,1,2.21.86,3.56,3.56,0,0,1,.82,2.45H178a2.15,2.15,0,0,0-.24-1.09.79.79,0,0,0-.75-.38.87.87,0,0,0-.82.41,3.41,3.41,0,0,0-.27,1.59v.86a6.84,6.84,0,0,0,.1,1.44,1.1,1.1,0,0,0,.34.6A1,1,0,0,0,177,49.52Z" fill="#333"/><path d="M187.4,44.57h-2.17V51.2H183V44.57h-2.16V42.75h6.54Z" fill="#333"/><path d="M192.6,51.2a3.05,3.05,0,0,1-.19-.66,1.88,1.88,0,0,1-1.61.82,2.37,2.37,0,0,1-1.76-.71,2.45,2.45,0,0,1-.7-1.82,2.54,2.54,0,0,1,.85-2,3.67,3.67,0,0,1,2.44-.74h.67v-.68a1.3,1.3,0,0,0-.19-.81.72.72,0,0,0-.57-.23c-.56,0-.83.32-.83,1H188.5a2.46,2.46,0,0,1,.87-1.94,3.28,3.28,0,0,1,2.23-.76,3,3,0,0,1,2.15.72,2.72,2.72,0,0,1,.76,2.07v4a4.28,4.28,0,0,0,.31,1.71v.13Zm-1.31-1.58a1.22,1.22,0,0,0,.63-.15,1,1,0,0,0,.38-.35V47.36h-.53a1.14,1.14,0,0,0-.89.36,1.41,1.41,0,0,0-.32,1C190.56,49.31,190.8,49.62,191.29,49.62Z" fill="#333"/><path d="M196.25,51.2V42.75h3.07a3.61,3.61,0,0,1,2.27.61,2.07,2.07,0,0,1,.8,1.75,1.78,1.78,0,0,1-.34,1,2.12,2.12,0,0,1-1,.71,2.26,2.26,0,0,1,1.24.66,1.76,1.76,0,0,1,.46,1.26c0,1.61-1,2.41-3,2.41Zm2.21-5h.9A.87.87,0,0,0,200,46a.77.77,0,0,0,.19-.57c0-.55-.26-.83-.77-.85h-.94Zm0,1.52v1.68h1.32a.75.75,0,0,0,.6-.21,1,1,0,0,0,.17-.62.87.87,0,0,0-.19-.65.74.74,0,0,0-.54-.2Z" fill="#333"/><path d="M210.46,42.75V51.2h-2.21V44.59h-1.31l-.12,2.61a6.46,6.46,0,0,1-.73,3,2.06,2.06,0,0,1-1.81,1h-.72l0-1.84.25,0a.87.87,0,0,0,.65-.65,7.23,7.23,0,0,0,.27-1.93l.15-4Z" fill="#333"/><path d="M218.19,42.75V51.2H216V48.29h-.82L213.8,51.2h-2.23l1.57-3.34a2.47,2.47,0,0,1-1-.94,2.51,2.51,0,0,1-.35-1.34,2.64,2.64,0,0,1,.86-2,3.31,3.31,0,0,1,2.33-.79ZM214,45.65a1.08,1.08,0,0,0,.27.75.89.89,0,0,0,.69.3h1V44.57h-1a.86.86,0,0,0-.68.31A1.15,1.15,0,0,0,214,45.65Z" fill="#333"/><path d="M223.38,51.36a3.47,3.47,0,0,1-2.66-1,4.11,4.11,0,0,1-.95-2.91v-.67a4.81,4.81,0,0,1,.87-3.08,3,3,0,0,1,2.51-1.09,2.88,2.88,0,0,1,2.4,1,4.82,4.82,0,0,1,.82,3v1.09H222a2.23,2.23,0,0,0,.42,1.37,1.36,1.36,0,0,0,1.13.44,2.46,2.46,0,0,0,1.85-.76l.87,1.34a2.92,2.92,0,0,1-1.18.91A4.11,4.11,0,0,1,223.38,51.36ZM222,46.17h2.21V46a2.31,2.31,0,0,0-.25-1.15.88.88,0,0,0-.81-.39.9.9,0,0,0-.84.41A2.79,2.79,0,0,0,222,46.17Z" fill="#333"/><path d="M233.71,44.57h-2.17V51.2h-2.22V44.57h-2.15V42.75h6.54Z" fill="#333"/><path d="M245.21,51.2h-6.7V49.64l3.08-3.92a8.12,8.12,0,0,0,.86-1.42,2.78,2.78,0,0,0,.28-1.18,2.36,2.36,0,0,0-.26-1.19.86.86,0,0,0-.76-.43,1,1,0,0,0-.85.5,2.68,2.68,0,0,0-.32,1.41h-2.22a4.19,4.19,0,0,1,.44-1.91A3.2,3.2,0,0,1,240,40.15a3.31,3.31,0,0,1,1.77-.48A2.92,2.92,0,0,1,245,42.9a4.49,4.49,0,0,1-.47,1.94,12.21,12.21,0,0,1-1.68,2.44l-1.46,2.08h3.86Z" fill="#333"/><path d="M253.89,46.56H247V44.7h6.85Z" fill="#333"/><path d="M260.23,51.2H258V42.51l-2.16.84V41.5L260,39.81h.23Z" fill="#333"/><path d="M269.29,46.9h1v1.84h-1V51.2h-2.22V48.74h-3.76l-.1-1.43,3.86-7.48h2.22Zm-3.93,0h1.71V43.1l0,.08Z" fill="#333"/><path d="M275.47,49.36a3.79,3.79,0,0,0,.78-1.25,6,6,0,0,0,.28-1.78l.06-3.58h5.51v6.61h1.11v4.38H281V51.2h-3.89v2.54h-2.27V49.36Zm2.46,0h2V44.63h-1.12v.84A8.17,8.17,0,0,1,277.93,49.36Z" fill="#333"/><path d="M290.71,51.2H288.5V48h-1.95V51.2h-2.22V42.75h2.22v3.38h1.95V42.75h2.21Z" fill="#333"/><path d="M295.74,51.36a3.47,3.47,0,0,1-2.66-1,4.11,4.11,0,0,1-.95-2.91v-.67a4.81,4.81,0,0,1,.87-3.08,3,3,0,0,1,2.51-1.09,2.88,2.88,0,0,1,2.4,1,4.82,4.82,0,0,1,.82,3v1.09h-4.4a2.23,2.23,0,0,0,.42,1.37,1.36,1.36,0,0,0,1.13.44,2.46,2.46,0,0,0,1.85-.76l.87,1.34a2.92,2.92,0,0,1-1.18.91A4.11,4.11,0,0,1,295.74,51.36Zm-1.39-5.19h2.21V46a2.42,2.42,0,0,0-.25-1.15.88.88,0,0,0-.81-.39.9.9,0,0,0-.84.41A2.79,2.79,0,0,0,294.35,46.17Z" fill="#333"/><path d="M304.16,42.75h2.2V51.2h-2.2V46l-2,5.2H300V42.75h2.22v5.18Zm1.77-3.44a2.13,2.13,0,0,1-.74,1.68,3.35,3.35,0,0,1-3.94,0,2.11,2.11,0,0,1-.75-1.68h1.62a1,1,0,0,0,.29.75,1.17,1.17,0,0,0,.81.27,1.12,1.12,0,0,0,.8-.27,1,1,0,0,0,.29-.75Z" fill="#333"/><path d="M414.65,84.92a5.15,5.15,0,1,1-5.24,0V61.62a2.62,2.62,0,0,1,5.24,0Z" fill="#fff"/><path d="M414.65,84.92V61.62a2.62,2.62,0,0,0-5.24,0v23.3a5.15,5.15,0,1,0,5.24,0Z" fill="none" stroke="#333" stroke-linecap="round" stroke-linejoin="round"/><path d="M412,92.71a3.36,3.36,0,0,1-1.71-6.26l.83-.49,0-15.48a.84.84,0,1,1,1.68,0v15.4l.87.57A3.36,3.36,0,0,1,412,92.71Z" fill="#e63741"/></svg>