<svg xmlns="http://www.w3.org/2000/svg" width="465" height="361" viewBox="0 0 465 361"><rect width="465" height="361" fill="#f2f2f2"/><path d="M345.47,244.37c-.33,1-.69,1.89-1.07,2.81h0c-1.82,3.05-4.67,2-5.06.25a2,2,0,0,1,.08-1.13c-1.64,3.64-7.49,1.86-4.85-2.91-1.63,3.13-6.09,2.48-4.4-3.08a185,185,0,0,0,4.57-20.13c.91-5.24,1.69-10.6,2.17-15.45a237,237,0,0,0,0-39.14c9.51-5.71,16.61-3.56,16.61-3.56l.44-.12c3.33,13.19,4.89,30.46,3.12,49.93-1.19,13-4.6,29.27-6.92,34.81-1.51,3.62-5.83,2.82-4.6-2.24Z" fill="#cfa19d"/><path d="M354,161.9l-.44.12s-7.1-2.15-16.61,3.56a237,237,0,0,1,0,39.14c-.48,4.85-1.26,10.21-2.17,15.45l-.2,0H289.46l-.2,0c-.92-5.24-1.69-10.6-2.17-15.45a235.88,235.88,0,0,1,0-39.14c-9.52-5.71-16.61-3.56-16.61-3.56l-.45-.12a76.86,76.86,0,0,1,4.88-14.05,42.25,42.25,0,0,1,25.22-22.6h1.19a25.23,25.23,0,0,0,21.35,0l.31-.45c.31.18.6.31.87.45a42.28,42.28,0,0,1,25.23,22.6A77.65,77.65,0,0,1,354,161.9Z" fill="#666"/><path d="M335.73,321c2.35,2.84,7.36,8.84,7.36,13.25,0,5.78-5.83,5.71-14.49,5.71s-14-3.73-14-9.51a42.17,42.17,0,0,1,.94-9.47l.1-.11C319.75,324.15,332.5,324.72,335.73,321Z" fill="#333"/><path d="M335.73,321c-3.23,3.75-16,3.18-20.08-.13a2.94,2.94,0,0,1-1.28-2.26l.54-79.47a2.92,2.92,0,1,0-5.84,0v0l.55,79.47a2.94,2.94,0,0,1-1.28,2.26c-4.1,3.31-16.86,3.88-20.09.13a2.94,2.94,0,0,1-.75-2l-2.79-71.59h-.06a2,2,0,0,0-.08-1.13c1.64,3.64,7.49,1.86,4.85-2.91,1.64,3.13,6.09,2.48,4.4-3.08a187.6,187.6,0,0,1-4.56-20.13l.2,0h45.07l.2,0a185,185,0,0,1-4.57,20.13c-1.69,5.56,2.77,6.21,4.4,3.08-2.64,4.77,3.21,6.55,4.85,2.91a2,2,0,0,0-.08,1.13h-.06L336.48,319A2.94,2.94,0,0,1,335.73,321Z" fill="#fbbb4d"/><path d="M331.27,90c2.83,0,5.13,2.59,5.13,5.78s-2.56,5.79-6.42,5.79l-.44-.17A30,30,0,0,0,331,95.6a26,26,0,0,0,.28-3.71c0-.65,0-1.29-.08-1.92Z" fill="#cfa19d"/><path d="M331.19,90c.05.63.08,1.27.08,1.92A26,26,0,0,1,331,95.6h0c-3.56,0-2.37-5.93-6.13-9.49-3.36-3.19-6.42-2.37-12.85-2.37s-9.48-.82-12.85,2.37c-3.75,3.56-2.57,9.49-6.12,9.49h0a26,26,0,0,1-.28-3.71c0-.65,0-1.29.08-1.92.88-10.81,9.14-19.28,19.19-19.28S330.31,79.16,331.19,90Z" fill="#333"/><path d="M319.6,114.61a13.5,13.5,0,0,1-15.21,0c-4.41-2.77-8-7.73-9.94-13.24A30,30,0,0,1,293,95.6h0c3.55,0,2.37-5.93,6.12-9.49,3.37-3.19,6.43-2.37,12.85-2.37s9.49-.82,12.85,2.37c3.76,3.56,2.57,9.49,6.13,9.49h0a30,30,0,0,1-1.45,5.76C327.56,106.87,324,111.83,319.6,114.61ZM323.85,98a3,3,0,1,0-3,3A3,3,0,0,0,323.85,98Zm-17.79,0a3,3,0,1,0-3,3A3,3,0,0,0,306.06,98Z" fill="#cfa19d"/><path d="M320.89,95a3,3,0,1,1-3,3A3,3,0,0,1,320.89,95Zm1.48,3.41a1.63,1.63,0,1,0-1.63,1.63A1.63,1.63,0,0,0,322.37,98.41Z" fill="#fff"/><path d="M323,124.8l-.31.45a25.23,25.23,0,0,1-21.35,0h-1.19c1.45-.74,3.56-1.19,4.26-10.65a13.5,13.5,0,0,0,15.21,0C320.17,122.29,321.67,124,323,124.8Z" fill="#cfa19d"/><circle cx="320.74" cy="98.41" r="1.63" fill="#333"/><path d="M308.44,321a42.61,42.61,0,0,1,.93,9.47c0,5.78-5.32,9.51-14,9.51s-14.49.07-14.49-5.71c0-4.41,5-10.41,7.35-13.25,3.23,3.75,16,3.18,20.09-.13Z" fill="#333"/><path d="M303.1,95a3,3,0,1,1-3,3A3,3,0,0,1,303.1,95Zm1.78,3.41a1.63,1.63,0,1,0-1.63,1.63A1.64,1.64,0,0,0,304.88,98.41Z" fill="#fff"/><circle cx="303.25" cy="98.41" r="1.63" fill="#333"/><path d="M294.45,101.36l-.45.17c-3.85,0-6.42-2.6-6.42-5.79s2.3-5.78,5.14-5.78h.08c-.06.63-.08,1.27-.08,1.92A26,26,0,0,0,293,95.6,30,30,0,0,0,294.45,101.36Z" fill="#cfa19d"/><path d="M278.52,244.37l-.09,0c1.23,5.06-3.09,5.86-4.6,2.24-2.32-5.54-5.72-21.76-6.91-34.81-1.77-19.47-.22-36.74,3.11-49.93l.45.12s7.09-2.15,16.61,3.56a235.88,235.88,0,0,0,0,39.14c.48,4.85,1.25,10.21,2.17,15.45a187.6,187.6,0,0,0,4.56,20.13c1.69,5.56-2.76,6.21-4.4,3.08,2.64,4.77-3.21,6.55-4.85,2.91a2,2,0,0,1,.08,1.13c-.39,1.79-3.24,2.8-5-.25h0C279.2,246.26,278.84,245.33,278.52,244.37Z" fill="#cfa19d"/><line x1="289.46" y1="220.14" x2="334.53" y2="220.14" fill="none" stroke="#333" stroke-linecap="round" stroke-linejoin="round"/><path d="M289.42,243.38c1.64,3.13,6.09,2.48,4.4-3.08a187.6,187.6,0,0,1-4.56-20.13c-.92-5.24-1.69-10.6-2.17-15.45a235.88,235.88,0,0,1,0-39.14" fill="none" stroke="#333" stroke-linecap="round" stroke-linejoin="round"/><path d="M279.61,247.27l0-.09c-.38-.92-.74-1.85-1.06-2.81a61.13,61.13,0,0,1-2-7.14" fill="none" stroke="#333" stroke-linecap="round" stroke-linejoin="round"/><path d="M284.57,246.29a71.18,71.18,0,0,1-3.17-10" fill="none" stroke="#333" stroke-linecap="round" stroke-linejoin="round"/><path d="M289.42,243.38a63,63,0,0,1-2.85-8" fill="none" stroke="#333" stroke-linecap="round" stroke-linejoin="round"/><path d="M279.6,247.17c1.81,3.05,4.66,2,5,.25a2,2,0,0,0-.08-1.13c1.64,3.64,7.49,1.86,4.85-2.91" fill="none" stroke="#333" stroke-linecap="round" stroke-linejoin="round"/><path d="M312,117a14,14,0,0,1-7.6-2.35c-4.41-2.77-8-7.73-9.94-13.24A30,30,0,0,1,293,95.6a26,26,0,0,1-.28-3.71c0-.65,0-1.29.08-1.92.88-10.81,9.14-19.28,19.19-19.28" fill="none" stroke="#333" stroke-linecap="round" stroke-linejoin="round"/><path d="M294,101.53c-3.85,0-6.42-2.6-6.42-5.79s2.3-5.78,5.14-5.78" fill="none" stroke="#333" stroke-linecap="round" stroke-linejoin="round"/><path d="M293,95.6c3.55,0,2.37-5.93,6.12-9.49,3.37-3.19,6.43-2.37,12.85-2.37" fill="none" stroke="#333" stroke-linecap="round" stroke-linejoin="round"/><path d="M270.48,162s7.09-2.15,16.61,3.56" fill="none" stroke="#333" stroke-linecap="round" stroke-linejoin="round"/><path d="M278.43,244.4c1.23,5.06-3.09,5.86-4.6,2.24-2.32-5.54-5.72-21.76-6.91-34.81-1.77-19.47-.22-36.74,3.11-49.93a76.86,76.86,0,0,1,4.88-14.05,42.25,42.25,0,0,1,25.22-22.6c1.45-.74,3.56-1.19,4.26-10.65v0" fill="none" stroke="#333" stroke-linecap="round" stroke-linejoin="round"/><path d="M308.44,321a42.61,42.61,0,0,1,.93,9.47c0,5.78-5.32,9.51-14,9.51s-14.49.07-14.49-5.71c0-4.41,5-10.41,7.35-13.25l0,0" fill="none" stroke="#333" stroke-linecap="round" stroke-linejoin="round"/><line x1="300.13" y1="92.33" x2="303.99" y2="92.04" fill="none" stroke="#333" stroke-linecap="round" stroke-linejoin="round"/><path d="M301.32,125.25A26.41,26.41,0,0,0,312,127.62" fill="none" stroke="#333" stroke-linecap="round" stroke-linejoin="round"/><path d="M339.27,247.42h0L336.48,319a2.94,2.94,0,0,1-.75,2c-3.23,3.75-16,3.18-20.08-.13a2.94,2.94,0,0,1-1.28-2.26l.54-79.47a2.92,2.92,0,1,0-5.84,0v0l.55,79.47a2.94,2.94,0,0,1-1.28,2.26c-4.1,3.31-16.86,3.88-20.09.13a2.94,2.94,0,0,1-.75-2l-2.79-71.59h0" fill="none" stroke="#333" stroke-linecap="round" stroke-linejoin="round"/><path d="M334.56,243.38c-1.63,3.13-6.09,2.48-4.4-3.08a185,185,0,0,0,4.57-20.13c.91-5.24,1.69-10.6,2.17-15.45a237,237,0,0,0,0-39.14" fill="none" stroke="#333" stroke-linecap="round" stroke-linejoin="round"/><path d="M344.37,247.27l0-.09c.38-.92.74-1.85,1.07-2.81a63.14,63.14,0,0,0,2-7.14" fill="none" stroke="#333" stroke-linecap="round" stroke-linejoin="round"/><path d="M339.41,246.29a69.89,69.89,0,0,0,3.17-10" fill="none" stroke="#333" stroke-linecap="round" stroke-linejoin="round"/><path d="M334.56,243.38a61.54,61.54,0,0,0,2.85-8" fill="none" stroke="#333" stroke-linecap="round" stroke-linejoin="round"/><path d="M344.39,247.17c-1.82,3.05-4.67,2-5.06.25a2,2,0,0,1,.08-1.13c-1.64,3.64-7.49,1.86-4.85-2.91" fill="none" stroke="#333" stroke-linecap="round" stroke-linejoin="round"/><path d="M312,117a14.15,14.15,0,0,0,7.61-2.34c4.4-2.78,8-7.74,9.94-13.25A30,30,0,0,0,331,95.6a26,26,0,0,0,.28-3.71c0-.65,0-1.29-.08-1.92-.88-10.81-9.14-19.28-19.2-19.28" fill="none" stroke="#333" stroke-linecap="round" stroke-linejoin="round"/><path d="M330,101.53c3.86,0,6.42-2.6,6.42-5.79S334.1,90,331.27,90" fill="none" stroke="#333" stroke-linecap="round" stroke-linejoin="round"/><path d="M331,95.6c-3.56,0-2.37-5.93-6.13-9.49-3.36-3.19-6.42-2.37-12.85-2.37" fill="none" stroke="#333" stroke-linecap="round" stroke-linejoin="round"/><path d="M353.51,162s-7.1-2.15-16.61,3.56" fill="none" stroke="#333" stroke-linecap="round" stroke-linejoin="round"/><path d="M345.55,244.4c-1.23,5.06,3.09,5.86,4.6,2.24,2.32-5.54,5.73-21.76,6.92-34.81,1.77-19.47.21-36.74-3.12-49.93a77.65,77.65,0,0,0-4.87-14.05,42.28,42.28,0,0,0-25.23-22.6c-.27-.14-.56-.27-.87-.45-1.31-.77-2.81-2.51-3.38-10.19v0" fill="none" stroke="#333" stroke-linecap="round" stroke-linejoin="round"/><path d="M315.55,321a42.17,42.17,0,0,0-.94,9.47c0,5.78,5.32,9.51,14,9.51s14.49.07,14.49-5.71c0-4.41-5-10.41-7.36-13.25,0,0,0,0,0,0" fill="none" stroke="#333" stroke-linecap="round" stroke-linejoin="round"/><line x1="323.85" y1="92.33" x2="320" y2="92.04" fill="none" stroke="#333" stroke-linecap="round" stroke-linejoin="round"/><path d="M322.67,125.25A26.49,26.49,0,0,1,312,127.62" fill="none" stroke="#333" stroke-linecap="round" stroke-linejoin="round"/><path d="M308.44,108.64a5.93,5.93,0,0,0,7.11,0" fill="none" stroke="#333" stroke-linecap="round" stroke-linejoin="round"/><path d="M241.3,222.18h0c2.77,5.81-2.71,7.31-5.47,3.32-4.22-6.12-12.07-21.85-16.74-40.82-.74-3-1.4-5.8-2-8.59-2.42-11.37-3.8-22.45-5.19-44.7,13.56-5.09,23-.21,23.36,0l.11,0c3.4,15.29,5.41,30.75,7.58,41.07,3.41,16.15,11.93,35.22,14.64,39.42,4.13,6.37-.94,9.09-3.72,5.73,4.41,5.08-2.21,8.73-5.13,4.74,2.2,3.28-2.61,6.65-5.8,2.34C242.35,223.82,241.81,223,241.3,222.18Z" fill="#f5afb3"/><path d="M235.36,131.36l-.11,0c-.35-.2-9.8-5.08-23.36,0,1.39,22.25,2.77,33.33,5.19,44.7v13.29H143.51V176.09h0c2.43-11.37,3.81-22.45,5.21-44.7-13-6.06-23.21,0-23.21,0l-.27-.06c2.29-10.28,5.19-20.46,9.19-29A53.24,53.24,0,0,1,158,77.81a37.36,37.36,0,0,1,5.8-2.52s3.53,5.88,16.46,5.88,16.47-5.88,16.47-5.88a38,38,0,0,1,5.79,2.51,53.32,53.32,0,0,1,23.61,24.54C230.17,110.85,233.08,121.07,235.36,131.36Z" fill="#5793ff"/><path d="M143.51,189.38h73.57c0,35.49-5.62,122.32-5.62,122.32a4.38,4.38,0,0,1-2,3.5c-5.12,3.88-18.65,4.08-23.7.85a3.55,3.55,0,0,1-1.94-2.91L185,214.08a4.66,4.66,0,1,0-9.31,0l1.13,99.06a3.91,3.91,0,0,1-2,3.08c-5.24,3.78-19.53,4.67-24.19.79a3.79,3.79,0,0,1-1.5-3S143.51,218,143.51,189.38Z" fill="#666"/><path d="M210.22,315.23S222,325.73,222,332.87s-8.68,7.06-19.4,7.06-18.23-4.61-18.23-11.76a55.08,55.08,0,0,1,1.12-11.77l.23-.35c5.05,3.23,18.58,3,23.7-.85Z" fill="#333"/><path d="M199.27,42.43a22.3,22.3,0,0,0,.14-2.58c0-.64,0-1.28-.08-1.9h.08c2.81,0,5.09,2.57,5.09,5.74a5.74,5.74,0,0,1-5.39,5.67,7.7,7.7,0,0,1-1,.06l-.44-.16A28.6,28.6,0,0,0,199.27,42.43Z" fill="#f5afb3"/><path d="M202.64,77.64l-.09.16a38,38,0,0,0-5.79-2.51s-7.06-1.18-7.06-14.12l-.06-.08a27.25,27.25,0,0,0,8.05-11.84l.44.16a7.7,7.7,0,0,0,1-.06v.06S197.94,70.58,202.64,77.64Z" fill="#fddda6"/><path d="M199.33,38c0,.62.08,1.26.08,1.9a22.3,22.3,0,0,1-.14,2.58,12.48,12.48,0,0,1-3.14-4.65c-1.63-4.89-11.87-2.63-15.83-7.91-4,5.28-14.2,3-15.82,7.91a12.46,12.46,0,0,1-3.16,4.67,22.77,22.77,0,0,1-.14-2.6c0-.64,0-1.28.08-1.9.87-10.72,9.07-19.12,19-19.12S198.46,27.23,199.33,38Z" fill="#fddda6"/><path d="M199.27,42.43a28.6,28.6,0,0,1-1.58,6.82,27.25,27.25,0,0,1-8.05,11.84,13.9,13.9,0,0,1-18.69,0,27.2,27.2,0,0,1-8-11.85h0a28.83,28.83,0,0,1-1.57-6.79,12.46,12.46,0,0,0,3.16-4.67c1.62-4.89,11.86-2.63,15.82-7.91,4,5.28,14.2,3,15.83,7.91A12.48,12.48,0,0,0,199.27,42.43ZM192.55,46A2.94,2.94,0,1,0,189.61,49,2.94,2.94,0,0,0,192.55,46ZM180.3,58.26c2.15,0,3.89-1.16,3.89-2.6s-1.74-.87-3.89-.87-3.9-.56-3.9.87S178.15,58.26,180.3,58.26Zm-5.89-12.37a2.94,2.94,0,1,0-2.94,2.93A2.94,2.94,0,0,0,174.41,45.89Z" fill="#f5afb3"/><path d="M196.76,75.29s-3.53,5.88-16.47,5.88-16.46-5.88-16.46-5.88,7-1.18,7-14.12l.07-.08a13.9,13.9,0,0,0,18.69,0l.06.08C189.7,74.11,196.76,75.29,196.76,75.29Z" fill="#f5afb3"/><path d="M189.61,43.09A2.94,2.94,0,1,1,186.68,46,2.94,2.94,0,0,1,189.61,43.09Zm1.27,3.24a1.62,1.62,0,1,0-1.61,1.61A1.61,1.61,0,0,0,190.88,46.33Z" fill="#f2f2f2"/><path d="M189.27,44.71a1.62,1.62,0,1,1-1.62,1.62A1.61,1.61,0,0,1,189.27,44.71Z" fill="#333"/><path d="M184.19,55.66c0,1.44-1.74,2.6-3.89,2.6s-3.9-1.16-3.9-2.6,1.75-.87,3.9-.87S184.19,54.23,184.19,55.66Z" fill="#eb5f67"/><path d="M174.94,316.4a50,50,0,0,1,1.24,11.77c0,7.15-7.51,11.76-18.24,11.76s-19.4.09-19.4-7.06,11.7-15.29,11.7-15.29l.38-.57c4.66,3.88,18.95,3,24.19-.79Z" fill="#333"/><path d="M171.47,42.94a2.94,2.94,0,1,1-2.94,3A2.94,2.94,0,0,1,171.47,42.94Zm1.77,3.39a1.62,1.62,0,1,0-1.62,1.61A1.62,1.62,0,0,0,173.24,46.33Z" fill="#f2f2f2"/><path d="M171.62,44.71A1.62,1.62,0,1,1,170,46.33,1.62,1.62,0,0,1,171.62,44.71Z" fill="#333"/><path d="M171,61.09l-.07.08c0,12.94-7,14.12-7,14.12a37.36,37.36,0,0,0-5.8,2.52l-.09-.17c4.71-7.06,3.53-28.23,3.53-28.23v-.06a7.54,7.54,0,0,0,1,.06l.44-.17h0A27.2,27.2,0,0,0,171,61.09Z" fill="#fddda6"/><path d="M162.89,49.24l-.44.17a7.54,7.54,0,0,1-1-.06,5.75,5.75,0,0,1-5.4-5.67c0-3.17,2.29-5.74,5.1-5.74h.08c-.06.62-.08,1.26-.08,1.9a22.77,22.77,0,0,0,.14,2.6A28.83,28.83,0,0,0,162.89,49.24Z" fill="#f5afb3"/><path d="M119.29,222.17c-.51.82-1.06,1.65-1.63,2.49-3.19,4.31-8,.94-5.8-2.34-2.92,4-9.55.34-5.13-4.74-2.78,3.36-7.85.64-3.72-5.73,2.71-4.2,11.23-23.27,14.63-39.42,2.18-10.33,4.19-25.82,7.59-41.13l.27.06s10.22-6,23.21,0c-1.4,22.25-2.78,33.33-5.21,44.7-.6,2.79-1.26,5.59-2,8.59-4.67,19-12.52,34.7-16.74,40.82-2.76,4-8.24,2.49-5.47-3.32Z" fill="#f5afb3"/><path d="M143.51,189.38c0,28.57,5.61,124.67,5.61,124.67a3.79,3.79,0,0,0,1.5,3c4.66,3.88,18.95,3,24.19-.79a3.91,3.91,0,0,0,2-3.08l-1.13-99.06a4.66,4.66,0,0,1,4.65-4.71" fill="none" stroke="#333" stroke-linecap="round" stroke-linejoin="round"/><path d="M119.3,222.18c-2.77,5.81,2.71,7.31,5.47,3.32,4.22-6.12,12.07-21.85,16.74-40.82.73-3,1.39-5.8,2-8.59,2.43-11.37,3.81-22.45,5.21-44.7" fill="none" stroke="#333" stroke-linecap="round" stroke-linejoin="round"/><path d="M106.73,217.58c-2.78,3.36-7.85.64-3.72-5.73,2.71-4.2,11.23-23.27,14.63-39.42,2.18-10.33,4.19-25.82,7.59-41.13,2.29-10.28,5.19-20.46,9.19-29A53.24,53.24,0,0,1,158,77.81a37.36,37.36,0,0,1,5.8-2.52s3.53,5.88,16.46,5.88" fill="none" stroke="#333" stroke-linecap="round" stroke-linejoin="round"/><path d="M117.66,224.66c.57-.84,1.12-1.67,1.63-2.49A68.33,68.33,0,0,0,123.6,214" fill="none" stroke="#333" stroke-linecap="round" stroke-linejoin="round"/><path d="M111.86,222.32a89.67,89.67,0,0,0,6.39-11.3" fill="none" stroke="#333" stroke-linecap="round" stroke-linejoin="round"/><path d="M106.73,217.58a50.93,50.93,0,0,0,5.51-9" fill="none" stroke="#333" stroke-linecap="round" stroke-linejoin="round"/><path d="M117.66,224.66c-3.19,4.31-8,.94-5.8-2.34-2.92,4-9.55.34-5.13-4.74" fill="none" stroke="#333" stroke-linecap="round" stroke-linejoin="round"/><path d="M241.29,222.18c2.77,5.81-2.71,7.31-5.47,3.32-4.22-6.12-12.07-21.85-16.74-40.82-.74-3-1.4-5.8-2-8.59-2.42-11.37-3.8-22.45-5.19-44.7" fill="none" stroke="#333" stroke-linecap="round" stroke-linejoin="round"/><path d="M253.86,217.58c2.78,3.36,7.85.64,3.72-5.73-2.71-4.2-11.23-23.27-14.64-39.42-2.17-10.32-4.18-25.78-7.58-41.07-2.28-10.29-5.19-20.51-9.2-29A53.32,53.32,0,0,0,202.55,77.8a38,38,0,0,0-5.79-2.51s-3.53,5.88-16.47,5.88" fill="none" stroke="#333" stroke-linecap="round" stroke-linejoin="round"/><path d="M242.93,224.66c-.58-.84-1.12-1.66-1.63-2.48A67.06,67.06,0,0,1,237,214" fill="none" stroke="#333" stroke-linecap="round" stroke-linejoin="round"/><path d="M248.73,222.32a88.47,88.47,0,0,1-6.4-11.3" fill="none" stroke="#333" stroke-linecap="round" stroke-linejoin="round"/><path d="M253.86,217.58a50.93,50.93,0,0,1-5.51-9" fill="none" stroke="#333" stroke-linecap="round" stroke-linejoin="round"/><path d="M242.93,224.66c3.19,4.31,8,.94,5.8-2.34,2.92,4,9.54.34,5.13-4.74" fill="none" stroke="#333" stroke-linecap="round" stroke-linejoin="round"/><path d="M180.29,64.7A14.8,14.8,0,0,1,171,61.09a27.2,27.2,0,0,1-8-11.85h0a28.83,28.83,0,0,1-1.57-6.79,22.77,22.77,0,0,1-.14-2.6c0-.64,0-1.28.08-1.9.87-10.72,9.07-19.12,19-19.12" fill="none" stroke="#333" stroke-linecap="round" stroke-linejoin="round"/><path d="M162.45,49.41a7.54,7.54,0,0,1-1-.06,5.75,5.75,0,0,1-5.4-5.67c0-3.17,2.29-5.74,5.1-5.74" fill="none" stroke="#333" stroke-linecap="round" stroke-linejoin="round"/><path d="M148.71,131.39c-13-6.06-23.21,0-23.21,0" fill="none" stroke="#333" stroke-linecap="round" stroke-linejoin="round"/><path d="M163.83,75.29s7-1.18,7-14.12" fill="none" stroke="#333" stroke-linecap="round" stroke-linejoin="round"/><path d="M161.47,49.41s1.18,21.17-3.53,28.23" fill="none" stroke="#333" stroke-linecap="round" stroke-linejoin="round"/><path d="M217.08,189.38c0,35.49-5.62,122.32-5.62,122.32a4.38,4.38,0,0,1-2,3.5c-5.12,3.88-18.65,4.08-23.7.85a3.55,3.55,0,0,1-1.94-2.91L185,214.08a4.66,4.66,0,0,0-4.66-4.71" fill="none" stroke="#333" stroke-linecap="round" stroke-linejoin="round"/><path d="M180.29,64.7a14.83,14.83,0,0,0,9.35-3.61,27.25,27.25,0,0,0,8.05-11.84,28.6,28.6,0,0,0,1.58-6.82,22.3,22.3,0,0,0,.14-2.58c0-.64,0-1.28-.08-1.9-.87-10.72-9.07-19.12-19-19.12" fill="none" stroke="#333" stroke-linecap="round" stroke-linejoin="round"/><path d="M198.13,49.41a7.7,7.7,0,0,0,1-.06,5.74,5.74,0,0,0,5.39-5.67c0-3.17-2.28-5.74-5.09-5.74" fill="none" stroke="#333" stroke-linecap="round" stroke-linejoin="round"/><path d="M235.26,131.39h0c-.35-.2-9.8-5.08-23.36,0" fill="none" stroke="#333" stroke-linecap="round" stroke-linejoin="round"/><polyline points="217.08 176.09 217.08 189.38 143.51 189.38 143.51 176.09" fill="none" stroke="#333" stroke-linecap="round" stroke-linejoin="round"/><path d="M196.76,75.29s-7.06-1.18-7.06-14.12" fill="none" stroke="#333" stroke-linecap="round" stroke-linejoin="round"/><path d="M199.12,49.41s-1.18,21.17,3.52,28.23" fill="none" stroke="#333" stroke-linecap="round" stroke-linejoin="round"/><path d="M174.94,316.4a50,50,0,0,1,1.24,11.77c0,7.15-7.51,11.76-18.24,11.76s-19.4.09-19.4-7.06,11.7-15.29,11.7-15.29" fill="none" stroke="#333" stroke-linecap="round" stroke-linejoin="round"/><path d="M185.53,316.4a55.08,55.08,0,0,0-1.12,11.77c0,7.15,7.51,11.76,18.23,11.76s19.4.09,19.4-7.06-11.82-17.64-11.82-17.64" fill="none" stroke="#333" stroke-linecap="round" stroke-linejoin="round"/><line x1="168.53" y1="40.3" x2="172.35" y2="40" fill="none" stroke="#333" stroke-linecap="round" stroke-linejoin="round"/><line x1="193.23" y1="40.59" x2="189.7" y2="40" fill="none" stroke="#333" stroke-linecap="round" stroke-linejoin="round"/><path d="M184.19,55.66c0,1.44-1.74,2.6-3.89,2.6s-3.9-1.16-3.9-2.6,1.75-.87,3.9-.87S184.19,54.23,184.19,55.66Z" fill="none" stroke="#333" stroke-linecap="round" stroke-linejoin="round"/><path d="M161.32,42.45a12.46,12.46,0,0,0,3.16-4.67c1.62-4.89,11.86-2.63,15.82-7.91" fill="none" stroke="#333" stroke-linecap="round" stroke-linejoin="round"/><path d="M199.29,42.45l0,0a12.48,12.48,0,0,1-3.14-4.65c-1.63-4.89-11.87-2.63-15.83-7.91" fill="none" stroke="#333" stroke-linecap="round" stroke-linejoin="round"/><circle cx="146.83" cy="91.9" r="1.31" fill="#e63741"/><circle cx="192.29" cy="88.4" r="1.31" fill="#e63741"/><circle cx="146.83" cy="183.73" r="1.31" fill="#e63741"/><circle cx="211.53" cy="109.44" r="1.31" fill="#e63741"/><circle cx="245.24" cy="149.2" r="1.31" fill="#e63741"/><circle cx="281.45" cy="137.77" r="1.31" fill="#e63741"/><circle cx="283.14" cy="173.65" r="1.31" fill="#e63741"/><circle cx="72.05" cy="177.46" r="1.31" fill="#e63741"/><circle cx="183.37" cy="134.53" r="1.31" fill="#e63741"/><circle cx="115.17" cy="124.36" r="1.31" fill="#e63741"/><circle cx="180.29" cy="77.68" r="1.31" fill="#e63741"/><circle cx="206.87" cy="89.25" r="1.31" fill="#e63741"/><circle cx="180.93" cy="69.06" r="1.31" fill="#e63741"/><circle cx="234.82" cy="250.29" r="1.31" fill="#e63741"/><circle cx="169.24" cy="109.44" r="1.31" fill="#e63741"/><circle cx="148.62" cy="136.36" r="1.31" fill="#e63741"/><circle cx="121.99" cy="141.1" r="1.31" fill="#e63741"/><circle cx="204.96" cy="167.14" r="1.31" fill="#e63741"/><circle cx="187.91" cy="102.04" r="1.31" fill="#e63741"/><circle cx="136.45" cy="95.71" r="1.31" fill="#e63741"/><circle cx="187.36" cy="73.78" r="1.31" fill="#e63741"/><circle cx="168.27" cy="133.55" r="1.31" fill="#e63741"/><circle cx="135.34" cy="111.2" r="1.31" fill="#e63741"/><circle cx="211.44" cy="199.62" r="1.31" fill="#e63741"/><circle cx="140.35" cy="174.38" r="1.31" fill="#e63741"/><circle cx="108.83" cy="171.31" r="1.31" fill="#e63741"/><circle cx="269.06" cy="121.6" r="1.31" fill="#e63741"/><circle cx="236.47" cy="102.92" r="1.31" fill="#e63741"/><circle cx="163.08" cy="214.61" r="1.31" fill="#e63741"/><circle cx="185.16" cy="161.23" r="1.31" fill="#e63741"/><circle cx="99.24" cy="233.88" r="1.31" fill="#e63741"/><circle cx="154.3" cy="237.85" r="2.01" fill="#e63741"/><circle cx="159.53" cy="283.6" r="2.01" fill="#e63741"/><circle cx="239.55" cy="318.6" r="2.01" fill="#e63741"/><circle cx="116.79" cy="327.98" r="2.01" fill="#e63741"/><circle cx="58.76" cy="330.84" r="2.01" fill="#e63741"/><circle cx="213.67" cy="306.48" r="2.01" fill="#e63741"/><circle cx="290.22" cy="333.82" r="2.01" fill="#e63741"/><circle cx="127.02" cy="250.52" r="2.01" fill="#e63741"/><circle cx="228.97" cy="332.77" r="2.01" fill="#e63741"/><circle cx="129.51" cy="336.2" r="2.01" fill="#e63741"/><circle cx="132.18" cy="296.71" r="2.01" fill="#e63741"/><circle cx="269.27" cy="322.62" r="2.01" fill="#e63741"/><circle cx="270.24" cy="294.85" r="2.01" fill="#e63741"/><circle cx="230.3" cy="285.11" r="2.01" fill="#e63741"/><circle cx="177.2" cy="307.72" r="2.01" fill="#e63741"/><circle cx="183.67" cy="330.92" r="2.01" fill="#e63741"/><circle cx="80.07" cy="285.99" r="2.01" fill="#e63741"/></svg>