<svg xmlns="http://www.w3.org/2000/svg" width="227" height="231" viewBox="0 0 227 231"><rect width="227" height="231" fill="#f2f2f2"/><path d="M138,148.05a1.8,1.8,0,0,1,1.79,2.11l-10.59,59.36a1.82,1.82,0,0,1-1.8,1.47H88.12a1.79,1.79,0,0,1-1.78-1.47L75.75,150.16a1.79,1.79,0,0,1,1.77-2.11H138Z" fill="#666"/><path d="M107.75,211H88.12a1.79,1.79,0,0,1-1.78-1.47L75.75,150.16a1.79,1.79,0,0,1,1.77-2.11h30.23" fill="none" stroke="#333" stroke-linecap="round" stroke-linejoin="round"/><path d="M107.75,211h19.63a1.82,1.82,0,0,0,1.8-1.47l10.59-59.36a1.8,1.8,0,0,0-1.79-2.11H107.75" fill="none" stroke="#333" stroke-linecap="round" stroke-linejoin="round"/><path d="M86.39,126.41s10.4,11.07,16.65,12.77c11.23-.73,18.06-3.64,22.93-8.51s7.77-11.7,8.51-22.93c-1.68-6.27-12.77-16.64-12.77-16.64-8.27,10.54-10.78,5.43-20.33,15S96.94,118.14,86.39,126.41Z" fill="#fff"/><path d="M126,130.67c-4.87,4.87-11.7,7.78-22.93,8.51-6.25-1.7-16.65-12.77-16.65-12.77,10.55-8.27,5.44-10.78,15-20.33" fill="none" stroke="#333" stroke-linecap="round" stroke-linejoin="round"/><path d="M86.39,126.41,79,131.69a4.12,4.12,0,0,0,2.38,7.49H103" fill="none" stroke="#333" stroke-linecap="round" stroke-linejoin="round"/><path d="M126,130.67c4.87-4.87,7.77-11.7,8.51-22.93-1.68-6.27-12.77-16.64-12.77-16.64-8.27,10.54-10.78,5.43-20.33,15" fill="none" stroke="#333" stroke-linecap="round" stroke-linejoin="round"/><path d="M121.71,91.1l4.47-6.88a4.14,4.14,0,0,1,7.61,2.12l.69,21.4" fill="none" stroke="#333" stroke-linecap="round" stroke-linejoin="round"/><path d="M125.74,79.2c-3.48,8.4-10.24,4-8.64-2.62,2.44-10.22,6.05-27.07,23.65-39.39,20.57-14.4,26.75-15.46,33.61-16.43,14.12-2,22.74,6.44,22.25,17.34S188.54,53.94,172,63c-14.46,8-18.65,18.23-20.5,25-2.81,10.37-10,6.11-9.07,0-2.23,10.11-11.27,5.93-9.84-.9-1.36,5.41-9.45,3.54-7.94-3.89.34-1.4.69-2.74,1.07-4.05Z" fill="#f5afb3"/><path d="M142.47,88.05c-.92,6.11,6.26,10.37,9.07,0,1.85-6.82,6-17.1,20.5-25,16.5-9.06,24.09-14,24.57-24.9s-8.13-19.33-22.25-17.34c-6.86,1-13,2-33.61,16.43-17.6,12.32-21.21,29.17-23.65,39.39-1.6,6.67,5.16,11,8.64,2.62" fill="none" stroke="#333" stroke-linecap="round" stroke-linejoin="round"/><path d="M124.69,83.26c.34-1.4.69-2.74,1.07-4.05A93.56,93.56,0,0,1,130.25,67" fill="none" stroke="#333" stroke-linecap="round" stroke-linejoin="round"/><path d="M132.63,87.15a124,124,0,0,1,5.84-17.4" fill="none" stroke="#333" stroke-linecap="round" stroke-linejoin="round"/><path d="M142.47,88.05a71.62,71.62,0,0,1,4.27-14.31" fill="none" stroke="#333" stroke-linecap="round" stroke-linejoin="round"/><path d="M124.69,83.26c-1.51,7.43,6.58,9.3,7.94,3.89-1.43,6.83,7.61,11,9.84.9" fill="none" stroke="#333" stroke-linecap="round" stroke-linejoin="round"/><circle cx="126.61" cy="122.13" r="1.13" fill="#e63741"/><circle cx="131.77" cy="110.88" r="1.13" fill="#e63741"/><circle cx="100.23" cy="128.13" r="1.13" fill="#e63741"/><circle cx="127.24" cy="102.82" r="1.13" fill="#e63741"/><circle cx="108.46" cy="128.13" r="1.13" fill="#e63741"/><circle cx="121.14" cy="126.18" r="1.13" fill="#e63741"/><circle cx="105.58" cy="114.22" r="1.13" fill="#e63741"/><circle cx="116.05" cy="112.47" r="1.13" fill="#e63741"/><circle cx="114.92" cy="121" r="1.13" fill="#e63741"/><circle cx="94.7" cy="121" r="1.13" fill="#e63741"/><circle cx="104.45" cy="135.54" r="1.13" fill="#e63741"/><circle cx="125.08" cy="129.06" r="1.13" fill="#e63741"/><circle cx="108.46" cy="107.21" r="1.13" fill="#e63741"/><circle cx="125.48" cy="114.22" r="1.75" fill="#e63741"/><circle cx="121.14" cy="99.93" r="1.75" fill="#e63741"/><circle cx="107.33" cy="122.64" r="1.75" fill="#e63741"/><circle cx="118.93" cy="107.74" r="1.75" fill="#e63741"/><circle cx="101.98" cy="110.88" r="1.75" fill="#e63741"/><circle cx="116.05" cy="132.96" r="1.75" fill="#e63741"/><circle cx="92.43" cy="127.31" r="1.75" fill="#e63741"/></svg>