<svg xmlns="http://www.w3.org/2000/svg" xmlns:xlink="http://www.w3.org/1999/xlink" width="465" height="227" viewBox="0 0 465 227"><defs><clipPath id="a"><rect width="465" height="227" fill="none"/></clipPath></defs><g clip-path="url(#a)"><rect width="465" height="227" fill="#e0e0e0"/><rect x="232.7" width="232.3" height="227" fill="#ccc"/><path d="M192,336.38c-.51,1.41-1.06,2.82-1.64,4.22-3.3,7.83-11.82,4-9.75-1.37-3.16,7-14,3.54-9.32-5.58-3.15,6-11.74,3.52-7.51-7.52,2-5.09,5.65-22.24,7.86-40.88.94-7.93,1.62-16.13,1.78-23.78.61-30,0-65.84,0-65.84,18.28-11,35.87-.57,35.87-.57,3.63,20.37,5.36,45.46,4.36,77.38-1.23,38.67-7.93,56.81-12.39,67.48C198.37,346.87,189.68,346.07,192,336.38Z" fill="#f5afb3"/><path d="M195.38,149.92c5.81,12.26,10.64,26.79,13.93,45.14,0,0-17.59-10.4-35.87.57,0,0,.61,35.88,0,65.84-.16,7.65-.84,15.85-1.78,23.78H65.84V195.63c0-19.85,1.25-34.81-11.8-46.61,16.46-34.75,44.42-41.16,44.42-41.16s15.26,5.24,25.6,5.24,25.6-5.24,25.6-5.24S178.92,115.17,195.38,149.92Z" fill="#999"/><path d="M153.78,49.79c4.37,0,7.92,4,7.92,8.92s-4,8.91-9.91,8.91l-.68-.25A44.17,44.17,0,0,0,153.76,54c0-.41,0-.82,0-1.22,0-1,0-2-.12-3Z" fill="#f5afb3"/><path d="M153.78,52.77c0,.4,0,.81,0,1.22h-.35c-5.49,0-3.66-9.16-9.47-14.65-5.19-4.93-9.92-3.67-19.85-3.67s-14.66-1.26-19.85,3.67c-5.81,5.49-4,14.65-9.47,14.65h-.41c0-.41,0-.82,0-1.22,0-18.05,13.31-32.69,29.72-32.69,15.5,0,28.24,13.06,29.6,29.72C153.74,50.77,153.78,51.77,153.78,52.77Z" fill="#fddda6"/><path d="M153.41,54h.35a44.17,44.17,0,0,1-2.65,13.38c-2.63,7.29-7,14-12.53,18.41a21.58,21.58,0,0,1-29.05,0c-6.14-5-10.93-12.74-13.38-21A43.09,43.09,0,0,1,94.36,54h.41c5.49,0,3.66-9.16,9.47-14.65,5.19-4.93,9.92-3.67,19.85-3.67s14.66-1.26,19.85,3.67C149.75,44.82,147.92,54,153.41,54Zm-11,8.39a4.46,4.46,0,1,0-4.46,4.46A4.46,4.46,0,0,0,142.39,62.37ZM130.12,77.8c0-2.23-2.71-2.7-6.06-2.7s-6.07.47-6.07,2.7,2.72,4,6.07,4S130.12,80,130.12,77.8ZM114.88,62.15a4.46,4.46,0,1,0-4.46,4.46A4.46,4.46,0,0,0,114.88,62.15Z" fill="#f5afb3"/><path d="M138.69,85.91c0,20.12,11,22,11,22s-15.27,5.24-25.6,5.24-25.6-5.24-25.6-5.24,11-1.83,11-22l.1-.13a21.58,21.58,0,0,0,29.05,0Z" fill="#f5afb3"/><path d="M137.93,57.91a4.46,4.46,0,1,1-4.45,4.46A4.46,4.46,0,0,1,137.93,57.91Zm3.25,3.58A2.46,2.46,0,1,0,138.72,64,2.46,2.46,0,0,0,141.18,61.49Z" fill="#f2f2f2"/><path d="M138.72,59a2.46,2.46,0,1,1-2.45,2.45A2.46,2.46,0,0,1,138.72,59Z" fill="#333"/><path d="M124.06,75.1c3.35,0,6.06.47,6.06,2.7s-2.71,4-6.06,4S118,80,118,77.8,120.71,75.1,124.06,75.1Z" fill="#eb5f67"/><path d="M110.42,57.69A4.46,4.46,0,1,1,106,62.15,4.46,4.46,0,0,1,110.42,57.69Zm3.52,3.82A2.46,2.46,0,1,0,111.48,64,2.46,2.46,0,0,0,113.94,61.51Z" fill="#f2f2f2"/><path d="M111.48,59.06A2.45,2.45,0,1,1,109,61.51,2.46,2.46,0,0,1,111.48,59.06Z" fill="#333"/><path d="M103.86,92.1a2.07,2.07,0,0,1-1.41,2.55l-4.16,1.19a2,2,0,0,1-2.54-1.41L90.82,77.3l-.26-.17c.59-1,1-1.84,1.36-2.37,4.88-8.37-.69-14.48-5.15-9.25,3.9-6,1.25-9.94-2.33-10l0-.39L81,43.16a2.06,2.06,0,0,1,1.4-2.55l4.16-1.19a2.05,2.05,0,0,1,2.55,1.41l6.89,24Z" fill="#333"/><path d="M79.29,58.46a6.63,6.63,0,0,1,5.15-2.9c3.58,0,6.23,3.95,2.33,10,4.46-5.23,10,.88,5.15,9.25-.31.53-.77,1.33-1.36,2.37C83.6,89.4,58.77,134.46,54,149c13.05,11.8,11.8,26.76,11.8,46.61-10.7,13.3-24.49,14.64-32.46,9.64-14-8.78-17.31-35.09-12.61-62.77C27.64,102,53.11,64.15,59.9,54.64c4.43-6.2,12.31-4.17,9.19,1.63l1.15-1.63C75.34,48.3,83,52.75,79.29,58.46Z" fill="#f5afb3"/><path d="M98.46,107.86s11-1.83,11-22" fill="none" stroke="#333" stroke-linecap="round" stroke-linejoin="round"/><path d="M192,336.38c-2.34,9.69,6.35,10.49,9.26,3.54,4.46-10.67,11.16-28.81,12.39-67.48,1-31.92-.73-57-4.36-77.38-3.29-18.35-8.12-32.88-13.93-45.14-16.46-34.75-45.72-42.06-45.72-42.06" fill="none" stroke="#333" stroke-linecap="round" stroke-linejoin="round"/><path d="M171.31,333.65c-3.15,6-11.74,3.52-7.51-7.52,2-5.09,5.65-22.24,7.86-40.88.94-7.93,1.62-16.13,1.78-23.78.61-30,0-65.84,0-65.84" fill="none" stroke="#333" stroke-linecap="round" stroke-linejoin="round"/><path d="M124.06,91.4a23.06,23.06,0,0,0,14.52-5.62c5.5-4.45,9.9-11.12,12.53-18.41A44.17,44.17,0,0,0,153.76,54c0-.41,0-.82,0-1.22,0-1,0-2-.12-3-1.36-16.66-14.1-29.72-29.6-29.72" fill="none" stroke="#333" stroke-linecap="round" stroke-linejoin="round"/><path d="M151.79,67.62c6,0,9.91-4,9.91-8.91s-3.55-8.92-7.92-8.92" fill="none" stroke="#333" stroke-linecap="round" stroke-linejoin="round"/><path d="M209.31,195.06s-17.59-10.4-35.87.57" fill="none" stroke="#333" stroke-linecap="round" stroke-linejoin="round"/><path d="M149.66,107.86s-11-1.83-11-22" fill="none" stroke="#333" stroke-linecap="round" stroke-linejoin="round"/><line x1="142.35" y1="53.45" x2="136.4" y2="53" fill="none" stroke="#333" stroke-linecap="round" stroke-linejoin="round"/><path d="M98.46,107.86S70.5,114.27,54,149c13.05,11.8,11.8,26.76,11.8,46.61v89.61" fill="none" stroke="#333" stroke-linecap="round" stroke-linejoin="round"/><path d="M69.09,56.27c3.12-5.8-4.76-7.83-9.19-1.63C53.11,64.15,27.64,102,20.77,142.5c-4.7,27.68-1.35,54,12.61,62.77,8,5,21.76,3.66,32.46-9.64" fill="none" stroke="#333" stroke-linecap="round" stroke-linejoin="round"/><path d="M86.77,65.51c4.46-5.23,10,.88,5.15,9.25-.31.53-.77,1.33-1.36,2.37C83.6,89.4,58.77,134.46,54,149" fill="none" stroke="#333" stroke-linecap="round" stroke-linejoin="round"/><path d="M70.24,54.64l-1.15,1.63a0,0,0,0,0,0,0,79.06,79.06,0,0,0-7.81,13.37" fill="none" stroke="#333" stroke-linecap="round" stroke-linejoin="round"/><path d="M79.29,58.46a141.9,141.9,0,0,0-9.38,15.7" fill="none" stroke="#333" stroke-linecap="round" stroke-linejoin="round"/><path d="M86.77,65.51a131.07,131.07,0,0,0-7.5,12.89" fill="none" stroke="#333" stroke-linecap="round" stroke-linejoin="round"/><path d="M79.29,58.46a6.63,6.63,0,0,1,5.15-2.9c3.58,0,6.23,3.95,2.33,10" fill="none" stroke="#333" stroke-linecap="round" stroke-linejoin="round"/><path d="M70.24,54.64c5.1-6.34,12.78-1.89,9.05,3.82" fill="none" stroke="#333" stroke-linecap="round" stroke-linejoin="round"/><path d="M124.06,91.4a23.11,23.11,0,0,1-14.53-5.62c-6.14-5-10.93-12.74-13.38-21A43.09,43.09,0,0,1,94.36,54c0-.41,0-.82,0-1.22,0-18.05,13.31-32.69,29.72-32.69" fill="none" stroke="#333" stroke-linecap="round" stroke-linejoin="round"/><line x1="105.96" y1="53.67" x2="111.75" y2="53.22" fill="none" stroke="#333" stroke-linecap="round" stroke-linejoin="round"/><path d="M94.77,54c5.49,0,3.66-9.16,9.47-14.65,5.19-4.93,9.92-3.67,19.85-3.67" fill="none" stroke="#333" stroke-linecap="round" stroke-linejoin="round"/><path d="M153.41,54c-5.49,0-3.66-9.16-9.47-14.65-5.19-4.93-9.92-3.67-19.85-3.67" fill="none" stroke="#333" stroke-linecap="round" stroke-linejoin="round"/><path d="M130.12,77.8c0,2.23-2.71,4-6.06,4S118,80,118,77.8s2.72-2.7,6.07-2.7S130.12,75.57,130.12,77.8Z" fill="none" stroke="#333" stroke-linecap="round" stroke-linejoin="round"/><path d="M98.46,107.86s15.26,5.24,25.6,5.24" fill="none" stroke="#333" stroke-linecap="round" stroke-linejoin="round"/><path d="M149.66,107.86s-15.27,5.24-25.6,5.24" fill="none" stroke="#333" stroke-linecap="round" stroke-linejoin="round"/><path d="M84.46,55.17,81,43.16a2.06,2.06,0,0,1,1.4-2.55l4.16-1.19a2.05,2.05,0,0,1,2.55,1.41l6.89,24,7.86,27.32a2.07,2.07,0,0,1-1.41,2.55l-4.16,1.19a2,2,0,0,1-2.54-1.41L90.82,77.3" fill="none" stroke="#333" stroke-linecap="round" stroke-linejoin="round"/><path d="M345,71.41a4.76,4.76,0,1,0-4.76-4.76A4.77,4.77,0,0,0,345,71.41Zm24.77,0A4.76,4.76,0,1,0,365,66.65,4.76,4.76,0,0,0,369.74,71.41Zm16.2-5.71.67.19a49.48,49.48,0,0,1-4.79,11.36,43,43,0,0,1-6.71,8.82c-5,5-11.15,8.22-17.76,8.22s-12.72-3.21-17.75-8.22a46.8,46.8,0,0,1-11.5-20.18l.67-.19s3.81-1.9,5.72-7.63c2.35-7.06,17.15-3.8,22.86-11.42,5.72,7.62,20.52,4.36,22.87,11.42C382.13,63.8,385.94,65.7,385.94,65.7Z" fill="#f5afb3"/><path d="M388.31,54a36.4,36.4,0,0,0-4.55-17.79l.37-.21c4.31-1.49,9.15,1.24,10.83,6.09S394.17,52,388.31,54Z" fill="#fff"/><path d="M383.76,36.24A36.4,36.4,0,0,1,388.31,54a44.2,44.2,0,0,1-1.7,11.86l-.67-.19s-3.81-1.9-5.72-7.63c-2.35-7.06-17.15-3.8-22.87-11.42-5.71,7.62-20.51,4.36-22.86,11.42-1.91,5.73-5.72,7.63-5.72,7.63l-.67.19A44.22,44.22,0,0,1,326.39,54,36.46,36.46,0,0,1,331,36.24C336.39,26.48,346.18,20,357.35,20S378.32,26.48,383.76,36.24Z" fill="#fff"/><path d="M434.66,150.18c10.5,27.58,18.59,65.85,0,99.93-11.31,20.74-28.41,33.31-33.94,37.71-1.68,1.34-4.37,3.26-7.55,5.72l-.05-.06c0-1.89-6.72-18.86-25.57-30.17a121,121,0,0,0-22,19.4l-.28-.24H298.87c0-22.18,0-85.3,0-85.3-10.7,13.29-28.51,13-36.48,8-14-8.76-17.32-35.09-12.61-62.76,4.06-23.95,14.64-47,24-63.77l.37.2a45.62,45.62,0,0,0,32.7,20.93l.13.07c-9.56,17.76-20.91,39.73-23.94,49.09C298.12,109.31,331,97.39,331,97.39s-2.19-11.32,8.64-11.32c5,5,11.15,8.22,17.75,8.22s12.73-3.21,17.76-8.22c10.83,0,8.64,11.32,8.64,11.32S419.58,110.59,434.66,150.18Z" fill="#5793ff"/><path d="M388.31,54c5.83,1.24,10.9,7.79,9.51,14.33S390,79.11,382.13,77.43l-.31-.18a49.48,49.48,0,0,0,4.79-11.36A44.2,44.2,0,0,0,388.31,54Z" fill="#fff"/><path d="M369.74,61.89A4.76,4.76,0,1,1,365,66.65,4.76,4.76,0,0,1,369.74,61.89Zm2.38,5a2.62,2.62,0,1,0-2.62,2.62A2.62,2.62,0,0,0,372.12,66.89Z" fill="#f2f2f2"/><path d="M369.5,64.27a2.62,2.62,0,1,1-2.61,2.62A2.62,2.62,0,0,1,369.5,64.27Z" fill="#333"/><path d="M345,61.89a4.76,4.76,0,1,1-4.76,4.76A4.77,4.77,0,0,1,345,61.89Zm2.85,5a2.62,2.62,0,1,0-2.62,2.62A2.62,2.62,0,0,0,347.82,66.89Z" fill="#f2f2f2"/><path d="M345.2,64.27a2.62,2.62,0,1,1-2.61,2.62A2.62,2.62,0,0,1,345.2,64.27Z" fill="#333"/><path d="M330.58,36l.37.21A36.46,36.46,0,0,0,326.39,54c-5.85-2-8.31-7.06-6.64-11.91S326.27,34.54,330.58,36Z" fill="#fff"/><path d="M298.86,197.17s0,63.12,0,85.3" fill="none" stroke="#333" stroke-linecap="round" stroke-linejoin="round"/><path d="M360,316.38c-2.13,6.22,5.24,11.26,10.52,1.61.56-1,1.17-2.05,1.82-3a61.83,61.83,0,0,1,6.34-8.25,110.14,110.14,0,0,1,14.51-13.16c3.18-2.46,5.87-4.38,7.55-5.72,5.53-4.4,22.63-17,33.94-37.71,18.59-34.08,10.5-72.35,0-99.93-15.08-39.59-50.91-52.79-50.91-52.79s2.19-11.32-8.64-11.32" fill="none" stroke="#333" stroke-linecap="round" stroke-linejoin="round"/><path d="M283,148.91C298.12,109.31,331,97.39,331,97.39s-2.19-11.32,8.64-11.32" fill="none" stroke="#333" stroke-linecap="round" stroke-linejoin="round"/><path d="M357.35,94.29c-6.6,0-12.72-3.21-17.75-8.22a46.8,46.8,0,0,1-11.5-20.18A44.22,44.22,0,0,1,326.39,54,36.46,36.46,0,0,1,331,36.24C336.39,26.48,346.18,20,357.35,20" fill="none" stroke="#333" stroke-linecap="round" stroke-linejoin="round"/><path d="M326.39,54c-5.85-2-8.31-7.06-6.64-11.91s6.52-7.58,10.83-6.09" fill="none" stroke="#333" stroke-linecap="round" stroke-linejoin="round"/><path d="M328.77,65.7s3.81-1.9,5.72-7.63c2.35-7.06,17.15-3.8,22.86-11.42" fill="none" stroke="#333" stroke-linecap="round" stroke-linejoin="round"/><path d="M340.21,72.37s3.8.95,6.7-1.17" fill="none" stroke="#333" stroke-linecap="round" stroke-linejoin="round"/><path d="M353.55,84.75a5.42,5.42,0,0,0,3.8,1.91" fill="none" stroke="#333" stroke-linecap="round" stroke-linejoin="round"/><path d="M357.35,94.29c6.61,0,12.73-3.21,17.76-8.22a43,43,0,0,0,6.71-8.82,49.48,49.48,0,0,0,4.79-11.36A44.2,44.2,0,0,0,388.31,54a36.4,36.4,0,0,0-4.55-17.79C378.32,26.48,368.53,20,357.35,20" fill="none" stroke="#333" stroke-linecap="round" stroke-linejoin="round"/><path d="M382.13,77.43c7.9,1.68,14.3-2.52,15.69-9.07S394.14,55.27,388.31,54" fill="none" stroke="#333" stroke-linecap="round" stroke-linejoin="round"/><path d="M388.31,54c5.86-2,8.32-7.06,6.65-11.91s-6.52-7.58-10.83-6.09" fill="none" stroke="#333" stroke-linecap="round" stroke-linejoin="round"/><path d="M385.94,65.7s-3.81-1.9-5.72-7.63c-2.35-7.06-17.15-3.8-22.87-11.42" fill="none" stroke="#333" stroke-linecap="round" stroke-linejoin="round"/><path d="M374.5,72.37s-3.8.95-6.7-1.17" fill="none" stroke="#333" stroke-linecap="round" stroke-linejoin="round"/><path d="M361.16,84.75a5.44,5.44,0,0,1-3.81,1.91" fill="none" stroke="#333" stroke-linecap="round" stroke-linejoin="round"/><path d="M298.07,56.18c3.17-5.81-4.74-7.86-9.17-1.66a267.75,267.75,0,0,0-15.12,24.1c-9.37,16.79-19.95,39.82-24,63.77-4.71,27.67-1.35,54,12.61,62.76,8,5,25.78,5.31,36.48-8" fill="none" stroke="#333" stroke-linecap="round" stroke-linejoin="round"/><path d="M315.77,65.4c4.45-5.22,10,.88,5.15,9.24-1.61,2.76-7.35,13-13.94,25.18-9.56,17.76-20.91,39.73-23.94,49.09" fill="none" stroke="#333" stroke-linecap="round" stroke-linejoin="round"/><path d="M299.24,54.52c-.4.58-.79,1.13-1.17,1.66a80.65,80.65,0,0,0-7.8,13.38" fill="none" stroke="#333" stroke-linecap="round" stroke-linejoin="round"/><path d="M308.29,58.35a140.37,140.37,0,0,0-9.38,15.7" fill="none" stroke="#333" stroke-linecap="round" stroke-linejoin="round"/><path d="M315.77,65.4c-3.54,5.08-5.37,9.09-7.5,12.9" fill="none" stroke="#333" stroke-linecap="round" stroke-linejoin="round"/><path d="M299.24,54.52c5.09-6.33,12.78-1.88,9.05,3.83,4.7-6.19,13.24-1.81,7.48,7.05" fill="none" stroke="#333" stroke-linecap="round" stroke-linejoin="round"/><path d="M274.15,78.82a45.62,45.62,0,0,0,32.7,20.93" fill="none" stroke="#333" stroke-linecap="round" stroke-linejoin="round"/><rect x="321.4" y="43.84" width="8.44" height="57.48" rx="2.06" transform="translate(-4.47 120.95) rotate(-20.9)" fill="#333" stroke="#333" stroke-miterlimit="10"/><path d="M298.07,56.12c.38-.54.77-1.08,1.17-1.66,5.1-6.35,12.79-1.9,9.05,3.82,4.7-6.18,13.25-1.81,7.47,7,4.47-5.21,10.05.89,5.16,9.24-1.89,3.26-7.76,13.71-15.69,28.61A46.69,46.69,0,0,1,272.08,82,218.19,218.19,0,0,1,288.9,54.46C293.33,48.25,301.24,50.31,298.07,56.12Z" fill="#f5afb3"/><path d="M272.08,82A218.19,218.19,0,0,1,288.9,54.46c4.43-6.21,12.34-4.15,9.17,1.66" fill="none" stroke="#333" stroke-linecap="round" stroke-linejoin="round"/><path d="M315.76,65.32c4.47-5.21,10.05.89,5.16,9.24-1.89,3.26-7.76,13.71-15.69,28.61" fill="none" stroke="#333" stroke-linecap="round" stroke-linejoin="round"/><path d="M299.24,54.46c-.4.58-.79,1.12-1.17,1.66a81.54,81.54,0,0,0-7.8,13.36" fill="none" stroke="#333" stroke-linecap="round" stroke-linejoin="round"/><path d="M308.29,58.28A140.5,140.5,0,0,0,298.92,74" fill="none" stroke="#333" stroke-linecap="round" stroke-linejoin="round"/><path d="M315.76,65.32a136.14,136.14,0,0,0-7.49,12.9" fill="none" stroke="#333" stroke-linecap="round" stroke-linejoin="round"/><path d="M299.24,54.46c5.1-6.35,12.79-1.9,9.05,3.82,4.7-6.18,13.25-1.81,7.47,7" fill="none" stroke="#333" stroke-linecap="round" stroke-linejoin="round"/><path d="M272.08,82a46.69,46.69,0,0,0,33.15,21.14" fill="none" stroke="#333" stroke-linecap="round" stroke-linejoin="round"/></g></svg>